<?xml version="1.0" encoding="utf-8"?>
<!-- Generator: Adobe Illustrator 23.1.1, SVG Export Plug-In . SVG Version: 6.00 Build 0)  -->
<svg version="1.1" id="Layer_1" xmlns="http://www.w3.org/2000/svg" xmlns:xlink="http://www.w3.org/1999/xlink" x="0px" y="0px"
	 viewBox="0 0 214.4 236" style="enable-background:new 0 0 214.4 236;" xml:space="preserve">
<g>
	<g>
		<g>
			<path d="M106.4,217.7c-3.1,0-6.2-0.8-9-2.4l-9.7-5.6c-2.3-1.3-5-2-7.6-2H68.9c-6.4,0-12.3-3.4-15.5-9l-5.6-9.7
				c-1.3-2.3-3.3-4.3-5.6-5.6l-9.7-5.6c-5.5-3.2-9-9.1-9-15.5v-11.2c0-2.7-0.7-5.3-2-7.6l-5.6-9.7c-3.2-5.5-3.2-12.4,0-17.9l5.6-9.7
				c1.3-2.3,2-5,2-7.6V87.2c0-6.4,3.4-12.3,9-15.5l9.7-5.6c2.3-1.3,4.3-3.3,5.6-5.6l5.6-9.7c3.2-5.5,9.1-9,15.5-9h11.2
				c2.7,0,5.3-0.7,7.6-2l9.7-5.6c5.5-3.2,12.4-3.2,17.9,0l9.7,5.6c2.3,1.3,5,2,7.6,2h11.2c6.4,0,12.3,3.4,15.5,9l5.6,9.7
				c1.3,2.3,3.3,4.3,5.6,5.6l9.7,5.6c5.5,3.2,9,9.1,9,15.5v11.2c0,2.7,0.7,5.3,2,7.6l5.6,9.7c3.2,5.5,3.2,12.4,0,17.9l-5.6,9.7
				c-1.3,2.3-2,5-2,7.6v11.2c0,6.4-3.4,12.3-9,15.5l-9.7,5.6c-2.3,1.3-4.3,3.3-5.6,5.6l-5.6,9.7c-3.2,5.5-9.1,9-15.5,9h-11.2
				c-2.7,0-5.3,0.7-7.6,2l-9.7,5.6C112.6,216.9,109.5,217.7,106.4,217.7z M68.9,44.4c-5.4,0-10.5,2.9-13.2,7.6L50,61.8
				c-1.6,2.7-3.8,5-6.6,6.6L33.7,74c-4.7,2.7-7.6,7.8-7.6,13.2v11.2c0,3.1-0.8,6.2-2.4,9l-5.6,9.7c-2.7,4.7-2.7,10.6,0,15.3l5.6,9.7
				c1.6,2.7,2.4,5.8,2.4,9v11.2c0,5.4,2.9,10.5,7.6,13.2l9.7,5.6c2.7,1.6,5,3.8,6.6,6.6l5.6,9.7c2.7,4.7,7.8,7.6,13.2,7.6H80
				c3.1,0,6.2,0.8,9,2.4l9.7,5.6c4.7,2.7,10.6,2.7,15.3,0l9.7-5.6c2.7-1.6,5.8-2.4,9-2.4h11.2c5.4,0,10.5-2.9,13.2-7.6l5.6-9.7
				c1.6-2.7,3.8-5,6.6-6.6l9.7-5.6c4.7-2.7,7.6-7.8,7.6-13.2v-11.2c0-3.1,0.8-6.2,2.4-9l5.6-9.7c2.7-4.7,2.7-10.6,0-15.3l-5.6-9.7
				c-1.6-2.7-2.4-5.8-2.4-9V87.2c0-5.4-2.9-10.5-7.6-13.2l-9.7-5.6c-2.7-1.6-5-3.8-6.6-6.6l-5.6-9.7c-2.7-4.7-7.8-7.6-13.2-7.6
				h-11.2c-3.1,0-6.2-0.8-9-2.4l-9.7-5.6c-4.7-2.7-10.6-2.7-15.3,0L89,42c-2.7,1.6-5.8,2.4-9,2.4H68.9z"/>
		</g>
		<path d="M153.9,147.3c-0.1-0.3-0.3-0.4-0.6-0.5c-13-1.3-28.7-2.2-46.7-2.2s-33.7,0.9-46.8,2.2c-0.3,0-0.5,0.2-0.6,0.5l0,0
			c-0.1,0.4,0.2,0.9,0.6,0.8c13-0.8,28.7-1.4,46.7-1.4c17.9,0,33.6,0.6,46.6,1.4C153.7,148.2,154,147.8,153.9,147.3L153.9,147.3z"/>
		<path d="M80.8,71.6c0.2,0.4,0.4,0.7,0.7,1c0.3,0.2,0.6,0.3,1.1,0.3h0.8c0.1,0,0.3,0,0.4,0s0.2,0,0.3,0.1c0.1,0.1,0.1,0.1,0.2,0.2
			s0.1,0.3,0.2,0.4c0.1,0.2,0.1,0.3,0.2,0.4c0,0.1,0.1,0.2,0,0.4c0,0.1-0.1,0.2-0.1,0.3c-0.1,0.1-0.2,0.2-0.4,0.2
			c-0.2,0.1-0.5,0.1-0.6,0c-0.2-0.1-0.3-0.2-0.4-0.4l-0.1-0.3l-1,0.4l0.2,0.4c0.1,0.2,0.2,0.4,0.4,0.6c0.2,0.2,0.4,0.3,0.6,0.4
			s0.4,0.1,0.7,0.1c0.2,0,0.5-0.1,0.7-0.2c0.3-0.1,0.6-0.3,0.7-0.5s0.3-0.4,0.3-0.6c0.1-0.2,0.1-0.5,0-0.7c0-0.3-0.1-0.5-0.3-0.8
			c-0.1-0.2-0.2-0.5-0.3-0.6c-0.1-0.2-0.2-0.3-0.4-0.5c-0.1-0.1-0.3-0.2-0.5-0.3c-0.2-0.1-0.4-0.1-0.7-0.1h-0.9c-0.1,0-0.3,0-0.4,0
			S82,71.7,82,71.7c-0.1-0.1-0.1-0.1-0.2-0.2c0-0.1-0.1-0.2-0.2-0.3c0-0.1-0.1-0.2-0.1-0.3c0-0.1,0-0.2,0-0.3c0-0.1,0.1-0.2,0.1-0.3
			c0.1-0.1,0.2-0.2,0.3-0.2c0.2-0.1,0.5-0.1,0.6,0c0.2,0.1,0.3,0.3,0.4,0.5l0.1,0.2l1-0.4l0-0.5c-0.2-0.4-0.5-0.7-0.9-0.9
			c-0.2-0.1-0.4-0.1-0.7-0.1c-0.2,0-0.5,0-0.7,0.2c-0.3,0.1-0.5,0.3-0.7,0.5s-0.3,0.4-0.3,0.6c-0.1,0.2-0.1,0.5-0.1,0.7
			C80.7,71.1,80.7,71.4,80.8,71.6z M80.4,77.9L79.9,77l-1.8,1L77,76.1l1.6-0.9l-0.5-0.9l-1.6,0.9l-1.1-1.9l1.8-1l-0.5-0.9L74.1,73
			l3.6,6.4L80.4,77.9z M128.8,72.2l0.2-4.1l-0.9-0.4l-2.8,6.8l1,0.4l1.7-4.2l0,0l-0.2,3.3l0.5,0.2l2.2-2.5l0,0l-1.7,4.2l1,0.4
			l2.8-6.8l-1-0.4L128.8,72.2L128.8,72.2z M132.7,77.8l0.9,0.5l3.5-6.5l-0.9-0.5L132.7,77.8z M142.6,75.2l-3.1,4.7
			c-0.1,0.2-0.3,0.3-0.5,0.4c-0.2,0-0.3,0-0.5-0.1s-0.3-0.2-0.3-0.4c0-0.2,0-0.4,0.2-0.6l3.1-4.7l-0.9-0.6l-3.2,4.8
			c-0.1,0.2-0.2,0.4-0.3,0.6c0,0.2,0,0.4,0,0.7c0,0.2,0.1,0.4,0.2,0.6c0.1,0.2,0.3,0.3,0.5,0.5c0.2,0.1,0.4,0.2,0.6,0.3
			c0.2,0,0.4,0,0.7,0c0.2,0,0.4-0.1,0.6-0.3c0.2-0.1,0.3-0.3,0.5-0.5l3.2-4.8L142.6,75.2z M71.6,82.3c0.2,0.1,0.4,0.2,0.6,0.2
			s0.4,0,0.7,0c0.2,0,0.4-0.1,0.6-0.3c0.2-0.1,0.3-0.3,0.5-0.5c0.1-0.2,0.2-0.4,0.2-0.6s0-0.4,0-0.7c0-0.2-0.1-0.4-0.3-0.6l-3.3-4.7
			l-0.9,0.6l3.3,4.6c0.2,0.2,0.2,0.4,0.2,0.6s-0.1,0.3-0.3,0.4c-0.2,0.1-0.3,0.1-0.5,0.1s-0.3-0.2-0.5-0.4l-3.3-4.6L67.7,77l3.3,4.7
			C71.3,82,71.5,82.2,71.6,82.3z M68.8,84.6c-0.1-0.2-0.2-0.5-0.4-0.7L65.8,81c-0.2-0.2-0.4-0.4-0.6-0.5s-0.5-0.2-0.7-0.2
			s-0.4,0.1-0.7,0.1c-0.2,0.1-0.4,0.2-0.6,0.3c-0.2,0.1-0.3,0.3-0.4,0.5c-0.1,0.2-0.2,0.4-0.2,0.6s0,0.5,0.1,0.7s0.2,0.5,0.4,0.7
			l2.6,2.9c0.2,0.2,0.4,0.4,0.7,0.5c0.2,0.1,0.5,0.1,0.7,0.1s0.4,0,0.6-0.1s0.4-0.2,0.6-0.3c0.3-0.3,0.5-0.6,0.6-1h0.8v-0.8
			L68.8,84.6z M67.6,85.6c-0.1,0.1-0.3,0.2-0.5,0.2s-0.4-0.1-0.5-0.3L64,82.7c-0.2-0.2-0.2-0.4-0.2-0.6s0.1-0.3,0.3-0.5
			c0.1-0.1,0.3-0.2,0.5-0.2s0.4,0.1,0.5,0.3l2.6,2.9l0,0h-0.5v0.8h0.6C67.7,85.5,67.7,85.6,67.6,85.6z M91.9,72.9
			c0.1-0.2,0.2-0.4,0.2-0.6s0-0.5-0.1-0.8l-1.1-3.7c-0.1-0.3-0.2-0.5-0.4-0.7c-0.2-0.2-0.4-0.3-0.6-0.4s-0.4-0.1-0.6-0.1
			s-0.4,0-0.6,0.1s-0.4,0.2-0.6,0.3c-0.2,0.1-0.3,0.3-0.4,0.5s-0.2,0.4-0.2,0.7c0,0.2,0,0.5,0.1,0.8l1.1,3.7
			c0.1,0.3,0.2,0.5,0.4,0.7c0.2,0.2,0.4,0.3,0.6,0.4s0.4,0.2,0.6,0.2s0.4,0,0.6-0.1s0.4-0.2,0.6-0.3C91.6,73.2,91.7,73.1,91.9,72.9z
			 M91,72.3c-0.1,0.2-0.2,0.3-0.4,0.3c-0.2,0.1-0.4,0-0.5,0c-0.2-0.1-0.3-0.2-0.4-0.5l-1.1-3.7c-0.1-0.2-0.1-0.4,0-0.6
			s0.2-0.3,0.4-0.3c0.2-0.1,0.4,0,0.5,0c0.2,0.1,0.3,0.2,0.4,0.5l1.1,3.7C91.1,72,91.1,72.2,91,72.3z M122.5,73.6l0.3-1l-2-0.6
			l0.6-2.1l1.8,0.5l0.3-1l-1.8-0.5l0.6-2.1l2,0.6l0.3-1l-3-0.8l-2,7.1L122.5,73.6z M115.5,71.9l1.1,0.2l-0.6-3.5
			c0.4-0.1,0.6-0.3,0.8-0.6c0.2-0.3,0.3-0.6,0.4-1.1c0.2-1.4-0.3-2.2-1.5-2.4l-1.7-0.3l-1.1,7.3l1,0.2l0.5-3.1l0.6,0.1L115.5,71.9z
			 M114.8,65.4l0.5,0.1c0.4,0.1,0.6,0.2,0.7,0.4c0,0.1,0.1,0.2,0.1,0.4s0,0.3,0,0.5s-0.1,0.3-0.1,0.5c0,0.1-0.1,0.3-0.2,0.3
			c-0.1,0.1-0.2,0.1-0.3,0.2c-0.1,0-0.3,0-0.5,0l-0.6-0.1L114.8,65.4z M107.5,68.3h0.5c0.4,0,0.7,0,1-0.2c0.2-0.1,0.4-0.3,0.6-0.6
			c0.1-0.2,0.2-0.4,0.3-0.6c0-0.2,0.1-0.5,0.1-0.8c0-0.4,0-0.8-0.1-1.1c-0.1-0.3-0.2-0.5-0.4-0.7c-0.2-0.2-0.4-0.3-0.6-0.4
			s-0.5-0.1-0.8-0.1h-1.6l-0.2,7.4h1.1L107.5,68.3z M107.6,64.8h0.6c0.2,0,0.4,0,0.5,0.1s0.2,0.2,0.2,0.3c0.1,0.1,0.1,0.3,0.1,0.4
			c0,0.2,0,0.3,0,0.5s0,0.4,0,0.5c0,0.2-0.1,0.3-0.1,0.4c-0.1,0.1-0.1,0.2-0.3,0.3c-0.1,0.1-0.3,0.1-0.5,0.1h-0.5L107.6,64.8z
			 M95.9,71.8c0.2,0.1,0.4,0.2,0.6,0.3c0.2,0,0.5,0.1,0.7,0c0.3-0.1,0.6-0.2,0.8-0.3c0.2-0.2,0.4-0.3,0.5-0.6
			c0.1-0.2,0.2-0.5,0.2-0.7c0-0.3,0-0.6-0.1-0.9c0-0.3-0.1-0.5-0.2-0.7s-0.2-0.4-0.3-0.5c-0.1-0.1-0.2-0.3-0.4-0.4
			c-0.2-0.1-0.4-0.2-0.6-0.2l-0.9-0.2c-0.1,0-0.3-0.1-0.4-0.1s-0.2-0.1-0.2-0.2c-0.1-0.1-0.1-0.1-0.1-0.2s-0.1-0.2-0.1-0.4
			c0-0.1,0-0.2,0-0.4s0-0.2,0.1-0.3c0-0.1,0.1-0.2,0.2-0.2c0.1-0.1,0.2-0.1,0.3-0.1c0.3,0,0.5,0,0.6,0.2s0.2,0.3,0.3,0.6v0.2l1-0.2
			L98,66c-0.1-0.4-0.3-0.8-0.7-1c-0.2-0.1-0.4-0.2-0.6-0.3c-0.2-0.1-0.5-0.1-0.7,0c-0.3,0.1-0.6,0.2-0.8,0.3
			c-0.2,0.1-0.4,0.3-0.5,0.5s-0.2,0.4-0.2,0.7c0,0.3,0,0.5,0,0.8c0.1,0.5,0.2,0.8,0.4,1.1c0.2,0.3,0.6,0.5,1,0.6l0.8,0.2
			c0.1,0,0.3,0.1,0.3,0.1c0.1,0,0.2,0.1,0.2,0.2c0.1,0.1,0.1,0.2,0.1,0.3c0,0.1,0.1,0.3,0.1,0.5s0.1,0.3,0.1,0.4s0,0.3,0,0.4
			s-0.1,0.2-0.2,0.3c0.1-0.1-0.1-0.1-0.3,0c-0.3,0-0.5,0-0.6-0.1s-0.2-0.3-0.3-0.5L96,70.2l-1,0.2l0.1,0.4c0,0.2,0.1,0.5,0.3,0.7
			C95.5,71.6,95.7,71.7,95.9,71.8z M149.7,80.7l-3.6,2.1l0,0l1.5-3.9l-0.8-0.7l-4.8,5.6l0.8,0.7l2.9-3.4l0,0l-1.3,3.1l0.4,0.3
			l2.9-1.7l0,0l-2.9,3.4l0.8,0.7l4.8-5.6L149.7,80.7z"/>
		<path d="M154,102.9c0.1-0.4-0.2-0.9-0.6-0.8c-13,0.8-28.8,1.4-46.8,1.4s-33.7-0.6-46.8-1.4c-0.5,0-0.8,0.4-0.6,0.8l0,0
			c0.1,0.2,0.3,0.4,0.6,0.4c13.1,1.3,28.8,2.2,46.9,2.2c18,0,33.8-0.9,46.9-2.2C153.7,103.4,153.9,103.2,154,102.9L154,102.9z"/>
		<g>
			<g>
				<path d="M70.9,171.8l6.3-7.1l1,0.5l-2.7,9.1l-1.2-0.6l0.6-1.9l-1.6-0.9l-1.3,1.6L70.9,171.8z M75.4,170.6l1.1-3.3l0,0l-2.2,2.6
					L75.4,170.6z"/>
				<path d="M79.1,176.1l3.5-8.6l2,0.8c1.5,0.6,1.8,1.7,1.2,3.4c-0.2,0.5-0.5,0.9-0.8,1.2s-0.7,0.5-1.2,0.5l-0.3,4.5l-1.3-0.5
					l0.3-4.1l-0.7-0.3l-1.5,3.7L79.1,176.1z M83.4,169.1l-1.1,2.7l0.7,0.3c0.2,0.1,0.4,0.1,0.6,0.1s0.3-0.1,0.4-0.1
					c0.1-0.1,0.2-0.2,0.3-0.4c0.1-0.2,0.2-0.3,0.3-0.6s0.2-0.4,0.2-0.6c0-0.2,0.1-0.3,0-0.5c-0.1-0.3-0.3-0.5-0.7-0.7L83.4,169.1z"
					/>
				<path d="M88,179.3l2.1-7.8l-1.5-0.4l0.3-1.2l4.3,1.2l-0.3,1.2l-1.5-0.4l-2.1,7.8L88,179.3z"/>
				<path d="M94.5,180.8l1.4-9.2l3.9,0.6l-0.2,1.2L97,173l-0.4,2.7l2.3,0.4l-0.2,1.2l-2.3-0.4l-0.4,2.7l2.6,0.4l-0.2,1.3L94.5,180.8
					z"/>
				<path d="M107.1,175.3h-1.3V175c0-0.3-0.1-0.6-0.2-0.8s-0.4-0.3-0.7-0.3c-0.2,0-0.3,0-0.4,0.1s-0.2,0.2-0.3,0.3
					c-0.1,0.1-0.1,0.2-0.2,0.4c0,0.1,0,0.3,0,0.4c0,0.2,0,0.3,0,0.5c0,0.1,0,0.2,0.1,0.3s0.1,0.2,0.2,0.3s0.2,0.1,0.4,0.2l1,0.4
					c0.3,0.1,0.5,0.3,0.7,0.4c0.2,0.2,0.3,0.3,0.4,0.5s0.2,0.4,0.2,0.7s0,0.6,0,0.9c0,0.4-0.1,0.8-0.1,1.1c-0.1,0.3-0.2,0.6-0.4,0.8
					c-0.2,0.2-0.4,0.4-0.7,0.6c-0.3,0.1-0.7,0.2-1.1,0.2c-0.3,0-0.6-0.1-0.9-0.2c-0.3-0.1-0.5-0.3-0.7-0.5s-0.3-0.4-0.5-0.7
					c-0.1-0.3-0.2-0.6-0.2-0.9v-0.5h1.3v0.4c0,0.2,0.1,0.5,0.2,0.7s0.4,0.3,0.7,0.3c0.2,0,0.4,0,0.5-0.1s0.2-0.2,0.3-0.3
					c0.1-0.1,0.1-0.3,0.1-0.4c0-0.2,0-0.4,0-0.6c0-0.2,0-0.4,0-0.6c0-0.2,0-0.3-0.1-0.4c-0.1-0.1-0.1-0.2-0.2-0.2
					c-0.1-0.1-0.2-0.1-0.4-0.2l-0.9-0.4c-0.6-0.2-0.9-0.6-1.1-1s-0.3-0.9-0.3-1.5c0-0.3,0.1-0.7,0.2-1s0.3-0.6,0.4-0.8
					c0.2-0.2,0.4-0.4,0.7-0.5c0.3-0.1,0.6-0.2,1-0.2c0.3,0,0.6,0.1,0.9,0.2c0.3,0.1,0.5,0.3,0.7,0.5c0.4,0.4,0.6,0.9,0.6,1.5
					L107.1,175.3z"/>
				<path d="M110.7,181.7l1-9.5l1.1-0.1l3.1,9l-1.3,0.2l-0.6-1.9l-1.8,0.2l-0.2,2L110.7,181.7z M113.6,178.1l-1-3.3l0,0l-0.3,3.4
					L113.6,178.1z"/>
				<path d="M119.9,180.4l-2.3-9l1.2-0.3l3.3,4.9l0,0l-1.4-5.4l1.3-0.3l2.3,9l-1.2,0.3l-3.4-4.9l0,0l1.4,5.4L119.9,180.4z"/>
				<path d="M128.1,178l-1.5-9.4l1-0.4l5.4,7.9l-1.2,0.5l-1.1-1.7l-1.7,0.7l0.4,2L128.1,178z M130,173.8l-1.9-2.9l0,0l0.6,3.4
					L130,173.8z"/>
				<path d="M136.5,174.4l-4.4-8.2l1.2-0.6l3.8,7l2.3-1.3l0.6,1.2L136.5,174.4z"/>
			</g>
		</g>
		<path d="M106.3,133.1c0-0.3-0.1-0.6-0.1-0.9v-15.4c0.1-0.9,0.6-1.7,1.3-1.6v-0.1H106c-0.1,0.2-0.1,0.4-0.1,0.6v15.4
			C105.8,131.9,106,132.6,106.3,133.1z M46.1,120.4l-0.4-1.2V132c0,0.4,0.2,0.8,0.4,0.9V120.4z M57,115.7v16.2c0,0.4,0.2,0.8,0.4,1
			l0,0v-16.1c0-0.9,0.6-1.7,1.3-1.7V115h-1.6C57,115.2,57,115.5,57,115.7z M46.4,135.3h-4.6c-0.2,0.3-0.5,0.5-0.9,0.5v0.1h6.5
			l-0.1-0.1C47,135.8,46.7,135.6,46.4,135.3z M57.8,135.3h-4.9l0.1,0.2c-0.2,0.2-0.4,0.3-0.7,0.3l-0.1,0.1h6.5v-0.1
			C58.3,135.8,58,135.6,57.8,135.3z M132.8,127c0.7,0,1.6-0.5,2.4-1.3c1.2-1.2,1.5-2.5,1.5-4.4c0-1.1-0.2-2.1-0.6-3
			c0.1,0.6,0.2,1.2,0.2,1.8c0,1.9-0.3,3.4-1.6,4.8c-0.8,0.8-1.8,1.4-2.6,1.4l0.4,0.7C132.6,127,132.7,127,132.8,127z M168.8,133.2
			v-16.7c0.1-0.8,0.6-1.5,1.2-1.4V115h-1.6c0,0.1-0.1,0.3-0.1,0.4v17C168.4,132.8,168.5,133.1,168.8,133.2L168.8,133.2z M129,115.1
			h-2.7c-0.1,0.2-0.1,0.4-0.1,0.6v11.6c0.1-0.1,0.3-0.1,0.4-0.2v-10.2c0-0.6,0.3-1.1,0.7-1.4h1.7c0.1,0,0.3,0,0.4,0
			C129.2,115.3,129.1,115.1,129,115.1z M126.6,129.2v-0.8l-0.4,0.2v4.3c0,0.5,0.2,0.8,0.4,1v-4.5l1.2-0.6l-0.1-0.2
			C126.7,129.2,126.6,129.2,126.6,129.2z M116.3,115.5v12.7c0,2.4-0.7,4.3-2.1,5.5c-0.7,0.7-1.5,1.1-2.5,1.5
			c-1.2,0.4-2.7,0.5-3.7,0.4c-1.3-0.1-2.4-0.3-3.3-0.7c1.2,0.9,2.8,1.4,4.8,1.4c2.3,0,4-0.6,5.3-1.8s1.9-2.9,1.9-5.2v-12.8
			c0.1-0.8,0.6-1.5,1.2-1.4l0.1-0.1h-1.6C116.3,115.2,116.3,115.3,116.3,115.5z M137.5,135.3h-4.6c0,0.3-0.2,0.5-0.6,0.5v0.1h6.5
			l-0.1-0.1C138.3,135.8,137.9,135.6,137.5,135.3z M126.9,135.3h-4.6c-0.2,0.3-0.5,0.5-0.9,0.5v0.1h6.5l-0.1-0.1
			C127.5,135.8,127.2,135.6,126.9,135.3z M177.6,134.3c0,0.3-0.1,0.5-0.3,0.7l-0.3,0.2c-0.3,0.2-0.7,0.3-1.2,0.3h-6.4
			c-0.1-0.1-0.2-0.2-0.3-0.3h-4.6c-0.2,0.3-0.5,0.5-0.9,0.5l-0.1,0.1h14.2v-1.7L177.6,134.3z M97.6,115.9c0.2,0.2,0.3,0.4,0.3,0.7
			l0.1,0.1v-1.6h-0.4V115.9z M83.8,116.7L83.8,116.7c0-0.8,0.8-1.3,1.9-1.3h0.8v-0.3h-2.7C83.8,115.1,83.8,116.7,83.8,116.7z
			 M95.2,115.1h-2.8v16.6c0,0.6,0.2,0.9,0.4,1.1l0,0v-17.5h2.3c0.1,0,0.2,0,0.4,0C95.4,115.3,95.4,115.2,95.2,115.1
			C95.3,115.1,95.2,115.1,95.2,115.1z M93.2,135.3h-4.6c-0.2,0.3-0.5,0.5-0.9,0.5v0.1h6.5l-0.1-0.1
			C93.7,135.8,93.4,135.6,93.2,135.3z M69,118.4l-0.2-0.5l-3.4,10.6l0.4-0.1C67.1,124.4,68.2,120.9,69,118.4z M80.2,135.2h-1h-3.6
			c-0.1,0.3-0.4,0.5-0.7,0.5l-0.1,0.1h5.3h1.3l-0.1-0.1C80.9,135.8,80.5,135.7,80.2,135.2z M65.2,130.5c0.1-0.2,0.1-0.4,0.2-0.6
			L65,130l-1.1,3.3l-0.2,0.6c0,0.1,0,0.1-0.1,0.2c0,0,0,0,0.1,0H64c0.3-0.9,0.6-2,1.1-3.3l7-1.6L72,129L65.2,130.5z M63.9,135.3
			h-1.1c-0.3,0.3-0.7,0.5-1,0.5l-0.1,0.1h3l-0.1-0.1C64.3,135.8,64,135.6,63.9,135.3z M148.1,118.4l-0.2-0.5l-3.4,10.6l0.4-0.1
			C146.2,124.4,147.3,120.9,148.1,118.4z M159.2,135.2h-1h-3.6c-0.1,0.3-0.4,0.5-0.7,0.5l-0.1,0.1h5.3h1.3l-0.1-0.1
			C160,135.8,159.6,135.7,159.2,135.2z M144.2,130.5c0.1-0.2,0.1-0.4,0.2-0.6L144,130l-1.1,3.3l-0.2,0.6c0,0.1,0,0.1-0.1,0.2
			c0,0,0,0,0.1,0h0.3c0.3-0.9,0.6-2,1.1-3.3l7-1.6l-0.1-0.3L144.2,130.5z M143,135.3h-1.1c-0.3,0.3-0.7,0.5-1,0.5l-0.1,0.1h3
			l-0.1-0.1C143.4,135.8,143.1,135.6,143,135.3z"/>
		<path d="M82.1,115.5l0.4-0.2v-0.1c0-0.2,0.1-0.4,0.2-0.6c0.3-0.3,0.9-0.5,1.4-0.5h3.1v18.6c-0.1,0.9-0.6,1.6-1.1,1.5H86l-0.1,0.4
			h6.9l-0.2-0.4h-0.1c-0.2,0-0.4-0.1-0.6-0.2c-0.3-0.3-0.5-0.8-0.5-1.4v-18.5h3.1c0.6,0,1.1,0.2,1.4,0.5c0.2,0.2,0.3,0.4,0.2,0.6
			v0.1l0.4,0.2v-2H82.1V115.5z M79.8,134.2c-0.6,0.1-1.1,0-1.7-1.7l-0.2-0.5l-6.2-19.3l-0.2,0.2c-0.5,0.5-0.7,0.7-3.1,0.7h-0.1h-0.2
			l-5.9,18.3l-0.2,0.6c-0.4,1-1.2,1.8-1.7,1.8h-0.1l-0.2,0.4h3.4l-0.2-0.4h-0.1c-0.2,0-0.3,0-0.4-0.2c-0.2-0.2-0.3-0.5-0.2-0.9
			c0.1-0.3,0.2-0.8,0.4-1.2c0.2-0.7,0.5-1.5,0.8-2.4l8.8-2l1.6,5.3c0.1,0.6,0.1,1-0.1,1.2c-0.1,0.1-0.3,0.2-0.5,0.2h-0.1l-0.2,0.4
			h5.5h1.5L79.8,134.2L79.8,134.2z M63.8,128.9c0.8-2.6,4-12.2,4.6-14.5l3.8,12.6L63.8,128.9z M56.5,114.1c0.2-0.2,0.4-0.2,0.6-0.2
			h0.1l0.1-0.4h-6.9l0.2,0.4h0.1c0.2,0,0.4,0,0.6,0.2c0.3,0.3,0.5,0.8,0.5,1.3v17.7l-0.1,0.2c-0.7-2.1-2.7-7.8-4.3-12.4
			c-1-3-1.9-5.6-2.3-6.7c0.2-0.2,0.4-0.3,0.6-0.3h0.1l0.2-0.4h-6.9l0.1,0.4h0.1c0.5-0.1,1,0.5,1.1,1.4v17.6
			c-0.1,0.8-0.6,1.4-1.1,1.4h-0.1l-0.1,0.4H46l-0.2-0.4h-0.1c-0.5,0-1-0.6-1.1-1.5v-17.4c0-0.1,0-0.3,0.1-0.4l6.6,19.1
			c-0.2,0.1-0.3,0.2-0.6,0.2h-0.1l-0.2,0.4h6.9l-0.1-0.4h-0.1c-0.2,0-0.4-0.1-0.6-0.2c-0.3-0.3-0.5-0.8-0.5-1.3v-17.2
			C56,114.9,56.2,114.4,56.5,114.1z M137.1,134.3c-0.5,0-1.4-0.5-1.9-1.3l-4.4-7.2c0.2,0,0.3,0,0.5,0c0.7,0,1.6-0.5,2.5-1.3
			c1.3-1.3,1.5-2.6,1.5-4.5s-0.6-3.4-1.7-4.6c-1.2-1.2-2.8-1.8-4.9-1.8h-8.9l0.1,0.4h0.1c0.5-0.1,1,0.5,1.1,1.3v17.8
			c-0.1,0.8-0.6,1.3-1.1,1.3h-0.1l-0.1,0.4h6.9l-0.2-0.4h-0.1c-0.6,0-1-0.6-1.1-1.5v-4.6l2.2-1.1l3.5,5.7c0.3,0.6,0.4,1.1,0.3,1.3
			c-0.1,0.1-0.2,0.2-0.4,0.2h-0.1v0.4h6.9L137.1,134.3L137.1,134.3z M125.1,127.6v-12.2c0-0.5,0.2-1,0.6-1.3h2.4
			c0.9,0,1.6,0.5,2,1.5c0.5,1,0.8,2.5,0.8,4.2c0,2-0.2,3.5-0.7,4.6C129.8,125.2,126.6,126.9,125.1,127.6z M175.8,132.9L175.8,132.9
			c0,0.3,0,0.5-0.2,0.7c-0.3,0.3-0.9,0.6-1.4,0.6h-6.3c-0.3-0.2-0.5-0.7-0.6-1.1v-17.8c0.1-0.8,0.6-1.3,1.1-1.3h0.1l0.1-0.4h-6.9
			l0.2,0.4h0.1c0.2,0,0.4,0,0.5,0.2c0.3,0.3,0.5,0.8,0.6,1.3v17.3c-0.1,0.9-0.5,1.5-1.1,1.5l0,0h-0.1l-0.2,0.4h14.5v-2L175.8,132.9z
			 M158.8,134.2c-0.6,0.1-1.1,0-1.7-1.7l-0.2-0.5l-6.1-19.1l-0.1-0.2l-0.2,0.2c-0.5,0.5-0.7,0.7-3.1,0.7h-0.1h-0.2l-5.9,18.3
			l-0.2,0.6c-0.4,1-1.1,1.8-1.7,1.8l0,0h-0.1l-0.2,0.4h3.4l-0.2-0.4h-0.1c-0.2,0-0.3,0-0.4-0.2c-0.2-0.2-0.3-0.5-0.2-0.9
			c0.1-0.3,0.2-0.8,0.4-1.2c0.2-0.7,0.5-1.5,0.8-2.4l8.8-2l1.6,5.3c0.1,0.6,0.1,1-0.1,1.2c-0.1,0.1-0.3,0.2-0.5,0.2h-0.1l-0.2,0.4
			h5.5h1.5L158.8,134.2L158.8,134.2z M142.8,128.9c0.8-2.6,4-12.2,4.6-14.5l3.8,12.6L142.8,128.9z M109.9,113.9L109.9,113.9
			c0.3,0,0.5,0,0.6,0.2c0.3,0.3,0.5,0.7,0.6,1.3v15.4c0,1.2-0.3,2-0.8,2.6s-1.3,0.9-2.3,0.9s-1.7-0.3-2.3-0.9
			c-0.5-0.6-0.8-1.5-0.8-2.6v-15.4c0-0.5,0.2-1,0.5-1.3c0.2-0.1,0.4-0.2,0.6-0.2h0.1l0.1-0.4h-6.9l0.2,0.4h0.1
			c0.5-0.1,1,0.5,1.1,1.3V128c0,2.3,0.6,4,1.9,5.3c1.3,1.2,3.1,1.8,5.4,1.8c2.4,0,4.1-0.6,5.4-1.8s1.9-2.9,1.9-5.3v-12.7
			c0.1-0.8,0.6-1.3,1.1-1.3h0.1l0.2-0.4h-7L109.9,113.9z"/>
	</g>
</g>
</svg>
