<?xml version="1.0" encoding="utf-8"?>
<!-- Generator: Adobe Illustrator 23.1.1, SVG Export Plug-In . SVG Version: 6.00 Build 0)  -->
<svg version="1.1" id="Layer_1" xmlns="http://www.w3.org/2000/svg" xmlns:xlink="http://www.w3.org/1999/xlink" x="0px" y="0px"
	 viewBox="0 0 214.4 236" style="enable-background:new 0 0 214.4 236;" xml:space="preserve">
<g>
	<g>
		<g>
			<path d="M78.3,190.3l-3.8-2L68,200.2l-3.8-2l6.5-11.9l-3.8-2l1.8-3.3l11.3,6.1L78.3,190.3z"/>
			<path d="M83.2,203.7c-0.2,0.7-0.7,1.2-1.3,1.5c-0.6,0.3-1.3,0.4-2,0.1c-0.7-0.2-1.1-0.7-1.5-1.3c-0.3-0.6-0.4-1.3-0.1-2
				c0.2-0.7,0.7-1.2,1.3-1.5c0.6-0.3,1.3-0.3,2-0.1s1.2,0.7,1.5,1.3C83.4,202.4,83.4,203,83.2,203.7z"/>
			<path d="M103.3,210.3l-4.4-0.7l-0.4-2.7l-5.3-0.8l-1.2,2.4l-4.4-0.7l8.9-16.2l3.3,0.5L103.3,210.3z M98,203.2l-0.7-4.8l-2.3,4.3
				L98,203.2z"/>
			<path d="M113.9,207.6c0,0.7-0.2,1.3-0.7,1.8s-1.1,0.8-1.8,0.8c-0.7,0-1.3-0.2-1.8-0.7s-0.8-1.1-0.8-1.8s0.2-1.3,0.7-1.8
				s1.1-0.8,1.8-0.8c0.7,0,1.3,0.2,1.8,0.7S113.9,206.9,113.9,207.6z"/>
			<path d="M131.3,206c-1,1.5-2.5,2.4-4.4,2.7s-3.6,0-5.1-1.1c-0.9-0.7-1.6-1.6-2.1-2.8c-0.3-0.7-0.5-1.9-0.8-3.6
				c-0.3-1.7-0.5-3-0.5-3.7c0-1.3,0.3-2.4,1-3.4c1.1-1.5,2.5-2.4,4.4-2.8c1.9-0.3,3.6,0,5.1,1.1l-2.3,3.3c-0.7-0.5-1.4-0.7-2.1-0.6
				c-0.7,0.1-1.2,0.5-1.5,1c-0.3,0.6-0.3,2.1,0.1,4.3c0.4,2.3,0.9,3.6,1.4,4.1c0.5,0.4,1,0.6,1.8,0.4c0.7-0.1,1.3-0.5,1.8-1.3
				L131.3,206z"/>
			<path d="M141.4,201.9c0.2,0.7,0.2,1.3-0.1,2c-0.3,0.6-0.8,1.1-1.5,1.3s-1.3,0.2-2-0.1c-0.6-0.3-1.1-0.8-1.3-1.5s-0.2-1.3,0.1-2
				c0.3-0.6,0.8-1.1,1.5-1.3s1.3-0.2,2,0.1C140.7,200.7,141.2,201.2,141.4,201.9z"/>
			<path d="M157.4,194.8c-0.5,1.7-1.6,3.1-3.3,4s-3.4,1.1-5.2,0.6c-1.1-0.3-2.1-1-2.9-2c-0.5-0.6-1.1-1.6-2-3.2
				c-0.8-1.6-1.4-2.7-1.6-3.4c-0.4-1.2-0.5-2.4-0.1-3.5c0.5-1.8,1.6-3.1,3.3-4s3.4-1.1,5.1-0.6l-1.1,3.8c-0.9-0.3-1.6-0.2-2.2,0.1
				c-0.6,0.4-1,0.8-1.1,1.4c-0.1,0.7,0.4,2.1,1.5,4.1s2,3.2,2.6,3.5s1.2,0.2,1.8-0.1s1-0.9,1.3-1.8L157.4,194.8z"/>
		</g>
		<g>
			<path d="M160.3,178.5c-0.3,0-0.7-0.1-0.9-0.4c-0.5-0.5-0.4-1.3,0.1-1.8c16.2-14.3,25.5-34.9,25.5-56.4c0-18.1-6.5-35.6-18.3-49.2
				c-0.5-0.5-0.4-1.3,0.1-1.8s1.3-0.4,1.8,0.1c12.2,14.1,19,32.2,19,50.9c0,22.3-9.6,43.5-26.3,58.3
				C160.8,178.4,160.5,178.5,160.3,178.5z"/>
		</g>
		<g>
			<path d="M57.9,177.5c-0.3,0-0.6-0.1-0.8-0.3C41.1,162.5,32,141.6,32,120c0-19.9,7.5-38.9,21.2-53.4c0.5-0.5,1.3-0.5,1.8-0.1
				c0.5,0.5,0.5,1.3,0.1,1.8c-13.2,14-20.5,32.4-20.5,51.7c0,21,8.9,41.2,24.3,55.4c0.5,0.5,0.5,1.3,0.1,1.8
				C58.5,177.3,58.2,177.5,57.9,177.5z"/>
		</g>
		<g>
			<g>
				<path d="M62,57.4l-0.9,0.7l-0.2-0.2c-0.2-0.2-0.4-0.3-0.6-0.4c-0.2-0.1-0.4,0-0.7,0.2c-0.1,0.1-0.2,0.2-0.2,0.3s-0.1,0.2,0,0.3
					c0,0.1,0.1,0.2,0.1,0.3c0.1,0.1,0.1,0.2,0.2,0.3c0.1,0.1,0.2,0.2,0.3,0.3s0.2,0.1,0.2,0.2c0.1,0,0.2,0.1,0.3,0
					c0.1,0,0.2,0,0.4-0.1l0.9-0.3c0.3-0.1,0.5-0.1,0.7-0.1s0.4,0,0.6,0.1c0.2,0.1,0.4,0.2,0.5,0.4c0.2,0.2,0.3,0.4,0.5,0.6
					c0.2,0.3,0.4,0.5,0.5,0.8s0.2,0.5,0.2,0.8s0,0.5-0.2,0.8c-0.1,0.3-0.3,0.5-0.6,0.7c-0.2,0.2-0.5,0.3-0.7,0.4
					c-0.3,0.1-0.5,0.1-0.7,0.1s-0.5-0.1-0.7-0.2c-0.2-0.1-0.4-0.3-0.6-0.5L61,62.6l0.9-0.7l0.2,0.3c0.1,0.2,0.3,0.3,0.5,0.3
					c0.2,0.1,0.4,0,0.7-0.2c0.2-0.1,0.3-0.2,0.3-0.4c0-0.1,0.1-0.2,0-0.4c0-0.1-0.1-0.2-0.2-0.4s-0.2-0.3-0.3-0.4
					c-0.1-0.2-0.3-0.3-0.3-0.4c-0.1-0.1-0.2-0.2-0.3-0.2s-0.2,0-0.3,0s-0.2,0-0.4,0.1l-0.9,0.3c-0.5,0.2-1,0.2-1.3,0s-0.7-0.4-1-0.8
					c-0.2-0.2-0.3-0.5-0.4-0.8c-0.1-0.3-0.2-0.5-0.2-0.8s0.1-0.5,0.2-0.8c0.1-0.2,0.3-0.5,0.6-0.7c0.2-0.2,0.5-0.3,0.7-0.4
					c0.3-0.1,0.5-0.1,0.8-0.1c0.5,0.1,0.9,0.3,1.2,0.6L62,57.4z"/>
				<path d="M68.7,59.7L64.1,53l1-0.7l4.6,6.8L68.7,59.7z"/>
				<path d="M72.9,57L69,49.9l1-0.5l3.9,3.5l0,0l-2.4-4.3l1-0.6l3.9,7.1l-1,0.5l-3.9-3.4l0,0l2.4,4.3L72.9,57z"/>
				<path d="M84.1,51.7l-0.9-8.3l0.9-0.3l4.3,7.2l-1.1,0.4l-0.9-1.6l-1.5,0.5l0.2,1.8L84.1,51.7z M85.9,48.1l-1.5-2.6l0,0l0.4,3
					L85.9,48.1z"/>
				<path d="M90.3,43.3c-0.1-0.3-0.1-0.6,0-0.9c0.1-0.3,0.2-0.5,0.3-0.7c0.1-0.2,0.3-0.4,0.5-0.5s0.4-0.2,0.7-0.3
					c0.2-0.1,0.5-0.1,0.7,0c0.2,0,0.5,0.1,0.7,0.2c0.2,0.1,0.4,0.3,0.6,0.5s0.3,0.5,0.4,0.8l0.1,0.4L93,43.2v-0.4
					c-0.1-0.3-0.2-0.5-0.4-0.6c-0.2-0.1-0.4-0.1-0.6-0.1s-0.4,0.2-0.5,0.3c-0.1,0.2-0.2,0.4-0.1,0.7l0.9,4.2
					c0.1,0.3,0.2,0.5,0.4,0.6c0.2,0.1,0.4,0.1,0.6,0.1s0.4-0.2,0.5-0.3c0.1-0.2,0.2-0.4,0.1-0.7l-0.3-1.5l-0.9,0.2l-0.2-1l2-0.4
					l0.5,2.5c0.1,0.3,0.1,0.6,0,0.9c-0.1,0.3-0.2,0.5-0.3,0.7c-0.2,0.2-0.3,0.4-0.5,0.5s-0.4,0.2-0.7,0.3s-0.5,0.1-0.7,0
					c-0.2,0-0.5-0.1-0.7-0.2c-0.2-0.1-0.4-0.3-0.6-0.5s-0.3-0.5-0.4-0.8L90.3,43.3z"/>
				<path d="M99.2,48l-0.9-8.1l1.9-0.2c1.4-0.1,2.1,0.6,2.3,2.2c0.1,0.5,0,0.9-0.1,1.2s-0.3,0.6-0.7,0.9l1.7,3.6l-1.2,0.1l-1.5-3.3
					l-0.7,0.1l0.4,3.5H99.2z M99.6,40.8l0.3,2.5l0.7-0.1c0.2,0,0.4-0.1,0.5-0.1c0.1-0.1,0.2-0.2,0.3-0.3c0-0.1,0.1-0.2,0.1-0.4
					s0-0.3,0-0.5s-0.1-0.4-0.1-0.5c0-0.2-0.1-0.3-0.2-0.4c-0.2-0.2-0.5-0.3-0.9-0.2H99.6z"/>
				<path d="M106.8,47.4l-0.1-8.1l3.5-0.1v1.1h-2.3v2.4h2v1.1h-2v2.4h2.3v1.2L106.8,47.4z"/>
				<path d="M114.3,41.3c0-0.3,0.1-0.6,0.3-0.8s0.3-0.4,0.5-0.6c0.2-0.1,0.4-0.2,0.7-0.3c0.2-0.1,0.5-0.1,0.7-0.1s0.5,0.1,0.7,0.2
					c0.2,0.1,0.4,0.2,0.6,0.4s0.3,0.4,0.4,0.7s0.1,0.6,0.1,0.9v0.4L117,42v-0.4c0-0.3,0-0.5-0.2-0.6c-0.1-0.1-0.3-0.2-0.5-0.3
					c-0.2,0-0.4,0-0.6,0.1s-0.3,0.3-0.3,0.6l-0.4,4.3c0,0.3,0,0.5,0.2,0.6s0.3,0.2,0.5,0.3c0.2,0,0.4,0,0.6-0.1s0.3-0.3,0.3-0.6
					l0.1-1.5l-0.9-0.1l0.1-1l2.1,0.2l-0.2,2.6c0,0.3-0.1,0.6-0.3,0.9c-0.1,0.2-0.3,0.4-0.5,0.6c-0.2,0.1-0.4,0.3-0.7,0.3
					c-0.2,0.1-0.5,0.1-0.7,0.1s-0.5-0.1-0.7-0.2c-0.2-0.1-0.4-0.3-0.6-0.4c-0.2-0.2-0.3-0.4-0.4-0.6c-0.1-0.3-0.1-0.6-0.1-0.9
					L114.3,41.3z"/>
				<path d="M120.9,48.3l3.4-7.6l1,0.2l0.2,8.3l-1.1-0.2v-1.8l-1.6-0.3l-0.7,1.6L120.9,48.3z M124.2,46.1v-3l0,0l-1.1,2.8
					L124.2,46.1z"/>
				<path d="M128.6,50.1l2.4-7.8l1.7,0.5c0.6,0.2,1.1,0.5,1.3,1s0.2,1,0,1.6l-1.1,3.6c-0.2,0.7-0.6,1.2-1,1.4c-0.5,0.2-1,0.3-1.7,0
					L128.6,50.1z M131.8,43.7l-1.8,5.7l0.5,0.2c0.3,0.1,0.6,0.1,0.7,0c0.2-0.1,0.3-0.3,0.4-0.7l1.2-3.7c0.1-0.3,0.1-0.6,0-0.8
					s-0.3-0.4-0.6-0.5L131.8,43.7z"/>
				<path d="M138.3,46.8c0.1-0.3,0.3-0.5,0.5-0.7s0.4-0.3,0.7-0.4c0.2-0.1,0.5-0.1,0.7-0.1s0.5,0.1,0.7,0.2c0.2,0.1,0.4,0.2,0.6,0.4
					c0.2,0.2,0.3,0.4,0.4,0.6c0.1,0.2,0.2,0.5,0.2,0.8s-0.1,0.6-0.2,0.9l-1.7,4c-0.1,0.3-0.3,0.6-0.5,0.7c-0.2,0.2-0.4,0.3-0.6,0.4
					c-0.2,0.1-0.5,0.1-0.7,0.1s-0.5-0.1-0.7-0.2c-0.2-0.1-0.4-0.2-0.6-0.4c-0.2-0.2-0.3-0.4-0.4-0.6c-0.1-0.2-0.2-0.5-0.2-0.7
					c0-0.3,0.1-0.6,0.2-0.9L138.3,46.8z M137.6,51.2c-0.1,0.3-0.1,0.5,0,0.7s0.2,0.3,0.4,0.4c0.2,0.1,0.4,0.1,0.6,0
					c0.2-0.1,0.3-0.2,0.5-0.5l1.7-4c0.1-0.3,0.1-0.5,0-0.7s-0.2-0.3-0.4-0.4c-0.2-0.1-0.4-0.1-0.6,0c-0.2,0.1-0.3,0.2-0.5,0.5
					L137.6,51.2z"/>
				<path d="M147.1,58.2l4.4-6.8l1.4,0.9c0.6,0.4,0.9,0.8,1,1.3s0,1-0.4,1.6l-2.1,3.2c-0.4,0.6-0.9,1-1.4,1.1s-1.1,0-1.6-0.4
					L147.1,58.2z M151.9,52.9l-3.2,5l0.5,0.3c0.3,0.2,0.5,0.2,0.7,0.2c0.2-0.1,0.4-0.2,0.6-0.5l2.1-3.3c0.2-0.3,0.3-0.5,0.2-0.7
					c0-0.2-0.2-0.4-0.5-0.6L151.9,52.9z"/>
				<path d="M153.4,62.5l5.1-6.4l2.7,2.2l-0.7,0.9l-1.8-1.4l-1.5,1.9l1.6,1.3l-0.7,0.9l-1.6-1.3l-1.5,1.9l1.8,1.4l-0.7,0.9
					L153.4,62.5z"/>
			</g>
		</g>
		<g>
			<g>
				<path d="M109.6,76.3c-2,3.4-4,6.4-5.3,9.9c-0.1,0.3-0.2,0.7-0.3,1c-0.4,1-0.3,1.7,0.6,2.4c0.9,0.7,1.7,1.5,2.6,2.2
					c0.8,0.7,1.6,1.5,2.4,2.3c0.7-0.7,1.5-1.4,2.3-2.1c2.4-2.1,4.8-4.2,7.3-6.2c0.5-0.4,0.8-0.9,0.8-1.6c-0.1-1.4,0-2.9,0-4.3
					c0-0.7,0.4-1,1-1.3c0.6-0.2,1,0,1.4,0.3c0.2,0.2,0.4,0.6,0.4,0.9c0.1,0.4,0,0.8,0,1.2c0,4.2,0,8.4,0,12.7c0,0.6,0,1.1,0,1.8
					c0.3-0.1,0.5-0.1,0.7-0.1c1.3-0.3,2,0.2,2,1.5c0,1.8,0,3.7,0,5.5s0,3.5,0,5.4c0.4,0,0.7-0.1,1,0c0.9,0.2,1.3,0.7,1.3,1.7
					c0,3.8,0,7.5,0,11.3c0,0.3-0.1,0.7-0.2,1c-0.2,0.7-0.1,1.2,0.7,1.4c0.7,0.2,0.9,0.8,0.9,1.5c0,4.5,0.1,8.9-0.1,13.4
					c-0.2,3.9-2,7.1-4.9,9.6c-2.2,1.9-4.4,3.8-6.6,5.7c-1.9,1.6-3.8,3.3-5.7,4.9c-0.6,0.5-0.9,1.1-0.9,1.9c0,3.6,0,7.2,0,10.8
					c0,0.4,0,0.8,0,1.2c-0.1,0.7-0.7,1.2-1.4,1.2c-0.6,0-1.2-0.5-1.3-1.1c-0.1-0.4,0-0.8,0-1.2c0-3.7,0-7.4,0-11.1
					c0-0.7-0.2-1.1-0.8-1.6c-4-3.4-8-6.9-12.1-10.3c-3.6-3-5.4-6.8-5.3-11.5c0-3.7,0-7.4,0-11.1c0-1.1,0.1-1.9,1.3-2.3
					c0.2-0.1,0.4-0.4,0.4-0.6c0-2.3-0.2-4.5-0.2-6.8c0-1.9,0-3.8,0-5.7c0-1.8,0.4-2.1,2.3-2.2c0-1,0-2,0-3c0-2.5,0-5,0-7.5
					c0-1.6,0.6-2.1,2.2-1.7c0.1,0,0.2,0,0.5,0c0-0.6,0-1.1,0-1.7c0-4.3,0-8.6,0-12.8c0-0.4,0-0.8,0-1.2c0.1-0.7,0.7-1.3,1.4-1.3
					c0.7,0,1.3,0.5,1.4,1.3c0.1,1.1,0.1,2.3,0,3.4c-0.2,1.6,0.4,2.6,1.9,3.3c1.4-4.5,4.1-8.3,6.3-12.4c0.4-0.8,0.7-1.5,0.7-2.4
					c0-1.6,0-3.2,0-4.8c0-0.6,0.3-1,0.9-1.3s1.1-0.1,1.4,0.2c0.3,0.3,0.5,0.8,0.5,1.2c0.1,1.5,0.1,3,0,4.5c0,1,0.2,1.9,0.7,2.7
					c1.5,2.4,2.8,4.9,4.3,7.4c0.2,0.3,0.4,0.7,0.5,1.1c0.2,0.8-0.2,1.6-0.9,1.8c-0.6,0.2-1.3,0-1.7-0.7c-0.6-1.1-1.2-2.2-1.8-3.3
					C111.3,79.1,110.5,77.8,109.6,76.3z M93.1,127.5c-0.1,0.3-0.2,0.5-0.2,0.7c0,3-0.1,5.9,0,8.9c0,1.1,0.3,2.1,0.6,3.2
					c0.6,2.2,2.1,3.9,3.8,5.3c2.6,2.2,5.2,4.5,7.8,6.7c0.9,0.8,1.9,1.6,3,2.5c0.1-0.4,0.1-0.6,0.1-0.8c0-3,0-5.9,0-8.9
					c0-0.3-0.1-0.7-0.1-1c-0.5-3.1-2.1-5.6-4.6-7.5c-0.3-0.2-0.6-0.5-0.8-0.9c-0.5-0.9,0-1.9,1.1-2c0.5,0,1,0.1,1.4,0.5
					c0.9,0.9,1.9,1.7,3,2.7c0-3.2,0.1-6.2,0-9.2c-0.1-2.5-1.2-4.7-3.2-6.4c-3.2-2.8-6.4-5.5-9.6-8.3c-0.2-0.2-0.5-0.3-1-0.5
					c0,2.8,0,5.3,0,7.9c0,3.3,1.4,5.9,3.9,8c0.4,0.3,0.8,0.6,1.1,1c0.4,0.5,0.3,1.4-0.1,1.9c-0.5,0.5-1,0.6-1.7,0.2
					c-0.3-0.2-0.6-0.4-0.8-0.6C95.6,129.7,94.4,128.7,93.1,127.5z M126.3,127.6c-0.3,0.1-0.4,0.2-0.5,0.3c-3.5,3-7,6-10.4,9
					c-2.8,2.4-4.3,5.5-4.3,9.3c0,2.4,0,4.9,0,7.3c0,0.4,0.1,0.7,0.1,1.1c0.2-0.1,0.4-0.1,0.4-0.2c3.4-2.9,6.8-5.9,10.2-8.8
					c3.1-2.6,4.6-5.9,4.5-10c0-2.3,0-4.6,0-6.8C126.4,128.5,126.3,128.1,126.3,127.6z M111,136.8c3.5-3,7-5.9,10.3-8.9
					c2.1-1.9,3.4-4.3,3.4-7.2c0-1.5,0-3.1,0-4.6c0-1.2,0-2.5,0-4c-0.5,0.4-0.8,0.7-1.1,0.9c-3,2.6-6.1,5.3-9.2,7.9
					c-2.2,1.8-3.3,4.2-3.5,6.9C110.9,130.8,111,133.7,111,136.8z M111.1,120c0.2,0,0.3,0,0.4-0.1c1.2-1.1,2.4-2.1,3.6-3.2
					c1.7-1.5,3.4-3,5.1-4.6c1.6-1.6,2.4-3.6,2.4-5.8c0-1.8,0-3.6,0-5.5c0-0.3-0.1-0.6-0.1-1.2c-0.5,0.4-0.8,0.7-1.2,1
					c-2.2,1.9-4.4,4-6.7,5.8c-2.5,2-3.6,4.4-3.6,7.5c0,1.6,0,3.2,0,4.8C111,119.2,111.1,119.6,111.1,120z M108.2,120.2
					c0-2.5,0-4.6,0-6.8c0-2.6-1.1-4.7-3-6.4c-2.5-2.2-5-4.3-7.5-6.5c-0.3-0.2-0.6-0.4-1-0.6c0,2.5,0,4.7,0,7c0,0.3,0.1,0.6,0.1,0.8
					c0.4,2.1,1.5,3.8,3.1,5.2C102.6,115.3,105.3,117.6,108.2,120.2z M108.2,105.8c0-2.5,0.1-4.8,0-7.1c-0.1-1.8-1-3.3-2.4-4.5
					c-1.5-1.2-2.9-2.5-4.4-3.8c-0.6-0.5-1.2-0.9-1.9-1.5c0,2.1,0,4,0,5.9c0,2.4,0.8,4.4,2.8,5.9c0.5,0.4,0.9,0.8,1.4,1.2
					C105.1,103.1,106.6,104.4,108.2,105.8z M111,105.8c2.5-2.1,4.8-4,7-6.1c0.6-0.5,0.9-1.4,1.3-2.1c0.6-1.2,0.5-2.4,0.5-3.7
					c0-1.6,0-3.2,0-5.1c-2.4,2-4.6,3.9-6.7,5.7c-1.3,1.1-2,2.6-2.1,4.3C111,101.1,111,103.3,111,105.8z"/>
			</g>
		</g>
		<g>
			<g>
				<path d="M110,183.9c-21.4,0-41.4-10.6-53.4-28.4c-0.2-0.3-0.3-0.6-0.2-1c0.1-0.3,0.3-0.6,0.6-0.8L82.1,139
					c0.6-0.3,1.4-0.1,1.7,0.4c0.3,0.6,0.1,1.4-0.4,1.7l-23.9,14c11.6,16.4,30.4,26.2,50.6,26.2c34.2,0,61.9-27.8,61.9-61.9
					c0-7.4-1.3-14.6-3.8-21.4c-0.2-0.6,0.1-1.4,0.7-1.6c0.6-0.2,1.4,0.1,1.6,0.7c2.6,7.1,4,14.6,4,22.3
					C174.4,155,145.5,183.9,110,183.9z"/>
				<path d="M53.3,147.8c-0.4,0-0.8-0.2-1.1-0.6c-0.3-0.6-0.1-1.4,0.5-1.7l29.4-17.1c0.6-0.3,1.4-0.1,1.7,0.5
					c0.3,0.6,0.1,1.4-0.5,1.7l-29.3,17C53.8,147.7,53.5,147.8,53.3,147.8z"/>
			</g>
		</g>
		<g>
			<g>
				<path d="M50.2,142c-0.5,0-1-0.3-1.2-0.8c-2.6-7.1-4-14.6-4-22.3c0-35.5,28.9-64.4,64.4-64.4c21.4,0,41.4,10.6,53.4,28.4
					c0.2,0.3,0.3,0.6,0.2,1c-0.1,0.3-0.3,0.6-0.6,0.8l-25.1,14.7c-0.6,0.3-1.4,0.1-1.7-0.4c-0.3-0.6-0.1-1.4,0.4-1.7l23.9-14
					c-11.6-16.4-30.4-26.2-50.6-26.2c-34.2,0-61.9,27.8-61.9,61.9c0,7.4,1.3,14.6,3.8,21.4c0.2,0.6-0.1,1.4-0.7,1.6
					C50.5,141.9,50.3,142,50.2,142z"/>
				<path d="M136.8,110.1c-0.4,0-0.8-0.2-1.1-0.6c-0.3-0.6-0.1-1.4,0.5-1.7l29-16.9c0.6-0.3,1.4-0.1,1.7,0.5s0.1,1.4-0.5,1.7
					l-29,16.9C137.2,110,137,110.1,136.8,110.1z"/>
			</g>
		</g>
	</g>
</g>
</svg>
