<?xml version="1.0" encoding="utf-8"?>
<!-- Generator: Adobe Illustrator 23.1.1, SVG Export Plug-In . SVG Version: 6.00 Build 0)  -->
<svg version="1.1" id="Layer_1" xmlns="http://www.w3.org/2000/svg" xmlns:xlink="http://www.w3.org/1999/xlink" x="0px" y="0px"
	 viewBox="0 0 214.4 236" style="enable-background:new 0 0 214.4 236;" xml:space="preserve">
<style type="text/css">
	.st0{fill:#231F20;}
</style>
<g>
	<g>
		<path d="M53.1,153c-0.5,0-0.9-0.2-1.1-0.7c-0.4-0.6-0.2-1.4,0.5-1.8l22.2-12.9c0.6-0.4,1.4-0.2,1.8,0.5c0.4,0.6,0.2,1.4-0.5,1.8
			l-22.2,12.9C53.5,153,53.3,153,53.1,153z"/>
		<path d="M133.3,116.1c-0.5,0-0.9-0.2-1.1-0.7c-0.4-0.6-0.1-1.4,0.5-1.8L158.8,99c0.6-0.4,1.4-0.1,1.8,0.5c0.4,0.6,0.1,1.4-0.5,1.8
			L134,116C133.8,116.1,133.5,116.1,133.3,116.1z"/>
		<g>
			<g>
				<path class="st0" d="M39.1,156.8l-0.9-2.1l0.5-0.2c0.5-0.2,0.8-0.5,1.1-0.8c0.3-0.4,0.3-0.8,0.1-1.4c-0.1-0.3-0.3-0.5-0.5-0.6
					s-0.4-0.2-0.6-0.3c-0.2,0-0.5,0-0.7,0s-0.5,0.1-0.7,0.2c-0.3,0.1-0.5,0.2-0.7,0.3s-0.3,0.2-0.4,0.4c-0.1,0.1-0.2,0.3-0.2,0.5
					s-0.1,0.5-0.1,0.8v1.9c0,0.5,0,1-0.2,1.4c-0.1,0.4-0.3,0.7-0.6,1s-0.6,0.5-1,0.8c-0.4,0.2-0.9,0.4-1.4,0.7
					c-0.6,0.3-1.2,0.4-1.8,0.5c-0.6,0.1-1.1,0.1-1.6,0s-1-0.4-1.4-0.8c-0.4-0.4-0.8-0.9-1-1.6c-0.2-0.5-0.3-1-0.3-1.5s0.1-1,0.3-1.4
					c0.2-0.4,0.4-0.8,0.8-1.2c0.3-0.4,0.8-0.6,1.2-0.8l0.8-0.3l0.9,2.1l-0.7,0.3c-0.4,0.2-0.7,0.4-0.9,0.8c-0.2,0.4-0.2,0.8,0,1.3
					c0.1,0.4,0.3,0.6,0.5,0.8s0.4,0.2,0.6,0.3c0.2,0,0.5,0,0.8-0.1s0.6-0.2,0.9-0.3c0.4-0.2,0.7-0.3,0.9-0.4
					c0.2-0.1,0.4-0.3,0.5-0.4c0.1-0.2,0.2-0.3,0.2-0.5s0-0.4,0.1-0.8v-1.7c0-1.1,0.2-1.9,0.7-2.4c0.5-0.6,1.2-1,2.1-1.4
					c0.5-0.2,1.1-0.4,1.7-0.4c0.6-0.1,1.1,0,1.5,0.2c0.5,0.1,0.9,0.4,1.3,0.7c0.4,0.4,0.7,0.8,1,1.5c0.2,0.5,0.3,1,0.3,1.5
					s-0.1,1-0.3,1.4c-0.4,0.9-1,1.5-1.9,1.9L39.1,156.8z"/>
			</g>
			<g>
				<path class="st0" d="M32.1,167.5l13.6-8l1.1,1.9l-13.6,8L32.1,167.5z"/>
			</g>
			<g>
				<path class="st0" d="M37.4,175.8l12.3-9.9l1.4,1.7l-5.2,8.6l0,0l7.4-6l1.4,1.8l-12.3,10l-1.3-1.7l5.2-8.7l0,0l-7.4,6L37.4,175.8
					z"/>
			</g>
			<g>
				<path class="st0" d="M67.4,188.5l-1.9-1.3l0.3-0.4c0.3-0.4,0.5-0.9,0.5-1.3c0-0.4-0.2-0.8-0.7-1.2c-0.3-0.2-0.5-0.3-0.7-0.3
					s-0.4,0-0.6,0.1s-0.4,0.2-0.6,0.4c-0.2,0.2-0.3,0.4-0.5,0.6c-0.2,0.3-0.3,0.5-0.4,0.7c-0.1,0.2-0.2,0.4-0.2,0.6
					c0,0.2,0,0.4,0.1,0.6c0.1,0.2,0.2,0.4,0.4,0.7l1,1.6c0.3,0.4,0.5,0.9,0.6,1.3c0.1,0.4,0.1,0.8,0.1,1.2c-0.1,0.4-0.2,0.8-0.4,1.2
					c-0.2,0.4-0.5,0.8-0.8,1.3c-0.4,0.5-0.8,1-1.2,1.4s-0.9,0.7-1.4,0.8c-0.5,0.2-1,0.2-1.6,0.1c-0.5-0.1-1.1-0.3-1.7-0.8
					c-0.4-0.3-0.8-0.7-1.1-1.1c-0.3-0.4-0.5-0.9-0.5-1.4c-0.1-0.5-0.1-1,0-1.4c0.1-0.5,0.3-0.9,0.6-1.4l0.5-0.7l1.9,1.3l-0.4,0.6
					c-0.2,0.3-0.3,0.7-0.3,1.1c0,0.4,0.3,0.8,0.7,1.1c0.3,0.2,0.6,0.3,0.8,0.4c0.2,0,0.5,0,0.7-0.1s0.4-0.3,0.6-0.5
					c0.2-0.2,0.4-0.5,0.6-0.8c0.2-0.3,0.4-0.6,0.5-0.9c0.1-0.2,0.2-0.4,0.2-0.6c0-0.2,0-0.4-0.1-0.6c-0.1-0.2-0.2-0.4-0.4-0.7
					l-0.9-1.5c-0.6-0.9-0.8-1.7-0.7-2.4s0.4-1.5,1-2.3c0.3-0.5,0.7-0.9,1.2-1.2c0.4-0.3,0.9-0.6,1.4-0.7c0.5-0.1,1-0.2,1.5-0.1
					c0.5,0.1,1.1,0.3,1.6,0.7c0.5,0.3,0.8,0.7,1.1,1.1c0.3,0.4,0.4,0.9,0.5,1.4c0.2,1,0,1.8-0.6,2.6L67.4,188.5z"/>
			</g>
			<g>
				<path class="st0" d="M66.6,201l9.9-12.8l1.7,0.8l-3.5,15.8l-2-1l0.8-3.4l-2.8-1.3l-2,2.8L66.6,201z M74,198.4l1.4-5.7l0,0
					l-3.4,4.7L74,198.4z"/>
			</g>
			<g>
				<path class="st0" d="M81.3,207.1l4-15.3l3.2,0.8c0.7,0.2,1.3,0.5,1.7,0.8c0.4,0.3,0.8,0.7,1,1.2c0.2,0.4,0.3,0.9,0.3,1.4
					s0,1-0.2,1.5l-0.1,0.6c-0.1,0.4-0.2,0.8-0.4,1c-0.1,0.3-0.3,0.5-0.5,0.7c-0.3,0.3-0.8,0.6-1.4,0.7c0.5,0.4,0.7,0.8,0.9,1.4
					c0.1,0.5,0.1,1.2-0.1,2l-0.2,0.9c-0.4,1.3-1,2.3-1.8,2.8s-2,0.6-3.4,0.2L81.3,207.1z M85.3,200.6l-1.3,4.9l0.9,0.3
					c0.4,0.1,0.8,0.1,1.1,0.1c0.3-0.1,0.5-0.2,0.7-0.4s0.3-0.4,0.5-0.8c0.1-0.3,0.2-0.6,0.3-1c0.1-0.4,0.2-0.7,0.2-1s0-0.6-0.1-0.8
					s-0.2-0.4-0.5-0.6c-0.2-0.2-0.5-0.3-0.9-0.4L85.3,200.6z M87,194.5l-1.1,4.2l1,0.3c0.7,0.2,1.3,0.1,1.6-0.2
					c0.3-0.3,0.6-0.8,0.8-1.5c0.2-0.7,0.2-1.2,0-1.7c-0.2-0.4-0.6-0.7-1.4-0.9L87,194.5z"/>
			</g>
			<g>
				<path class="st0" d="M97.1,198.3c0.1-0.6,0.2-1.2,0.5-1.7s0.6-0.8,1-1.1s0.8-0.5,1.3-0.6s0.9-0.2,1.4-0.1c0.5,0,0.9,0.2,1.3,0.4
					s0.8,0.5,1.2,0.8c0.3,0.4,0.6,0.8,0.8,1.3c0.2,0.5,0.2,1.1,0.2,1.7l-0.7,8.3c-0.1,0.7-0.2,1.2-0.5,1.7s-0.6,0.8-1,1.1
					s-0.8,0.5-1.3,0.6s-0.9,0.2-1.4,0.1c-0.5,0-0.9-0.2-1.3-0.4s-0.8-0.5-1.1-0.8c-0.3-0.3-0.6-0.8-0.8-1.2
					c-0.2-0.5-0.2-1.1-0.2-1.7L97.1,198.3z M98.6,206.8c0,0.5,0.1,1,0.4,1.2c0.3,0.3,0.6,0.4,1,0.5c0.4,0,0.8-0.1,1.1-0.3
					c0.3-0.2,0.5-0.6,0.6-1.2l0.7-8.3c0-0.5-0.1-1-0.4-1.2c-0.3-0.3-0.6-0.4-1-0.5c-0.4,0-0.8,0.1-1.1,0.3c-0.3,0.2-0.5,0.6-0.6,1.2
					L98.6,206.8z"/>
			</g>
			<g>
				<path class="st0" d="M111.5,210.9l-1.5-15.7l3.6-0.3c2.6-0.2,4.1,1.2,4.4,4.2c0.1,0.9,0,1.7-0.2,2.4s-0.7,1.2-1.4,1.7l3.1,6.9
					l-2.4,0.2l-2.7-6.5l-1.3,0.1l0.6,6.7L111.5,210.9z M112.4,197.1l0.5,4.9l1.3-0.1c0.4,0,0.7-0.1,0.9-0.3c0.2-0.1,0.4-0.3,0.5-0.5
					s0.2-0.5,0.2-0.8s0-0.7,0-1.1c0-0.4-0.1-0.7-0.2-1s-0.2-0.6-0.3-0.8c-0.3-0.4-0.9-0.5-1.6-0.5L112.4,197.1z"/>
			</g>
			<g>
				<path class="st0" d="M126.4,208.7l-3.7-15.3l2.2-0.5l3.7,15.3L126.4,208.7z"/>
			</g>
			<g>
				<path class="st0" d="M135.2,206.3l-0.7-1.9l-0.3-12.4l-3.8,1.5l-0.8-2l6.1-2.4l0.7,1.7l0.3,12.6l4-1.6l0.8,2L135.2,206.3z"/>
			</g>
			<g>
				<path class="st0" d="M146.9,201.2l-5-15.4l1.6-1l11.1,11.8l-1.9,1.2l-2.3-2.6l-2.7,1.6l1.2,3.3L146.9,201.2z M148.9,193.6
					l-3.9-4.4l0,0l2,5.5L148.9,193.6z"/>
			</g>
			<g>
				<path class="st0" d="M160.2,192.6l-10.3-12l1.6-1.4l8.8,5l0,0l-6.2-7.2l1.7-1.5l10.3,12l-1.6,1.4l-8.8-4.9l0,0l6.2,7.2
					L160.2,192.6z"/>
			</g>
			<g>
				<path class="st0" d="M172.5,180.8L162,172l-1.7,2l-1.6-1.4l4.8-5.8l1.6,1.4l-1.7,2l10.5,8.7L172.5,180.8z"/>
			</g>
			<g>
				<path class="st0" d="M179.4,171.6l-13.5-8.1l3.5-5.8l1.8,1.1l-2.3,3.8l4,2.4l2-3.3l1.8,1.1l-2,3.3l4,2.4l2.3-3.8l1.9,1.2
					L179.4,171.6z"/>
			</g>
			<g>
				<path class="st0" d="M178.2,148.4l-0.8,2.1l-0.5-0.2c-0.5-0.2-0.9-0.2-1.4-0.1c-0.4,0.1-0.8,0.4-1,0.9c-0.1,0.3-0.1,0.5-0.1,0.8
					c0,0.2,0.1,0.4,0.2,0.6c0.1,0.2,0.3,0.3,0.5,0.5c0.2,0.1,0.4,0.2,0.7,0.3s0.5,0.2,0.7,0.3s0.4,0.1,0.6,0c0.2,0,0.4-0.1,0.5-0.2
					c0.2-0.1,0.4-0.3,0.6-0.5l1.3-1.4c0.4-0.4,0.7-0.7,1.1-0.9c0.4-0.2,0.7-0.3,1.1-0.4c0.4,0,0.8,0,1.2,0.1s0.9,0.3,1.5,0.5
					s1.2,0.5,1.7,0.9c0.5,0.3,0.9,0.7,1.1,1.1c0.3,0.4,0.4,0.9,0.5,1.5c0,0.6-0.1,1.2-0.3,1.8c-0.2,0.5-0.5,0.9-0.8,1.3
					c-0.4,0.4-0.7,0.7-1.2,0.8c-0.4,0.2-0.9,0.3-1.4,0.3s-1-0.1-1.5-0.3l-0.8-0.3l0.8-2.1l0.7,0.3c0.4,0.2,0.8,0.2,1.2,0.1
					c0.4-0.1,0.7-0.4,0.9-1c0.1-0.4,0.2-0.7,0.2-0.9s-0.1-0.5-0.3-0.6c-0.1-0.2-0.4-0.3-0.6-0.5c-0.3-0.1-0.6-0.3-0.9-0.4
					c-0.4-0.2-0.7-0.3-1-0.3c-0.3-0.1-0.5-0.1-0.7-0.1s-0.4,0.1-0.5,0.2c-0.2,0.1-0.3,0.3-0.6,0.5l-1.2,1.3
					c-0.7,0.8-1.5,1.2-2.2,1.2c-0.7,0.1-1.6-0.1-2.5-0.4c-0.6-0.2-1-0.5-1.5-0.8c-0.4-0.3-0.8-0.7-1-1.2c-0.2-0.4-0.4-0.9-0.4-1.4
					s0.1-1.1,0.3-1.7c0.2-0.5,0.5-1,0.9-1.3c0.4-0.4,0.8-0.6,1.2-0.8c0.9-0.4,1.8-0.4,2.6-0.1L178.2,148.4z"/>
			</g>
			<g>
				<path class="st0" d="M29.9,96.1l-0.7,2.1L28.7,98c-0.5-0.2-1-0.2-1.4-0.1s-0.7,0.4-0.9,1c-0.1,0.3-0.1,0.6-0.1,0.8
					c0.1,0.2,0.1,0.4,0.3,0.6c0.1,0.2,0.3,0.3,0.5,0.4s0.5,0.2,0.7,0.3c0.3,0.1,0.5,0.2,0.7,0.2s0.4,0,0.6,0s0.4-0.1,0.5-0.2
					c0.2-0.1,0.4-0.3,0.6-0.6l1.2-1.4c0.3-0.4,0.7-0.7,1-0.9c0.3-0.2,0.7-0.4,1.1-0.4c0.4,0,0.8,0,1.3,0.1c0.4,0.1,0.9,0.2,1.5,0.4
					c0.6,0.2,1.2,0.5,1.7,0.8s0.9,0.7,1.2,1.1s0.5,0.9,0.5,1.5c0.1,0.6,0,1.2-0.2,1.9c-0.2,0.5-0.4,1-0.8,1.4
					c-0.3,0.4-0.7,0.7-1.1,0.9c-0.4,0.2-0.9,0.3-1.4,0.4c-0.5,0-1,0-1.5-0.2l-0.8-0.3l0.7-2.1l0.7,0.2c0.4,0.1,0.8,0.1,1.2,0
					s0.7-0.5,0.9-1c0.1-0.4,0.2-0.7,0.1-0.9c0-0.2-0.1-0.4-0.3-0.6s-0.4-0.3-0.6-0.4c-0.3-0.1-0.6-0.2-0.9-0.3
					c-0.4-0.1-0.7-0.2-1-0.3c-0.3-0.1-0.5-0.1-0.7,0c-0.2,0-0.4,0.1-0.5,0.3c-0.2,0.1-0.3,0.3-0.5,0.5l-1.1,1.3
					c-0.7,0.8-1.4,1.3-2.1,1.4s-1.6,0-2.5-0.3c-0.6-0.2-1.1-0.4-1.5-0.8s-0.8-0.7-1.1-1.1c-0.3-0.4-0.4-0.9-0.5-1.4s0-1.1,0.2-1.7
					c0.2-0.5,0.4-1,0.8-1.4c0.3-0.4,0.7-0.7,1.2-0.9c0.9-0.4,1.8-0.5,2.6-0.2L29.9,96.1z"/>
			</g>
			<g>
				<path class="st0" d="M42.8,94.7l-14.1-7.1l1-2l14.1,7.1L42.8,94.7z"/>
			</g>
			<g>
				<path class="st0" d="M46.5,87.7l-12.9-9.1l1.3-1.8l9.7,2.7l0,0L36.9,74l1.3-1.8l12.9,9.1L49.9,83l-9.7-2.7l0,0l7.7,5.5
					L46.5,87.7z"/>
			</g>
			<g>
				<path class="st0" d="M64.4,62.9l0.6,0.8c0.3,0.4,0.5,0.8,0.6,1.3s0.1,0.9,0.1,1.4c-0.1,0.5-0.2,0.9-0.4,1.3
					c-0.2,0.4-0.5,0.8-0.9,1.1c-0.3,0.3-0.7,0.5-1.2,0.6s-0.9,0.2-1.3,0.2c-0.5,0-0.9-0.1-1.4-0.4C60,69,59.6,68.6,59.2,68L54,61.1
					c-0.3-0.4-0.5-0.8-0.7-1.3c-0.1-0.5-0.2-0.9-0.1-1.4c0.1-0.5,0.2-0.9,0.5-1.3c0.2-0.4,0.6-0.8,1-1.1c0.8-0.6,1.7-0.9,2.7-0.7
					c0.5,0.1,0.9,0.2,1.3,0.5c0.4,0.3,0.8,0.6,1.1,1l0.5,0.7l-1.8,1.4L58,58.3c-0.3-0.4-0.6-0.6-1-0.7c-0.4-0.1-0.8,0-1.1,0.2
					c-0.4,0.3-0.6,0.7-0.6,1.1c0.1,0.4,0.3,0.8,0.6,1.2l4.9,6.4c0.3,0.4,0.6,0.6,0.9,0.7c0.3,0.1,0.7,0,1.1-0.3
					c0.1-0.1,0.2-0.2,0.3-0.3c0.1-0.1,0.2-0.3,0.2-0.5s0-0.4,0-0.6c-0.1-0.2-0.2-0.5-0.4-0.7l-0.5-0.6L64.4,62.9z"/>
			</g>
			<g>
				<path class="st0" d="M66,53c-0.3-0.6-0.4-1.1-0.5-1.7c0-0.5,0.1-1,0.2-1.5c0.2-0.4,0.4-0.8,0.8-1.2c0.3-0.3,0.7-0.6,1.1-0.8
					s0.9-0.3,1.3-0.4c0.5-0.1,0.9,0,1.4,0.1s0.9,0.4,1.3,0.7s0.8,0.8,1.1,1.4l3.8,7.4c0.3,0.6,0.5,1.2,0.5,1.7s-0.1,1-0.2,1.4
					c-0.2,0.5-0.4,0.9-0.8,1.2s-0.7,0.6-1.1,0.8s-0.9,0.3-1.3,0.4c-0.5,0.1-0.9,0-1.4-0.1s-0.9-0.3-1.3-0.6s-0.8-0.8-1.1-1.4L66,53z
					 M71.8,59.4c0.2,0.5,0.6,0.8,1,0.9c0.4,0.1,0.8,0,1.1-0.1c0.4-0.2,0.6-0.5,0.8-0.8c0.2-0.4,0.1-0.8-0.1-1.3l-3.8-7.4
					c-0.2-0.5-0.6-0.8-1-0.9c-0.4-0.1-0.8,0-1.1,0.1c-0.4,0.2-0.6,0.5-0.8,0.8c-0.2,0.4-0.1,0.8,0.1,1.3L71.8,59.4z"/>
			</g>
			<g>
				<path class="st0" d="M83.2,58.4l-4.4-15.2l2.1-0.6l5.9,8.2l0,0l-2.7-9.1l2.2-0.6l4.4,15.2l-2,0.6l-6-8.1l0,0l2.7,9.1L83.2,58.4z
					"/>
			</g>
			<g>
				<path class="st0" d="M102.4,43.2l-2.2,0.2l-0.1-0.5c-0.1-0.5-0.2-0.9-0.5-1.3c-0.3-0.3-0.7-0.5-1.3-0.4c-0.3,0-0.6,0.1-0.7,0.3
					c-0.2,0.1-0.3,0.3-0.4,0.5S97,42.4,97,42.7c0,0.2,0,0.5,0,0.8s0.1,0.6,0.1,0.8s0.1,0.4,0.2,0.5c0.1,0.2,0.2,0.3,0.4,0.4
					c0.2,0.1,0.4,0.2,0.7,0.3l1.8,0.5c0.5,0.1,0.9,0.3,1.3,0.5c0.3,0.2,0.6,0.5,0.8,0.8c0.2,0.3,0.3,0.7,0.5,1.2
					c0.1,0.4,0.2,1,0.2,1.5c0.1,0.7,0.1,1.3,0,1.9c-0.1,0.6-0.2,1.1-0.5,1.5s-0.6,0.8-1.1,1.1s-1.1,0.5-1.8,0.5
					c-0.5,0.1-1.1,0-1.6-0.1s-0.9-0.4-1.3-0.7s-0.7-0.7-0.9-1.1c-0.2-0.4-0.4-0.9-0.4-1.4l-0.1-0.8l2.2-0.2l0.1,0.7
					c0,0.4,0.2,0.8,0.5,1.1s0.7,0.4,1.3,0.4c0.4,0,0.7-0.1,0.9-0.3c0.2-0.1,0.4-0.3,0.4-0.5c0.1-0.2,0.1-0.5,0.1-0.8s0-0.6-0.1-1
					c0-0.4-0.1-0.7-0.1-1c-0.1-0.3-0.1-0.5-0.2-0.6c-0.1-0.2-0.3-0.3-0.4-0.4c-0.2-0.1-0.4-0.2-0.7-0.3l-1.7-0.5
					c-1-0.3-1.7-0.8-2.1-1.4c-0.4-0.6-0.6-1.4-0.7-2.4c-0.1-0.6,0-1.2,0.1-1.7s0.3-1,0.6-1.4c0.3-0.4,0.6-0.8,1.1-1
					c0.5-0.3,1-0.4,1.7-0.5c0.6-0.1,1.1,0,1.6,0.2s0.9,0.4,1.3,0.7c0.7,0.6,1.2,1.4,1.3,2.3L102.4,43.2z"/>
			</g>
			<g>
				<path class="st0" d="M108.7,54.4l1-15.7l6.7,0.4l-0.1,2.1l-4.5-0.3l-0.3,4.6l3.9,0.3l-0.1,2.1l-3.9-0.3l-0.3,4.6l4.5,0.3
					l-0.1,2.3L108.7,54.4z"/>
			</g>
			<g>
				<path class="st0" d="M120.3,55.6l3.7-15.3l3.5,0.9c2.6,0.6,3.5,2.4,2.8,5.4c-0.2,0.9-0.5,1.6-1,2.2c-0.4,0.6-1,1-1.8,1.2
					l0.7,7.6l-2.3-0.6l-0.5-7l-1.3-0.3l-1.6,6.5L120.3,55.6z M125.8,42.8l-1.2,4.8l1.2,0.3c0.4,0.1,0.7,0.1,1,0.1
					c0.3-0.1,0.5-0.2,0.7-0.3c0.2-0.2,0.3-0.4,0.4-0.7s0.2-0.6,0.3-1c0.1-0.4,0.2-0.7,0.2-1s0-0.6-0.1-0.8c-0.2-0.5-0.6-0.8-1.4-1
					L125.8,42.8z"/>
			</g>
			<g>
				<path class="st0" d="M146.2,47.8l-9.4,13.1l-1.8-0.8l3.5-15.7l2.2,1l-2.8,10.8l0,0l6.1-9.3L146.2,47.8z"/>
			</g>
			<g>
				<path class="st0" d="M142.4,63.7L154,52.5l1.6,1l-5.8,15.1l-1.9-1.2l1.3-3.2l-2.6-1.7l-2.4,2.5L142.4,63.7z M150.1,62.2l2.2-5.4
					l0,0l-4.1,4.2L150.1,62.2z"/>
			</g>
			<g>
				<path class="st0" d="M153.4,71.5l10.9-11.4l1.6,1.5l-4.1,9.2l0,0l6.6-6.9l1.6,1.6l-10.9,11.4l-1.5-1.5l4.1-9.2l0,0L155,73
					L153.4,71.5z"/>
			</g>
			<g>
				<path class="st0" d="M163.5,82.4l11-8.1l-1.6-2.1l1.7-1.3l4.5,6l-1.7,1.3l-1.6-2.1l-11,8.1L163.5,82.4z"/>
			</g>
			<g>
				<path class="st0" d="M168.8,90.2l14-7.3l3.1,6l-1.9,1l-2.1-4l-4.1,2.1l1.8,3.5l-1.9,1L176,89l-4.1,2.1l2.1,4l-2,1L168.8,90.2z"
					/>
			</g>
			<g>
				<path class="st0" d="M186.7,104.3l-0.7-2.2l0.5-0.2c0.5-0.2,0.9-0.4,1.2-0.8c0.3-0.3,0.3-0.8,0.2-1.3c-0.1-0.3-0.2-0.5-0.4-0.7
					c-0.2-0.1-0.4-0.3-0.6-0.3c-0.2-0.1-0.5-0.1-0.7,0c-0.2,0-0.5,0.1-0.7,0.2c-0.3,0.1-0.5,0.2-0.7,0.3c-0.2,0.1-0.3,0.2-0.5,0.3
					c-0.1,0.1-0.2,0.3-0.3,0.5s-0.1,0.5-0.1,0.8l-0.1,1.9c0,0.5-0.1,1-0.3,1.4s-0.4,0.7-0.6,1c-0.3,0.3-0.6,0.5-1.1,0.7
					c-0.4,0.2-0.9,0.4-1.4,0.6c-0.6,0.2-1.2,0.3-1.8,0.4c-0.6,0-1.1,0-1.6-0.2s-0.9-0.5-1.3-0.9c-0.4-0.4-0.7-1-0.9-1.6
					c-0.2-0.5-0.2-1-0.2-1.5s0.2-1,0.4-1.4s0.5-0.8,0.9-1.1c0.4-0.3,0.8-0.6,1.3-0.7l0.8-0.3l0.7,2.2l-0.7,0.2
					c-0.4,0.1-0.7,0.4-1,0.7c-0.2,0.3-0.3,0.8-0.1,1.3c0.1,0.4,0.3,0.6,0.4,0.8c0.2,0.2,0.4,0.3,0.6,0.3c0.2,0.1,0.5,0,0.8,0
					c0.3-0.1,0.6-0.2,0.9-0.3c0.4-0.1,0.7-0.2,1-0.4c0.2-0.1,0.4-0.2,0.6-0.4c0.1-0.1,0.2-0.3,0.3-0.5c0-0.2,0.1-0.4,0.1-0.7
					l0.1-1.7c0.1-1.1,0.4-1.8,0.9-2.3s1.3-0.9,2.2-1.2c0.6-0.2,1.1-0.3,1.7-0.3c0.6,0,1.1,0.1,1.5,0.3c0.5,0.2,0.9,0.5,1.2,0.9
					c0.4,0.4,0.6,0.9,0.8,1.5c0.2,0.5,0.2,1.1,0.2,1.6c-0.1,0.5-0.2,1-0.4,1.4c-0.5,0.9-1.1,1.4-2,1.7L186.7,104.3z"/>
			</g>
			<circle class="st0" cx="186.6" cy="125.6" r="2.9"/>
			<circle class="st0" cx="28.4" cy="125.6" r="2.9"/>
			<path class="st0" d="M106.7,187.2c-20.3,0-39.3-10.1-50.7-26.9l-0.8-1.2l37-21.4c0.6-0.4,1.4-0.1,1.8,0.5s0.1,1.4-0.5,1.8L59,160
				c11,15.4,28.7,24.6,47.7,24.6c32.2,0,58.5-26.2,58.5-58.5c0-7-1.2-13.8-3.6-20.2c-0.2-0.7,0.1-1.4,0.8-1.7
				c0.7-0.2,1.4,0.1,1.7,0.8c2.5,6.8,3.8,13.9,3.8,21.1C167.8,159.8,140.4,187.2,106.7,187.2z"/>
			<path class="st0" d="M50.1,147.5c-0.5,0-1-0.3-1.2-0.9c-2.5-6.8-3.8-13.9-3.8-21.1c0-33.7,27.4-61.1,61.1-61.1
				c20.3,0,39.3,10.1,50.7,26.9l0.8,1.2l-29.9,16.8c-0.6,0.4-1.4,0.1-1.8-0.5s-0.1-1.4,0.5-1.8l27.4-15.4
				c-11-15.4-28.7-24.6-47.7-24.6C74,67,47.7,93.2,47.7,125.5c0,7,1.2,13.8,3.6,20.2c0.2,0.7-0.1,1.4-0.8,1.7
				C50.4,147.5,50.2,147.5,50.1,147.5z"/>
			<g>
				<path class="st0" d="M122,158.6c-3.9,0-7.7-2.2-9.5-6l-24.5-51c-0.2-0.4-0.2-0.8-0.1-1.2c0.1-0.4,0.4-0.7,0.8-0.9l16-7.7
					c0.8-0.4,1.7,0,2.1,0.7l7.5,15.5c0.4,0.8,0.1,1.7-0.7,2.1c-0.8,0.4-1.7,0-2.1-0.7l-6.8-14.1l-13.2,6.3l23.9,49.7
					c1.7,3.6,6.1,5.2,9.8,3.5c1.8-0.8,3.1-2.3,3.7-4.2c0.7-1.8,0.5-3.8-0.3-5.6l-14.1-29.4c-0.4-0.8,0-1.7,0.7-2.1
					c0.8-0.4,1.7,0,2.1,0.7l14.1,29.4c1.2,2.5,1.4,5.4,0.4,8c-0.9,2.6-2.8,4.7-5.4,5.9C125,158.3,123.5,158.6,122,158.6z"/>
			</g>
			<g>
				<path class="st0" d="M95.6,111.6c-0.4,0-0.8-0.2-1.1-0.5c-0.6-0.6-0.6-1.6,0-2.2l1.5-1.5c2.6-2.5,5.9-4.3,9.4-5.2l3-0.8
					c0.8-0.2,1.7,0.3,1.9,1.1c0.2,0.8-0.3,1.7-1.1,1.9l-3,0.8c-3,0.8-5.8,2.3-8,4.4l-1.5,1.5C96.4,111.5,96,111.6,95.6,111.6z"/>
			</g>
			<g>
				<path class="st0" d="M88.7,102.4c-0.7,0-1.4-0.1-2-0.3c-1.5-0.5-2.8-1.6-3.5-3.1s-0.8-3.1-0.3-4.7c0.5-1.5,1.6-2.8,3.1-3.5
					l13.6-6.5c1.5-0.7,3.1-0.8,4.7-0.3c1.5,0.5,2.8,1.6,3.5,3.1s0.8,3.1,0.3,4.7c-0.5,1.5-1.6,2.8-3.1,3.5l-13.6,6.5
					C90.4,102.2,89.6,102.4,88.7,102.4z M102.2,86.8c-0.4,0-0.9,0.1-1.3,0.3l0,0l-13.6,6.5c-1.5,0.7-2.1,2.5-1.4,3.9
					c0.7,1.5,2.5,2.1,3.9,1.4l13.6-6.5c0.7-0.3,1.2-0.9,1.5-1.7s0.2-1.5-0.1-2.3c-0.3-0.7-0.9-1.2-1.7-1.5
					C102.9,86.8,102.6,86.8,102.2,86.8z M100.3,85.7L100.3,85.7L100.3,85.7z"/>
			</g>
			<path class="st0" d="M80.6,130.4c-0.6,0-1.2-0.1-1.8-0.2c-3.1-0.7-6.1-3.3-6-7.5c0-1,0.2-2.1,0.6-3c2.4-5.8,8.6-12,8.9-12.2
				c0.1-0.1,0.3-0.2,0.4-0.3c0.6-0.3,1.4-0.2,1.8,0.3c0.1,0.1,0.3,0.3,0.4,0.5c0.1,0.3,3.6,8.5,3.5,14.8c0,1.1-0.3,2.2-0.7,3.2
				C86.1,129.1,83.3,130.4,80.6,130.4z M82.8,111.4c-1.9,2.1-5.1,6-6.5,9.5c-0.2,0.6-0.4,1.2-0.4,1.9c0,2.7,1.9,4.1,3.6,4.4
				c1.7,0.4,4.1-0.1,5.3-2.6c0.3-0.6,0.4-1.3,0.4-1.9C85.2,118.9,83.8,114.1,82.8,111.4z"/>
		</g>
	</g>
</g>
</svg>
