<?xml version="1.0" encoding="utf-8"?>
<!-- Generator: Adobe Illustrator 23.1.1, SVG Export Plug-In . SVG Version: 6.00 Build 0)  -->
<svg version="1.1" id="Layer_1" xmlns="http://www.w3.org/2000/svg" xmlns:xlink="http://www.w3.org/1999/xlink" x="0px" y="0px"
	 viewBox="0 0 132.5 96.6" style="enable-background:new 0 0 132.5 96.6;" xml:space="preserve">
<style type="text/css">
	.st0{clip-path:url(#SVGID_2_);}
	.st1{fill:#F1F1F1;}
	.st2{opacity:0.47;}
	.st3{fill:#FFFFFF;}
	.st4{clip-path:url(#SVGID_8_);}
	.st5{fill:#DCBF84;}
	.st6{fill-rule:evenodd;clip-rule:evenodd;fill:#DCBF84;}
	.st7{opacity:0.77;}
	.st8{opacity:0.67;}
	.st9{fill:#CDD1D3;}
	.st10{fill:#F1F1F1;stroke:#FFFFFF;stroke-width:1.1402;stroke-miterlimit:10;}
	.st11{opacity:0.37;}
	.st12{fill:#C1C1C1;}
	.st13{clip-path:url(#SVGID_16_);}
	.st14{stroke:#000000;stroke-miterlimit:10;}
	.st15{fill:none;stroke:#000000;stroke-miterlimit:10;}
	.st16{fill:none;}
	.st17{opacity:0.67;stroke:#000000;stroke-miterlimit:10;}
	.st18{fill:#EAEAEA;}
	.st19{fill:#D6D7D8;}
	.st20{fill:#231F20;}
	.st21{stroke:#000000;stroke-width:0.5;stroke-miterlimit:10;}
	.st22{opacity:0.17;}
	.st23{opacity:0.91;}
	.st24{fill:#6E6E6E;}
	.st25{fill:#010101;}
	.st26{fill:#4F4F4F;}
	.st27{fill:#FAFAFC;}
	.st28{fill:none;stroke:#666666;stroke-miterlimit:10;}
	.st29{fill:#00BF22;}
	.st30{fill-rule:evenodd;clip-rule:evenodd;fill:#FFFFFF;}
	.st31{clip-path:url(#SVGID_56_);}
	.st32{fill:#FFFFFF;stroke:#000000;stroke-miterlimit:10;}
	.st33{fill:#FFFFFF;stroke:#000000;stroke-width:1.0705;stroke-miterlimit:10;}
	.st34{stroke:#000000;stroke-width:0.7631;stroke-miterlimit:10;}
	.st35{clip-path:url(#SVGID_74_);}
	.st36{fill:none;stroke:#000000;stroke-width:3;stroke-linecap:round;stroke-linejoin:round;stroke-miterlimit:10;}
	.st37{fill:none;stroke:#000000;stroke-width:1.2896;stroke-miterlimit:10;}
	.st38{fill:none;stroke:#000000;stroke-width:1.3275;stroke-miterlimit:10;}
	.st39{fill:none;stroke:#DCBF84;stroke-miterlimit:10;}
	.st40{stroke:#000000;stroke-width:1.1115;stroke-miterlimit:10;}
</style>
<g>
	<g>
		<g>
			<path d="M75.1,17.2c9.5,0,19,0,28.5,0c0.7,0,1.3,0,2,0.2c1.9,0.5,3,2.1,3.1,4.2c0,1.4,0,2.9,0,4.3c0,1.3,0,1.3,1.2,1.3
				c4.9,0,9.8,0,14.7,0c0.3,0,0.7,0,1,0c1.1-0.1,1.8,1.1,1.9,1.9c0.1,0.9-0.6,1.8-1.6,2c-0.4,0.1-0.9,0-1.3,0c-4.7,0-9.5,0-14.2,0
				c-0.4,0-0.8,0-1.2,0c-0.2,0-0.5,0.3-0.5,0.5c0,1.9,0,3.8,0,5.6c0,0.2,0.3,0.4,0.5,0.5c0.5,0.1,1,0,1.5,0c1.2,0.1,2.1,0.9,2.1,2.1
				c0,1.1-0.8,1.9-2,1.9c-0.7,0-1.3,0.1-2,0.1c-0.1,0.7-0.1,1.4-0.2,2.1c0,1.2,0,2.3,0,3.5c0,0.9,0,0.9,0.9,0.9c3.5,0,7.1,0,10.6,0
				c0.4,0,0.9,0,1.3,0c1.2,0.2,2,1.4,1.7,2.6c-0.2,0.9-0.7,1.3-1.6,1.4c-0.9,0.1-1.9,0-2.8,0c-2.8,0-5.5,0-8.3,0c-0.4,0-0.8,0-1.2,0
				c-0.5,0-0.7,0.3-0.7,0.7c0,0.4,0,0.8,0,1.2c0,5.1,0,10.3,0,15.4c0,1.1-0.2,2.2-0.9,3.1c-0.8,1.1-2,1.7-3.4,1.7
				c-3.2,0-6.4,0-9.6,0c-0.4,0-0.9,0-1.3,0c-1.1,0-1,0-1.4,1.1c-1.5,4.5-5.7,7.5-10,7.5c-4.4,0.1-9-2.8-10.5-7.6
				c-0.3-1.1-0.3-1.1-1.4-1.1c-7.7,0-15.5,0-23.2,0c-2.7,0-5.4,0-8.1,0c-1,0-1,0-1.3,1c-0.9,2.7-2.5,4.8-5,6.3
				c-3.6,2.1-8.7,1.7-11.8-0.9c-1.8-1.5-3.1-3.2-3.7-5.5c-0.2-0.7-0.5-1-1.2-0.9c-1.4,0.1-2.9,0-4.3,0c-1.7,0-2.3-0.6-2.3-2.3
				c0-7.2,0-14.3,0-21.5c0-1.6,0.7-2.3,2.3-2.3c1.2,0,2.4,0,3.6,0c0.6,0,0.9-0.2,1.2-0.7c2.1-3.8,4.3-7.5,6.5-11.3
				c0.2-0.4,0.5-0.7,0.7-1.1c0.6-1.4,1.8-1.8,3.2-1.8c4.3,0,8.6,0,12.9,0c0.4,0,0.8,0,1.2,0c0.4,0,0.6-0.2,0.6-0.6c0-0.7,0-1.3,0-2
				c0-2.8,0-5.5,0-8.3c0-0.3,0-0.7,0-1c0.1-2.8,1.8-4.4,4.7-4.4C55.8,17.1,65.5,17.2,75.1,17.2z M72.3,21.2
				C72.3,21.2,72.3,21.2,72.3,21.2c-1.4,0-2.8,0-4.1,0c-7.1,0-14.2,0-21.4,0c-1,0-1,0-1,1.1c0,1.8,0,3.5,0,5.3c0,7.6,0,15.2,0,22.8
				c0,6.2,0,12.5,0,18.7c0,1.5,0.2,1.2,1.3,1.2c7.7,0,15.3,0,23,0c1.3,0,1.3,0,1.7-1.2c1.4-4.4,5.8-7.5,10.4-7.4
				c4.3,0.1,8.8,3.1,10,7.7c0.2,0.7,0.4,1,1.2,1c3.4,0,6.7,0,10.1,0c0.9,0,1,0,1-1c0-5.1,0-10.1,0-15.2c0-2.1,0.2-1.8-1.9-1.8
				c-3.9,0-7.7,0-11.6,0c-1.2,0-1.8-0.6-1.9-1.6c-0.1-1.2,0.4-2,1.5-2.3c0.4-0.1,0.9-0.1,1.3-0.1c2.9,0,5.7,0,8.6,0c1,0,2.1,0,3.1,0
				c0.5,0,0.8-0.1,0.8-0.7c0-1.8,0-3.5,0-5.3c0-0.4-0.2-0.6-0.6-0.6c-0.4,0-0.9,0-1.3,0c-7,0-13.9,0-20.9,0c-0.4,0-0.8,0-1.2,0
				c-1.1-0.1-1.9-0.8-1.9-1.8c-0.1-1.1,0.5-1.9,1.6-2.1c0.5-0.1,1.1,0,1.7,0c6.9,0,13.8,0,20.7,0c0.4,0,0.8,0,1.2,0
				c0.4,0,0.7-0.1,0.7-0.6c0.1-1.6,0.2-3.3,0.2-4.9c0-1-0.1-1-1-1c-2.6,0-5.3,0-7.9,0c-1.6,0-2.5-0.8-2.5-2c0-1.2,0.9-2,2.5-2
				c2.3,0,4.5,0,6.8,0c0.6,0,1.1,0,1.7,0c0.2,0,0.5-0.3,0.5-0.5c0-1.5-0.1-3-0.1-4.4c0-0.5-0.3-0.7-0.7-0.7
				c-2.3-0.1-4.5-0.2-6.8-0.2C88.8,21.2,80.5,21.2,72.3,21.2z M27.4,52.3c-4.1,0-8.2,0-12.2,0c-0.4,0-0.8,0-1.2,0
				c-0.5,0-0.7,0.3-0.7,0.7c0,0.4,0,0.8,0,1.2c0,4.5,0,9,0,13.6c0,0.8,0.1,1.6,0.1,2.5c0.9,0.1,1.7,0.1,2.6,0.2
				c0.7,0.1,1-0.2,1.1-0.8c0.6-2.1,1.8-3.9,3.4-5.3c2.6-2.3,5.8-3,9.1-2.3c3.7,0.7,6.4,3.1,7.8,6.7c0.2,0.6,0.2,1.4,0.6,1.6
				c0.5,0.3,1.3,0.1,1.9,0.2c0.2,0,0.4,0,0.7,0c0.6,0.1,1-0.1,0.9-0.8c0-0.2,0-0.4,0-0.7c0-5,0-10,0-15c0-0.3,0-0.6,0-0.8
				c0-0.5-0.3-0.7-0.7-0.7c-0.4,0-0.8,0-1.2,0C35.5,52.3,31.5,52.3,27.4,52.3z M20.7,48.3c0.8,0,1.4,0,1.9,0c4.8,0,9.6,0,14.4,0
				c1.2,0,2.4,0,3.6,0c0.5,0,0.9-0.1,0.8-0.7c0-0.1,0-0.2,0-0.3c0-2.9,0-5.7,0-8.6c0-1,0-1-1-1c-0.1,0-0.1,0-0.2,0
				c-4.1,0-8.2,0-12.2,0c-0.8,0-1.3,0.2-1.7,1C24.6,41.8,22.7,44.9,20.7,48.3z M81.9,65.8c-3.9,0-6.6,3.1-6.7,6.5
				c0,3.5,2.7,6.7,6.7,6.7c4.1,0,6.6-3.6,6.6-6.6C88.5,69,85.5,65.8,81.9,65.8z M27.4,79.1c3,0.1,6.5-2.3,6.7-6.6
				c0.1-3.5-3.1-6.6-6.6-6.6c-3.9,0-6.6,3.5-6.6,6.6C20.8,75.7,23.7,79.1,27.4,79.1z"/>
		</g>
	</g>
</g>
</svg>
