<?xml version="1.0" encoding="utf-8"?>
<!-- Generator: Adobe Illustrator 23.1.1, SVG Export Plug-In . SVG Version: 6.00 Build 0)  -->
<svg version="1.1" id="Layer_1" xmlns="http://www.w3.org/2000/svg" xmlns:xlink="http://www.w3.org/1999/xlink" x="0px" y="0px"
	 viewBox="0 0 132.5 96.6" style="enable-background:new 0 0 132.5 96.6;" xml:space="preserve">
<style type="text/css">
	.st0{clip-path:url(#SVGID_2_);}
	.st1{fill:#F1F1F1;}
	.st2{opacity:0.47;}
	.st3{fill:#FFFFFF;}
	.st4{clip-path:url(#SVGID_8_);}
	.st5{fill:#DCBF84;}
	.st6{fill-rule:evenodd;clip-rule:evenodd;fill:#DCBF84;}
	.st7{opacity:0.77;}
	.st8{opacity:0.67;}
	.st9{fill:#CDD1D3;}
	.st10{fill:#F1F1F1;stroke:#FFFFFF;stroke-width:1.1402;stroke-miterlimit:10;}
	.st11{opacity:0.37;}
	.st12{fill:#C1C1C1;}
	.st13{clip-path:url(#SVGID_16_);}
	.st14{stroke:#000000;stroke-miterlimit:10;}
	.st15{fill:none;stroke:#000000;stroke-miterlimit:10;}
	.st16{fill:none;}
	.st17{opacity:0.67;stroke:#000000;stroke-miterlimit:10;}
	.st18{fill:#EAEAEA;}
	.st19{fill:#D6D7D8;}
	.st20{fill:#231F20;}
	.st21{stroke:#000000;stroke-width:0.5;stroke-miterlimit:10;}
	.st22{opacity:0.17;}
	.st23{opacity:0.91;}
	.st24{fill:#6E6E6E;}
	.st25{fill:#010101;}
	.st26{fill:#4F4F4F;}
	.st27{fill:#FAFAFC;}
	.st28{fill:none;stroke:#666666;stroke-miterlimit:10;}
	.st29{fill:#00BF22;}
	.st30{fill-rule:evenodd;clip-rule:evenodd;fill:#FFFFFF;}
	.st31{clip-path:url(#SVGID_56_);}
	.st32{fill:#FFFFFF;stroke:#000000;stroke-miterlimit:10;}
	.st33{fill:#FFFFFF;stroke:#000000;stroke-width:1.0705;stroke-miterlimit:10;}
	.st34{stroke:#000000;stroke-width:0.7631;stroke-miterlimit:10;}
	.st35{clip-path:url(#SVGID_74_);}
	.st36{fill:none;stroke:#000000;stroke-width:3;stroke-linecap:round;stroke-linejoin:round;stroke-miterlimit:10;}
	.st37{fill:none;stroke:#000000;stroke-width:1.2896;stroke-miterlimit:10;}
	.st38{fill:none;stroke:#000000;stroke-width:1.3275;stroke-miterlimit:10;}
	.st39{fill:none;stroke:#DCBF84;stroke-miterlimit:10;}
	.st40{stroke:#000000;stroke-width:1.1115;stroke-miterlimit:10;}
</style>
<g>
	<g>
		<g>
			<path d="M60.1,13.4c13.1,0,26.1,0,39.2,0c5.4,0,9.3,3,10.8,8.2c0.2,0.8,0.4,1.8,0.4,2.6c0,6.2,0,12.4,0,18.5c0,0.3,0,0.6,0,0.9
				c-0.1,1.1-0.9,2-1.8,1.9c-1-0.1-1.5-0.8-1.8-1.7c0-0.1,0-0.2,0-0.3c-0.1-0.8,0.1-1.9-0.3-2.2c-0.6-0.4-1.7-0.3-2.6-0.3
				c-29.3,0-58.6,0-87.9,0c-0.3,0-0.6,0-0.9,0c-2.1,0-2.1,0-2.1,2.1c0,7.4,0,14.7,0,22.1c0,1.1,0.2,2.2,0.4,3.2
				c0.6,3.4,3.2,5.4,6.7,5.8c0.7,0.1,1.4,0,2.1,0c17.2,0,34.5,0,51.7,0c0.7,0,1.4,0,2.1,0c1.1,0.1,2,0.9,1.9,1.8
				c-0.1,1-0.8,1.6-1.7,1.8c-0.8,0.1-1.6,0-2.4,0c-17.4,0-34.9,0-52.3,0c-7.3,0-11.9-4.5-12.1-11.8c-0.1-4.6,0-9.2,0-13.7
				c0-8.5,0-16.9,0-25.4c0-1.5,0.1-3,0.4-4.4c0.8-5.3,5.2-9,10.5-9.1c4.6-0.1,9.2,0,13.8,0C42.8,13.4,51.5,13.4,60.1,13.4z M60.1,17
				c-12.7,0-25.3,0-38,0c-0.7,0-1.4,0-2.1,0c-3.1,0.2-5.4,1.9-6.3,4.7c-1.2,3.8-1.3,3.7,2.5,3.7c24.9,0.2,49.7-0.4,74.6,0.3
				c4.9,0.1,9.7-0.2,14.6-0.3c0.1,0,0.2,0,0.3,0c0.9,0.1,1.2-0.5,1.1-1.3c-0.1-0.6-0.1-1.2-0.2-1.8c-0.9-3.3-3.8-5.4-7.7-5.4
				C86,17,73,17,60.1,17z M106.9,29.4c-1.4,0-2.6,0-3.7,0c-6.8-0.1-13.5-0.3-20.3-0.3c-2.9,0-5.7,0.3-8.6,0.3c-18.9,0-37.9,0-56.8,0
				c-1,0-2,0.1-3-0.1c-0.9-0.2-1.4,0.1-1.4,1c0,2,0,4,0,6c0,0.8,0.4,1,1.1,1c0.5,0,1,0,1.5,0c29.6,0,59.2,0,88.8,0
				c0.4,0,0.8,0,1.2,0c0.8,0,1.3-0.3,1.3-1.2C106.8,33.9,106.9,31.6,106.9,29.4z"/>
			<path d="M102.3,92.3c-12.3,0-23-10-23-22.9c0-11.8,8.9-22.7,22.7-22.9c13.4-0.2,23.4,10.1,23.2,23.2
				C125.1,83.1,114.2,92.3,102.3,92.3z M102.2,88.7c10,0,19.2-7.6,19.3-19.1c0.1-11.9-8.8-19.6-19.4-19.5
				C90.4,50.3,82.9,59.5,83,69.6C83.1,80,91.7,88.7,102.2,88.7z"/>
			<path d="M75.2,64.2c0,2-1.5,3.6-3.5,3.6c-2.1,0-3.8-1.7-3.8-3.8c0.1-1.9,1.8-3.5,3.7-3.5C73.7,60.6,75.2,62.2,75.2,64.2z"/>
			<g>
				<path d="M101.9,58.4c-0.9,0-1.6,0.2-2.2,0.7c-0.6,0.5-0.9,1.1-0.8,1.8c0,0.7,0.2,1.3,0.7,1.9c0.4,0.6,1,1.2,1.6,1.7
					c0.7,0.5,1.4,1,2.2,1.5c0.8,0.5,1.6,1,2.4,1.6c0.8,0.5,1.5,1.1,2.2,1.7c0.7,0.6,1.2,1.2,1.6,2c0.4,0.7,0.6,1.5,0.6,2.4
					c0,1.9-0.6,3.4-1.9,4.6c-1.3,1.2-3,1.8-5.1,2v2.6h-1.8v-2.6c-2.5-0.1-4.9-0.7-7-1.7v-6.2H95c0.1,0.2,0.3,0.4,0.5,0.8
					c0.2,0.3,0.6,0.9,1.2,1.7s1.2,1.5,1.7,2.1c0.6,0.6,1.2,1.2,2,1.7c0.8,0.5,1.5,0.8,2.1,0.8c0.7,0,1.4-0.2,2-0.6
					c0.6-0.4,1-1,1-1.8c0-0.7-0.3-1.5-0.8-2.2c-0.5-0.7-1.2-1.3-2-1.8c-0.8-0.5-1.7-1.1-2.6-1.7c-0.9-0.6-1.8-1.2-2.6-1.8
					c-0.8-0.6-1.5-1.3-2-2.2c-0.5-0.9-0.8-1.8-0.8-2.7c0-2,0.7-3.6,2-4.8c1.3-1.2,2.9-1.8,4.7-1.9v-2.2h1.8v2.2
					c2.5,0.1,4.5,0.5,6,1.1v7h-0.7c-0.4-1-0.9-1.8-1.3-2.6c-0.4-0.7-0.9-1.5-1.5-2.3c-0.6-0.8-1.2-1.4-1.9-1.8
					C103.3,58.6,102.6,58.4,101.9,58.4z"/>
			</g>
		</g>
	</g>
</g>
</svg>
