<?xml version="1.0" encoding="utf-8"?>
<!-- Generator: Adobe Illustrator 23.1.1, SVG Export Plug-In . SVG Version: 6.00 Build 0)  -->
<svg version="1.1" id="Layer_1" xmlns="http://www.w3.org/2000/svg" xmlns:xlink="http://www.w3.org/1999/xlink" x="0px" y="0px"
	 viewBox="0 0 132.5 96.6" style="enable-background:new 0 0 132.5 96.6;" xml:space="preserve">
<style type="text/css">
	.st0{clip-path:url(#SVGID_2_);}
	.st1{fill:#F1F1F1;}
	.st2{opacity:0.47;}
	.st3{fill:#FFFFFF;}
	.st4{clip-path:url(#SVGID_8_);}
	.st5{fill:#DCBF84;}
	.st6{fill-rule:evenodd;clip-rule:evenodd;fill:#DCBF84;}
	.st7{opacity:0.77;}
	.st8{opacity:0.67;}
	.st9{fill:#CDD1D3;}
	.st10{fill:#F1F1F1;stroke:#FFFFFF;stroke-width:1.1402;stroke-miterlimit:10;}
	.st11{opacity:0.37;}
	.st12{fill:#C1C1C1;}
	.st13{clip-path:url(#SVGID_16_);}
	.st14{stroke:#000000;stroke-miterlimit:10;}
	.st15{fill:none;stroke:#000000;stroke-miterlimit:10;}
	.st16{fill:none;}
	.st17{opacity:0.67;stroke:#000000;stroke-miterlimit:10;}
	.st18{fill:#EAEAEA;}
	.st19{fill:#D6D7D8;}
	.st20{fill:#231F20;}
	.st21{stroke:#000000;stroke-width:0.5;stroke-miterlimit:10;}
	.st22{opacity:0.17;}
	.st23{opacity:0.91;}
	.st24{fill:#6E6E6E;}
	.st25{fill:#010101;}
	.st26{fill:#4F4F4F;}
	.st27{fill:#FAFAFC;}
	.st28{fill:none;stroke:#666666;stroke-miterlimit:10;}
	.st29{fill:#00BF22;}
	.st30{fill-rule:evenodd;clip-rule:evenodd;fill:#FFFFFF;}
	.st31{clip-path:url(#SVGID_56_);}
	.st32{fill:#FFFFFF;stroke:#000000;stroke-miterlimit:10;}
	.st33{fill:#FFFFFF;stroke:#000000;stroke-width:1.0705;stroke-miterlimit:10;}
	.st34{stroke:#000000;stroke-width:0.7631;stroke-miterlimit:10;}
	.st35{clip-path:url(#SVGID_74_);}
	.st36{fill:none;stroke:#000000;stroke-width:3;stroke-linecap:round;stroke-linejoin:round;stroke-miterlimit:10;}
	.st37{fill:none;stroke:#000000;stroke-width:1.2896;stroke-miterlimit:10;}
	.st38{fill:none;stroke:#000000;stroke-width:1.3275;stroke-miterlimit:10;}
	.st39{fill:none;stroke:#DCBF84;stroke-miterlimit:10;}
	.st40{stroke:#000000;stroke-width:1.1115;stroke-miterlimit:10;}
</style>
<g>
	<g>
		<g>
			<path d="M68.3,8.7c15.7,0,31.3,0,47,0c0.4,0,0.9,0,1.3,0c1,0.1,1.6,0.7,1.6,1.7c0,0.3,0,0.7,0,1c0,5.4,0,10.8,0,16.2
				c0,0.3,0,0.7,0,1c-0.1,1-0.5,1.5-1.5,1.6c-0.4,0-0.9,0-1.3,0c-2.3,0-4.6,0-7,0c-0.6,0-0.9,0.2-0.9,0.8c0,0.3,0,0.7,0,1
				c0,14,0,27.9,0,41.9c0,2.2-0.2,1.9,2,1.9c0.8,0,1.7,0,2.5,0c1,0.1,1.6,0.6,1.6,1.5c0,2.6,0,5.3,0,7.9c0,1-0.6,1.5-1.6,1.5
				c-0.4,0-0.9,0-1.3,0c-14.6,0-29.2,0-43.9,0c-14.3,0-28.6,0-42.9,0c-0.4,0-0.9,0-1.3,0c-2,0-2.4-0.4-2.4-2.5c0-1.8,0-3.6,0-5.5
				c0-0.3,0-0.6,0-0.8c0.1-1.7,0.7-2.3,2.3-2.3c1,0,2,0,3,0c0.6,0,0.9-0.2,0.9-0.9c0-0.2,0-0.4,0-0.7c0-14.2,0-28.4,0-42.5
				c0-0.2,0-0.4,0-0.7c0-0.6-0.3-0.9-0.9-0.9c-1,0-2.1,0-3.1,0c-1.5,0-3.1,0-4.6,0c-1.6,0-2.2-0.5-2.2-2.2c0-5.7,0-11.5,0-17.2
				c0-1.5,0.6-2.1,2.1-2.1c1.3,0,2.6,0,4,0c0.4,0,0.8,0,1.2,0 M55.5,8.7c2,0,4,0,6,0 M43.4,8.7c1.9,0,3.9,0,5.8,0 M30.4,8.7
				c2.2,0,4.3,0,6.5,0 M58.1,75.9c6.6,0,13.2,0,19.9,0c1.4,0,1.4,0,1.4-1.4c0-0.2,0-0.4,0-0.7c0-11.3,0-22.5,0-33.8
				c0-2.3,0-2.3-2.2-2.3c-1.8,0-1.7-0.2-1.7,1.7c0,1.7,0,3.4,0,5.1c0,0.9-0.7,1.6-1.5,1.7c-0.5,0.1-1.4-0.4-1.6-0.9
				c-0.1-0.3-0.2-0.7-0.2-1.1c0-1.5,0-3,0-4.5c0-2.3,0.4-2-2.2-2c-0.7,0-0.8,0.3-0.8,0.9c0,1.4,0,2.9,0,4.3c0,0.6,0,1.2,0,1.8
				c0,0.8-0.6,1.3-1.3,1.5c-0.6,0.2-1.3-0.1-1.7-0.8c-0.2-0.4-0.3-0.8-0.3-1.3c0-1.5,0-3,0-4.5c0-2.3,0.4-2-2.2-2
				c-0.7,0-0.8,0.3-0.8,0.9c0,1.7,0,3.3,0,5c0,0.4,0,0.8,0,1.2c-0.1,0.8-0.8,1.5-1.5,1.5c-0.6,0.1-1.4-0.4-1.6-1.2
				c-0.1-0.4-0.2-0.9-0.2-1.3c0-1.4,0-2.9,0-4.3c0-2.1,0.2-1.8-1.9-1.8c-0.2,0-0.3,0-0.5,0c-0.4,0-0.6,0.2-0.6,0.6
				c0,0.6,0,1.1,0,1.7c0,1.5,0,3.1,0,4.6c0,0.9-0.8,1.6-1.6,1.7c-0.7,0.1-1.5-0.6-1.7-1.4c-0.1-0.4-0.1-0.8-0.1-1.1c0-1.3,0-2.6,0-4
				c0-2.4,0.5-2.1-2.3-2.1c-0.5,0-0.7,0.2-0.7,0.7c0,1.4,0,2.8,0,4.1c0,0.7,0,1.4,0,2.2c-0.1,0.9-0.8,1.6-1.6,1.6
				c-0.6,0-1.4-0.5-1.6-1.3C47,44.7,47,44.3,47,44c0-1.4,0-2.8,0-4.1c0-2.3,0.4-2-2.2-2c-0.7,0-0.8,0.3-0.8,0.9c0,1.4,0,2.9,0,4.3
				c0,0.6,0,1.2,0,1.8c-0.1,0.8-0.7,1.5-1.5,1.6c-0.6,0.1-1.4-0.4-1.6-1.1c-0.1-0.4-0.2-0.7-0.2-1.1c0-1.2,0-2.3,0-3.5
				c0-0.9-0.1-1.7-0.1-2.6c-1-0.1-1.9-0.1-2.9-0.2c-0.6,0-1,0.2-0.9,0.8c0,0.3,0,0.7,0,1c0,11.5,0,23,0,34.4c0,1.8,0,1.8,1.8,1.8
				C45.1,75.9,51.6,75.9,58.1,75.9z M66.9,27c15.3,0,30.6,0,45.8,0c0.5,0,1,0,1.5,0c0.5,0,0.7-0.1,0.7-0.7c0-1.3,0-2.5,0-3.8
				c0-0.4-0.2-0.6-0.6-0.6c-0.3,0-0.6,0-0.8,0c-18.2,0-36.4,0-54.6,0c-5.4,0-10.8,0-16.2,0c-0.6,0-1.2-0.1-1.8-0.3
				c-0.7-0.3-1-1.1-0.8-1.8c0.2-0.7,0.7-1.1,1.4-1.1c0.5,0,1,0,1.5,0c23.3,0,46.7,0,70,0c0.4,0,0.8,0,1.2,0c0.6,0,0.8-0.3,0.8-0.8
				c0-1.3,0-2.6,0-4c0-2,0.1-1.7-1.8-1.7c-30.8,0-61.6,0-92.3,0c-0.4,0-0.9,0-1.3,0c-0.4,0-0.6,0.2-0.6,0.6c0,1.8,0,3.5,0,5.3
				c0,0.5,0.3,0.6,0.8,0.6c0.8,0,1.5,0,2.3,0c2.5,0,5.1,0,7.6,0c0.9,0,1.4,0.5,1.5,1.2c0.2,0.8-0.2,1.5-1,1.8
				c-0.5,0.2-1.1,0.2-1.6,0.2c-2.8,0-5.5,0-8.3,0c-1.3,0-1.3,0-1.3,1.2c0,0.9,0,1.9,0,2.8c0,1,0,1,1,1c0.4,0,0.8,0,1.2,0
				C36.3,27,51.6,27,66.9,27z M66.9,30.3c-11.8,0-23.6,0-35.4,0c-1.9,0-1.7-0.2-1.7,1.8c0,14,0,27.9,0,41.9c0,2.2-0.2,1.9,1.9,1.9
				c2,0,1.8,0.3,1.8-1.9c0-12.1,0-24.3,0-36.4c0-0.4,0-0.9,0-1.3c0.1-1.2,0.8-1.7,2-1.8c0.3,0,0.7,0,1,0c20.2,0,40.5,0,60.7,0
				c3,0,3.1,0.1,3.1,3.2c0,12.2,0,24.5,0,36.7c0,1.6,0,1.5,1.4,1.5c0.3,0,0.6,0,0.8,0c1.7,0,1.7,0,1.7-1.7c0-14,0-28,0-42
				c0-2,0-1.9-1.9-1.9C90.5,30.3,78.7,30.3,66.9,30.3z M97,56.7c0-5.8,0-11.7,0-17.5c0-1.4,0.1-1.4-1.3-1.4c-3.9,0-7.7,0-11.6,0
				c-0.3,0-0.6-0.1-0.8,0c-0.2,0.1-0.4,0.3-0.5,0.5c-0.1,0.2,0,0.5,0,0.8c0,11.8,0,23.7,0,35.5c0,1.2,0,1.2,1.3,1.2
				c3.9,0,7.8,0,11.7,0c0.2,0,0.5,0.1,0.7,0c0.2-0.1,0.5-0.3,0.5-0.5c0.1-0.4,0-0.9,0-1.3C97,68.3,97,62.5,97,56.7z M66.9,83.6
				c13.7,0,27.4,0,41,0c0.7,0,1.4-0.1,2.1-0.1c0.1-0.8,0.2-1.5,0.2-2.3c0-2.3,0.3-2-2-2c-27.2,0-54.4,0-81.6,0c-1,0-2,0.1-3,0.1
				c-0.1,1-0.2,2.1-0.2,3.1c0,1.2,0,1.2,1.2,1.2c0.3,0,0.7,0,1,0C39.4,83.6,53.2,83.6,66.9,83.6z"/>
			<path d="M58.1,71.4c-5.2,0-10.5,0-15.7,0c-0.3,0-0.7,0-1,0c-1.3,0.2-2-0.8-2-2c0-2.1,0-4.3,0-6.5c0-0.7,0-1.3,0-2
				c0-0.6,0.3-1.2,0.8-1.5c1.1-0.7,2.3-0.1,2.4,1.2c0.1,0.7,0,1.4,0,2.1c0,1.5,0,3.1,0,4.6c0,0.6,0.3,0.9,0.9,0.9c0.3,0,0.7,0,1,0
				c9,0,18,0,27,0c0.2,0,0.4,0,0.7,0c1.1,0,1.2-0.1,1.2-1.3c0-1.9,0-3.9,0-5.8c0-0.5,0.1-1,0.4-1.4c0.8-1.1,2.1-0.9,2.6,0.3
				c0.2,0.4,0.3,0.8,0.3,1.3c0,2.6,0,5.3,0,7.9c0,1.4-0.7,2.1-2.1,2.1C69.2,71.3,63.7,71.4,58.1,71.4z"/>
			<path d="M88.1,60.1c0,1.2,0,2.3,0,3.5c0,0.7-0.5,1.3-1.2,1.4c-0.6,0.1-1.2,0-1.6-0.6c-0.2-0.3-0.3-0.7-0.3-1.1c0-2.2,0-4.4,0-6.6
				c0-1.1,0.6-1.7,1.6-1.7c0.9,0,1.5,0.6,1.5,1.7C88.2,57.9,88.1,59,88.1,60.1C88.1,60.1,88.1,60.1,88.1,60.1z"/>
		</g>
	</g>
</g>
</svg>
