<?xml version="1.0" encoding="utf-8"?>
<!-- Generator: Adobe Illustrator 23.1.1, SVG Export Plug-In . SVG Version: 6.00 Build 0)  -->
<svg version="1.1" id="Layer_1" xmlns="http://www.w3.org/2000/svg" xmlns:xlink="http://www.w3.org/1999/xlink" x="0px" y="0px"
	 viewBox="0 0 79.2 86.4" style="enable-background:new 0 0 79.2 86.4;" xml:space="preserve">
<style type="text/css">
	.st0{fill:#DCBF84;}
</style>
<g>
	<g>
		<g>
			<path class="st0" d="M28.4,67.8L27,67l-2.4,4.5l-1.4-0.8l2.4-4.5l-1.4-0.8l0.7-1.3l4.2,2.3L28.4,67.8z"/>
			<path class="st0" d="M30.2,72.8c-0.1,0.2-0.2,0.4-0.5,0.5c-0.2,0.1-0.5,0.1-0.7,0s-0.4-0.2-0.5-0.5c-0.1-0.2-0.1-0.5,0-0.7
				c0.1-0.3,0.3-0.4,0.5-0.6c0.2-0.1,0.5-0.1,0.7,0c0.3,0.1,0.4,0.2,0.6,0.5C30.3,72.3,30.3,72.6,30.2,72.8z"/>
			<path class="st0" d="M37.8,75.3L36.1,75L36,74l-2-0.3l-0.5,0.9l-1.7-0.3l3.3-6.1l1.2,0.2L37.8,75.3z M35.8,72.6l-0.3-1.8
				l-0.8,1.6L35.8,72.6z"/>
			<path class="st0" d="M41.7,74.3c0,0.3-0.1,0.5-0.3,0.7s-0.4,0.3-0.7,0.3S40.2,75.2,40,75c-0.2-0.2-0.3-0.4-0.3-0.7
				c0-0.3,0.1-0.5,0.3-0.7s0.4-0.3,0.7-0.3s0.5,0.1,0.7,0.3C41.6,73.8,41.7,74,41.7,74.3z"/>
			<path class="st0" d="M48.2,73.7c-0.4,0.6-0.9,0.9-1.6,1c-0.7,0.1-1.3,0-1.9-0.4c-0.4-0.2-0.6-0.6-0.8-1.1
				c-0.1-0.3-0.2-0.7-0.3-1.4c-0.1-0.7-0.2-1.1-0.2-1.4c0-0.5,0.1-0.9,0.4-1.3c0.4-0.6,0.9-0.9,1.7-1c0.7-0.1,1.3,0,1.9,0.4
				l-0.9,1.2c-0.3-0.2-0.5-0.3-0.8-0.2c-0.3,0-0.5,0.2-0.6,0.4c-0.1,0.2-0.1,0.8,0,1.6c0.2,0.8,0.3,1.4,0.5,1.5
				c0.2,0.2,0.4,0.2,0.7,0.2s0.5-0.2,0.7-0.5L48.2,73.7z"/>
			<path class="st0" d="M52,72.1c0.1,0.2,0.1,0.5,0,0.7s-0.3,0.4-0.5,0.5s-0.5,0.1-0.7,0s-0.4-0.3-0.5-0.5c-0.1-0.3-0.1-0.5,0-0.7
				s0.3-0.4,0.5-0.5c0.3-0.1,0.5-0.1,0.7,0C51.8,71.7,51.9,71.9,52,72.1z"/>
			<path class="st0" d="M58,69.5c-0.2,0.7-0.6,1.2-1.2,1.5c-0.6,0.3-1.3,0.4-1.9,0.2c-0.4-0.1-0.8-0.4-1.1-0.8
				c-0.2-0.2-0.4-0.6-0.7-1.2s-0.5-1-0.6-1.3c-0.2-0.5-0.2-0.9,0-1.3c0.2-0.7,0.6-1.2,1.2-1.5c0.6-0.3,1.3-0.4,1.9-0.2l-0.4,1.4
				c-0.3-0.1-0.6-0.1-0.8,0S54,66.6,54,66.8c0,0.3,0.1,0.8,0.6,1.5c0.4,0.8,0.7,1.2,1,1.3c0.2,0.1,0.4,0.1,0.7-0.1
				c0.2-0.1,0.4-0.3,0.5-0.7L58,69.5z"/>
		</g>
		<g>
			<path class="st0" d="M59.1,63.4c-0.1,0-0.3-0.1-0.3-0.2c-0.2-0.2-0.2-0.5,0-0.7c6.1-5.4,9.5-13.1,9.5-21.1
				c0-6.8-2.4-13.3-6.9-18.4c-0.2-0.2-0.1-0.5,0-0.7c0.2-0.2,0.5-0.1,0.7,0c4.6,5.3,7.1,12,7.1,19c0,8.3-3.6,16.3-9.9,21.8
				C59.3,63.4,59.2,63.4,59.1,63.4z"/>
		</g>
		<g>
			<path class="st0" d="M20.7,63c-0.1,0-0.2,0-0.3-0.1c-6-5.5-9.4-13.3-9.4-21.4c0-7.5,2.8-14.6,7.9-20c0.2-0.2,0.5-0.2,0.7,0
				s0.2,0.5,0,0.7c-5,5.2-7.7,12.1-7.7,19.3c0,7.9,3.3,15.4,9.1,20.7c0.2,0.2,0.2,0.5,0,0.7C21,62.9,20.9,63,20.7,63z"/>
		</g>
		<g>
			<g>
				<path class="st0" d="M22.3,18L22,18.3l-0.1-0.1c-0.1-0.1-0.1-0.1-0.2-0.2c-0.1,0-0.2,0-0.3,0.1l-0.1,0.1v0.1v0.1l0.1,0.1
					l0.1,0.1c0,0,0.1,0,0.1,0.1h0.1h0.1l0.3-0.1c0.1,0,0.2,0,0.3,0c0.1,0,0.2,0,0.2,0c0.1,0,0.1,0.1,0.2,0.1
					c0.1,0.1,0.1,0.1,0.2,0.2s0.1,0.2,0.2,0.3c0,0.1,0.1,0.2,0.1,0.3c0,0.1,0,0.2-0.1,0.3S23.1,20,23,20.1c-0.1,0.1-0.2,0.1-0.3,0.1
					c-0.1,0-0.2,0-0.3,0c-0.1,0-0.2,0-0.3-0.1s-0.2-0.1-0.2-0.2L22,20l0.3-0.3l0.1,0.1c0.1,0.1,0.1,0.1,0.2,0.1s0.2,0,0.2-0.1
					c0.1,0,0.1-0.1,0.1-0.1v-0.1c0,0,0-0.1-0.1-0.1s-0.1-0.1-0.1-0.1c-0.1-0.1-0.1-0.1-0.1-0.1l-0.1-0.1h-0.1h-0.1l-0.3,0
					c-0.2,0.1-0.4,0.1-0.5,0s-0.3-0.2-0.4-0.3c-0.1-0.1-0.1-0.2-0.2-0.3c0-0.1-0.1-0.2-0.1-0.3c0-0.1,0-0.2,0.1-0.3
					c0-0.1,0.1-0.2,0.2-0.3c0.1-0.1,0.2-0.1,0.3-0.1c0.1,0,0.2,0,0.3,0c0.2,0,0.3,0.1,0.4,0.2L22.3,18z"/>
				<path class="st0" d="M24.8,18.9l-1.7-2.5l0.4-0.2l1.7,2.5L24.8,18.9z"/>
				<path class="st0" d="M26.4,17.9l-1.5-2.7l0.4-0.2l1.5,1.3l0,0l-0.9-1.6l0.4-0.2l1.5,2.7l-0.4,0.2l-1.5-1.3l0,0l0.9,1.6
					L26.4,17.9z"/>
				<path class="st0" d="M30.6,15.9l-0.3-3.1l0.3-0.1l1.6,2.7l-0.4,0.1l-0.3-0.6l-0.6,0.2l0.1,0.7L30.6,15.9z M31.2,14.6l-0.6-1l0,0
					l0.1,1.1L31.2,14.6z"/>
				<path class="st0" d="M32.9,12.8c0-0.1,0-0.2,0-0.3s0.1-0.2,0.1-0.3c0.1-0.1,0.1-0.1,0.2-0.2c0.1,0,0.2-0.1,0.2-0.1
					c0.1,0,0.2,0,0.3,0s0.2,0,0.3,0.1c0.1,0,0.2,0.1,0.2,0.2c0.1,0.1,0.1,0.2,0.1,0.3v0.2l-0.4,0.1v-0.2c0-0.1-0.1-0.2-0.1-0.2
					s-0.1,0-0.2,0c-0.1,0-0.1,0.1-0.2,0.1c0,0.1-0.1,0.1,0,0.2l0.3,1.6c0,0.1,0.1,0.2,0.1,0.2c0.1,0,0.1,0,0.2,0
					c0.1,0,0.1-0.1,0.2-0.1c0-0.1,0.1-0.1,0-0.2l-0.1-0.6l-0.3,0.1l-0.1-0.4l0.8-0.2l0.2,0.9c0,0.1,0,0.2,0,0.3s-0.1,0.2-0.1,0.3
					c-0.1,0.1-0.1,0.1-0.2,0.2c-0.1,0-0.2,0.1-0.2,0.1s-0.2,0-0.3,0s-0.2,0-0.3-0.1c-0.1,0-0.2-0.1-0.2-0.2
					c-0.1-0.1-0.1-0.2-0.1-0.3L32.9,12.8z"/>
				<path class="st0" d="M36.2,14.5l-0.3-3l0.7-0.1c0.5-0.1,0.8,0.2,0.9,0.8c0,0.2,0,0.3,0,0.5c0,0.1-0.1,0.2-0.3,0.3l0.6,1.3h-0.5
					L36.8,13h-0.3l0.1,1.3L36.2,14.5z M36.4,11.8l0.1,0.9h0.2c0.1,0,0.1,0,0.2-0.1l0.1-0.1c0,0,0-0.1,0-0.2c0-0.1,0-0.1,0-0.2
					c0-0.1,0-0.1,0-0.2c0-0.1,0-0.1-0.1-0.1c-0.1-0.1-0.2-0.1-0.3-0.1L36.4,11.8z"/>
				<path class="st0" d="M39.1,14.3v-3.1h1.3v0.4h-0.9v0.9h0.8v0.4h-0.8v0.9h0.9v0.4L39.1,14.3z"/>
				<path class="st0" d="M41.9,12c0-0.1,0-0.2,0.1-0.3s0.1-0.2,0.2-0.2c0.1-0.1,0.2-0.1,0.2-0.1c0.1,0,0.2,0,0.3,0s0.2,0,0.3,0.1
					c0.1,0,0.2,0.1,0.2,0.2c0.1,0.1,0.1,0.2,0.1,0.3s0,0.2,0,0.3v0.2h-0.4v-0.2c0-0.1,0-0.2-0.1-0.2C42.7,12,42.7,12,42.6,12
					c-0.1,0-0.2,0-0.2,0.1c-0.1,0-0.1,0.1-0.1,0.2l-0.2,1.6c0,0.1,0,0.2,0.1,0.2c0.1,0.1,0.1,0.1,0.2,0.1c0.1,0,0.2,0,0.2-0.1
					c0.1,0,0.1-0.1,0.1-0.2l0.1-0.6h-0.3v-0.4l0.8,0.1l-0.1,1c0,0.1,0,0.2-0.1,0.3s-0.1,0.2-0.2,0.2c-0.1,0.1-0.2,0.1-0.3,0.1
					s-0.2,0-0.3,0s-0.2,0-0.3-0.1c-0.1,0-0.2-0.1-0.2-0.2c-0.1-0.1-0.1-0.1-0.1-0.2c0-0.1,0-0.2,0-0.3L41.9,12z"/>
				<path class="st0" d="M44.3,14.6l1.3-2.9l0.4,0.1V15l-0.4-0.1v-0.7L45,14.1l-0.3,0.6L44.3,14.6z M45.6,13.8v-1.1l0,0l-0.4,1
					L45.6,13.8z"/>
				<path class="st0" d="M47.2,15.3l0.9-2.9l0.6,0.2c0.2,0.1,0.4,0.2,0.5,0.4s0.1,0.4,0,0.6L48.8,15c-0.1,0.3-0.2,0.5-0.4,0.5
					c-0.2,0.1-0.4,0.1-0.6,0L47.2,15.3z M48.4,12.9L47.8,15l0.2,0.1c0.1,0,0.2,0,0.3,0s0.1-0.1,0.2-0.3l0.4-1.4c0-0.1,0-0.2,0-0.3
					S48.8,13,48.6,13L48.4,12.9z"/>
				<path class="st0" d="M50.8,14.1c0-0.1,0.1-0.2,0.2-0.3c0.1-0.1,0.2-0.1,0.3-0.1s0.2,0,0.3,0s0.2,0,0.3,0.1
					c0.1,0,0.2,0.1,0.2,0.1c0.1,0.1,0.1,0.1,0.2,0.2c0,0.1,0.1,0.2,0.1,0.3s0,0.2-0.1,0.3l-0.6,1.5c-0.1,0.1-0.1,0.2-0.2,0.3
					c-0.1,0.1-0.2,0.1-0.2,0.1c-0.1,0-0.2,0-0.3,0s-0.2,0-0.3-0.1c-0.1,0-0.2-0.1-0.2-0.1c-0.1-0.1-0.1-0.1-0.2-0.2
					c0-0.1-0.1-0.2-0.1-0.3c0-0.1,0-0.2,0.1-0.3L50.8,14.1z M50.6,15.7c0,0.1,0,0.2,0,0.2c0,0.1,0.1,0.1,0.2,0.2c0.1,0,0.1,0,0.2,0
					c0.1,0,0.1-0.1,0.2-0.2l0.6-1.5c0-0.1,0-0.2,0-0.2c0-0.1-0.1-0.1-0.2-0.2c-0.1,0-0.1,0-0.2,0c-0.1,0-0.1,0.1-0.2,0.2L50.6,15.7z
					"/>
				<path class="st0" d="M54.2,18.3l1.7-2.6l0.5,0.4c0.2,0.1,0.3,0.3,0.4,0.5c0,0.2,0,0.4-0.2,0.6l-0.8,1.2
					c-0.2,0.2-0.3,0.4-0.5,0.4s-0.4,0-0.6-0.2L54.2,18.3z M56,16.4l-1.2,1.9l0.2,0.1c0.1,0.1,0.2,0.1,0.3,0.1s0.2-0.1,0.2-0.2
					l0.8-1.2c0.1-0.1,0.1-0.2,0.1-0.3c0-0.1-0.1-0.2-0.2-0.2L56,16.4z"/>
				<path class="st0" d="M56.5,20l1.9-2.4l1,0.8l-0.3,0.3l-0.7-0.5L58,18.9l0.6,0.5l-0.3,0.3l-0.6-0.5l-0.6,0.7l0.7,0.5l-0.3,0.3
					L56.5,20z"/>
			</g>
		</g>
		<g>
			<g>
				<path class="st0" d="M40.1,25.1c-0.8,1.3-1.5,2.4-2,3.7c0,0.1-0.1,0.2-0.1,0.4c-0.2,0.4-0.1,0.6,0.2,0.9s0.7,0.5,1,0.8
					s0.6,0.6,0.9,0.8c0.3-0.3,0.6-0.5,0.8-0.8c0.9-0.8,1.8-1.6,2.7-2.3c0.2-0.2,0.3-0.3,0.3-0.6c0-0.5,0-1.1,0-1.6
					c0-0.2,0.1-0.4,0.4-0.5c0.2-0.1,0.4,0,0.5,0.1s0.1,0.2,0.2,0.3c0,0.1,0,0.3,0,0.4c0,1.6,0,3.2,0,4.7c0,0.2,0,0.4,0,0.7
					c0.1,0,0.2,0,0.3,0c0.5-0.1,0.8,0.1,0.8,0.6c0,0.7,0,1.4,0,2.1c0,0.7,0,1.3,0,2c0.1,0,0.3,0,0.4,0c0.3,0.1,0.5,0.2,0.5,0.6
					c0,1.4,0,2.8,0,4.2c0,0.1,0,0.3-0.1,0.4c-0.1,0.3,0,0.5,0.3,0.5c0.3,0.1,0.3,0.3,0.3,0.5c0,1.7,0.1,3.3,0,5
					c-0.1,1.4-0.7,2.6-1.8,3.6c-0.8,0.7-1.7,1.4-2.5,2.1c-0.7,0.6-1.4,1.2-2.1,1.8c-0.2,0.2-0.3,0.4-0.3,0.7c0,1.3,0,2.7,0,4
					c0,0.1,0,0.3,0,0.4c0,0.3-0.3,0.5-0.5,0.4c-0.2,0-0.4-0.2-0.5-0.4c0-0.1,0-0.3,0-0.4c0-1.4,0-2.8,0-4.2c0-0.3-0.1-0.4-0.3-0.6
					c-1.5-1.3-3-2.6-4.5-3.9c-1.3-1.1-2-2.6-2-4.3c0-1.4,0-2.8,0-4.2c0-0.4,0-0.7,0.5-0.9c0.1,0,0.1-0.2,0.1-0.2
					c0-0.9-0.1-1.7-0.1-2.6c0-0.7,0-1.4,0-2.1c0-0.7,0.1-0.8,0.9-0.8c0-0.4,0-0.8,0-1.1c0-0.9,0-1.9,0-2.8c0-0.6,0.2-0.8,0.8-0.6
					c0,0,0.1,0,0.2,0c0-0.2,0-0.4,0-0.6c0-1.6,0-3.2,0-4.8c0-0.1,0-0.3,0-0.4c0-0.3,0.3-0.5,0.5-0.5c0.3,0,0.5,0.2,0.5,0.5
					c0,0.4,0.1,0.9,0,1.3c-0.1,0.6,0.1,1,0.7,1.2c0.5-1.7,1.5-3.1,2.4-4.6c0.2-0.3,0.3-0.6,0.3-0.9c0-0.6,0-1.2,0-1.8
					c0-0.2,0.1-0.4,0.3-0.5s0.4,0,0.5,0.1s0.2,0.3,0.2,0.4c0,0.6,0,1.1,0,1.7c0,0.4,0.1,0.7,0.3,1c0.5,0.9,1.1,1.8,1.6,2.8
					c0.1,0.1,0.1,0.3,0.2,0.4c0.1,0.3-0.1,0.6-0.3,0.7s-0.5,0-0.6-0.3c-0.2-0.4-0.5-0.8-0.7-1.2C40.8,26.2,40.5,25.7,40.1,25.1z
					 M33.9,44.3c0,0.1-0.1,0.2-0.1,0.3c0,1.1,0,2.2,0,3.3c0,0.4,0.1,0.8,0.2,1.2c0.2,0.8,0.8,1.4,1.4,2c1,0.8,1.9,1.7,2.9,2.5
					c0.4,0.3,0.7,0.6,1.1,0.9c0-0.1,0.1-0.2,0.1-0.3c0-1.1,0-2.2,0-3.3c0-0.1,0-0.3,0-0.4c-0.2-1.2-0.8-2.1-1.7-2.8
					c-0.1-0.1-0.2-0.2-0.3-0.3c-0.2-0.3,0-0.7,0.4-0.7c0.2,0,0.4,0,0.5,0.2c0.4,0.3,0.7,0.6,1.1,1c0-1.2,0-2.3,0-3.4
					c-0.1-0.9-0.5-1.8-1.2-2.4c-1.2-1-2.4-2.1-3.6-3.1c-0.1-0.1-0.2-0.1-0.4-0.2c0,1,0,2,0,3c0,1.2,0.5,2.2,1.5,3
					c0.1,0.1,0.3,0.2,0.4,0.4c0.2,0.2,0.1,0.5-0.1,0.7c-0.2,0.2-0.4,0.2-0.6,0.1c-0.1-0.1-0.2-0.1-0.3-0.2
					C34.9,45.1,34.4,44.7,33.9,44.3z M46.4,44.3c-0.1,0-0.2,0.1-0.2,0.1c-1.3,1.1-2.6,2.3-3.9,3.4c-1.1,0.9-1.6,2.1-1.6,3.5
					c0,0.9,0,1.8,0,2.8c0,0.1,0,0.3,0.1,0.4c0.1,0,0.1,0,0.2-0.1c1.3-1.1,2.5-2.2,3.8-3.3c1.2-1,1.7-2.2,1.7-3.7c0-0.9,0-1.7,0-2.6
					C46.4,44.6,46.4,44.5,46.4,44.3z M40.7,47.8c1.3-1.1,2.6-2.2,3.9-3.3c0.8-0.7,1.3-1.6,1.3-2.7c0-0.6,0-1.2,0-1.7s0-0.9,0-1.5
					c-0.2,0.2-0.3,0.3-0.4,0.3c-1.1,1-2.3,2-3.4,3c-0.8,0.7-1.2,1.6-1.3,2.6C40.6,45.5,40.7,46.6,40.7,47.8z M40.7,41.5
					c0.1,0,0.1,0,0.2,0c0.4-0.4,0.9-0.8,1.3-1.2c0.6-0.6,1.3-1.1,1.9-1.7c0.6-0.6,0.9-1.3,0.9-2.2c0-0.7,0-1.4,0-2
					c0-0.1,0-0.2,0-0.4c-0.2,0.2-0.3,0.3-0.4,0.4c-0.8,0.7-1.6,1.5-2.5,2.2s-1.4,1.7-1.3,2.8c0,0.6,0,1.2,0,1.8
					C40.7,41.2,40.7,41.3,40.7,41.5z M39.6,41.6c0-0.9,0-1.7,0-2.5c0-1-0.4-1.8-1.1-2.4c-0.9-0.8-1.9-1.6-2.8-2.4
					c-0.1-0.1-0.2-0.1-0.4-0.2c0,0.9,0,1.8,0,2.6c0,0.1,0,0.2,0,0.3c0.1,0.8,0.5,1.4,1.1,1.9C37.5,39.7,38.5,40.6,39.6,41.6z
					 M39.6,36.2c0-0.9,0-1.8,0-2.6c0-0.7-0.4-1.3-0.9-1.7c-0.6-0.5-1.1-0.9-1.7-1.4c-0.2-0.2-0.4-0.4-0.7-0.6c0,0.8,0,1.5,0,2.2
					c0,0.9,0.3,1.7,1.1,2.2c0.2,0.1,0.4,0.3,0.5,0.5C38.4,35.2,39,35.6,39.6,36.2z M40.7,36.2c0.9-0.8,1.8-1.5,2.6-2.3
					c0.2-0.2,0.4-0.5,0.5-0.8c0.2-0.4,0.2-0.9,0.2-1.4c0-0.6,0-1.2,0-1.9c-0.9,0.8-1.7,1.4-2.5,2.1c-0.5,0.4-0.8,1-0.8,1.6
					C40.6,34.4,40.7,35.2,40.7,36.2z"/>
			</g>
		</g>
		<g>
			<g>
				<path class="st0" d="M40.3,65.4c-8,0-15.5-4-20-10.6c-0.1-0.1-0.1-0.2-0.1-0.4c0-0.1,0.1-0.2,0.2-0.3l9.4-5.5
					c0.2-0.1,0.5-0.1,0.6,0.2s0.1,0.5-0.2,0.6l-9,5.2c4.4,6.2,11.4,9.8,18.9,9.8c12.8,0,23.2-10.4,23.2-23.2c0-2.8-0.5-5.5-1.4-8
					c-0.1-0.2,0-0.5,0.3-0.6c0.2-0.1,0.5,0,0.6,0.3c1,2.7,1.5,5.5,1.5,8.4C64.4,54.6,53.6,65.4,40.3,65.4z"/>
				<path class="st0" d="M19,51.9c-0.2,0-0.3-0.1-0.4-0.2c-0.1-0.2-0.1-0.5,0.2-0.6l11-6.4c0.2-0.1,0.5-0.1,0.6,0.2
					c0.1,0.2,0.1,0.5-0.2,0.6l-11,6.4C19.2,51.9,19.1,51.9,19,51.9z"/>
			</g>
		</g>
		<g>
			<g>
				<path class="st0" d="M17.9,49.7c-0.2,0-0.4-0.1-0.4-0.3c-1-2.7-1.5-5.5-1.5-8.4c0-13.3,10.8-24.1,24.1-24.1c8,0,15.5,4,20,10.6
					c0.1,0.1,0.1,0.2,0.1,0.4c0,0.1-0.1,0.2-0.2,0.3l-9.4,5.5c-0.2,0.1-0.5,0.1-0.6-0.2s-0.1-0.5,0.2-0.6l9-5.2
					c-4.4-6.2-11.4-9.8-18.9-9.8c-12.8,0-23.2,10.4-23.2,23.2c0,2.8,0.5,5.5,1.4,8c0.1,0.2,0,0.5-0.3,0.6
					C18,49.7,17.9,49.7,17.9,49.7z"/>
				<path class="st0" d="M50.3,37.8c-0.2,0-0.3-0.1-0.4-0.2c-0.1-0.2-0.1-0.5,0.2-0.6L61,30.7c0.2-0.1,0.5-0.1,0.6,0.2
					c0.1,0.2,0.1,0.5-0.2,0.6l-10.9,6.3C50.5,37.7,50.4,37.8,50.3,37.8z"/>
			</g>
		</g>
	</g>
</g>
</svg>
