<?xml version="1.0" encoding="utf-8"?>
<!-- Generator: Adobe Illustrator 23.1.1, SVG Export Plug-In . SVG Version: 6.00 Build 0)  -->
<svg version="1.1" id="Layer_1" xmlns="http://www.w3.org/2000/svg" xmlns:xlink="http://www.w3.org/1999/xlink" x="0px" y="0px"
	 viewBox="0 0 136.4 150.1" style="enable-background:new 0 0 136.4 150.1;" xml:space="preserve">
<g>
	<g>
		<g>
			<path d="M68.3,133.5c-1.9,0-3.8-0.5-5.5-1.5l-6-3.5c-1.4-0.8-3.1-1.3-4.7-1.3h-6.9c-3.9,0-7.6-2.1-9.6-5.5l-3.5-6
				c-0.8-1.4-2-2.6-3.5-3.5l-6-3.5c-3.4-2-5.5-5.6-5.5-9.6v-6.9c0-1.7-0.4-3.3-1.3-4.7l-3.5-6c-2-3.4-2-7.7,0-11.1l3.5-6
				c0.8-1.4,1.3-3.1,1.3-4.7v-6.9c0-3.9,2.1-7.6,5.5-9.6l6-3.5c1.4-0.8,2.6-2,3.5-3.5l3.5-6c2-3.4,5.6-5.5,9.6-5.5H52
				c1.7,0,3.3-0.4,4.7-1.3l6-3.5c3.4-2,7.7-2,11.1,0l6,3.5c1.4,0.8,3.1,1.3,4.7,1.3h6.9c3.9,0,7.6,2.1,9.6,5.5l3.5,6
				c0.8,1.4,2,2.6,3.5,3.5l6,3.5c3.4,2,5.5,5.6,5.5,9.6v6.9c0,1.7,0.4,3.3,1.3,4.7l3.5,6c2,3.4,2,7.7,0,11.1l-3.5,6
				c-0.8,1.4-1.3,3.1-1.3,4.7v6.9c0,3.9-2.1,7.6-5.5,9.6l-6,3.5c-1.4,0.8-2.6,2-3.5,3.5l-3.5,6c-2,3.4-5.6,5.5-9.6,5.5h-6.9
				c-1.7,0-3.3,0.4-4.7,1.3l-6,3.5C72.1,133,70.2,133.5,68.3,133.5z M45.1,26.4c-3.4,0-6.5,1.8-8.2,4.7l-3.5,6
				c-1,1.7-2.4,3.1-4.1,4.1l-6,3.5c-2.9,1.7-4.7,4.8-4.7,8.2v6.9c0,1.9-0.5,3.9-1.5,5.5l-3.5,6c-1.7,2.9-1.7,6.5,0,9.5l3.5,6
				c1,1.7,1.5,3.6,1.5,5.5v6.9c0,3.4,1.8,6.5,4.7,8.2l6,3.5c1.7,1,3.1,2.4,4.1,4.1l3.5,6c1.7,2.9,4.8,4.7,8.2,4.7H52
				c1.9,0,3.9,0.5,5.5,1.5l6,3.5c2.9,1.7,6.5,1.7,9.5,0l6-3.5c1.7-1,3.6-1.5,5.5-1.5h6.9c3.4,0,6.5-1.8,8.2-4.7l3.5-6
				c1-1.7,2.4-3.1,4.1-4.1l6-3.5c2.9-1.7,4.7-4.8,4.7-8.2v-6.9c0-1.9,0.5-3.9,1.5-5.5l3.5-6c1.7-2.9,1.7-6.5,0-9.5l-3.5-6
				c-1-1.7-1.5-3.6-1.5-5.5v-6.9c0-3.4-1.8-6.5-4.7-8.2l-6-3.5c-1.7-1-3.1-2.4-4.1-4.1l-3.5-6c-1.7-2.9-4.8-4.7-8.2-4.7h-6.9
				c-1.9,0-3.9-0.5-5.5-1.5l-6-3.5c-2.9-1.7-6.5-1.7-9.5,0l-6,3.5c-1.7,1-3.6,1.5-5.5,1.5C52,26.4,45.1,26.4,45.1,26.4z"/>
		</g>
		<path d="M97.6,90c0-0.2-0.2-0.3-0.3-0.3c-8.1-0.8-17.8-1.4-28.9-1.4s-20.8,0.6-28.9,1.4c-0.2,0-0.3,0.1-0.3,0.3l0,0
			c-0.1,0.3,0.1,0.5,0.4,0.5c8-0.5,17.7-0.8,28.8-0.8s20.8,0.4,28.8,0.8C97.5,90.5,97.7,90.3,97.6,90L97.6,90z"/>
		<path d="M52.5,43.2c0.1,0.3,0.3,0.5,0.4,0.6c0.2,0.1,0.4,0.2,0.7,0.2h0.5c0.1,0,0.2,0,0.2,0c0.1,0,0.1,0,0.2,0.1
			c0,0,0.1,0.1,0.1,0.2c0,0.1,0.1,0.2,0.1,0.3s0.1,0.2,0.1,0.3s0,0.2,0,0.2c0,0.1,0,0.1-0.1,0.2c0,0.1-0.1,0.1-0.2,0.1
			c-0.2,0.1-0.3,0.1-0.4,0c-0.1-0.1-0.2-0.1-0.2-0.3l-0.1-0.2l-0.6,0.3l0.1,0.2c0.1,0.1,0.1,0.3,0.2,0.4c0.1,0.1,0.2,0.2,0.4,0.2
			c0.1,0.1,0.3,0.1,0.4,0.1c0.1,0,0.3,0,0.4-0.1c0.2-0.1,0.3-0.2,0.4-0.3c0.1-0.1,0.2-0.3,0.2-0.4c0-0.1,0-0.3,0-0.5
			s-0.1-0.3-0.2-0.5C55,44.1,55,44,54.9,43.9c-0.1-0.1-0.1-0.2-0.2-0.3c-0.1-0.1-0.2-0.1-0.3-0.2c-0.1,0-0.2,0-0.4,0h-0.5
			c-0.1,0-0.2,0-0.2,0c-0.1,0-0.1,0-0.2-0.1L53,43.2l0.1-0.2c0-0.1-0.1-0.1-0.1-0.2c0-0.1,0-0.1,0-0.2c0-0.1,0-0.1,0.1-0.2
			c0-0.1,0.1-0.1,0.2-0.1c0.2-0.1,0.3-0.1,0.4,0c0.1,0.1,0.2,0.2,0.3,0.3l0.1,0.1l0.6-0.3l-0.1-0.3c-0.1-0.2-0.3-0.4-0.6-0.5
			c-0.1-0.1-0.3-0.1-0.4-0.1c-0.1,0-0.3,0-0.4,0.1c-0.2,0.1-0.3,0.2-0.4,0.3c-0.1,0.1-0.2,0.2-0.2,0.4c0,0.1-0.1,0.3,0,0.4
			C52.4,42.9,52.4,43.1,52.5,43.2z M52.2,47.1l-0.3-0.6l-1.1,0.6L50.1,46l1-0.6l-0.3-0.5l-1,0.6l-0.7-1.2l1.1-0.6L50,43.1l-1.7,1
			l2.2,4L52.2,47.1z M82.1,43.6l0.1-2.6l-0.6-0.2L79.9,45l0.6,0.2l1.1-2.6l0,0l-0.1,2.1l0.3,0.1l1.3-1.6l0,0L82,45.8l0.6,0.2
			l1.7-4.2l-0.6-0.2L82.1,43.6L82.1,43.6z M84.5,47.1l0.6,0.3l2.2-4L86.7,43L84.5,47.1z M90.6,45.4l-1.9,2.9
			c-0.1,0.1-0.2,0.2-0.3,0.2c-0.1,0-0.2,0-0.3-0.1c-0.1-0.1-0.2-0.1-0.2-0.3c0-0.1,0-0.2,0.1-0.4l2-2.7l-0.5-0.4l-2,3
			c-0.1,0.1-0.1,0.3-0.2,0.4c0,0.1,0,0.3,0,0.4c0,0.1,0.1,0.3,0.2,0.4s0.2,0.2,0.3,0.3c0.1,0.1,0.3,0.1,0.4,0.2c0.1,0,0.3,0,0.4,0
			s0.3-0.1,0.4-0.2s0.2-0.2,0.3-0.3l2-3L90.6,45.4z M46.8,49.8c0.1,0.1,0.2,0.1,0.4,0.1c0.1,0,0.3,0,0.4,0c0.1,0,0.3-0.1,0.4-0.2
			c0.1-0.1,0.2-0.2,0.3-0.3s0.1-0.2,0.1-0.4c0-0.1,0-0.3,0-0.4c0-0.1-0.1-0.3-0.2-0.4l-2.1-2.9l-0.5,0.4l2,2.8
			c0.1,0.1,0.1,0.3,0.1,0.4c0,0.1-0.1,0.2-0.2,0.3c-0.1,0.1-0.2,0.1-0.3,0.1s-0.2-0.1-0.3-0.2l-2-2.8l-0.5,0.4l2.1,2.9
			C46.6,49.6,46.7,49.7,46.8,49.8z M45.1,51.2c0-0.1-0.1-0.3-0.2-0.4L43.2,49c-0.1-0.1-0.3-0.2-0.4-0.3c-0.1-0.1-0.3-0.1-0.4-0.1
			c-0.1,0-0.3,0-0.4,0.1s-0.2,0.1-0.3,0.2c-0.1,0.1-0.2,0.2-0.2,0.3c-0.1,0.1-0.1,0.3-0.1,0.4c0,0.1,0,0.3,0,0.4
			c0,0.1,0.1,0.3,0.3,0.4l1.6,1.8c0.1,0.1,0.3,0.2,0.4,0.3c0.1,0.1,0.3,0.1,0.4,0.1c0.1,0,0.3,0,0.4-0.1c0.1-0.1,0.2-0.1,0.3-0.2
			c0.2-0.2,0.3-0.4,0.4-0.6h0.5v-0.5L45.1,51.2z M44.3,51.9C44.2,52,44.1,52,44,52s-0.2-0.1-0.3-0.2L42.1,50
			c-0.1-0.1-0.2-0.2-0.1-0.3c0-0.1,0.1-0.2,0.2-0.3c0.1-0.1,0.2-0.1,0.3-0.1s0.2,0.1,0.3,0.2l1.6,1.8l0,0h-0.3v0.5h0.4
			C44.4,51.8,44.3,51.8,44.3,51.9z M59.3,44c0.1-0.1,0.1-0.2,0.1-0.4s0-0.3-0.1-0.5l-0.7-2.3c-0.1-0.2-0.1-0.3-0.2-0.4
			c-0.1-0.1-0.2-0.2-0.3-0.3S57.8,40,57.7,40s-0.3,0-0.4,0c-0.1,0-0.2,0.1-0.4,0.2s-0.2,0.2-0.3,0.3s-0.1,0.3-0.1,0.4
			c0,0.2,0,0.3,0.1,0.5l0.7,2.3c0.1,0.2,0.1,0.3,0.2,0.4c0.1,0.1,0.2,0.2,0.3,0.3s0.3,0.1,0.4,0.1c0.1,0,0.3,0,0.4,0
			c0.1,0,0.2-0.1,0.4-0.2C59.1,44.2,59.2,44.1,59.3,44z M58.7,43.7c-0.1,0.1-0.2,0.2-0.3,0.2s-0.2,0-0.3,0s-0.2-0.1-0.2-0.3
			l-0.7-2.3c0-0.2,0-0.3,0-0.4c0.1-0.1,0.2-0.2,0.3-0.2s0.2,0,0.3,0S58,40.8,58,41l0.7,2.3C58.8,43.4,58.8,43.6,58.7,43.7z
			 M78.2,44.4l0.2-0.6l-1.3-0.3l0.4-1.3l1.1,0.3l0.2-0.6l-1.1-0.3l0.4-1.3l1.3,0.3l0.2-0.6l-1.9-0.5l-1.2,4.4L78.2,44.4z M73.9,43.4
			l0.7,0.1l-0.4-2.2c0.2-0.1,0.4-0.2,0.5-0.4s0.2-0.4,0.2-0.7c0.1-0.9-0.2-1.4-0.9-1.5l-1-0.2L72.3,43l0.6,0.1l0.3-1.9l0.4,0.1
			L73.9,43.4z M73.5,39.4l0.3,0.1c0.2,0,0.4,0.1,0.4,0.2c0,0.1,0,0.1,0,0.2c0,0.1,0,0.2,0,0.3s0,0.2-0.1,0.3c0,0.1-0.1,0.2-0.1,0.2
			c0,0.1-0.1,0.1-0.2,0.1s-0.2,0-0.3,0l-0.4-0.1L73.5,39.4z M68.9,41.2h0.3c0.2,0,0.4,0,0.6-0.1s0.3-0.2,0.4-0.3s0.1-0.3,0.2-0.4
			c0-0.1,0-0.3,0-0.5c0-0.3,0-0.5,0-0.7s-0.1-0.3-0.2-0.4c-0.1-0.1-0.2-0.2-0.4-0.3c-0.1-0.1-0.3-0.1-0.5-0.1h-1L68.2,43h0.7V41.2z
			 M69,39h0.3c0.1,0,0.2,0,0.3,0.1c0.1,0,0.1,0.1,0.1,0.2c0,0.1,0,0.2,0.1,0.3c0,0.1,0,0.2,0,0.3s0,0.2,0,0.3s0,0.2-0.1,0.2
			c0,0.1-0.1,0.1-0.2,0.2c-0.1,0-0.2,0.1-0.3,0h-0.3L69,39z M61.8,43.4c0.1,0.1,0.2,0.1,0.4,0.2c0.1,0,0.3,0,0.5,0s0.4-0.1,0.5-0.2
			c0.1-0.1,0.2-0.2,0.3-0.3s0.1-0.3,0.1-0.4c0-0.2,0-0.3,0-0.5s-0.1-0.3-0.1-0.4c0-0.1-0.1-0.2-0.2-0.3c-0.1-0.1-0.2-0.2-0.3-0.2
			c-0.1-0.1-0.2-0.1-0.4-0.1l-0.5-0.1c-0.1,0-0.2,0-0.2-0.1c-0.1,0-0.1-0.1-0.1-0.1l-0.1-0.1c0-0.1,0-0.1,0-0.2c0-0.1,0-0.1,0-0.2
			s0-0.1,0-0.2c0-0.1,0.1-0.1,0.1-0.2s0.1-0.1,0.2-0.1c0.2,0,0.3,0,0.4,0.1c0.1,0.1,0.1,0.2,0.2,0.4v0.1l0.6-0.1l-0.1-0.3
			c0-0.3-0.2-0.5-0.4-0.6C62.5,39,62.4,39,62.3,39c-0.1,0-0.3,0-0.5,0s-0.3,0.1-0.5,0.2s-0.2,0.2-0.3,0.3s-0.1,0.3-0.1,0.4
			c0,0.2,0,0.3,0,0.5c0.1,0.3,0.1,0.5,0.3,0.7c0.1,0.2,0.3,0.3,0.6,0.4l0.5,0.1c0.1,0,0.2,0,0.2,0.1c0.1,0,0.1,0.1,0.1,0.1
			s0.1,0.1,0.1,0.2c0,0.1,0,0.2,0.1,0.3c0,0.1,0,0.2,0,0.3s0,0.2,0,0.2c0,0.1-0.1,0.1-0.1,0.2c-0.1,0-0.1,0.1-0.2,0.1
			c-0.2,0-0.3,0-0.4-0.1C62,42.7,62,42.6,62,42.5v-0.2l-0.6,0.1v0.2c0,0.2,0.1,0.3,0.2,0.4C61.6,43.2,61.7,43.3,61.8,43.4z M95,48.8
			l-2.2,1.3l0,0l0.9-2.4l-0.5-0.4l-3,3.5l0.5,0.4l1.8-2.1l0,0L91.8,51l0.2,0.2l1.8-1.1l0,0L92,52.3l0.5,0.4l3-3.5L95,48.8z"/>
		<path d="M97.7,62.6c0.1-0.3-0.1-0.5-0.4-0.5c-8.1,0.5-17.8,0.8-28.9,0.8s-20.8-0.4-28.9-0.8c-0.3,0-0.5,0.3-0.4,0.5l0,0
			c0,0.2,0.2,0.3,0.3,0.3c8.1,0.8,17.8,1.4,29,1.4c11.1,0,20.9-0.6,28.9-1.4C97.5,62.8,97.6,62.7,97.7,62.6L97.7,62.6z"/>
		<g>
			<g>
				<path d="M46.4,105.1l3.9-4.4l0.6,0.3l-1.7,5.6l-0.7-0.4l0.4-1.2l-1-0.5l-0.8,1L46.4,105.1z M49.1,104.4l0.7-2l0,0l-1.4,1.6
					L49.1,104.4z"/>
				<path d="M51.4,107.7l2.2-5.3l1.2,0.5c0.9,0.4,1.1,1.1,0.7,2.1c-0.1,0.3-0.3,0.6-0.5,0.7c-0.2,0.2-0.4,0.3-0.7,0.3l-0.2,2.8
					l-0.8-0.3l0.2-2.6l-0.5-0.2l-0.9,2.3L51.4,107.7z M54,103.4l-0.7,1.7l0.4,0.2c0.1,0.1,0.2,0.1,0.3,0.1s0.2,0,0.3-0.1
					s0.1-0.1,0.2-0.2c0.1-0.1,0.1-0.2,0.2-0.3c0.1-0.1,0.1-0.3,0.1-0.4s0-0.2,0-0.3c0-0.2-0.2-0.3-0.5-0.4L54,103.4z"/>
				<path d="M56.9,109.7l1.3-4.8l-0.9-0.3l0.2-0.7l2.6,0.7l-0.2,0.7L59,105l-1.3,4.8L56.9,109.7z"/>
				<path d="M60.9,110.7l0.9-5.7l2.4,0.4l-0.1,0.8l-1.6-0.2l-0.3,1.7l1.4,0.2l-0.1,0.8l-1.4-0.2l-0.3,1.7l1.6,0.2l-0.1,0.8
					L60.9,110.7z"/>
				<path d="M68.7,107.2h-0.8V107c0-0.2,0-0.4-0.1-0.5s-0.2-0.2-0.4-0.2c-0.1,0-0.2,0-0.3,0.1c-0.1,0-0.1,0.1-0.2,0.2
					c0,0.1-0.1,0.1-0.1,0.2s0,0.2,0,0.3c0,0.1,0,0.2,0,0.3c0,0.1,0,0.1,0.1,0.2c0,0.1,0.1,0.1,0.1,0.2c0.1,0,0.1,0.1,0.3,0.1
					l0.6,0.3c0.2,0.1,0.3,0.2,0.4,0.3c0.1,0.1,0.2,0.2,0.3,0.3c0.1,0.1,0.1,0.3,0.1,0.4c0,0.2,0,0.4,0,0.6s0,0.5-0.1,0.7
					s-0.1,0.4-0.2,0.5s-0.3,0.3-0.5,0.3c-0.2,0.1-0.4,0.1-0.7,0.1c-0.2,0-0.4,0-0.6-0.1s-0.3-0.2-0.4-0.3c-0.1-0.1-0.2-0.3-0.3-0.4
					c-0.1-0.2-0.1-0.3-0.1-0.5v-0.3h0.8v0.3c0,0.2,0,0.3,0.1,0.4s0.2,0.2,0.4,0.2c0.1,0,0.2,0,0.3-0.1c0.1,0,0.1-0.1,0.2-0.2
					c0-0.1,0.1-0.2,0.1-0.3c0-0.1,0-0.2,0-0.4c0-0.2,0-0.3,0-0.4s0-0.2-0.1-0.2c0-0.1-0.1-0.1-0.1-0.1c-0.1,0-0.1-0.1-0.2-0.1
					l-0.6-0.3c-0.4-0.2-0.6-0.4-0.7-0.6s-0.2-0.5-0.2-0.9c0-0.2,0-0.4,0.1-0.6s0.2-0.4,0.3-0.5c0.1-0.1,0.3-0.2,0.4-0.3
					c0.2-0.1,0.4-0.1,0.6-0.1s0.4,0,0.6,0.1s0.3,0.2,0.4,0.3c0.2,0.3,0.4,0.6,0.4,0.9L68.7,107.2z"/>
				<path d="M71,111.2l0.6-5.9l0.7-0.1l1.9,5.6l-0.8,0.1l-0.4-1.2l-1.1,0.1l-0.1,1.3L71,111.2z M72.7,109l-0.6-2l0,0l-0.2,2.1
					L72.7,109z"/>
				<path d="M76.6,110.4l-1.4-5.6l0.8-0.2l2.1,3l0,0l-0.9-3.4L78,104l1.4,5.6l-0.8,0.2l-2.1-3l0,0l0.9,3.3L76.6,110.4z"/>
				<path d="M81.7,108.9l-0.9-5.8l0.6-0.3l3.3,4.9l-0.8,0.3l-0.7-1.1l-1,0.4l0.2,1.2L81.7,108.9z M82.8,106.3l-1.1-1.8l0,0l0.4,2.1
					L82.8,106.3z"/>
				<path d="M86.9,106.7l-2.7-5.1l0.7-0.4l2.3,4.3l1.4-0.8l0.4,0.7L86.9,106.7z"/>
			</g>
		</g>
		<path d="M68.2,81.2c0-0.2,0-0.3,0-0.5v-9.5c0-0.6,0.4-1,0.8-1v-0.1h-1c0,0.1-0.1,0.2-0.1,0.4V80C67.9,80.5,68,80.9,68.2,81.2z
			 M31,73.4l-0.3-0.7v7.9c0,0.3,0.1,0.5,0.3,0.6V73.4z M37.7,70.4v10c0,0.3,0.1,0.5,0.2,0.6l0,0v-9.9c0-0.6,0.4-1.1,0.8-1V70h-1
			C37.8,70.2,37.7,70.3,37.7,70.4z M31.2,82.5h-2.9c-0.1,0.2-0.3,0.3-0.5,0.3v0.1h4v-0.1C31.6,82.9,31.4,82.7,31.2,82.5z M38.2,82.5
			h-3v0.1c-0.1,0.1-0.3,0.2-0.4,0.2v0.1h4v-0.1C38.6,82.9,38.4,82.7,38.2,82.5z M84.6,77.4c0.4,0,1-0.3,1.5-0.8
			c0.7-0.8,0.9-1.5,0.9-2.7c0-0.7-0.1-1.3-0.4-1.8c0.1,0.3,0.1,0.7,0.1,1.1c0,1.2-0.2,2.1-1,3c-0.5,0.5-1.1,0.8-1.6,0.9l0.2,0.4
			C84.4,77.4,84.5,77.4,84.6,77.4z M106.8,81.3V71c0.1-0.5,0.4-0.9,0.8-0.9V70h-1c0,0.1-0.1,0.2-0.1,0.2v10.5
			C106.6,81,106.7,81.2,106.8,81.3L106.8,81.3z M82.2,70.1h-1.7c0,0.1-0.1,0.2-0.1,0.4v7.1c0.1,0,0.2-0.1,0.3-0.1v-6.3
			c0-0.4,0.2-0.7,0.4-0.9h1c0.1,0,0.2,0,0.2,0C82.4,70.2,82.3,70.1,82.2,70.1z M80.7,78.8v-0.5l-0.3,0.1v2.7c0,0.3,0.1,0.5,0.3,0.6
			V79l0.7-0.4l-0.1-0.1C80.8,78.8,80.7,78.8,80.7,78.8z M74.4,70.3v7.9c0,1.5-0.4,2.6-1.3,3.4c-0.4,0.4-0.9,0.7-1.6,0.9
			c-0.7,0.3-1.7,0.3-2.3,0.3c-0.8,0-1.5-0.2-2-0.4c0.7,0.6,1.7,0.9,3,0.9c1.4,0,2.5-0.4,3.3-1.1s1.2-1.8,1.2-3.2v-8
			c0.1-0.5,0.4-0.9,0.8-0.9V70h-1C74.4,70.1,74.4,70.2,74.4,70.3z M87.5,82.5h-2.9c0,0.2-0.1,0.3-0.4,0.3v0.1h4l-0.1-0.1
			C88,82.9,87.7,82.7,87.5,82.5z M81,82.5h-2.9c-0.1,0.2-0.3,0.3-0.6,0.3v0.1h4v-0.1C81.3,82.9,81.1,82.7,81,82.5z M112.2,82
			c0,0.2-0.1,0.3-0.2,0.4l-0.2,0.1c-0.2,0.1-0.5,0.2-0.8,0.2h-3.9c-0.1-0.1-0.1-0.1-0.2-0.2H104c-0.1,0.2-0.3,0.3-0.5,0.3v0.1h8.8
			L112.2,82L112.2,82z M62.8,70.6C63,70.7,63,70.9,63,71h0.1v-1h-0.3V70.6z M54.3,71.1L54.3,71.1c0-0.5,0.5-0.8,1.2-0.8H56v-0.2
			h-1.7V71.1z M61.4,70.1h-1.7v10.3c0,0.3,0.1,0.6,0.2,0.7l0,0V70.3h1.4c0.1,0,0.2,0,0.2,0C61.5,70.2,61.5,70.1,61.4,70.1L61.4,70.1
			z M60.1,82.5h-2.9c-0.1,0.2-0.3,0.3-0.6,0.3v0.1h4v-0.1C60.4,82.9,60.3,82.7,60.1,82.5z M45.2,72.1l-0.1-0.3L43,78.4l0.2-0.1
			C44,75.8,44.7,73.7,45.2,72.1z M52.1,82.5h-0.6h-2.2c-0.1,0.2-0.2,0.3-0.4,0.3v0.1H52h0.8v-0.1C52.5,82.9,52.3,82.8,52.1,82.5z
			 M42.8,79.6c0-0.1,0.1-0.2,0.1-0.4l-0.2,0.1l-0.7,2l-0.1,0.4v0.1c0,0,0,0,0.1,0h0.2c0.2-0.5,0.4-1.2,0.7-2l4.3-1L47,78.6
			L42.8,79.6z M42,82.5h-0.7c-0.2,0.2-0.4,0.3-0.6,0.3v0.1h1.8v-0.1C42.3,82.9,42.1,82.7,42,82.5z M94,72.1l-0.1-0.3l-2.1,6.6
			l0.2-0.1C92.9,75.8,93.5,73.7,94,72.1z M100.9,82.5h-0.6h-2.2c-0.1,0.2-0.2,0.3-0.4,0.3v0.1h3.3h0.8v-0.1
			C101.4,82.9,101.2,82.8,100.9,82.5z M91.6,79.6c0-0.1,0.1-0.2,0.1-0.4l-0.2,0.1l-0.7,2.1l-0.1,0.4v0.1c0,0,0,0,0.1,0H91
			c0.2-0.5,0.4-1.2,0.7-2l4.3-1l-0.1-0.2L91.6,79.6z M90.9,82.5h-0.7c-0.2,0.2-0.4,0.3-0.6,0.3v0.1h1.8v-0.1
			C91.1,82.9,91,82.7,90.9,82.5z"/>
		<path d="M53.2,70.3l0.3-0.1v-0.1c0-0.1,0-0.2,0.1-0.4c0.2-0.2,0.5-0.3,0.9-0.3h1.9v11.5c0,0.5-0.4,1-0.7,0.9h-0.1L55.5,82h4.3
			l-0.1-0.2h-0.1c-0.1,0-0.3,0-0.4-0.2c-0.2-0.2-0.3-0.5-0.3-0.9V69.3h1.9c0.4,0,0.7,0.1,0.9,0.3c0.1,0.1,0.2,0.2,0.2,0.4v0.1
			l0.2,0.1V69h-9L53.2,70.3L53.2,70.3z M51.8,81.9c-0.3,0-0.7,0-1.1-1.1l-0.1-0.3l-3.8-11.9l-0.1,0.1c-0.3,0.3-0.4,0.4-1.9,0.4h-0.1
			h-0.1L41,80.4l-0.1,0.4c-0.2,0.6-0.7,1.1-1.1,1.1h-0.1l-0.1,0.2h2.1l-0.1-0.2h-0.1c-0.1,0-0.2,0-0.3-0.1s-0.2-0.3-0.1-0.6
			c0.1-0.2,0.2-0.5,0.2-0.7c0.1-0.4,0.3-1,0.5-1.5l5.4-1.2l1,3.3c0.1,0.3,0,0.6-0.1,0.8C48,82,47.9,82,47.8,82h-0.1l-0.1,0.2H51h0.9
			L51.8,81.9L51.8,81.9z M41.9,78.6c0.5-1.6,2.4-7.6,2.9-8.9l2.3,7.8L41.9,78.6z M37.4,69.5c0.1-0.1,0.2-0.1,0.4-0.1h0.1l0.1-0.3
			h-4.3l0.1,0.3h0.1c0.1,0,0.2,0,0.4,0.1c0.2,0.2,0.3,0.5,0.3,0.8v10.9v0.1c-0.5-1.3-1.7-4.8-2.7-7.7c-0.6-1.8-1.2-3.4-1.4-4.1
			c0.1-0.1,0.3-0.2,0.4-0.2H31l0.1-0.3h-4.3l0.1,0.3H27c0.3,0,0.6,0.3,0.7,0.8V81c-0.1,0.5-0.4,0.9-0.7,0.9h-0.1l-0.1,0.2H31
			l-0.1-0.2h-0.1c-0.3,0-0.6-0.4-0.7-0.9V70.3c0-0.1,0-0.2,0-0.3l4.1,11.8c-0.1,0.1-0.2,0.1-0.3,0.1l0,0l-0.1,0.2h4.3L38,81.9h-0.1
			c-0.1,0-0.3,0-0.4-0.2c-0.2-0.2-0.3-0.5-0.3-0.8V70.3C37.1,70,37.2,69.7,37.4,69.5z M87.2,81.9c-0.3,0-0.8-0.3-1.2-0.8l-2.7-4.5
			c0.1,0,0.2,0,0.3,0c0.4,0,1-0.3,1.5-0.8C85.9,75,86,74.2,86,73c0-1.2-0.3-2.1-1.1-2.9c-0.7-0.7-1.7-1.1-3-1.1h-5.5l0.1,0.3h0.1
			c0.3,0,0.6,0.3,0.7,0.8v11c-0.1,0.5-0.4,0.8-0.7,0.8h-0.1l-0.1,0.2h4.3l-0.1-0.2h-0.1c-0.3,0-0.6-0.4-0.7-0.9v-2.8l1.3-0.7
			l2.2,3.5c0.2,0.4,0.3,0.7,0.2,0.8c0,0.1-0.1,0.1-0.2,0.1h-0.1v0.2h4.3L87.2,81.9L87.2,81.9z M79.8,77.8v-7.5
			c0-0.3,0.2-0.6,0.4-0.8h1.5c0.5,0,1,0.3,1.3,0.9s0.5,1.5,0.5,2.6c0,1.2-0.1,2.2-0.5,2.8C82.7,76.3,80.7,77.4,79.8,77.8z
			 M111.2,81.1L111.2,81.1c0,0.2,0,0.3-0.1,0.4c-0.2,0.2-0.5,0.3-0.9,0.3h-3.9c-0.2-0.1-0.3-0.4-0.3-0.7v-11
			c0.1-0.5,0.4-0.8,0.7-0.8h0.1l0.1-0.3h-4.3l0.1,0.3h0.1c0.1,0,0.2,0,0.3,0.1c0.2,0.2,0.3,0.5,0.4,0.8v10.7c0,0.5-0.3,0.9-0.7,0.9
			l0,0h-0.1l-0.1,0.2h9v-1.2L111.2,81.1z M100.7,81.9c-0.3,0-0.7,0-1.1-1.1l-0.1-0.3l-3.8-11.8v-0.1l-0.1,0.1
			c-0.3,0.3-0.4,0.4-1.9,0.4h-0.1h-0.1l-3.6,11.3l-0.1,0.4c-0.2,0.6-0.7,1.1-1,1.1l0,0h-0.1l-0.1,0.2h2.1l-0.1-0.2h-0.1
			c-0.1,0-0.2,0-0.3-0.1c-0.1-0.1-0.2-0.3-0.1-0.6c0.1-0.2,0.2-0.5,0.2-0.7c0.1-0.4,0.3-1,0.5-1.5l5.4-1.2l1,3.3
			c0.1,0.3,0,0.6-0.1,0.8C97,82,96.9,82,96.8,82h-0.1l-0.1,0.2h3.4h0.9L100.7,81.9L100.7,81.9z M90.8,78.6c0.5-1.6,2.4-7.6,2.9-8.9
			l2.3,7.8L90.8,78.6z M70.4,69.4L70.4,69.4c0.2,0,0.3,0,0.4,0.1c0.2,0.2,0.3,0.5,0.3,0.8v9.5c0,0.7-0.2,1.3-0.5,1.6
			c-0.3,0.4-0.8,0.6-1.4,0.6s-1.1-0.2-1.4-0.6s-0.5-0.9-0.5-1.6v-9.5c0-0.3,0.1-0.6,0.3-0.8c0.1-0.1,0.2-0.1,0.4-0.1h0.1l0.1-0.3
			h-4.3l0.1,0.3h0.1c0.3,0,0.6,0.3,0.7,0.8V78c0,1.4,0.4,2.5,1.2,3.2c0.8,0.7,1.9,1.1,3.3,1.1c1.5,0,2.5-0.4,3.3-1.1
			s1.2-1.8,1.2-3.2v-7.9c0.1-0.5,0.4-0.8,0.7-0.8h0.1l0.1-0.3h-4.3L70.4,69.4z"/>
	</g>
</g>
</svg>
