<?xml version="1.0" encoding="utf-8"?>
<!-- Generator: Adobe Illustrator 23.1.1, SVG Export Plug-In . SVG Version: 6.00 Build 0)  -->
<svg version="1.1" id="Layer_1" xmlns="http://www.w3.org/2000/svg" xmlns:xlink="http://www.w3.org/1999/xlink" x="0px" y="0px"
	 viewBox="0 0 136.4 150.1" style="enable-background:new 0 0 136.4 150.1;" xml:space="preserve">
<g>
	<g>
		<g>
			<path d="M48,116.5l-2.3-1.3l-4,7.4l-2.3-1.3l4-7.4l-2.3-1.3l1.1-2.1l7,3.8L48,116.5z"/>
			<path d="M51,124.8c-0.1,0.4-0.4,0.7-0.8,0.9c-0.4,0.2-0.8,0.2-1.2,0.1s-0.7-0.4-0.9-0.8s-0.2-0.8-0.1-1.2
				c0.1-0.4,0.4-0.7,0.8-0.9c0.4-0.2,0.8-0.2,1.2-0.1s0.7,0.4,0.9,0.8S51.1,124.4,51,124.8z"/>
			<path d="M63.4,128.9l-2.7-0.4l-0.2-1.7l-3.3-0.5l-0.8,1.5l-2.7-0.4l5.5-10l2,0.3L63.4,128.9z M60.1,124.5l-0.5-3l-1.4,2.7
				L60.1,124.5z"/>
			<path d="M69.9,127.2c0,0.4-0.1,0.8-0.4,1.1s-0.7,0.5-1.1,0.5s-0.8-0.1-1.1-0.4c-0.3-0.3-0.5-0.7-0.5-1.1s0.1-0.8,0.4-1.1
				c0.3-0.3,0.7-0.5,1.1-0.5s0.8,0.1,1.1,0.4C69.8,126.4,69.9,126.8,69.9,127.2z"/>
			<path d="M80.7,126.2c-0.6,0.9-1.5,1.5-2.7,1.7s-2.2,0-3.2-0.7c-0.6-0.4-1-1-1.3-1.7c-0.2-0.4-0.3-1.2-0.5-2.3
				c-0.2-1.1-0.3-1.8-0.3-2.3c0-0.8,0.2-1.5,0.6-2.1c0.7-0.9,1.6-1.5,2.7-1.7c1.2-0.2,2.2,0,3.1,0.7l-1.4,2
				c-0.5-0.3-0.9-0.4-1.3-0.4c-0.4,0.1-0.8,0.3-0.9,0.6c-0.2,0.4-0.2,1.3,0.1,2.7c0.2,1.4,0.5,2.2,0.9,2.5c0.3,0.3,0.6,0.3,1.1,0.3
				c0.4-0.1,0.8-0.3,1.1-0.8L80.7,126.2z"/>
			<path d="M86.9,123.7c0.1,0.4,0.1,0.8-0.1,1.2c-0.2,0.4-0.5,0.7-0.9,0.8c-0.4,0.1-0.8,0.1-1.2-0.1c-0.4-0.2-0.7-0.5-0.8-0.9
				c-0.1-0.4-0.1-0.8,0.1-1.2c0.2-0.4,0.5-0.7,0.9-0.8c0.4-0.1,0.8-0.1,1.2,0.1C86.5,123,86.8,123.3,86.9,123.7z"/>
			<path d="M96.8,119.3c-0.3,1.1-1,1.9-2,2.5s-2.1,0.7-3.2,0.4c-0.7-0.2-1.3-0.6-1.8-1.2c-0.3-0.4-0.7-1-1.2-2s-0.9-1.7-1-2.1
				c-0.3-0.8-0.3-1.5-0.1-2.2c0.3-1.1,1-1.9,2-2.5s2.1-0.7,3.2-0.4l-0.7,2.4c-0.5-0.2-1-0.1-1.4,0.1s-0.6,0.5-0.7,0.9
				s0.2,1.3,0.9,2.5c0.7,1.2,1.2,2,1.6,2.1c0.3,0.2,0.7,0.1,1.1-0.1s0.6-0.6,0.8-1.1L96.8,119.3z"/>
		</g>
		<g>
			<path d="M98.6,109.3c-0.2,0-0.4-0.1-0.6-0.3c-0.3-0.3-0.3-0.8,0.1-1.1c10-8.8,15.7-21.5,15.7-34.9c0-11.2-4-22-11.3-30.4
				c-0.3-0.3-0.2-0.8,0.1-1.1c0.3-0.3,0.8-0.2,1.1,0.1c7.5,8.7,11.7,19.9,11.7,31.4c0,13.8-5.9,26.9-16.3,36
				C98.9,109.2,98.8,109.3,98.6,109.3z"/>
		</g>
		<g>
			<path d="M35.3,108.6c-0.2,0-0.4-0.1-0.5-0.2c-9.9-9.1-15.5-22-15.5-35.4c0-12.3,4.7-24,13.1-33c0.3-0.3,0.8-0.3,1.1,0
				s0.3,0.8,0,1.1c-8.2,8.7-12.7,20-12.7,31.9c0,13,5.5,25.4,15,34.2c0.3,0.3,0.3,0.8,0,1.1C35.7,108.5,35.5,108.6,35.3,108.6z"/>
		</g>
		<g>
			<g>
				<path d="M37.9,34.4l-0.6,0.5l-0.1-0.1c-0.1-0.1-0.2-0.2-0.4-0.3c-0.1,0-0.3,0-0.4,0.1c-0.1,0.1-0.1,0.1-0.2,0.2
					c0,0.1,0,0.1,0,0.2c0,0.1,0,0.1,0.1,0.2c0,0.1,0.1,0.1,0.1,0.2c0.1,0.1,0.1,0.1,0.2,0.2c0,0,0.1,0.1,0.2,0.1c0.1,0,0.1,0,0.2,0
					c0.1,0,0.1,0,0.2-0.1l0.6-0.2c0.2-0.1,0.3-0.1,0.4-0.1c0.1,0,0.2,0,0.4,0.1c0.1,0.1,0.2,0.1,0.3,0.2c0.1,0.1,0.2,0.2,0.3,0.4
					s0.2,0.3,0.3,0.5s0.1,0.3,0.1,0.5s0,0.3-0.1,0.5s-0.2,0.3-0.4,0.5c-0.1,0.1-0.3,0.2-0.4,0.2c-0.2,0-0.3,0.1-0.5,0
					c-0.2,0-0.3-0.1-0.4-0.1c-0.1-0.1-0.3-0.2-0.4-0.3l-0.2-0.2l0.6-0.5l0.1,0.2c0.1,0.1,0.2,0.2,0.3,0.2s0.3,0,0.4-0.1
					c0.1-0.1,0.2-0.2,0.2-0.2c0-0.1,0-0.1,0-0.2c0-0.1,0-0.2-0.1-0.2c-0.1-0.1-0.1-0.2-0.2-0.2c-0.1-0.1-0.2-0.2-0.2-0.2
					c-0.1-0.1-0.1-0.1-0.2-0.1c-0.1,0-0.1,0-0.2,0c-0.1,0-0.1,0-0.2,0.1l-0.5,0.2c-0.3,0.1-0.6,0.1-0.8,0s-0.4-0.3-0.6-0.5
					c-0.1-0.1-0.2-0.3-0.3-0.5s-0.1-0.3-0.1-0.5s0-0.3,0.1-0.5s0.2-0.3,0.4-0.4c0.1-0.1,0.3-0.2,0.4-0.2c0.2,0,0.3-0.1,0.5,0
					c0.3,0,0.6,0.2,0.7,0.4L37.9,34.4z"/>
				<path d="M42,35.9l-2.8-4.2l0.6-0.4l2.8,4.2L42,35.9z"/>
				<path d="M44.6,34.2l-2.4-4.4l0.6-0.3l2.4,2.1l0,0l-1.5-2.7l0.6-0.3l2.4,4.4l-0.6,0.3l-2.4-2.1l0,0l1.5,2.7L44.6,34.2z"/>
				<path d="M51.5,30.9L51,25.8l0.6-0.2l2.7,4.4l-0.7,0.2l-0.5-1l-0.9,0.3l0.1,1.1L51.5,30.9z M52.7,28.7l-0.9-1.6l0,0l0.2,1.8
					L52.7,28.7z"/>
				<path d="M55.3,25.7c0-0.2,0-0.4,0-0.5c0-0.2,0.1-0.3,0.2-0.4c0.1-0.1,0.2-0.2,0.3-0.3c0.1-0.1,0.3-0.1,0.4-0.2
					c0.1,0,0.3,0,0.4,0c0.2,0,0.3,0.1,0.4,0.1c0.1,0.1,0.3,0.2,0.4,0.3c0.1,0.1,0.2,0.3,0.2,0.5l0.1,0.2L57,25.6l0-0.2
					c0-0.2-0.1-0.3-0.2-0.3s-0.2-0.1-0.4,0c-0.1,0-0.2,0.1-0.3,0.2S56,25.5,56,25.7l0.6,2.6c0,0.2,0.1,0.3,0.2,0.3
					c0.1,0.1,0.2,0.1,0.4,0s0.2-0.1,0.3-0.2s0.1-0.2,0.1-0.4l-0.2-0.9l-0.6,0.1l-0.1-0.6l1.3-0.3l0.3,1.5c0,0.2,0,0.4,0,0.6
					s-0.1,0.3-0.2,0.4c-0.1,0.1-0.2,0.2-0.3,0.3c-0.1,0.1-0.3,0.1-0.4,0.2s-0.3,0-0.4,0s-0.3-0.1-0.4-0.1c-0.1-0.1-0.3-0.2-0.4-0.3
					c-0.1-0.1-0.2-0.3-0.2-0.5L55.3,25.7z"/>
				<path d="M60.8,28.6l-0.5-5l1.2-0.1c0.8-0.1,1.3,0.4,1.4,1.3c0,0.3,0,0.6-0.1,0.8c-0.1,0.2-0.2,0.4-0.4,0.6l1,2.2l-0.8,0.1
					l-0.9-2.1h-0.4l0.2,2.1L60.8,28.6z M61.1,24.2l0.2,1.6h0.4c0.1,0,0.2,0,0.3-0.1s0.1-0.1,0.2-0.2c0-0.1,0-0.2,0.1-0.3
					c0-0.1,0-0.2,0-0.3c0-0.1,0-0.2-0.1-0.3c0-0.1-0.1-0.2-0.1-0.2c-0.1-0.1-0.3-0.2-0.5-0.1L61.1,24.2z"/>
				<path d="M65.6,28.3l-0.1-5h2.1V24h-1.4v1.5h1.2v0.7h-1.2v1.5h1.4v0.7L65.6,28.3z"/>
				<path d="M70.2,24.5c0-0.2,0.1-0.4,0.2-0.5s0.2-0.3,0.3-0.4c0.1-0.1,0.3-0.2,0.4-0.2s0.3-0.1,0.4,0c0.1,0,0.3,0.1,0.4,0.1
					c0.1,0.1,0.3,0.2,0.4,0.3c0.1,0.1,0.2,0.3,0.2,0.4c0.1,0.2,0.1,0.3,0.1,0.5V25l-0.7-0.1v-0.3c0-0.2,0-0.3-0.1-0.4
					s-0.2-0.1-0.3-0.2c-0.1,0-0.2,0-0.4,0.1c-0.1,0.1-0.2,0.2-0.2,0.4l-0.2,2.6c0,0.2,0,0.3,0.1,0.4s0.2,0.1,0.3,0.2
					c0.1,0,0.2,0,0.4-0.1c0.1-0.1,0.2-0.2,0.2-0.4l0.1-0.9l-0.6-0.1l0.1-0.6l1.3,0.1l-0.1,1.6c0,0.2-0.1,0.4-0.2,0.5
					s-0.2,0.3-0.3,0.3c-0.1,0.1-0.3,0.2-0.4,0.2s-0.3,0.1-0.4,0c-0.1,0-0.3-0.1-0.4-0.1s-0.3-0.2-0.4-0.3c-0.1-0.1-0.2-0.2-0.2-0.4
					c-0.1-0.2-0.1-0.3-0.1-0.6L70.2,24.5z"/>
				<path d="M74.2,28.8l2.1-4.7l0.6,0.1l0.1,5.2l-0.7-0.1v-1.1l-1-0.2L75,29L74.2,28.8z M76.3,27.4v-1.9l0,0l-0.7,1.7L76.3,27.4z"/>
				<path d="M79,29.9l1.5-4.8l1,0.3c0.4,0.1,0.7,0.3,0.8,0.6c0.1,0.3,0.1,0.6,0,1l-0.7,2.2c-0.1,0.5-0.4,0.7-0.6,0.9
					c-0.3,0.1-0.6,0.2-1,0L79,29.9z M81,26l-1.1,3.5l0.3,0.1c0.2,0.1,0.3,0.1,0.5,0c0.1-0.1,0.2-0.2,0.3-0.4l0.7-2.3
					c0.1-0.2,0.1-0.3,0-0.5c0-0.1-0.2-0.2-0.4-0.3L81,26z"/>
				<path d="M85,27.9c0.1-0.2,0.2-0.3,0.3-0.5c0.1-0.1,0.3-0.2,0.4-0.2s0.3-0.1,0.4-0.1s0.3,0,0.4,0.1s0.3,0.1,0.4,0.2
					s0.2,0.2,0.3,0.4c0.1,0.1,0.1,0.3,0.1,0.5s0,0.3-0.1,0.5l-1,2.4c-0.1,0.2-0.2,0.3-0.3,0.5c-0.1,0.1-0.3,0.2-0.4,0.2
					C85.3,32,85.2,32,85,32s-0.3,0-0.4-0.1c-0.1-0.1-0.3-0.1-0.4-0.2s-0.2-0.2-0.3-0.4c-0.1-0.1-0.1-0.3-0.1-0.5s0-0.3,0.1-0.5
					L85,27.9z M84.6,30.6c-0.1,0.2-0.1,0.3,0,0.4s0.1,0.2,0.3,0.2c0.1,0.1,0.2,0.1,0.4,0c0.1,0,0.2-0.1,0.3-0.3l1-2.4
					c0.1-0.2,0.1-0.3,0-0.4s-0.1-0.2-0.3-0.2c-0.1-0.1-0.2-0.1-0.4,0c-0.1,0-0.2,0.1-0.3,0.3L84.6,30.6z"/>
				<path d="M90.5,34.9l2.7-4.2l0.9,0.6c0.3,0.2,0.5,0.5,0.6,0.8s0,0.6-0.3,1l-1.3,2c-0.3,0.4-0.5,0.6-0.9,0.7c-0.3,0.1-0.7,0-1-0.3
					L90.5,34.9z M93.5,31.7l-2,3.1l0.3,0.2c0.2,0.1,0.3,0.1,0.4,0.1s0.2-0.1,0.4-0.3l1.3-2c0.1-0.2,0.2-0.3,0.1-0.5
					c0-0.1-0.1-0.3-0.3-0.4L93.5,31.7z"/>
				<path d="M94.4,37.6l3.1-3.9l1.7,1.3l-0.4,0.5l-1.1-0.9l-0.9,1.2l1,0.8l-0.4,0.5l-1-0.8l-0.9,1.2l1.1,0.9L96,38.9L94.4,37.6z"/>
			</g>
		</g>
		<g>
			<g>
				<path d="M67.3,46.1c-1.3,2.1-2.5,4-3.3,6.1c-0.1,0.2-0.1,0.4-0.2,0.6c-0.3,0.6-0.2,1.1,0.4,1.5s1.1,0.9,1.6,1.4
					c0.5,0.4,1,0.9,1.5,1.4c0.4-0.4,0.9-0.9,1.4-1.3c1.5-1.3,3-2.6,4.5-3.9c0.3-0.3,0.5-0.6,0.5-1c0-0.9,0-1.8,0-2.6
					c0-0.4,0.2-0.6,0.6-0.8s0.6,0,0.9,0.2c0.1,0.1,0.2,0.4,0.3,0.5c0,0.2,0,0.5,0,0.7c0,2.6,0,5.2,0,7.8c0,0.3,0,0.7,0,1.1
					c0.2,0,0.3-0.1,0.4-0.1c0.8-0.2,1.2,0.1,1.3,0.9c0,1.1,0,2.3,0,3.4c0,1.1,0,2.2,0,3.3c0.2,0,0.4,0,0.6,0
					c0.6,0.1,0.8,0.4,0.8,1.1c0,2.3,0,4.7,0,7c0,0.2,0,0.4-0.1,0.6c-0.1,0.4-0.1,0.7,0.4,0.9c0.4,0.1,0.6,0.5,0.6,0.9
					c0,2.8,0.1,5.5,0,8.3c-0.1,2.4-1.2,4.4-3,5.9c-1.4,1.2-2.7,2.3-4.1,3.5c-1.2,1-2.3,2-3.5,3c-0.4,0.3-0.5,0.7-0.5,1.2
					c0,2.2,0,4.4,0,6.7c0,0.2,0,0.5,0,0.7c-0.1,0.5-0.4,0.8-0.9,0.7c-0.4,0-0.7-0.3-0.8-0.7c0-0.2,0-0.5,0-0.7c0-2.3,0-4.6,0-6.9
					c0-0.4-0.1-0.7-0.5-1c-2.5-2.1-5-4.3-7.5-6.4c-2.2-1.9-3.3-4.2-3.3-7.1c0-2.3,0-4.6,0-6.9c0-0.7,0.1-1.2,0.8-1.4
					c0.1,0,0.2-0.3,0.2-0.4c0-1.4-0.1-2.8-0.1-4.2c0-1.2,0-2.3,0-3.5c0-1.1,0.2-1.3,1.4-1.3c0-0.6,0-1.3,0-1.9c0-1.6,0-3.1,0-4.7
					c0-1,0.4-1.3,1.4-1c0.1,0,0.1,0,0.3,0c0-0.4,0-0.7,0-1c0-2.6,0-5.3,0-7.9c0-0.2,0-0.5,0-0.7c0.1-0.4,0.4-0.8,0.9-0.8
					c0.4,0,0.8,0.3,0.8,0.8c0,0.7,0.1,1.4,0,2.1c-0.1,1,0.2,1.6,1.2,2c0.8-2.8,2.5-5.1,3.9-7.6c0.3-0.5,0.4-0.9,0.4-1.5c0-1,0-2,0-3
					c0-0.4,0.2-0.6,0.5-0.8c0.4-0.2,0.7-0.1,0.9,0.1c0.2,0.2,0.3,0.5,0.3,0.7c0,0.9,0,1.8,0,2.7c0,0.6,0.1,1.2,0.4,1.7
					c0.9,1.5,1.8,3,2.6,4.6c0.1,0.2,0.2,0.4,0.3,0.7c0.1,0.5-0.1,1-0.5,1.1s-0.8,0-1.1-0.5c-0.4-0.7-0.7-1.4-1.1-2
					C68.3,47.8,67.9,47,67.3,46.1z M57.1,77.8C57,78,57,78.1,57,78.2c0,1.8,0,3.7,0,5.5c0,0.7,0.2,1.3,0.4,1.9
					c0.4,1.4,1.3,2.4,2.4,3.3c1.6,1.4,3.2,2.8,4.8,4.1c0.6,0.5,1.2,1,1.8,1.5c0-0.2,0.1-0.4,0.1-0.5c0-1.8,0-3.7,0-5.5
					c0-0.2,0-0.4-0.1-0.6c-0.3-1.9-1.3-3.5-2.8-4.7c-0.2-0.1-0.4-0.3-0.5-0.5c-0.3-0.6,0-1.2,0.7-1.2c0.3,0,0.6,0.1,0.9,0.3
					c0.6,0.5,1.2,1.1,1.9,1.6c0-2,0.1-3.8,0-5.7c-0.1-1.6-0.8-2.9-1.9-4c-1.9-1.7-3.9-3.4-5.9-5.1c-0.1-0.1-0.3-0.2-0.6-0.3
					c0,1.7,0,3.3,0,4.9c0,2.1,0.8,3.7,2.4,4.9c0.2,0.2,0.5,0.4,0.7,0.6c0.3,0.3,0.2,0.9-0.1,1.2c-0.3,0.3-0.6,0.3-1.1,0.1
					c-0.2-0.1-0.3-0.2-0.5-0.4C58.7,79.1,57.9,78.5,57.1,77.8z M77.6,77.8c-0.2,0.1-0.3,0.1-0.3,0.2c-2.2,1.9-4.3,3.7-6.5,5.6
					c-1.7,1.5-2.7,3.4-2.6,5.7c0,1.5,0,3,0,4.5c0,0.2,0.1,0.4,0.1,0.7c0.1-0.1,0.2-0.1,0.3-0.1c2.1-1.8,4.2-3.6,6.3-5.4
					c1.9-1.6,2.9-3.7,2.8-6.2c0-1.4,0-2.8,0-4.2C77.7,78.3,77.6,78.1,77.6,77.8z M68.2,83.5c2.2-1.9,4.3-3.7,6.4-5.5
					c1.3-1.2,2.1-2.6,2.1-4.4c0-1,0-1.9,0-2.9c0-0.8,0-1.5,0-2.5c-0.3,0.3-0.5,0.4-0.7,0.6c-1.9,1.6-3.8,3.3-5.7,4.9
					c-1.3,1.1-2.1,2.6-2.2,4.3C68.1,79.8,68.2,81.6,68.2,83.5z M68.2,73.1c0.1,0,0.2,0,0.3-0.1c0.7-0.7,1.5-1.3,2.2-2
					c1-0.9,2.1-1.9,3.1-2.8c1-1,1.5-2.2,1.5-3.6c0-1.1,0-2.3,0-3.4c0-0.2,0-0.4-0.1-0.7c-0.3,0.3-0.5,0.5-0.7,0.6
					c-1.4,1.2-2.7,2.5-4.1,3.6c-1.5,1.2-2.2,2.7-2.2,4.6c0,1,0,2,0,3C68.2,72.6,68.2,72.9,68.2,73.1z M66.4,73.2c0-1.5,0-2.9,0-4.2
					c0-1.6-0.7-2.9-1.9-4c-1.5-1.3-3.1-2.7-4.6-4c-0.2-0.1-0.4-0.2-0.6-0.4c0,1.5,0,2.9,0,4.3c0,0.2,0,0.3,0.1,0.5
					c0.2,1.3,0.9,2.3,1.9,3.2C62.9,70.2,64.6,71.6,66.4,73.2z M66.4,64.3c0-1.6,0.1-3,0-4.4c-0.1-1.1-0.6-2.1-1.5-2.8
					c-0.9-0.8-1.8-1.6-2.7-2.3c-0.4-0.3-0.7-0.6-1.2-1c0,1.3,0,2.5,0,3.6c0,1.5,0.5,2.7,1.8,3.6c0.3,0.2,0.6,0.5,0.9,0.8
					C64.5,62.7,65.4,63.5,66.4,64.3z M68.2,64.3c1.5-1.3,2.9-2.5,4.3-3.7c0.4-0.3,0.6-0.9,0.8-1.3c0.4-0.7,0.3-1.5,0.3-2.3
					c0-1,0-2,0-3.1c-1.5,1.3-2.8,2.4-4.2,3.5c-0.8,0.7-1.2,1.6-1.3,2.7C68.1,61.4,68.2,62.8,68.2,64.3z"/>
			</g>
		</g>
		<g>
			<g>
				<path d="M67.5,112.6c-13.2,0-25.6-6.6-33-17.5c-0.1-0.2-0.2-0.4-0.1-0.6c0-0.2,0.2-0.4,0.4-0.5l15.5-9.1
					c0.4-0.2,0.8-0.1,1.1,0.3c0.2,0.4,0.1,0.8-0.3,1.1l-14.8,8.6C43.5,105,55.1,111,67.5,111c21.1,0,38.3-17.2,38.3-38.3
					c0-4.6-0.8-9-2.4-13.2c-0.1-0.4,0.1-0.8,0.5-1c0.4-0.1,0.8,0.1,1,0.5c1.6,4.4,2.5,9,2.5,13.8C107.4,94.7,89.5,112.6,67.5,112.6z
					"/>
				<path d="M32.5,90.3c-0.3,0-0.5-0.1-0.7-0.4c-0.2-0.4-0.1-0.8,0.3-1.1l18.1-10.5c0.4-0.2,0.8-0.1,1.1,0.3
					c0.2,0.4,0.1,0.8-0.3,1.1L32.9,90.2C32.8,90.2,32.7,90.3,32.5,90.3z"/>
			</g>
		</g>
		<g>
			<g>
				<path d="M30.6,86.7c-0.3,0-0.6-0.2-0.7-0.5c-1.6-4.4-2.5-9-2.5-13.8c0-21.9,17.9-39.8,39.8-39.8c13.2,0,25.6,6.6,33,17.5
					c0.1,0.2,0.2,0.4,0.1,0.6c0,0.2-0.2,0.4-0.4,0.5l-15.5,9.1c-0.4,0.2-0.8,0.1-1.1-0.3s-0.1-0.8,0.3-1.1l14.8-8.6
					c-7.2-10.2-18.8-16.2-31.3-16.2c-21.1,0-38.3,17.2-38.3,38.3c0,4.6,0.8,9,2.4,13.2c0.1,0.4-0.1,0.8-0.5,1
					C30.8,86.7,30.7,86.7,30.6,86.7z"/>
				<path d="M84.1,67c-0.3,0-0.5-0.1-0.7-0.4c-0.2-0.4-0.1-0.8,0.3-1.1l17.9-10.4c0.4-0.2,0.8-0.1,1.1,0.3c0.2,0.4,0.1,0.8-0.3,1.1
					L84.5,66.9C84.3,66.9,84.2,67,84.1,67z"/>
			</g>
		</g>
	</g>
</g>
</svg>
