<?xml version="1.0" encoding="utf-8"?>
<!-- Generator: Adobe Illustrator 23.1.1, SVG Export Plug-In . SVG Version: 6.00 Build 0)  -->
<svg version="1.1" id="Layer_1" xmlns="http://www.w3.org/2000/svg" xmlns:xlink="http://www.w3.org/1999/xlink" x="0px" y="0px"
	 viewBox="0 0 125.6 124.7" style="enable-background:new 0 0 125.6 124.7;" xml:space="preserve">
<style type="text/css">
	.st0{fill:#D6D7D8;}
	.st1{fill:#F1F1F1;}
	.st2{fill:#CDD1D3;}
	.st3{fill:#DCBF84;}
	.st4{fill-rule:evenodd;clip-rule:evenodd;fill:#DCBF84;}
	.st5{fill:#F1F1F1;stroke:#FFFFFF;stroke-width:0.3268;stroke-miterlimit:10;}
	.st6{opacity:0.37;}
	.st7{fill:#C1C1C1;}
	.st8{fill:#231F20;}
	.st9{opacity:0.17;}
	.st10{fill:#6E6E6E;}
	.st11{fill:#010101;}
	.st12{fill:#FFFFFF;}
	.st13{fill:#FAFAFC;}
	.st14{fill:#00BF22;}
	.st15{fill-rule:evenodd;clip-rule:evenodd;fill:#FFFFFF;}
</style>
<g>
	
		<image style="overflow:visible;opacity:0.1;" width="126" height="126" xlink:href="53C8DAA05A2CAB42.png"  transform="matrix(1 0 0 1 2.5428 2.2752)">
	</image>
	<g>
		<g>
			<circle class="st14" cx="62" cy="61.7" r="55.6"/>
			<g>
				<path class="st15" d="M77.3,67.2c-0.8-0.4-4.5-2.4-5.2-2.7c-0.7-0.3-1.2-0.4-1.7,0.3c-0.5,0.7-2.1,2.4-2.5,2.9
					c-0.5,0.5-0.9,0.5-1.7,0.1c-0.8-0.4-3.2-1.3-6-4c-2.2-2.1-3.7-4.7-4.1-5.5c-0.4-0.8,0-1.2,0.4-1.6c0.4-0.3,0.8-0.9,1.2-1.3
					c0.4-0.4,0.5-0.7,0.8-1.3c0.3-0.5,0.2-1,0-1.3c-0.2-0.4-1.6-4.2-2.2-5.8c-0.6-1.6-1.2-1.3-1.7-1.3c-0.4,0-1-0.1-1.5-0.1
					c-0.5,0-1.4,0.1-2.1,0.9c-0.7,0.7-2.8,2.5-2.9,6.3c-0.1,3.8,2.5,7.5,2.8,8.1c0.4,0.5,5,8.7,12.7,12.1c7.7,3.4,7.7,2.3,9.2,2.3
					c1.4-0.1,4.6-1.7,5.3-3.5c0.7-1.8,0.8-3.3,0.6-3.6C78.5,67.8,78,67.6,77.3,67.2L77.3,67.2z M63.1,85.4c-5.1,0-9.8-1.5-13.8-4.1
					l-9.6,3.1l3.1-9.3c-3-4.1-4.8-9.2-4.8-14.7c0-13.8,11.2-25.1,25.1-25.1c13.8,0,25.1,11.2,25.1,25.1C88.2,74.2,77,85.4,63.1,85.4
					L63.1,85.4z M63.1,30.2C46.5,30.2,33,43.7,33,60.4c0,5.7,1.6,11,4.3,15.5L31.9,92l16.7-5.3c4.3,2.4,9.3,3.7,14.5,3.7
					c16.6,0,30.1-13.5,30.1-30.1C93.3,43.7,79.8,30.2,63.1,30.2L63.1,30.2z"/>
			</g>
		</g>
	</g>
</g>
</svg>
