<?xml version="1.0" encoding="utf-8"?>
<!-- Generator: Adobe Illustrator 23.1.1, SVG Export Plug-In . SVG Version: 6.00 Build 0)  -->
<svg version="1.1" id="Layer_1" xmlns="http://www.w3.org/2000/svg" xmlns:xlink="http://www.w3.org/1999/xlink" x="0px" y="0px"
	 viewBox="0 0 136.4 150.1" style="enable-background:new 0 0 136.4 150.1;" xml:space="preserve">
<style type="text/css">
	.st0{fill:#231F20;}
</style>
<g>
	<g>
		<path d="M36.7,93.5c-0.3,0-0.5-0.1-0.7-0.4c-0.2-0.4-0.1-0.9,0.3-1.1L50,84c0.4-0.2,0.9-0.1,1.1,0.3c0.2,0.4,0.1,0.9-0.3,1.1
			l-13.7,8C37,93.5,36.9,93.5,36.7,93.5z"/>
		<path d="M86.3,70.7c-0.3,0-0.6-0.1-0.7-0.4c-0.2-0.4-0.1-0.9,0.3-1.1l16.1-9.1c0.4-0.2,0.9-0.1,1.1,0.3c0.2,0.4,0.1,0.9-0.3,1.1
			l-16.1,9.1C86.6,70.7,86.5,70.7,86.3,70.7z"/>
		<g>
			<g>
				<path class="st0" d="M28.1,95.8l-0.5-1.3l0.3-0.1c0.3-0.1,0.5-0.3,0.7-0.5s0.2-0.5,0-0.8c-0.1-0.2-0.2-0.3-0.3-0.4
					c-0.1-0.1-0.2-0.1-0.4-0.2c-0.1,0-0.3,0-0.4,0s-0.3,0.1-0.5,0.1c-0.2,0.1-0.3,0.1-0.4,0.2s-0.2,0.1-0.3,0.2
					c-0.1,0.1-0.1,0.2-0.1,0.3c0,0.1,0,0.3,0,0.5v1.1c0,0.3,0,0.6-0.1,0.9c-0.1,0.2-0.2,0.4-0.3,0.6c-0.2,0.2-0.4,0.3-0.6,0.5
					c-0.2,0.1-0.5,0.3-0.9,0.4c-0.4,0.2-0.7,0.3-1.1,0.3c-0.4,0.1-0.7,0-1,0c-0.3-0.1-0.6-0.2-0.8-0.5c-0.3-0.2-0.5-0.6-0.6-1
					c-0.1-0.3-0.2-0.6-0.2-0.9s0.1-0.6,0.2-0.9s0.3-0.5,0.5-0.7s0.5-0.4,0.8-0.5l0.5-0.2l0.5,1.3l-0.4,0.2c-0.2,0.1-0.4,0.3-0.6,0.5
					c-0.1,0.2-0.1,0.5,0,0.8c0.1,0.2,0.2,0.4,0.3,0.5c0.1,0.1,0.2,0.2,0.4,0.2c0.1,0,0.3,0,0.5-0.1s0.4-0.1,0.6-0.2s0.4-0.2,0.6-0.3
					c0.1-0.1,0.3-0.2,0.3-0.3c0.1-0.1,0.1-0.2,0.1-0.3c0-0.1,0-0.3,0-0.5v-1.1c0-0.7,0.1-1.1,0.4-1.5c0.3-0.3,0.7-0.6,1.3-0.9
					c0.3-0.1,0.7-0.2,1-0.3c0.3,0,0.7,0,1,0.1s0.6,0.2,0.8,0.5c0.2,0.2,0.4,0.5,0.6,0.9c0.1,0.3,0.2,0.6,0.2,1
					c0,0.3-0.1,0.6-0.2,0.9c-0.2,0.6-0.6,0.9-1.2,1.2L28.1,95.8z"/>
			</g>
			<g>
				<path class="st0" d="M23.8,102.4l8.4-5l0.7,1.2l-8.4,5L23.8,102.4z"/>
			</g>
			<g>
				<path class="st0" d="M27.1,107.6l7.6-6.1l0.8,1l-3.2,5.3l0,0l4.6-3.7l0.9,1.1l-7.6,6.1l-0.8-1l3.2-5.3l0,0l-4.6,3.7L27.1,107.6z
					"/>
			</g>
			<g>
				<path class="st0" d="M45.6,115.4l-1.1-0.8l0.2-0.3c0.2-0.3,0.3-0.5,0.3-0.8s-0.1-0.5-0.4-0.7c-0.2-0.1-0.3-0.2-0.4-0.2
					c-0.1,0-0.3,0-0.4,0.1c-0.1,0.1-0.2,0.1-0.4,0.2c-0.1,0.1-0.2,0.2-0.3,0.4c-0.1,0.2-0.2,0.3-0.3,0.4s-0.1,0.2-0.1,0.3
					c0,0.1,0,0.2,0,0.4c0,0.1,0.1,0.3,0.2,0.4l0.6,1c0.2,0.3,0.3,0.5,0.4,0.8c0.1,0.2,0.1,0.5,0.1,0.7s-0.1,0.5-0.3,0.7
					c-0.1,0.2-0.3,0.5-0.5,0.8s-0.5,0.6-0.8,0.9c-0.3,0.2-0.5,0.4-0.8,0.5s-0.6,0.1-1,0.1c-0.3-0.1-0.7-0.2-1.1-0.5
					c-0.3-0.2-0.5-0.4-0.7-0.7c-0.2-0.3-0.3-0.5-0.3-0.8c-0.1-0.3-0.1-0.6,0-0.9s0.2-0.6,0.4-0.9l0.3-0.4l1.1,0.8l-0.3,0.4
					c-0.1,0.2-0.2,0.4-0.2,0.7c0,0.3,0.2,0.5,0.4,0.7c0.2,0.1,0.4,0.2,0.5,0.2s0.3,0,0.4-0.1c0.1-0.1,0.3-0.2,0.4-0.3
					c0.1-0.1,0.2-0.3,0.4-0.5c0.1-0.2,0.3-0.4,0.3-0.5c0.1-0.1,0.1-0.3,0.1-0.4s0-0.2-0.1-0.3c0-0.1-0.1-0.2-0.2-0.4l-0.6-0.9
					c-0.4-0.5-0.5-1-0.4-1.5s0.3-0.9,0.6-1.4c0.2-0.3,0.4-0.6,0.7-0.8c0.3-0.2,0.6-0.4,0.9-0.4c0.3-0.1,0.6-0.1,0.9,0
					c0.3,0.1,0.7,0.2,1,0.4c0.3,0.2,0.5,0.4,0.7,0.7c0.2,0.3,0.3,0.5,0.3,0.8c0.1,0.6,0,1.1-0.3,1.6L45.6,115.4z"/>
			</g>
			<g>
				<path class="st0" d="M45.1,123.2l6.1-7.9l1.1,0.5l-2.1,9.8l-1.3-0.6l0.5-2.1l-1.7-0.8l-1.3,1.7L45.1,123.2z M49.7,121.5l0.9-3.5
					l0,0l-2.1,2.9L49.7,121.5z"/>
			</g>
			<g>
				<path class="st0" d="M54.2,126.9l2.5-9.4l2,0.5c0.4,0.1,0.8,0.3,1.1,0.5s0.5,0.5,0.6,0.7c0.1,0.3,0.2,0.6,0.2,0.9s0,0.6-0.1,0.9
					l-0.1,0.3c-0.1,0.3-0.1,0.5-0.2,0.6c-0.1,0.2-0.2,0.3-0.3,0.4c-0.2,0.2-0.5,0.4-0.9,0.5c0.3,0.2,0.5,0.5,0.5,0.8
					c0.1,0.3,0,0.7-0.1,1.3l-0.1,0.5c-0.2,0.8-0.6,1.4-1.1,1.7c-0.5,0.3-1.2,0.4-2.1,0.2L54.2,126.9z M56.7,122.9l-0.8,3l0.6,0.2
					c0.3,0.1,0.5,0.1,0.7,0.1s0.3-0.1,0.4-0.2c0.1-0.1,0.2-0.3,0.3-0.5s0.1-0.4,0.2-0.6c0.1-0.2,0.1-0.4,0.1-0.6s0-0.3,0-0.5
					c-0.1-0.1-0.2-0.3-0.3-0.4s-0.3-0.2-0.6-0.2L56.7,122.9z M57.7,119.1l-0.7,2.6l0.6,0.2c0.4,0.1,0.8,0.1,1-0.1s0.4-0.5,0.5-0.9
					s0.1-0.8,0-1c-0.1-0.3-0.4-0.4-0.8-0.6L57.7,119.1z"/>
			</g>
			<g>
				<path class="st0" d="M63.9,121.5c0-0.4,0.1-0.7,0.3-1c0.2-0.3,0.4-0.5,0.6-0.7s0.5-0.3,0.8-0.4s0.6-0.1,0.9-0.1s0.6,0.1,0.8,0.2
					c0.3,0.1,0.5,0.3,0.7,0.5s0.4,0.5,0.5,0.8s0.2,0.7,0.1,1.1l-0.4,5.1c0,0.4-0.1,0.8-0.3,1c-0.2,0.3-0.4,0.5-0.6,0.7
					s-0.5,0.3-0.8,0.4c-0.3,0.1-0.6,0.1-0.9,0.1s-0.6-0.1-0.8-0.2c-0.3-0.1-0.5-0.3-0.7-0.5c-0.2-0.2-0.4-0.5-0.5-0.8
					s-0.2-0.7-0.1-1.1L63.9,121.5z M64.9,126.7c0,0.3,0,0.6,0.2,0.8c0.2,0.2,0.4,0.3,0.6,0.3c0.3,0,0.5,0,0.7-0.2
					c0.2-0.1,0.3-0.4,0.3-0.7l0.4-5.1c0-0.3,0-0.6-0.2-0.8c-0.2-0.2-0.4-0.3-0.6-0.3s-0.5,0-0.7,0.2c-0.2,0.1-0.3,0.4-0.3,0.7
					L64.9,126.7z"/>
			</g>
			<g>
				<path class="st0" d="M72.8,129.2l-0.9-9.7l2.2-0.2c1.6-0.2,2.5,0.7,2.7,2.6c0.1,0.6,0,1.1-0.1,1.5s-0.4,0.8-0.8,1.1l1.9,4.3
					l-1.5,0.1l-1.7-4l-0.8,0.1l0.4,4.1L72.8,129.2z M73.4,120.7l0.3,3l0.8-0.1c0.2,0,0.4-0.1,0.6-0.2c0.1-0.1,0.2-0.2,0.3-0.3
					c0.1-0.1,0.1-0.3,0.1-0.5s0-0.4,0-0.7s-0.1-0.5-0.1-0.6c0-0.2-0.1-0.3-0.2-0.5c-0.2-0.2-0.5-0.3-1-0.3L73.4,120.7z"/>
			</g>
			<g>
				<path class="st0" d="M82,127.9l-2.3-9.5l1.4-0.3l2.3,9.5L82,127.9z"/>
			</g>
			<g>
				<path class="st0" d="M87.5,126.4l-0.4-1.1l-0.2-7.7l-2.3,0.9l-0.5-1.2l3.7-1.5l0.4,1l0.2,7.8l2.5-1l0.5,1.2L87.5,126.4z"/>
			</g>
			<g>
				<path class="st0" d="M94.7,123.3l-3.1-9.5l1-0.6l6.8,7.3l-1.2,0.7l-1.4-1.6l-1.6,1l0.7,2L94.7,123.3z M96,118.6l-2.4-2.7l0,0
					l1.2,3.4L96,118.6z"/>
			</g>
			<g>
				<path class="st0" d="M102.9,118l-6.4-7.4l1-0.9l5.4,3.1l0,0l-3.8-4.5l1.1-0.9l6.4,7.4l-1,0.9l-5.4-3l0,0l3.8,4.4L102.9,118z"/>
			</g>
			<g>
				<path class="st0" d="M110.5,110.6l-6.5-5.4l-1,1.2l-1-0.8l3-3.6l1,0.8l-1,1.2l6.5,5.4L110.5,110.6z"/>
			</g>
			<g>
				<path class="st0" d="M114.8,105l-8.4-5l2.1-3.6l1.1,0.7l-1.4,2.4l2.5,1.5l1.2-2.1l1.1,0.7l-1.2,2.1l2.5,1.5l1.4-2.4l1.2,0.7
					L114.8,105z"/>
			</g>
			<g>
				<path class="st0" d="M114.1,90.6l-0.5,1.3l-0.3-0.1c-0.3-0.1-0.6-0.1-0.9-0.1c-0.3,0.1-0.5,0.2-0.6,0.6
					c-0.1,0.2-0.1,0.3-0.1,0.5c0,0.1,0.1,0.3,0.2,0.4s0.2,0.2,0.3,0.3c0.1,0.1,0.3,0.2,0.4,0.2c0.2,0.1,0.3,0.1,0.5,0.2
					c0.1,0,0.2,0,0.4,0c0.1,0,0.2-0.1,0.3-0.1c0.1-0.1,0.2-0.2,0.4-0.3l0.8-0.8c0.2-0.2,0.4-0.4,0.7-0.5c0.2-0.1,0.4-0.2,0.7-0.2
					c0.2,0,0.5,0,0.8,0.1s0.6,0.2,0.9,0.3c0.4,0.1,0.7,0.3,1,0.5s0.5,0.4,0.7,0.7c0.2,0.3,0.3,0.6,0.3,0.9s0,0.7-0.2,1.1
					c-0.1,0.3-0.3,0.6-0.5,0.8c-0.2,0.2-0.5,0.4-0.7,0.5c-0.3,0.1-0.6,0.2-0.9,0.2s-0.6,0-0.9-0.2l-0.5-0.2l0.5-1.3l0.4,0.2
					c0.2,0.1,0.5,0.1,0.7,0s0.4-0.3,0.6-0.6c0.1-0.2,0.1-0.4,0.1-0.6c0-0.1-0.1-0.3-0.2-0.4s-0.2-0.2-0.4-0.3
					c-0.2-0.1-0.3-0.2-0.5-0.2c-0.2-0.1-0.4-0.2-0.6-0.2s-0.3-0.1-0.4,0c-0.1,0-0.2,0.1-0.3,0.1c-0.1,0.1-0.2,0.2-0.3,0.3l-0.7,0.8
					c-0.4,0.5-0.9,0.7-1.4,0.8c-0.5,0-1,0-1.5-0.3c-0.3-0.1-0.6-0.3-0.9-0.5s-0.5-0.5-0.6-0.7c-0.2-0.3-0.2-0.6-0.3-0.9
					c0-0.3,0-0.7,0.2-1.1c0.1-0.3,0.3-0.6,0.5-0.8c0.2-0.2,0.5-0.4,0.7-0.5c0.6-0.2,1.1-0.2,1.6,0L114.1,90.6z"/>
			</g>
			<g>
				<path class="st0" d="M22.4,58.3L22,59.7l-0.3-0.1c-0.3-0.1-0.6-0.1-0.9,0s-0.5,0.3-0.6,0.6c-0.1,0.2-0.1,0.3,0,0.5
					c0,0.1,0.1,0.3,0.2,0.4c0.1,0.1,0.2,0.2,0.3,0.3s0.3,0.1,0.4,0.2c0.2,0.1,0.3,0.1,0.5,0.1c0.1,0,0.2,0,0.4,0
					c0.1,0,0.2-0.1,0.3-0.1c0.1-0.1,0.2-0.2,0.3-0.3l0.7-0.9c0.2-0.3,0.4-0.5,0.6-0.6s0.4-0.2,0.7-0.3c0.2,0,0.5,0,0.8,0
					c0.3,0.1,0.6,0.1,0.9,0.2c0.4,0.1,0.7,0.3,1,0.5s0.6,0.4,0.7,0.7c0.2,0.3,0.3,0.6,0.3,0.9c0,0.3,0,0.7-0.1,1.1
					c-0.1,0.3-0.3,0.6-0.5,0.8s-0.4,0.4-0.7,0.6c-0.3,0.1-0.5,0.2-0.9,0.2c-0.3,0-0.6,0-0.9-0.1l-0.5-0.2l0.4-1.3l0.4,0.1
					c0.2,0.1,0.5,0.1,0.7,0s0.4-0.3,0.5-0.6c0.1-0.2,0.1-0.4,0.1-0.6c0-0.1-0.1-0.3-0.2-0.4c-0.1-0.1-0.2-0.2-0.4-0.3
					c0.1,0,0-0.1-0.2-0.1c-0.2-0.1-0.4-0.1-0.6-0.2c-0.2,0-0.3,0-0.4,0s-0.2,0.1-0.3,0.2c-0.1,0.1-0.2,0.2-0.3,0.3l-0.7,0.8
					c-0.4,0.5-0.9,0.8-1.3,0.8c-0.4,0.1-1,0-1.5-0.2c-0.3-0.1-0.7-0.3-0.9-0.5s-0.5-0.4-0.7-0.7S19,61,19,60.6c0-0.3,0-0.7,0.1-1.1
					c0.1-0.3,0.3-0.6,0.5-0.8s0.4-0.4,0.7-0.5c0.5-0.3,1.1-0.3,1.6-0.1L22.4,58.3z"/>
			</g>
			<g>
				<path class="st0" d="M30.4,57.5l-8.7-4.4l0.6-1.2l8.7,4.4L30.4,57.5z"/>
			</g>
			<g>
				<path class="st0" d="M32.7,53.2l-8-5.6l0.8-1.1l6,1.7l0,0l-4.8-3.4l0.8-1.1l8,5.6l-0.8,1.1l-6-1.6l0,0l4.8,3.4L32.7,53.2z"/>
			</g>
			<g>
				<path class="st0" d="M43.7,37.9l0.4,0.5c0.2,0.2,0.3,0.5,0.4,0.8c0.1,0.3,0.1,0.6,0.1,0.9c0,0.3-0.1,0.6-0.3,0.8
					c-0.1,0.3-0.3,0.5-0.6,0.7c-0.2,0.2-0.4,0.3-0.7,0.4c-0.3,0-0.6,0-0.9,0c-0.3,0-0.6-0.1-0.9-0.2c-0.3-0.1-0.6-0.4-0.8-0.8
					l-3.2-4.3c-0.2-0.3-0.3-0.5-0.4-0.8c-0.1-0.3-0.1-0.6-0.1-0.8c0-0.3,0.1-0.6,0.3-0.8c0.2-0.3,0.4-0.5,0.6-0.7
					c0.5-0.4,1.1-0.5,1.7-0.5c0.3,0,0.6,0.2,0.8,0.3c0.3,0.2,0.5,0.4,0.7,0.6l0.3,0.4L40,35.2L39.8,35c-0.2-0.2-0.4-0.4-0.6-0.4
					c-0.2-0.1-0.5,0-0.7,0.1c-0.3,0.2-0.4,0.4-0.4,0.7c0,0.2,0.2,0.5,0.4,0.8l3,4c0.2,0.2,0.4,0.4,0.6,0.5c0.2,0.1,0.4,0,0.7-0.2
					c0.1-0.1,0.1-0.1,0.2-0.2c0.1-0.1,0.1-0.2,0.1-0.3s0-0.2,0-0.4c0-0.1-0.1-0.3-0.2-0.4l-0.3-0.4L43.7,37.9z"/>
			</g>
			<g>
				<path class="st0" d="M44.8,31.7c-0.2-0.4-0.3-0.7-0.3-1s0-0.6,0.1-0.9s0.3-0.5,0.5-0.7s0.4-0.4,0.7-0.5s0.5-0.2,0.8-0.2
					s0.6,0,0.9,0c0.3,0.1,0.6,0.2,0.8,0.4c0.3,0.2,0.5,0.5,0.7,0.8l2.3,4.6c0.2,0.4,0.3,0.7,0.3,1s0,0.6-0.1,0.9
					c-0.1,0.3-0.3,0.5-0.5,0.7s-0.4,0.4-0.7,0.5s-0.5,0.2-0.8,0.2s-0.6,0-0.9-0.1c-0.3-0.1-0.6-0.2-0.8-0.4
					c-0.3-0.2-0.5-0.5-0.7-0.8L44.8,31.7z M48.3,35.7c0.2,0.3,0.3,0.5,0.6,0.5c0.2,0.1,0.5,0,0.7-0.1s0.4-0.3,0.5-0.5
					s0.1-0.5-0.1-0.8l-2.3-4.6c-0.2-0.3-0.3-0.5-0.6-0.5c-0.2-0.1-0.5,0-0.7,0.1s-0.4,0.3-0.5,0.5s-0.1,0.5,0.1,0.8L48.3,35.7z"/>
			</g>
			<g>
				<path class="st0" d="M55.4,35l-2.7-9.4l1.3-0.4l3.7,5.1l0,0L56,24.7l1.3-0.4l2.7,9.4L58.8,34l-3.7-5l0,0l1.6,5.6L55.4,35z"/>
			</g>
			<g>
				<path class="st0" d="M67.2,25.7l-1.4,0.1v-0.3c0-0.3-0.1-0.6-0.3-0.8c-0.2-0.2-0.4-0.3-0.8-0.3c-0.2,0-0.3,0.1-0.5,0.2
					c-0.1,0.1-0.2,0.2-0.3,0.3c-0.1,0.1-0.1,0.3-0.1,0.4c0,0.2,0,0.3,0,0.5s0,0.3,0.1,0.5c0,0.1,0.1,0.2,0.1,0.3
					c0.1,0.1,0.2,0.2,0.3,0.2c0.1,0.1,0.3,0.1,0.5,0.2l1.1,0.3c0.3,0.1,0.6,0.2,0.8,0.3c0.2,0.1,0.4,0.3,0.5,0.5s0.2,0.4,0.3,0.7
					c0.1,0.3,0.1,0.6,0.2,0.9c0,0.4,0,0.8,0,1.1c0,0.4-0.1,0.7-0.3,0.9c-0.2,0.3-0.4,0.5-0.7,0.7c-0.3,0.2-0.7,0.3-1.1,0.3
					c-0.3,0-0.7,0-1-0.1s-0.6-0.2-0.8-0.4s-0.4-0.4-0.6-0.7c-0.2-0.3-0.2-0.6-0.3-0.9l-0.1-0.5l1.4-0.1v0.4c0,0.3,0.1,0.5,0.3,0.7
					c0.2,0.2,0.4,0.3,0.8,0.2c0.2,0,0.4-0.1,0.5-0.2s0.2-0.2,0.3-0.3c0.1-0.1,0.1-0.3,0.1-0.5s0-0.4,0-0.6c0-0.3-0.1-0.5-0.1-0.6
					c0-0.2-0.1-0.3-0.1-0.4c-0.1-0.1-0.2-0.2-0.3-0.2c-0.1-0.1-0.3-0.1-0.4-0.2l-1-0.3c-0.6-0.2-1.1-0.5-1.3-0.9s-0.4-0.9-0.5-1.5
					c0-0.4,0-0.7,0-1.1c0.1-0.3,0.2-0.6,0.4-0.9s0.4-0.5,0.7-0.6c0.3-0.2,0.6-0.3,1-0.3c0.3,0,0.7,0,1,0.1s0.6,0.2,0.8,0.4
					c0.5,0.4,0.7,0.9,0.8,1.4L67.2,25.7z"/>
			</g>
			<g>
				<path class="st0" d="M71.1,32.6l0.6-9.7l4.2,0.3l-0.1,1.3L73,24.3l-0.2,2.9l2.4,0.2l-0.1,1.3l-2.4-0.2l-0.2,2.9l2.8,0.2L75.2,33
					L71.1,32.6z"/>
			</g>
			<g>
				<path class="st0" d="M78.3,33.3l2.3-9.5l2.2,0.5c1.6,0.4,2.2,1.5,1.7,3.4c-0.1,0.6-0.3,1-0.6,1.4c-0.3,0.3-0.6,0.6-1.1,0.7
					l0.4,4.7l-1.4-0.3l-0.3-4.4l-0.8-0.2l-1,4L78.3,33.3z M81.7,25.4l-0.7,3l0.8,0.2c0.2,0.1,0.4,0.1,0.6,0c0.2,0,0.3-0.1,0.4-0.2
					s0.2-0.2,0.3-0.4c0.1-0.2,0.1-0.4,0.2-0.6s0.1-0.5,0.1-0.6c0-0.2,0-0.4,0-0.5c-0.1-0.3-0.4-0.5-0.9-0.6L81.7,25.4z"/>
			</g>
			<g>
				<path class="st0" d="M94.3,28.5l-5.8,8.1l-1.1-0.5l2.1-9.7l1.4,0.6l-1.8,6.7l0,0l3.8-5.8L94.3,28.5z"/>
			</g>
			<g>
				<path class="st0" d="M92,38.3l7.2-6.9l1,0.6l-3.6,9.3l-1.2-0.8l0.8-2l-1.6-1L93.1,39L92,38.3z M96.7,37.4l1.4-3.3l0,0l-2.5,2.6
					L96.7,37.4z"/>
			</g>
			<g>
				<path class="st0" d="M98.7,43.1l6.7-7l1,0.9l-2.5,5.7l0,0l4.1-4.2l1,1l-6.7,7l-0.9-0.9l2.5-5.7l0,0l-4.1,4.2L98.7,43.1z"/>
			</g>
			<g>
				<path class="st0" d="M105,49.9l6.8-5l-1-1.3l1.1-0.8l2.8,3.7l-1.1,0.8l-1-1.3l-6.8,5L105,49.9z"/>
			</g>
			<g>
				<path class="st0" d="M108.3,54.7l8.7-4.5l1.9,3.7l-1.2,0.6l-1.3-2.5l-2.5,1.3l1.1,2.1l-1.2,0.6l-1.1-2.1l-2.5,1.3l1.3,2.5
					l-1.2,0.6L108.3,54.7z"/>
			</g>
			<g>
				<path class="st0" d="M119.3,63.4l-0.4-1.3l0.3-0.1c0.3-0.1,0.5-0.3,0.7-0.5s0.2-0.5,0.1-0.8c-0.1-0.2-0.1-0.3-0.2-0.4
					c-0.1-0.1-0.2-0.2-0.3-0.2c-0.1,0-0.3,0-0.4,0c-0.2,0-0.3,0.1-0.5,0.1c-0.2,0.1-0.3,0.1-0.5,0.2c-0.1,0.1-0.2,0.1-0.3,0.2
					c-0.1,0.1-0.1,0.2-0.2,0.3c0,0.1-0.1,0.3-0.1,0.5l-0.1,1.1c0,0.3-0.1,0.6-0.2,0.8s-0.2,0.4-0.4,0.6c-0.2,0.2-0.4,0.3-0.6,0.4
					c-0.3,0.1-0.6,0.2-0.9,0.3c-0.4,0.1-0.8,0.2-1.1,0.2c-0.4,0-0.7,0-1-0.1s-0.6-0.3-0.8-0.5c-0.2-0.3-0.4-0.6-0.6-1
					c-0.1-0.3-0.1-0.6-0.1-1c0-0.3,0.1-0.6,0.2-0.9c0.1-0.3,0.3-0.5,0.5-0.7s0.5-0.4,0.8-0.5l0.5-0.2l0.4,1.3l-0.4,0.1
					c-0.2,0.1-0.4,0.2-0.6,0.4c-0.1,0.2-0.2,0.5-0.1,0.8c0.1,0.2,0.2,0.4,0.3,0.5c0.1,0.1,0.2,0.2,0.4,0.2c0.1,0,0.3,0,0.5,0
					s0.4-0.1,0.6-0.2c0.2-0.1,0.4-0.1,0.6-0.2c0.2-0.1,0.3-0.1,0.3-0.2c0.1-0.1,0.1-0.2,0.2-0.3c0-0.1,0.1-0.3,0.1-0.5l0.1-1.1
					c0.1-0.6,0.2-1.1,0.6-1.5c0.3-0.3,0.8-0.6,1.4-0.8c0.3-0.1,0.7-0.2,1-0.2s0.7,0.1,0.9,0.2c0.3,0.1,0.5,0.3,0.8,0.5
					c0.2,0.2,0.4,0.6,0.5,0.9c0.1,0.3,0.1,0.7,0.1,1s-0.1,0.6-0.3,0.9c-0.3,0.5-0.7,0.9-1.2,1.1L119.3,63.4z"/>
			</g>
			<circle class="st0" cx="119.2" cy="76.5" r="1.8"/>
			<circle class="st0" cx="21.5" cy="76.5" r="1.8"/>
			<path class="st0" d="M69.9,114.6c-12.6,0-24.3-6.2-31.3-16.6l-0.5-0.7l22.8-13.2c0.4-0.2,0.9-0.1,1.1,0.3
				c0.2,0.4,0.1,0.9-0.3,1.1L40.4,97.8c6.8,9.5,17.7,15.2,29.5,15.2c19.9,0,36.1-16.2,36.1-36.1c0-4.3-0.7-8.5-2.2-12.5
				c-0.2-0.4,0.1-0.9,0.5-1c0.4-0.2,0.9,0.1,1,0.5c1.5,4.2,2.3,8.6,2.3,13.1C107.6,97.7,90.7,114.6,69.9,114.6z"/>
			<path class="st0" d="M34.9,90.1c-0.3,0-0.6-0.2-0.8-0.5c-1.5-4.2-2.3-8.6-2.3-13.1c0-20.8,16.9-37.7,37.7-37.7
				c12.6,0,24.3,6.2,31.3,16.6l0.5,0.7L82.8,66.5c-0.4,0.2-0.9,0.1-1.1-0.3s-0.1-0.9,0.3-1.1l17-9.5c-6.8-9.5-17.7-15.2-29.5-15.2
				c-19.9,0-36.1,16.2-36.1,36.1c0,4.3,0.7,8.5,2.2,12.5c0.2,0.4-0.1,0.9-0.5,1C35.1,90.1,35,90.1,34.9,90.1z"/>
			<g>
				<path class="st0" d="M79.3,97c-2.4,0-4.7-1.4-5.8-3.7L58.3,61.8c-0.1-0.2-0.1-0.5,0-0.7s0.3-0.4,0.5-0.6l9.9-4.7
					c0.5-0.2,1.1,0,1.3,0.5l4.6,9.6c0.2,0.5,0,1.1-0.5,1.3c-0.5,0.2-1.1,0-1.3-0.5L68.6,58l-8.2,3.9l14.8,30.7
					c1.1,2.3,3.8,3.2,6,2.1c1.1-0.5,1.9-1.4,2.3-2.6c0.4-1.1,0.3-2.4-0.2-3.5l-8.7-18.2c-0.2-0.5,0-1.1,0.5-1.3
					c0.5-0.2,1.1,0,1.3,0.5l8.7,18.2c0.7,1.6,0.8,3.3,0.3,4.9c-0.6,1.6-1.8,2.9-3.3,3.7C81.2,96.8,80.3,97,79.3,97z"/>
			</g>
			<g>
				<path class="st0" d="M63,67.9c-0.3,0-0.5-0.1-0.7-0.3c-0.4-0.4-0.4-1,0-1.4l1-0.9c1.6-1.6,3.6-2.7,5.8-3.2l1.8-0.5
					c0.5-0.1,1,0.2,1.2,0.7c0.1,0.5-0.2,1-0.7,1.2L69.6,64c-1.9,0.5-3.6,1.4-4.9,2.7l-1,0.9C63.5,67.8,63.2,67.9,63,67.9z"/>
			</g>
			<g>
				<path class="st0" d="M58.7,62.2c-0.4,0-0.8-0.1-1.2-0.2c-0.9-0.3-1.7-1-2.1-1.9c-0.4-0.9-0.5-1.9-0.2-2.9c0.3-0.9,1-1.7,1.9-2.1
					l8.4-4c0.9-0.4,1.9-0.5,2.9-0.2c0.9,0.3,1.7,1,2.1,1.9s0.5,1.9,0.2,2.9c-0.3,0.9-1,1.7-1.9,2.1l-8.4,4
					C59.8,62.1,59.3,62.2,58.7,62.2z M67.1,52.6c-0.3,0-0.5,0.1-0.8,0.2l0,0l-8.4,4c-0.9,0.4-1.3,1.5-0.9,2.4
					c0.4,0.9,1.5,1.3,2.4,0.9l8.4-4c0.4-0.2,0.8-0.6,0.9-1c0.2-0.5,0.1-1-0.1-1.4s-0.6-0.8-1-0.9C67.5,52.6,67.3,52.6,67.1,52.6z
					 M65.9,51.9L65.9,51.9L65.9,51.9z"/>
			</g>
			<path class="st0" d="M53.7,79.5c-0.4,0-0.7,0-1.1-0.1c-1.9-0.4-3.8-2-3.7-4.7c0-0.6,0.1-1.3,0.4-1.9c1.5-3.6,5.3-7.4,5.5-7.6
				c0.1-0.1,0.2-0.1,0.3-0.2c0.4-0.2,0.8-0.1,1.1,0.2c0.1,0.1,0.2,0.2,0.2,0.3c0.1,0.2,2.2,5.3,2.1,9.1c0,0.7-0.2,1.3-0.4,2
				C57.2,78.7,55.4,79.5,53.7,79.5z M55.1,67.8c-1.2,1.3-3.2,3.7-4,5.8c-0.2,0.4-0.2,0.8-0.2,1.2c0,1.7,1.2,2.5,2.2,2.7
				c1.1,0.2,2.6,0,3.2-1.6c0.2-0.4,0.3-0.8,0.3-1.2C56.6,72.4,55.7,69.5,55.1,67.8z"/>
		</g>
	</g>
</g>
</svg>
