<?xml version="1.0" encoding="utf-8"?>
<!-- Generator: Adobe Illustrator 23.1.1, SVG Export Plug-In . SVG Version: 6.00 Build 0)  -->
<svg version="1.1" id="Layer_1" xmlns="http://www.w3.org/2000/svg" xmlns:xlink="http://www.w3.org/1999/xlink" x="0px" y="0px"
	 viewBox="0 0 79.2 86.4" style="enable-background:new 0 0 79.2 86.4;" xml:space="preserve">
<style type="text/css">
	.st0{fill:#DCBF84;}
</style>
<g>
	<g>
		<g>
			<path class="st0" d="M40.5,78.1c-1.2,0-2.3-0.3-3.4-0.9l-3.6-2.1c-0.9-0.5-1.9-0.8-2.9-0.8h-4.2c-2.4,0-4.6-1.3-5.8-3.4l-2.1-3.6
				c-0.5-0.9-1.2-1.6-2.1-2.1l-3.6-2.1c-2.1-1.2-3.4-3.4-3.4-5.8v-4.2c0-1-0.3-2-0.8-2.9l-2.1-3.6c-1.2-2.1-1.2-4.6,0-6.7l2.1-3.6
				c0.5-0.9,0.8-1.9,0.8-2.9v-4.2c0-2.4,1.3-4.6,3.4-5.8l3.6-2.1c0.9-0.5,1.6-1.2,2.1-2.1l2.1-3.6c1.2-2.1,3.4-3.4,5.8-3.4h4.2
				c1,0,2-0.3,2.9-0.8l3.6-2.1c2.1-1.2,4.6-1.2,6.7,0l3.6,2.1c0.9,0.5,1.9,0.8,2.9,0.8h4.2c2.4,0,4.6,1.3,5.8,3.4l2.1,3.6
				c0.5,0.9,1.2,1.6,2.1,2.1l3.6,2.1c2.1,1.2,3.4,3.4,3.4,5.8v4.2c0,1,0.3,2,0.8,2.9l2.1,3.6c1.2,2.1,1.2,4.6,0,6.7l-2.1,3.6
				c-0.5,0.9-0.8,1.9-0.8,2.9v4.2c0,2.4-1.3,4.6-3.4,5.8l-3.6,2.1c-0.9,0.5-1.6,1.2-2.1,2.1l-2.1,3.6c-1.2,2.1-3.4,3.4-5.8,3.4h-4.2
				c-1,0-2,0.3-2.9,0.8l-3.6,2.1C42.8,77.8,41.7,78.1,40.5,78.1z M26.5,13.2c-2,0-3.9,1.1-5,2.9l-2.1,3.6c-0.6,1-1.4,1.9-2.5,2.5
				l-3.6,2.1c-1.8,1-2.9,2.9-2.9,5v4.2c0,1.2-0.3,2.3-0.9,3.4l-2.1,3.6c-1,1.8-1,4,0,5.7l2.1,3.6c0.6,1,0.9,2.2,0.9,3.4v4.2
				c0,2,1.1,3.9,2.9,5l3.6,2.1c1,0.6,1.9,1.4,2.5,2.5l2.1,3.6c1,1.8,2.9,2.9,5,2.9h4.2c1.2,0,2.3,0.3,3.4,0.9l3.6,2.1
				c1.8,1,4,1,5.7,0l3.6-2.1c1-0.6,2.2-0.9,3.4-0.9h4.2c2,0,3.9-1.1,5-2.9l2.1-3.6c0.6-1,1.4-1.9,2.5-2.5l3.6-2.1
				c1.8-1,2.9-2.9,2.9-5v-4.2c0-1.2,0.3-2.3,0.9-3.4l2.1-3.6c1-1.8,1-4,0-5.7l-2.1-3.6c-0.6-1-0.9-2.2-0.9-3.4v-4.2
				c0-2-1.1-3.9-2.9-5l-3.6-2.1c-1-0.6-1.9-1.4-2.5-2.5l-2.1-3.6c-1-1.8-2.9-2.9-5-2.9h-4.2c-1.2,0-2.3-0.3-3.4-0.9l-3.6-2.1
				c-1.8-1-4-1-5.7,0L34,12.3c-1,0.6-2.2,0.9-3.4,0.9H26.5z"/>
		</g>
		<path class="st0" d="M58.3,51.7c0-0.1-0.1-0.2-0.2-0.2c-4.9-0.5-10.8-0.8-17.5-0.8S28,51,23.1,51.5c-0.1,0-0.2,0.1-0.2,0.2l0,0
			c0,0.2,0.1,0.3,0.2,0.3c4.9-0.3,10.8-0.5,17.5-0.5s12.6,0.2,17.5,0.5C58.2,52,58.3,51.9,58.3,51.7L58.3,51.7z"/>
		<path class="st0" d="M30.9,23.4c0.1,0.2,0.2,0.3,0.3,0.4c0.1,0.1,0.2,0.1,0.4,0.1h0.3c0.1,0,0.1,0,0.1,0h0.1c0,0,0,0.1,0.1,0.1
			c0,0,0,0.1,0.1,0.2c0,0.1,0,0.1,0.1,0.2v0.1v0.1l-0.1,0.1c-0.1,0-0.2,0-0.2,0c-0.1,0-0.1-0.1-0.1-0.2v-0.1l-0.4,0.2l0.1,0.1
			c0,0.1,0.1,0.2,0.2,0.2C32,25,32,25,32.1,25s0.2,0,0.3,0s0.2,0,0.3-0.1s0.2-0.1,0.3-0.2s0.1-0.2,0.1-0.2c0-0.1,0-0.2,0-0.3
			c0-0.1-0.1-0.2-0.1-0.3c0-0.1-0.1-0.2-0.1-0.2c0-0.1-0.1-0.1-0.1-0.2c-0.1,0-0.1-0.1-0.2-0.1c-0.1,0-0.1,0-0.2,0h-0.3
			c-0.1,0-0.1,0-0.1,0h-0.1c0,0,0,0-0.1-0.1c0,0,0-0.1-0.1-0.1v-0.1V23v-0.1l0.1-0.1c0.1,0,0.2,0,0.2,0c0.1,0,0.1,0.1,0.2,0.2v0.1
			l0.4-0.2l-0.1-0.2c-0.1-0.1-0.2-0.3-0.3-0.3s-0.2,0-0.3,0c-0.1,0-0.2,0-0.3,0.1c-0.1,0-0.2,0.1-0.3,0.2c-0.1,0.1-0.1,0.1-0.1,0.2
			s0,0.2,0,0.3C30.9,23.2,30.9,23.3,30.9,23.4z M30.8,25.7l-0.2-0.3l-0.7,0.4L29.5,25l0.6-0.3l-0.2-0.3l-0.6,0.3L28.9,24l0.7-0.4
			l-0.2-0.3l-1,0.6l1.4,2.4L30.8,25.7z M48.9,23.6L49,22l-0.4-0.1l-1,2.6l0.4,0.2l0.6-1.6l0,0l-0.1,1.2l0.2,0.1l0.8-1l0,0L48.9,25
			l0.4,0.2l1-2.6l-0.4-0.1L48.9,23.6L48.9,23.6z M50.4,25.7l0.3,0.2l1.3-2.4l-0.3-0.2L50.4,25.7z M54.1,24.7l-1.2,1.8
			c-0.1,0.1-0.1,0.1-0.2,0.1c-0.1,0-0.1,0-0.2,0c-0.1,0-0.1-0.1-0.1-0.2s0-0.1,0.1-0.2l1.2-1.8l-0.3-0.2L52.1,26
			C52,26.1,52,26.2,52,26.2c0,0.1,0,0.2,0,0.2c0,0.1,0,0.2,0.1,0.2c0,0.1,0.1,0.1,0.2,0.2c0.1,0,0.2,0.1,0.2,0.1c0.1,0,0.2,0,0.2,0
			c0.1,0,0.2,0,0.2-0.1c0.1,0,0.1-0.1,0.2-0.2l1.2-1.8L54.1,24.7z M27.5,27.4c0.1,0,0.1,0.1,0.2,0.1s0.2,0,0.2,0
			c0.1,0,0.2-0.1,0.2-0.1c0.1-0.1,0.1-0.1,0.2-0.2c0-0.1,0.1-0.2,0.1-0.2c0-0.1,0-0.2,0-0.2c0-0.1-0.1-0.2-0.1-0.2l-1.2-1.7
			l-0.3,0.2l1.2,1.7c0.1,0.1,0.1,0.2,0.1,0.2c0,0.1,0,0.1-0.1,0.2c-0.1,0-0.1,0.1-0.2,0c-0.1,0-0.1-0.1-0.2-0.1l-1.2-1.7l-0.3,0.2
			l1.2,1.7C27.4,27.3,27.4,27.3,27.5,27.4z M26.4,28.2c0-0.1-0.1-0.2-0.1-0.2l-1-1.1c-0.1-0.1-0.2-0.1-0.2-0.2
			c-0.1,0-0.2-0.1-0.3-0.1c-0.1,0-0.2,0-0.2,0.1c-0.1,0-0.1,0.1-0.2,0.1c-0.1,0.1-0.1,0.1-0.1,0.2s-0.1,0.2-0.1,0.2
			c0,0.1,0,0.2,0,0.3c0,0.1,0.1,0.2,0.2,0.3l1,1.1c0.1,0.1,0.2,0.1,0.2,0.2c0.1,0,0.2,0.1,0.3,0c0.1,0,0.2,0,0.2,0
			c0.1,0,0.1-0.1,0.2-0.1c0.1-0.1,0.2-0.2,0.2-0.4h0.3v-0.3L26.4,28.2z M26,28.6c-0.1,0-0.1,0.1-0.2,0.1s-0.1,0-0.2-0.1l-1-1.1
			c-0.1-0.1-0.1-0.1-0.1-0.2s0-0.1,0.1-0.2c0.1,0,0.1-0.1,0.2-0.1s0.1,0,0.2,0.1l1,1.1l0,0h-0.2v0.3L26,28.6L26,28.6z M35.1,23.8
			c0-0.1,0.1-0.2,0.1-0.2c0-0.1,0-0.2,0-0.3l-0.4-1.4c0-0.1-0.1-0.2-0.1-0.3c-0.1-0.1-0.1-0.1-0.2-0.2c-0.1,0-0.2-0.1-0.2-0.1
			c-0.1,0-0.2,0-0.2,0c-0.1,0-0.1,0.1-0.2,0.1s-0.1,0.1-0.2,0.2c0,0.1-0.1,0.2-0.1,0.3c0,0.1,0,0.2,0,0.3l0.4,1.4
			c0,0.1,0.1,0.2,0.1,0.3c0.1,0.1,0.1,0.1,0.2,0.2c0.1,0,0.2,0.1,0.2,0.1c0.1,0,0.2,0,0.2,0c0.1,0,0.1-0.1,0.2-0.1
			S35,23.9,35.1,23.8z M34.7,23.6c0,0.1-0.1,0.1-0.2,0.1c-0.1,0-0.1,0-0.2,0c-0.1,0-0.1-0.1-0.1-0.2l-0.4-1.4c0-0.1,0-0.2,0-0.2
			c0-0.1,0.1-0.1,0.2-0.1c0.1,0,0.1,0,0.2,0c0.1,0,0.1,0.1,0.1,0.2l0.4,1.4C34.8,23.5,34.8,23.6,34.7,23.6z M46.5,24.1l0.1-0.4
			l-0.8-0.2l0.2-0.8l0.7,0.2l0.1-0.4l-0.7-0.2l0.2-0.8l0.8,0.2l0.1-0.4L46.1,21l-0.7,2.7L46.5,24.1z M43.9,23.5l0.4,0.1l-0.2-1.3
			c0.1-0.1,0.2-0.1,0.3-0.2s0.1-0.2,0.1-0.4c0.1-0.5-0.1-0.8-0.6-0.9l-0.6-0.1l-0.4,2.7l0.4,0.1l0.2-1.2h0.2L43.9,23.5z M43.7,21
			h0.2c0.1,0,0.2,0.1,0.3,0.2v0.1c0,0.1,0,0.1,0,0.2s0,0.1,0,0.2s0,0.1-0.1,0.1L44,21.9c0,0-0.1,0-0.2,0h-0.2L43.7,21z M40.9,22.1
			h0.2c0.1,0,0.3,0,0.4-0.1s0.2-0.1,0.2-0.2s0.1-0.2,0.1-0.2c0-0.1,0-0.2,0-0.3c0-0.2,0-0.3,0-0.4s-0.1-0.2-0.1-0.3
			c-0.1-0.1-0.1-0.1-0.2-0.2c-0.1,0-0.2,0-0.3-0.1h-0.6l-0.1,2.8h0.4L40.9,22.1z M41,20.8h0.2c0.1,0,0.1,0,0.2,0l0.1,0.1
			c0,0,0,0.1,0,0.2s0,0.1,0,0.2s0,0.1,0,0.2s0,0.1,0,0.1l-0.1,0.1c0,0-0.1,0-0.2,0H41V20.8z M36.6,23.5c0.1,0,0.1,0.1,0.2,0.1
			c0.1,0,0.2,0,0.3,0s0.2-0.1,0.3-0.1s0.1-0.1,0.2-0.2c0-0.1,0.1-0.2,0.1-0.3c0-0.1,0-0.2,0-0.3c0-0.1,0-0.2-0.1-0.3
			c0-0.1-0.1-0.1-0.1-0.2s-0.1-0.1-0.2-0.1c-0.1,0-0.1-0.1-0.2-0.1l-0.3-0.1c-0.1,0-0.1,0-0.1,0s-0.1,0-0.1-0.1v-0.1v-0.1v-0.1v-0.1
			c0,0,0-0.1,0.1-0.1c0,0,0.1,0,0.1-0.1c0.1,0,0.2,0,0.2,0.1c0.1,0.1,0.1,0.1,0.1,0.2v0.1l0.4-0.1v-0.2c0-0.2-0.1-0.3-0.3-0.4
			c-0.1,0-0.1-0.1-0.2-0.1c-0.1,0-0.2,0-0.3,0s-0.2,0.1-0.3,0.1s-0.1,0.1-0.2,0.2c0,0.1-0.1,0.2-0.1,0.3c0,0.1,0,0.2,0,0.3
			c0,0.2,0.1,0.3,0.2,0.4c0.1,0.1,0.2,0.2,0.4,0.2l0.3,0.1c0.1,0,0.1,0,0.1,0s0.1,0,0.1,0.1c0,0,0,0.1,0.1,0.1c0,0,0,0.1,0,0.2
			s0,0.1,0,0.2s0,0.1,0,0.1s0,0.1-0.1,0.1c0,0-0.1,0-0.1,0.1c-0.1,0-0.2,0-0.2,0c-0.1,0-0.1-0.1-0.1-0.2V23l-0.4,0.1v0.1
			C36.4,23.3,36.4,23.4,36.6,23.5C36.4,23.3,36.5,23.4,36.6,23.5z M56.7,26.8l-1.3,0.8l0,0l0.6-1.4L55.7,26l-1.8,2.1l0.3,0.3
			l1.1-1.3l0,0l-0.5,1.2l0.2,0.1l1.1-0.6l0,0L55,29.1l0.3,0.3L57,27L56.7,26.8z"/>
		<path class="st0" d="M58.3,35.1c0.1-0.2-0.1-0.3-0.2-0.3c-4.9,0.3-10.8,0.5-17.5,0.5S28,35.1,23.1,34.8c-0.2,0-0.3,0.2-0.2,0.3
			l0,0c0,0.1,0.1,0.2,0.2,0.2c4.9,0.5,10.8,0.8,17.6,0.8s12.7-0.4,17.5-0.8C58.2,35.2,58.3,35.2,58.3,35.1L58.3,35.1z"/>
		<g>
			<g>
				<path class="st0" d="M27.2,60.9l2.4-2.7l0.4,0.2l-1,3.4l-0.4-0.2l0.2-0.7l-0.6-0.3l-0.5,0.6L27.2,60.9z M28.9,60.4l0.4-1.2l0,0
					l-0.8,1L28.9,60.4z"/>
				<path class="st0" d="M30.3,62.5l1.3-3.2l0.7,0.3c0.5,0.2,0.7,0.6,0.4,1.3c-0.1,0.2-0.2,0.3-0.3,0.4c-0.1,0.1-0.3,0.2-0.4,0.2
					v1.6l-0.5-0.2l0.1-1.6l-0.3-0.1l-0.6,1.4L30.3,62.5z M31.9,59.9l-0.4,1l0.3,0.1c0.1,0,0.2,0,0.2,0c0.1,0,0.1,0,0.2-0.1l0.1-0.1
					c0-0.1,0.1-0.1,0.1-0.2c0-0.1,0.1-0.2,0.1-0.2c0-0.1,0-0.1,0-0.2c0-0.1-0.1-0.2-0.3-0.3H31.9z"/>
				<path class="st0" d="M33.6,63.7l0.8-2.9l-0.6-0.2l0.1-0.5l1.6,0.4l0,0.5l-0.6-0.2l-0.8,2.9H33.6z"/>
				<path class="st0" d="M36.1,64.2l0.5-3.4l1.5,0.2L38,61.5l-1-0.2l-0.2,1l0.9,0.1V63l-0.9-0.1l-0.2,1l1,0.2l-0.1,0.5L36.1,64.2z"
					/>
				<path class="st0" d="M40.8,62.2h-0.5v-0.1c0-0.1,0-0.2-0.1-0.3s-0.1-0.1-0.3-0.1c-0.1,0-0.1,0-0.2,0l-0.1,0.1c0,0,0,0.1-0.1,0.1
					c0,0.1,0,0.1,0,0.2c0,0.1,0,0.1,0,0.2v0.1c0,0,0,0.1,0.1,0.1c0,0,0.1,0.1,0.2,0.1l0.4,0.2c0.1,0,0.2,0.1,0.3,0.2
					c0.1,0.1,0.1,0.1,0.2,0.2c0,0.1,0.1,0.2,0.1,0.3s0,0.2,0,0.3s0,0.3-0.1,0.4c0,0.1-0.1,0.2-0.1,0.3c-0.1,0.1-0.2,0.2-0.3,0.2
					s-0.2,0.1-0.4,0.1c-0.1,0-0.2,0-0.3-0.1c-0.1,0-0.2-0.1-0.3-0.2s-0.1-0.2-0.2-0.3c0-0.1-0.1-0.2-0.1-0.3v-0.2h0.5v0.2
					c0,0.1,0,0.2,0.1,0.2c0.1,0.1,0.1,0.1,0.3,0.1c0.1,0,0.2,0,0.2,0l0.1-0.1c0,0,0-0.1,0.1-0.2c0-0.1,0-0.1,0-0.2
					c0-0.1,0-0.2,0-0.2c0-0.1,0-0.1,0-0.1l-0.1-0.1c0,0-0.1,0-0.1-0.1L39.6,63c-0.2-0.1-0.4-0.2-0.4-0.4c-0.1-0.1-0.1-0.3-0.1-0.5
					c0-0.1,0-0.3,0.1-0.4c0-0.1,0.1-0.2,0.2-0.3c0.1-0.1,0.2-0.1,0.3-0.2c0.1,0,0.2-0.1,0.4-0.1c0.1,0,0.2,0,0.3,0.1
					c0.1,0,0.2,0.1,0.3,0.2c0.1,0.2,0.2,0.3,0.2,0.5L40.8,62.2z"/>
				<path class="st0" d="M42.1,64.6l0.4-3.5h0.4l1.2,3.4l-0.5,0.1l-0.2-0.7L42.7,64l-0.1,0.8L42.1,64.6z M43.2,63.2L42.8,62l0,0
					l-0.1,1.3L43.2,63.2z"/>
				<path class="st0" d="M45.6,64.1l-0.9-3.4l0.5-0.1l1.3,1.8l0,0l-0.5-2l0.5-0.1l0.9,3.4l-0.5,0.1L45.6,62l0,0l0.5,2L45.6,64.1z"/>
				<path class="st0" d="M48.6,63.2L48,59.7l0.4-0.2l2,2.9L50,62.7L49.6,62L49,62.3l0.1,0.7L48.6,63.2z M49.3,61.6l-0.7-1.1l0,0
					l0.2,1.3L49.3,61.6z"/>
				<path class="st0" d="M51.8,61.8l-1.7-3.1l0.4-0.2l1.4,2.6l0.9-0.5L53,61L51.8,61.8z"/>
			</g>
		</g>
		<path class="st0" d="M40.5,46.4c0-0.1,0-0.2,0-0.3v-5.8c0-0.4,0.2-0.6,0.5-0.6v-0.1h-0.6c0,0.1,0,0.1-0.1,0.2v5.8
			C40.3,45.9,40.4,46.2,40.5,46.4z M17.9,41.6l-0.2-0.4V46c0,0.2,0.1,0.3,0.2,0.4V41.6z M22,39.9V46c0,0.2,0.1,0.3,0.1,0.4l0,0v-6
			c0-0.4,0.2-0.6,0.5-0.6v-0.1H22C22,39.7,22,39.8,22,39.9z M18.1,47.2h-1.7c-0.1,0.1-0.2,0.2-0.3,0.2v0.1h2.4v-0.1
			C18.3,47.4,18.1,47.3,18.1,47.2z M22.3,47.2h-1.8v0.1c-0.1,0.1-0.2,0.1-0.3,0.1v0.1h2.4v-0.1C22.5,47.4,22.4,47.3,22.3,47.2z
			 M50.4,44.1c0.3,0,0.6-0.2,0.9-0.5c0.4-0.5,0.6-0.9,0.6-1.7c0-0.4-0.1-0.8-0.2-1.1c0,0.2,0.1,0.4,0.1,0.7c0,0.7-0.1,1.3-0.6,1.8
			c-0.3,0.3-0.7,0.5-1,0.5L50.4,44.1C50.3,44.1,50.4,44.1,50.4,44.1z M63.9,46.4v-6.2c0.1-0.3,0.2-0.5,0.5-0.5v-0.1h-0.6v0.1v6.4
			C63.7,46.3,63.8,46.4,63.9,46.4L63.9,46.4z M49,39.6h-1c0,0.1,0,0.1-0.1,0.2v4.3c0.1,0,0.1-0.1,0.2-0.1v-3.8
			c0-0.2,0.1-0.4,0.3-0.5H49c0.1,0,0.1,0,0.2,0C49.1,39.7,49,39.7,49,39.6z M48.1,44.9v-0.3l-0.2,0.1v1.6c0,0.2,0.1,0.3,0.2,0.4
			V44.9l0.4-0.1v-0.1C48.1,44.9,48.1,44.9,48.1,44.9z M44.2,39.8v4.8c0,0.9-0.3,1.6-0.8,2.1c-0.3,0.2-0.6,0.4-0.9,0.5
			c-0.4,0.2-1,0.2-1.4,0.2c-0.5,0-0.9-0.1-1.2-0.3c0.5,0.3,1.1,0.5,1.8,0.5c0.9,0,1.5-0.2,2-0.7c0.5-0.4,0.7-1.1,0.7-1.9v-4.8
			c0.1-0.3,0.2-0.5,0.5-0.5v-0.1h-0.6C44.2,39.7,44.2,39.7,44.2,39.8z M52.1,47.2h-1.7c0,0.1-0.1,0.2-0.2,0.2v0.1h2.4v-0.1
			C52.5,47.4,52.3,47.3,52.1,47.2z M48.2,47.2h-1.7c-0.1,0.1-0.2,0.2-0.3,0.2v0.1h2.4v-0.1C48.4,47.4,48.3,47.3,48.2,47.2z
			 M67.2,46.8c0,0.1,0,0.2-0.1,0.3L67,47.2c-0.1,0.1-0.3,0.1-0.5,0.1h-2.4L64,47.2h-1.7c-0.1,0.1-0.2,0.2-0.3,0.2v0.1h5.3L67.2,46.8
			L67.2,46.8z M37.2,40c0.1,0.1,0.1,0.2,0.1,0.3h0.1v-0.6h-0.2C37.2,39.7,37.2,40,37.2,40z M32,40.2L32,40.2c0-0.3,0.3-0.5,0.7-0.5
			H33v-0.1h-1V40.2z M36.3,39.6h-1.1v6.2c0,0.2,0.1,0.4,0.1,0.4l0,0v-6.5h0.8h0.1C36.4,39.7,36.4,39.7,36.3,39.6L36.3,39.6z
			 M35.6,47.2h-1.7c-0.1,0.1-0.2,0.2-0.3,0.2v0.1H36v-0.1C35.8,47.4,35.7,47.3,35.6,47.2z M26.5,40.9l-0.1-0.2l-1.3,4h0.1
			C25.8,43.1,26.2,41.8,26.5,40.9z M30.7,47.2h-0.4H29c0,0.1-0.1,0.2-0.3,0.2v0.1h2h0.5v-0.1C31,47.4,30.8,47.4,30.7,47.2z
			 M25.1,45.4c0-0.1,0-0.1,0.1-0.2h-0.1l-0.4,1.2l-0.1,0.2c0,0,0,0,0,0.1l0,0h0.1C24.8,46.4,24.9,46,25.1,45.4l2.6-0.5v-0.1
			L25.1,45.4z M24.6,47.2h-0.4c-0.1,0.1-0.3,0.2-0.4,0.2v0.1h1.1v-0.1C24.7,47.4,24.7,47.3,24.6,47.2z M56.1,40.9L56,40.7l-1.3,4
			h0.1C55.4,43.1,55.8,41.8,56.1,40.9z M60.3,47.2h-0.4h-1.3c0,0.1-0.1,0.2-0.3,0.2v0.1h2h0.5v-0.1C60.6,47.4,60.4,47.4,60.3,47.2z
			 M54.7,45.4c0-0.1,0-0.1,0.1-0.2h-0.1l-0.4,1.2l-0.1,0.2c0,0,0,0,0,0.1l0,0h0.1C54.4,46.4,54.5,46,54.7,45.4l2.6-0.5v-0.1
			L54.7,45.4z M54.2,47.2h-0.4c-0.1,0.1-0.3,0.2-0.4,0.2v0.1h1.1v-0.1C54.4,47.4,54.3,47.3,54.2,47.2z"/>
		<path class="st0" d="M31.4,39.8l0.2-0.1l0,0c0-0.1,0-0.1,0.1-0.2c0.1-0.1,0.3-0.2,0.5-0.2h1.2v7c0,0.3-0.2,0.6-0.4,0.6l0,0v0.2
			h2.6L35.5,47l0,0c-0.1,0-0.2,0-0.2-0.1c-0.1-0.1-0.2-0.3-0.2-0.5v-6.9h1.2c0.2,0,0.4,0.1,0.5,0.2c0.1,0.1,0.1,0.1,0.1,0.2l0,0
			L37,40v-0.7h-5.4v0.5H31.4z M30.5,46.8c-0.2,0-0.4,0-0.6-0.7L29.8,46l-2.3-7.2l-0.1,0.1c-0.2,0.2-0.2,0.2-1.1,0.3h-0.1h-0.1
			L24,45.9l-0.1,0.2c-0.1,0.4-0.4,0.7-0.6,0.7l0,0L23.1,47h1.3l-0.1-0.2l0,0c-0.1,0-0.1,0-0.2-0.1S24,46.5,24,46.4s0.1-0.3,0.1-0.4
			c0.1-0.3,0.2-0.6,0.3-0.9l3.3-0.7l0.6,2c0,0.2,0,0.4-0.1,0.5c0,0-0.1,0.1-0.2,0.1l0,0l0,0h2.1h0.6L30.5,46.8L30.5,46.8z
			 M24.6,44.8c0.3-1,1.5-4.6,1.7-5.4l1.4,4.7L24.6,44.8z M21.8,39.3c0.1-0.1,0.1-0.1,0.2-0.1l0,0V39h-2.6l0.1,0.2l0,0
			c0.1,0,0.1,0,0.2,0.1s0.2,0.3,0.2,0.5v6.6v0.1c-0.3-0.8-1-2.9-1.6-4.7c-0.4-1.1-0.7-2.1-0.9-2.5c0.1-0.1,0.2-0.1,0.2-0.1l0,0
			l0.1-0.2h-2.6v0.2l0,0c0.2,0,0.4,0.2,0.4,0.5v6.6c0,0.3-0.2,0.5-0.4,0.5l0,0V47h2.6l-0.1-0.1l0,0c-0.2,0-0.4-0.2-0.4-0.5v-6.5
			c0-0.1,0-0.1,0-0.2l2.5,7.1c-0.1,0.1-0.1,0.1-0.2,0.1l0,0l0.1,0.1h2.6v-0.2l0,0c-0.1,0-0.2,0-0.2-0.1c-0.1-0.1-0.2-0.3-0.2-0.5
			v-6.5C21.6,39.6,21.7,39.4,21.8,39.3z M52,46.8c-0.2,0-0.5-0.2-0.7-0.5l-1.7-2.7c0.1,0,0.1,0,0.2,0c0.3,0,0.6-0.2,0.9-0.5
			c0.5-0.5,0.6-1,0.6-1.7s-0.2-1.3-0.6-1.7c-0.4-0.4-1-0.7-1.8-0.7h-3.3v0.2l0,0c0.2,0,0.4,0.2,0.4,0.5v6.6c0,0.3-0.2,0.5-0.4,0.5
			l0,0V47H48v-0.2l0,0c-0.2,0-0.4-0.2-0.4-0.6v-1.7l0.8-0.4l1.3,2.1c0.1,0.2,0.2,0.4,0.1,0.5l-0.1,0.1h-0.1V47h2.6L52,46.8L52,46.8z
			 M47.5,44.3v-4.6c0-0.2,0.1-0.4,0.2-0.5h0.9c0.3,0,0.6,0.2,0.8,0.6c0.2,0.4,0.3,0.9,0.3,1.6c0,0.7-0.1,1.3-0.3,1.7
			C49.3,43.4,48.1,44.1,47.5,44.3z M66.5,46.3L66.5,46.3c0,0.1,0,0.2-0.1,0.3s-0.3,0.2-0.5,0.2h-2.4c-0.1-0.1-0.2-0.3-0.2-0.4v-6.6
			c0-0.3,0.2-0.5,0.4-0.5l0,0v-0.2h-2.6l0.1,0.2l0,0c0.1,0,0.1,0,0.2,0.1c0.1,0.1,0.2,0.3,0.2,0.5v6.5c0,0.3-0.2,0.6-0.4,0.6l0,0
			l0,0v0h5.4L66.5,46.3L66.5,46.3z M60.1,46.8c-0.2,0-0.4,0-0.6-0.7L59.4,46l-2.3-7.1v-0.1l-0.1,0c-0.2,0.2-0.2,0.2-1.1,0.3h-0.1
			h-0.1L53.5,46l-0.1,0.2c-0.1,0.4-0.4,0.7-0.6,0.7l0,0l0,0L52.7,47H54l-0.1-0.2l0,0c-0.1,0-0.1,0-0.2-0.1c-0.1-0.1-0.1-0.2-0.1-0.3
			s0.1-0.3,0.1-0.4c0.1-0.3,0.2-0.6,0.3-0.9l3.3-0.7l0.6,2c0,0.2,0,0.4-0.1,0.5c0,0-0.1,0.1-0.2,0.1l0,0v0h2.1h0.6L60.1,46.8
			L60.1,46.8z M54.2,44.8c0.3-1,1.5-4.6,1.7-5.4l1.4,4.7L54.2,44.8z M41.8,39.2L41.8,39.2c0.1,0,0.2,0,0.2,0.1
			c0.1,0.1,0.2,0.3,0.2,0.5v5.8c0,0.4-0.1,0.8-0.3,1s-0.5,0.3-0.9,0.3s-0.7-0.1-0.9-0.3s-0.3-0.6-0.3-1v-5.8c0-0.2,0.1-0.4,0.2-0.5
			c0.1-0.1,0.1-0.1,0.2-0.1l0,0V39h-2.6l0.1,0.2l0,0c0.2,0,0.4,0.2,0.4,0.5v4.8c0,0.9,0.2,1.5,0.7,2c0.5,0.4,1.1,0.7,2,0.7
			s1.5-0.2,2-0.7c0.5-0.4,0.7-1.1,0.7-2v-4.8c0-0.3,0.2-0.5,0.4-0.5l0,0L44,39h-2.6L41.8,39.2z"/>
	</g>
</g>
</svg>
