<?xml version="1.0" encoding="utf-8"?>
<!-- Generator: Adobe Illustrator 23.1.1, SVG Export Plug-In . SVG Version: 6.00 Build 0)  -->
<svg version="1.1" id="Layer_1" xmlns="http://www.w3.org/2000/svg" xmlns:xlink="http://www.w3.org/1999/xlink" x="0px" y="0px"
	 viewBox="0 0 79.2 86.4" style="enable-background:new 0 0 79.2 86.4;" xml:space="preserve">
<style type="text/css">
	.st0{fill:#DCBF84;}
</style>
<g>
	<g>
		<path class="st0" d="M20.2,53.8c-0.2,0-0.3-0.1-0.4-0.2c-0.1-0.2-0.1-0.5,0.2-0.7l8.3-4.8c0.2-0.1,0.5-0.1,0.7,0.2
			c0.1,0.2,0.1,0.5-0.2,0.7l-8.3,4.8C20.4,53.8,20.3,53.8,20.2,53.8z"/>
		<path class="st0" d="M50.3,40c-0.2,0-0.3-0.1-0.4-0.2c-0.1-0.2,0-0.5,0.2-0.7l9.8-5.5c0.2-0.1,0.5,0,0.7,0.2
			c0.1,0.2,0,0.5-0.2,0.7L50.5,40C50.4,40,50.3,40,50.3,40z"/>
		<g>
			<g>
				<path class="st0" d="M15,55.2l-0.3-0.8l0.2-0.1c0.2-0.1,0.3-0.2,0.4-0.3c0.1-0.1,0.1-0.3,0-0.5c0-0.1-0.1-0.2-0.2-0.2
					c-0.1,0-0.1-0.1-0.2-0.1c-0.1,0-0.2,0-0.3,0s-0.2,0-0.3,0.1c-0.1,0-0.2,0.1-0.3,0.1s-0.1,0.1-0.2,0.1c0,0.1-0.1,0.1-0.1,0.2
					c0,0.1,0,0.2,0,0.3v0.7c0,0.2,0,0.4-0.1,0.5c0,0.1-0.1,0.3-0.2,0.4c-0.1,0.1-0.2,0.2-0.4,0.3c-0.1,0.1-0.3,0.2-0.5,0.2
					c-0.2,0.1-0.5,0.2-0.7,0.2s-0.4,0-0.6,0c-0.2,0-0.4-0.1-0.5-0.3c-0.2-0.1-0.3-0.3-0.4-0.6c-0.1-0.2-0.1-0.4-0.1-0.6
					c0-0.2,0-0.4,0.1-0.5c0.1-0.2,0.2-0.3,0.3-0.4c0.1-0.1,0.3-0.2,0.5-0.3l0.3-0.1l0.3,0.8l-0.2,0.1c-0.1,0.1-0.3,0.2-0.3,0.3
					c-0.1,0.1-0.1,0.3,0,0.5c0.1,0.1,0.1,0.2,0.2,0.3c0.1,0.1,0.1,0.1,0.2,0.1c0.1,0,0.2,0,0.3,0s0.2-0.1,0.3-0.1
					c0.1-0.1,0.3-0.1,0.3-0.2c0.1,0,0.2-0.1,0.2-0.2c0-0.1,0.1-0.1,0.1-0.2c0-0.1,0-0.2,0-0.3V54c0-0.4,0.1-0.7,0.3-0.9
					s0.4-0.4,0.8-0.5c0.2-0.1,0.4-0.1,0.6-0.2c0.2,0,0.4,0,0.6,0.1c0.2,0.1,0.3,0.1,0.5,0.3c0.1,0.1,0.3,0.3,0.4,0.5
					s0.1,0.4,0.1,0.6c0,0.2,0,0.4-0.1,0.5c-0.1,0.3-0.4,0.6-0.7,0.7L15,55.2z"/>
			</g>
			<g>
				<path class="st0" d="M12.4,59.2l5.1-3l0.4,0.7l-5.1,3L12.4,59.2z"/>
			</g>
			<g>
				<path class="st0" d="M14.4,62.4l4.6-3.7l0.5,0.6l-2,3.2l0,0l2.8-2.2l0.5,0.7l-4.6,3.7l-0.5-0.6l1.9-3.2l0,0L14.9,63L14.4,62.4z"
					/>
			</g>
			<g>
				<path class="st0" d="M25.6,67.1l-0.7-0.5l0.1-0.2c0.1-0.2,0.2-0.3,0.2-0.5s-0.1-0.3-0.3-0.4c-0.1-0.1-0.2-0.1-0.3-0.1
					c-0.1,0-0.2,0-0.2,0c-0.1,0-0.1,0.1-0.2,0.1c-0.1,0.1-0.1,0.1-0.2,0.2s-0.1,0.2-0.2,0.2c0,0.1-0.1,0.1-0.1,0.2s0,0.1,0,0.2
					s0.1,0.2,0.1,0.3l0.4,0.6c0.1,0.2,0.2,0.3,0.2,0.5c0,0.1,0.1,0.3,0,0.4c0,0.1-0.1,0.3-0.2,0.4c-0.1,0.2-0.2,0.3-0.3,0.5
					c-0.1,0.2-0.3,0.4-0.5,0.5s-0.3,0.2-0.5,0.3c-0.2,0.1-0.4,0.1-0.6,0c-0.2,0-0.4-0.1-0.6-0.3c-0.2-0.1-0.3-0.3-0.4-0.4
					c-0.1-0.2-0.2-0.3-0.2-0.5s0-0.4,0-0.5c0-0.2,0.1-0.4,0.2-0.5l0.2-0.3l0.7,0.5L22,68c-0.1,0.1-0.1,0.3-0.1,0.4
					c0,0.2,0.1,0.3,0.3,0.4c0.1,0.1,0.2,0.1,0.3,0.1c0.1,0,0.2,0,0.3,0c0.1,0,0.2-0.1,0.2-0.2c0.1-0.1,0.1-0.2,0.2-0.3
					c0.1-0.1,0.2-0.2,0.2-0.3c0-0.1,0.1-0.2,0.1-0.2c0-0.1,0-0.1,0-0.2s-0.1-0.2-0.1-0.2L23,66.9c-0.2-0.3-0.3-0.6-0.3-0.9
					s0.2-0.6,0.4-0.9c0.1-0.2,0.3-0.3,0.4-0.5c0.2-0.1,0.3-0.2,0.5-0.3c0.2-0.1,0.4-0.1,0.6,0c0.2,0,0.4,0.1,0.6,0.3
					c0.2,0.1,0.3,0.3,0.4,0.4c0.1,0.2,0.2,0.3,0.2,0.5c0.1,0.4,0,0.7-0.2,1V67.1z"/>
			</g>
			<g>
				<path class="st0" d="M25.3,71.8L29,67l0.6,0.3l-1.3,5.9l-0.8-0.4l0.3-1.3l-1-0.5L26,72L25.3,71.8z M28,70.8l0.5-2.1l0,0
					l-1.3,1.8L28,70.8z"/>
			</g>
			<g>
				<path class="st0" d="M30.8,74.1l1.5-5.7l1.2,0.3c0.3,0.1,0.5,0.2,0.6,0.3c0.2,0.1,0.3,0.3,0.4,0.4c0.1,0.2,0.1,0.3,0.1,0.5
					s0,0.4-0.1,0.6l-0.1,0.2c0,0.2-0.1,0.3-0.1,0.4c-0.1,0.1-0.1,0.2-0.2,0.3c-0.1,0.1-0.3,0.2-0.5,0.3c0.2,0.1,0.3,0.3,0.3,0.5
					s0,0.5-0.1,0.8l-0.1,0.3c-0.1,0.5-0.4,0.9-0.7,1.1s-0.7,0.2-1.3,0.1L30.8,74.1z M32.3,71.7l-0.5,1.8l0.4,0.1
					c0.2,0,0.3,0.1,0.4,0c0.1,0,0.2-0.1,0.3-0.1c0.1-0.1,0.1-0.2,0.2-0.3c0-0.1,0.1-0.2,0.1-0.4c0-0.1,0.1-0.3,0.1-0.4s0-0.2,0-0.3
					c0-0.1-0.1-0.2-0.2-0.2c-0.1-0.1-0.2-0.1-0.3-0.1L32.3,71.7z M32.9,69.4L32.5,71l0.4,0.1c0.3,0.1,0.5,0.1,0.6-0.1
					c0.1-0.1,0.2-0.3,0.3-0.6c0.1-0.3,0.1-0.5,0-0.6c-0.1-0.2-0.2-0.3-0.5-0.3L32.9,69.4z"/>
			</g>
			<g>
				<path class="st0" d="M36.7,70.8c0-0.2,0.1-0.4,0.2-0.6c0.1-0.2,0.2-0.3,0.4-0.4c0.1-0.1,0.3-0.2,0.5-0.2s0.3-0.1,0.5,0
					c0.2,0,0.3,0.1,0.5,0.1c0.2,0.1,0.3,0.2,0.4,0.3c0.1,0.1,0.2,0.3,0.3,0.5s0.1,0.4,0.1,0.6l-0.3,3.1c0,0.2-0.1,0.5-0.2,0.6
					c-0.1,0.2-0.2,0.3-0.4,0.4c-0.1,0.1-0.3,0.2-0.5,0.2s-0.3,0.1-0.5,0c-0.2,0-0.3-0.1-0.5-0.1c-0.2-0.1-0.3-0.2-0.4-0.3
					c-0.1-0.1-0.2-0.3-0.3-0.5s-0.1-0.4-0.1-0.6L36.7,70.8z M37.3,74c0,0.2,0,0.4,0.1,0.5s0.2,0.2,0.4,0.2s0.3,0,0.4-0.1
					c0.1-0.1,0.2-0.2,0.2-0.4l0.3-3.1c0-0.2,0-0.4-0.1-0.5s-0.2-0.2-0.4-0.2s-0.3,0-0.4,0.1c-0.1,0.1-0.2,0.2-0.2,0.4L37.3,74z"/>
			</g>
			<g>
				<path class="st0" d="M42.1,75.5l-0.6-5.9l1.4-0.1c1-0.1,1.5,0.4,1.6,1.6c0,0.3,0,0.6-0.1,0.9s-0.3,0.5-0.5,0.6l1.2,2.6l-0.9,0.1
					l-1-2.4h-0.5l0.2,2.5L42.1,75.5z M42.4,70.3l0.2,1.8h0.5c0.1,0,0.3,0,0.3-0.1c0.1,0,0.1-0.1,0.2-0.2c0-0.1,0.1-0.2,0.1-0.3
					c0-0.1,0-0.2,0-0.4c0-0.1,0-0.3-0.1-0.4c0-0.1-0.1-0.2-0.1-0.3c-0.1-0.1-0.3-0.2-0.6-0.2L42.4,70.3z"/>
			</g>
			<g>
				<path class="st0" d="M47.6,74.7L46.2,69l0.8-0.2l1.4,5.7L47.6,74.7z"/>
			</g>
			<g>
				<path class="st0" d="M50.9,73.8l-0.3-0.7l-0.1-4.6L49.2,69l-0.3-0.7l2.3-0.9l0.2,0.6l0.1,4.7l1.5-0.6l0.3,0.7L50.9,73.8z"/>
			</g>
			<g>
				<path class="st0" d="M55.3,71.9l-1.9-5.8l0.6-0.4l4.1,4.4l-0.7,0.4l-0.9-1l-1,0.6l0.4,1.2L55.3,71.9z M56.1,69.1l-1.4-1.6l0,0
					l0.7,2.1L56.1,69.1z"/>
			</g>
			<g>
				<path class="st0" d="M60.3,68.7l-3.9-4.5l0.6-0.5l3.3,1.9l0,0L58,62.9l0.6-0.6l3.9,4.5l-0.6,0.5l-3.3-1.8l0,0l2.3,2.7L60.3,68.7
					z"/>
			</g>
			<g>
				<path class="st0" d="M64.9,64.2L61,60.9l-0.6,0.8l-0.6-0.5l1.8-2.2l0.6,0.5l-0.6,0.8l3.9,3.3L64.9,64.2z"/>
			</g>
			<g>
				<path class="st0" d="M67.5,60.8l-5.1-3l1.3-2.2l0.7,0.4l-0.9,1.4l1.5,0.9l0.8-1.3l0.7,0.4l-0.8,1.3l1.5,0.9l0.9-1.4l0.7,0.4
					L67.5,60.8z"/>
			</g>
			<g>
				<path class="st0" d="M67.1,52.1l-0.3,0.8l-0.2-0.1c-0.2-0.1-0.4-0.1-0.5-0.1c-0.2,0-0.3,0.2-0.4,0.4c0,0.1-0.1,0.2,0,0.3
					c0,0.1,0,0.2,0.1,0.2c0.1,0.1,0.1,0.1,0.2,0.2c0.1,0,0.2,0.1,0.3,0.1c0.1,0,0.2,0.1,0.3,0.1c0.1,0,0.1,0,0.2,0s0.1,0,0.2-0.1
					c0.1,0,0.1-0.1,0.2-0.2l0.5-0.5c0.1-0.1,0.3-0.3,0.4-0.3c0.1-0.1,0.3-0.1,0.4-0.1s0.3,0,0.5,0s0.3,0.1,0.5,0.2
					c0.2,0.1,0.4,0.2,0.6,0.3s0.3,0.3,0.4,0.4c0.1,0.2,0.2,0.4,0.2,0.6c0,0.2,0,0.4-0.1,0.7c-0.1,0.2-0.2,0.4-0.3,0.5
					c-0.1,0.1-0.3,0.2-0.4,0.3c-0.2,0.1-0.3,0.1-0.5,0.1s-0.4,0-0.6-0.1l-0.3-0.1l0.3-0.8L69,55c0.1,0.1,0.3,0.1,0.4,0
					c0.1,0,0.3-0.2,0.3-0.4c0.1-0.1,0.1-0.2,0.1-0.3s0-0.2-0.1-0.2c-0.1-0.1-0.1-0.1-0.2-0.2c-0.1,0-0.2-0.1-0.3-0.1
					c-0.1-0.1-0.3-0.1-0.4-0.1s-0.2,0-0.2,0c-0.1,0-0.1,0-0.2,0.1c-0.1,0-0.1,0.1-0.2,0.2l-0.5,0.5c-0.3,0.3-0.5,0.4-0.8,0.5
					c-0.3,0-0.6,0-0.9-0.2c-0.2-0.1-0.4-0.2-0.6-0.3s-0.3-0.3-0.4-0.4c-0.1-0.2-0.1-0.3-0.2-0.5c0-0.2,0-0.4,0.1-0.6
					c0.1-0.2,0.2-0.4,0.3-0.5c0.1-0.1,0.3-0.2,0.5-0.3c0.3-0.1,0.7-0.1,1,0L67.1,52.1z"/>
			</g>
			<g>
				<path class="st0" d="M11.5,32.5l-0.3,0.8L11,33.2c-0.2-0.1-0.4-0.1-0.5,0c-0.2,0-0.3,0.2-0.3,0.4c0,0.1,0,0.2,0,0.3
					s0.1,0.2,0.1,0.2c0.1,0.1,0.1,0.1,0.2,0.2s0.2,0.1,0.3,0.1s0.2,0.1,0.3,0.1s0.1,0,0.2,0c0.1,0,0.1,0,0.2-0.1
					c0.1,0,0.1-0.1,0.2-0.2l0.4-0.5c0.1-0.2,0.3-0.3,0.4-0.4c0.1-0.1,0.3-0.1,0.4-0.2c0.1,0,0.3,0,0.5,0s0.4,0.1,0.6,0.1
					c0.2,0.1,0.4,0.2,0.6,0.3c0.2,0.1,0.3,0.2,0.4,0.4c0.1,0.2,0.2,0.3,0.2,0.5s0,0.4-0.1,0.7c-0.1,0.2-0.2,0.4-0.3,0.5
					s-0.3,0.3-0.4,0.3C14.2,36,14.1,36,13.9,36s-0.4,0-0.6-0.1L13,36.1l0.3-0.8l0.3,0.1c0.1,0,0.3,0,0.4,0c0.1,0,0.3-0.2,0.3-0.4
					c0-0.1,0.1-0.2,0-0.3c0-0.1-0.1-0.2-0.1-0.2c-0.1-0.1-0.1-0.1-0.2-0.2c-0.1,0-0.2-0.1-0.3-0.1s-0.3-0.1-0.4-0.1
					c-0.1,0-0.2,0-0.2,0c-0.1,0-0.1,0.1-0.2,0.1s-0.1,0.1-0.2,0.2l-0.4,0.5c-0.3,0.3-0.5,0.5-0.8,0.5s-0.6,0-0.9-0.1
					c-0.2-0.1-0.4-0.2-0.6-0.3c-0.2-0.1-0.3-0.3-0.4-0.4c-0.1-0.2-0.2-0.3-0.2-0.5s0-0.4,0.1-0.7c0.1-0.2,0.2-0.4,0.3-0.5
					s0.3-0.3,0.4-0.3c0.3-0.2,0.7-0.2,1-0.1H11.5z"/>
			</g>
			<g>
				<path class="st0" d="M16.4,32l-5.3-2.7l0.4-0.8l5.3,2.7L16.4,32z"/>
			</g>
			<g>
				<path class="st0" d="M17.8,29.4L12.9,26l0.5-0.7l3.6,1l0,0l-2.9-2.1l0.5-0.7l4.8,3.4L19,27.6l-3.6-1l0,0l2.9,2.1L17.8,29.4z"/>
			</g>
			<g>
				<path class="st0" d="M24.4,20.1l0.2,0.3c0.1,0.1,0.2,0.3,0.2,0.5s0.1,0.3,0,0.5c0,0.2-0.1,0.3-0.2,0.5s-0.2,0.3-0.4,0.4
					c-0.1,0.1-0.3,0.2-0.4,0.2s-0.3,0.1-0.5,0.1s-0.3-0.1-0.5-0.1c-0.2-0.1-0.3-0.2-0.5-0.5l-2-2.6c-0.1-0.2-0.2-0.3-0.2-0.5
					s-0.1-0.3,0-0.5c0-0.2,0.1-0.3,0.2-0.5s0.2-0.3,0.4-0.4c0.3-0.2,0.7-0.3,1-0.3c0.2,0,0.3,0.1,0.5,0.2s0.3,0.2,0.4,0.4l0.2,0.3
					l-0.7,0.5l-0.2-0.2c-0.1-0.1-0.2-0.2-0.4-0.3c-0.1,0-0.3,0-0.4,0.1c-0.2,0.1-0.2,0.3-0.2,0.4s0.1,0.3,0.2,0.5l1.8,2.4
					c0.1,0.1,0.2,0.2,0.3,0.3c0.1,0,0.3,0,0.4-0.1l0.1-0.1c0-0.1,0.1-0.1,0.1-0.2s0-0.1,0-0.2s-0.1-0.2-0.1-0.3l-0.2-0.2L24.4,20.1z
					"/>
			</g>
			<g>
				<path class="st0" d="M25.1,16.4c-0.1-0.2-0.2-0.4-0.2-0.6c0-0.2,0-0.4,0.1-0.6c0.1-0.2,0.2-0.3,0.3-0.4c0.1-0.1,0.3-0.2,0.4-0.3
					c0.2-0.1,0.3-0.1,0.5-0.1s0.4,0,0.5,0c0.2,0,0.3,0.1,0.5,0.3c0.2,0.1,0.3,0.3,0.4,0.5L29,18c0.1,0.2,0.2,0.4,0.2,0.6
					s0,0.4-0.1,0.5c-0.1,0.2-0.2,0.3-0.3,0.5c-0.1,0.1-0.3,0.2-0.4,0.3C28.2,20,28.1,20,27.9,20s-0.4,0-0.5,0
					c-0.2,0-0.3-0.1-0.5-0.2s-0.3-0.3-0.4-0.5L25.1,16.4z M27.2,18.8c0.1,0.2,0.2,0.3,0.4,0.3c0.1,0,0.3,0,0.4-0.1s0.2-0.2,0.3-0.3
					c0.1-0.1,0-0.3-0.1-0.5l-1.4-2.8c-0.1-0.2-0.2-0.3-0.4-0.3c-0.1,0-0.3,0-0.4,0.1s-0.2,0.2-0.3,0.3c-0.1,0.1,0,0.3,0.1,0.5
					L27.2,18.8z"/>
			</g>
			<g>
				<path class="st0" d="M31.5,18.4l-1.7-5.7l0.8-0.2l2.2,3.1l0,0l-1-3.4l0.8-0.2l1.7,5.7l-0.8,0.2l-2.2-3l0,0l1,3.4L31.5,18.4z"/>
			</g>
			<g>
				<path class="st0" d="M38.7,12.7l-0.8,0.1v-0.2c0-0.2-0.1-0.4-0.2-0.5C37.5,12,37.3,12,37.1,12c-0.1,0-0.2,0-0.3,0.1
					s-0.1,0.1-0.2,0.2c0,0.1-0.1,0.2-0.1,0.3s0,0.2,0,0.3s0,0.2,0,0.3s0,0.1,0.1,0.2c0,0.1,0.1,0.1,0.2,0.1c0.1,0,0.2,0.1,0.3,0.1
					l0.7,0.2c0.2,0.1,0.4,0.1,0.5,0.2c0.1,0.1,0.2,0.2,0.3,0.3s0.1,0.3,0.2,0.4c0,0.2,0.1,0.4,0.1,0.6c0,0.2,0,0.5,0,0.7
					s-0.1,0.4-0.2,0.6c-0.1,0.2-0.2,0.3-0.4,0.4s-0.4,0.2-0.7,0.2c-0.2,0-0.4,0-0.6,0c-0.2-0.1-0.3-0.1-0.5-0.3
					c-0.1-0.1-0.3-0.3-0.3-0.4c-0.1-0.2-0.1-0.3-0.2-0.5v-0.3l0.8-0.1v0.3c0,0.2,0.1,0.3,0.2,0.4c0.1,0.1,0.3,0.2,0.5,0.1
					c0.1,0,0.3,0,0.3-0.1c0.1,0,0.1-0.1,0.2-0.2c0-0.1,0.1-0.2,0.1-0.3s0-0.2,0-0.4s0-0.3-0.1-0.4c0-0.1-0.1-0.2-0.1-0.2
					c0-0.1-0.1-0.1-0.2-0.1c-0.1,0-0.2-0.1-0.3-0.1l-0.6-0.2c-0.4-0.1-0.6-0.3-0.8-0.5c-0.1-0.2-0.2-0.5-0.3-0.9c0-0.2,0-0.4,0-0.6
					c0-0.2,0.1-0.4,0.2-0.5c0.1-0.2,0.2-0.3,0.4-0.4c0.2-0.1,0.4-0.2,0.6-0.2c0.2,0,0.4,0,0.6,0.1c0.2,0.1,0.3,0.1,0.5,0.3
					c0.3,0.2,0.4,0.5,0.5,0.9L38.7,12.7z"/>
			</g>
			<g>
				<path class="st0" d="M41,16.9l0.4-5.9l2.5,0.2V12l-1.7-0.1l-0.1,1.7l1.5,0.1l-0.1,0.8L42,14.4l-0.1,1.7l1.7,0.1L43.5,17L41,16.9
					z"/>
			</g>
			<g>
				<path class="st0" d="M45.4,17.4l1.4-5.7l1.3,0.3c1,0.2,1.3,0.9,1,2c-0.1,0.3-0.2,0.6-0.4,0.8s-0.4,0.4-0.7,0.4l0.2,2.8l-0.9-0.2
					l-0.2-2.6l-0.5-0.1L46,17.6L45.4,17.4z M47.4,12.6L47,14.4l0.5,0.1c0.1,0,0.3,0,0.4,0c0.1,0,0.2-0.1,0.2-0.1
					c0.1-0.1,0.1-0.2,0.2-0.3c0-0.1,0.1-0.2,0.1-0.4c0-0.1,0.1-0.3,0.1-0.4c0-0.1,0-0.2,0-0.3c-0.1-0.2-0.2-0.3-0.5-0.4H47.4z"/>
			</g>
			<g>
				<path class="st0" d="M55.1,14.5l-3.5,4.9l-0.7-0.3l1.3-5.9l0.8,0.4l-1.1,4l0,0l2.3-3.5L55.1,14.5z"/>
			</g>
			<g>
				<path class="st0" d="M53.7,20.4l4.4-4.2l0.6,0.4l-2.2,5.7l-0.7-0.5l0.5-1.2l-1-0.6l-0.9,0.9L53.7,20.4z M56.5,19.8l0.8-2l0,0
					l-1.5,1.6L56.5,19.8z"/>
			</g>
			<g>
				<path class="st0" d="M57.8,23.3l4.1-4.3l0.6,0.6L61,23.1l0,0l2.5-2.6l0.6,0.6L60,25.4l-0.6-0.6l1.5-3.5l0,0l-2.5,2.6L57.8,23.3z
					"/>
			</g>
			<g>
				<path class="st0" d="M61.6,27.4l4.1-3l-0.6-0.8l0.6-0.5l1.7,2.3l-0.6,0.5L66.2,25l-4.1,3L61.6,27.4z"/>
			</g>
			<g>
				<path class="st0" d="M63.5,30.3l5.2-2.7l1.2,2.2l-0.7,0.4l-0.8-1.5l-1.5,0.8l0.7,1.3l-0.7,0.4l-0.7-1.3l-1.5,0.8l0.8,1.5
					l-0.8,0.4L63.5,30.3z"/>
			</g>
			<g>
				<path class="st0" d="M70.3,35.6L70,34.8l0.2-0.1c0.2-0.1,0.3-0.2,0.4-0.3s0.1-0.3,0.1-0.5c0-0.1-0.1-0.2-0.1-0.2
					c-0.1-0.1-0.1-0.1-0.2-0.1s-0.2,0-0.3,0c-0.1,0-0.2,0-0.3,0.1c-0.1,0-0.2,0.1-0.3,0.1s-0.1,0.1-0.2,0.1c0,0.1-0.1,0.1-0.1,0.2
					c0,0.1,0,0.2,0,0.3v0.7c0,0.2,0,0.4-0.1,0.5S69,35.9,68.9,36c-0.1,0.1-0.2,0.2-0.4,0.3c-0.2,0.1-0.3,0.1-0.5,0.2
					c-0.2,0.1-0.5,0.1-0.7,0.1s-0.4,0-0.6-0.1s-0.3-0.2-0.5-0.3c-0.1-0.2-0.3-0.4-0.3-0.6c-0.1-0.2-0.1-0.4-0.1-0.6
					c0-0.2,0.1-0.4,0.1-0.5c0.1-0.2,0.2-0.3,0.3-0.4c0.1-0.1,0.3-0.2,0.5-0.3l0.3-0.1l0.3,0.8l-0.3,0c-0.1,0-0.3,0.1-0.4,0.3
					c-0.1,0.1-0.1,0.3,0,0.5c0,0.1,0.1,0.2,0.2,0.3s0.1,0.1,0.2,0.1s0.2,0,0.3,0c0.1,0,0.2-0.1,0.3-0.1c0.1,0,0.3-0.1,0.4-0.1
					s0.2-0.1,0.2-0.1c0-0.1,0.1-0.1,0.1-0.2c0-0.1,0-0.2,0-0.3l0.1-0.7c0-0.4,0.1-0.7,0.3-0.9c0.2-0.2,0.5-0.3,0.8-0.5
					c0.2-0.1,0.4-0.1,0.6-0.1s0.4,0,0.6,0.1s0.3,0.2,0.5,0.3c0.1,0.1,0.2,0.3,0.3,0.6c0.1,0.2,0.1,0.4,0.1,0.6
					c0,0.2-0.1,0.4-0.2,0.5c-0.2,0.3-0.4,0.5-0.8,0.6L70.3,35.6z"/>
			</g>
			<circle class="st0" cx="70.2" cy="43.6" r="1.1"/>
			<circle class="st0" cx="11" cy="43.6" r="1.1"/>
			<path class="st0" d="M40.3,66.6c-7.6,0-14.7-3.8-19-10.1L21,56.1l13.8-8c0.2-0.1,0.5-0.1,0.7,0.2c0.1,0.2,0.1,0.5-0.2,0.7
				l-12.9,7.5c4.1,5.8,10.7,9.2,17.9,9.2c12.1,0,21.9-9.8,21.9-21.9c0-2.6-0.5-5.2-1.3-7.6c-0.1-0.3,0-0.5,0.3-0.6s0.5,0,0.6,0.3
				c0.9,2.5,1.4,5.2,1.4,7.9C63.2,56.4,52.9,66.6,40.3,66.6z"/>
			<path class="st0" d="M19.1,51.8c-0.2,0-0.4-0.1-0.5-0.3c-0.9-2.5-1.4-5.2-1.4-7.9c0-12.6,10.3-22.9,22.9-22.9
				c7.6,0,14.7,3.8,19,10.1l0.3,0.4l-11.2,6.3c-0.2,0.1-0.5,0-0.7-0.2s0-0.5,0.2-0.7L58,30.8c-4.1-5.8-10.7-9.2-17.8-9.2
				c-12.1,0-21.9,9.8-21.9,21.9c0,2.6,0.5,5.2,1.3,7.6c0.1,0.3,0,0.5-0.3,0.6C19.2,51.8,19.1,51.8,19.1,51.8z"/>
			<g>
				<path class="st0" d="M46,55.9c-1.5,0-2.9-0.8-3.5-2.2l-9.2-19.1c-0.1-0.1-0.1-0.3,0-0.4c0.1-0.1,0.2-0.3,0.3-0.3l6-2.9
					c0.3-0.1,0.6,0,0.8,0.3l2.8,5.8c0.1,0.3,0,0.6-0.3,0.8c-0.3,0.1-0.6,0-0.8-0.3l-2.5-5.3l-4.9,2.4l8.9,18.6
					c0.7,1.4,2.3,1.9,3.7,1.3c0.7-0.3,1.2-0.9,1.4-1.6s0.2-1.4-0.1-2.1l-5.3-11c-0.1-0.3,0-0.6,0.3-0.8c0.3-0.1,0.6,0,0.8,0.3
					l5.3,11c0.5,0.9,0.5,2,0.2,3s-1.1,1.8-2,2.2C47.2,55.8,46.6,55.9,46,55.9z"/>
			</g>
			<g>
				<path class="st0" d="M36.1,38.3c-0.2,0-0.3-0.1-0.4-0.2c-0.2-0.2-0.2-0.6,0-0.8l0.6-0.6c1-0.9,2.2-1.6,3.5-2l1.1-0.3
					c0.3-0.1,0.6,0.1,0.7,0.4c0.1,0.3-0.1,0.6-0.4,0.7L40.1,36c-1.1,0.3-2.2,0.9-3,1.7l-0.6,0.6C36.4,38.3,36.3,38.3,36.1,38.3z"/>
			</g>
			<g>
				<path class="st0" d="M33.5,34.9c-0.3,0-0.5,0-0.8-0.1c-0.6-0.2-1-0.6-1.3-1.2c-0.3-0.5-0.3-1.2-0.1-1.7c0.2-0.6,0.6-1,1.2-1.3
					l5.1-2.4c0.5-0.3,1.2-0.3,1.7-0.1c0.6,0.2,1,0.6,1.3,1.2c0.3,0.5,0.3,1.2,0.1,1.7c-0.2,0.6-0.6,1-1.2,1.3l-5.1,2.4
					C34.2,34.8,33.9,34.9,33.5,34.9z M38.6,29c-0.2,0-0.3,0-0.5,0.1l0,0L33,31.5c-0.5,0.3-0.8,0.9-0.5,1.5c0.3,0.5,0.9,0.8,1.5,0.5
					l5.1-2.4c0.3-0.1,0.5-0.4,0.6-0.6c0.1-0.3,0.1-0.6,0-0.8c-0.1-0.3-0.4-0.5-0.6-0.6C38.9,29.1,38.7,29,38.6,29z M37.9,28.6
					L37.9,28.6L37.9,28.6z"/>
			</g>
			<path class="st0" d="M30.5,45.4c-0.2,0-0.5,0-0.7-0.1c-1.1-0.3-2.3-1.2-2.3-2.8c0-0.4,0.1-0.8,0.2-1.1c0.9-2.2,3.2-4.5,3.3-4.6
				c0,0,0.1-0.1,0.2-0.1c0.2-0.1,0.5-0.1,0.7,0.1C32,36.9,32,36.9,32,37c0.1,0.1,1.3,3.2,1.3,5.5c0,0.4-0.1,0.8-0.3,1.2
				C32.6,44.9,31.5,45.4,30.5,45.4z M31.3,38.2c-0.7,0.8-1.9,2.2-2.4,3.5c-0.1,0.2-0.1,0.5-0.1,0.7c0,1,0.7,1.5,1.3,1.7
				c0.6,0.1,1.5,0,2-1c0.1-0.2,0.2-0.5,0.2-0.7C32.3,41.1,31.7,39.3,31.3,38.2z"/>
		</g>
	</g>
</g>
</svg>
