<?xml version="1.0" encoding="utf-8"?>
<!-- Generator: Adobe Illustrator 23.1.1, SVG Export Plug-In . SVG Version: 6.00 Build 0)  -->
<svg version="1.1" id="Layer_1" xmlns="http://www.w3.org/2000/svg" xmlns:xlink="http://www.w3.org/1999/xlink" x="0px" y="0px"
	 viewBox="0 0 288.2 74.5" style="enable-background:new 0 0 288.2 74.5;" xml:space="preserve">
<style type="text/css">
	.st0{fill:#D6D7D8;}
	.st1{fill:#F1F1F1;}
	.st2{fill:#CDD1D3;}
	.st3{fill:#DCBF84;}
	.st4{fill-rule:evenodd;clip-rule:evenodd;fill:#DCBF84;}
	.st5{fill:#F1F1F1;stroke:#FFFFFF;stroke-width:0.3268;stroke-miterlimit:10;}
	.st6{opacity:0.37;}
	.st7{fill:#C1C1C1;}
	.st8{fill:#231F20;}
	.st9{opacity:0.17;}
	.st10{fill:#6E6E6E;}
	.st11{fill:#010101;}
	.st12{fill:#FFFFFF;}
	.st13{fill:#FAFAFC;}
	.st14{fill:#00BF22;}
	.st15{fill-rule:evenodd;clip-rule:evenodd;fill:#FFFFFF;}
</style>
<g>
	<g>
		<path class="st10" d="M61.4,38c-0.2-0.5-0.2-0.9-0.9-3.2c0,0-0.1,0-0.1,0c-0.2,0.6-0.3,1.2-0.5,1.7c0,0.1,0,0.1,0,0.2
			c0.1,0.4,0.5,1.8,0.5,2c0,0,0,0.1,0.1,0.1C60.7,38.8,61.6,38.6,61.4,38z"/>
		<g>
			<g>
				<g>
					<path class="st10" d="M260.5,19.7c0-0.3,0.1-0.6,0.2-0.9c0.1-0.3,0.3-0.5,0.5-0.7c0.2-0.2,0.4-0.4,0.7-0.5
						c0.3-0.1,0.6-0.2,0.9-0.2s0.6,0.1,0.9,0.2c0.3,0.1,0.5,0.3,0.7,0.5c0.2,0.2,0.4,0.4,0.5,0.7c0.1,0.3,0.2,0.6,0.2,0.9
						c0,0.3-0.1,0.6-0.2,0.9c-0.1,0.3-0.3,0.5-0.5,0.7c-0.2,0.2-0.4,0.4-0.7,0.5c-0.3,0.1-0.6,0.2-0.9,0.2s-0.6-0.1-0.9-0.2
						c-0.3-0.1-0.5-0.3-0.7-0.5c-0.2-0.2-0.4-0.4-0.5-0.7C260.5,20.3,260.5,20,260.5,19.7z M264.6,19.7c0-0.3,0-0.5-0.1-0.7
						c-0.1-0.2-0.2-0.4-0.4-0.6s-0.4-0.3-0.6-0.4c-0.2-0.1-0.5-0.2-0.7-0.2c-0.3,0-0.5,0.1-0.7,0.2c-0.2,0.1-0.4,0.2-0.6,0.4
						c-0.2,0.2-0.3,0.4-0.4,0.6c-0.1,0.2-0.1,0.5-0.1,0.7s0,0.5,0.1,0.7c0.1,0.2,0.2,0.4,0.4,0.6c0.2,0.2,0.4,0.3,0.6,0.4
						c0.2,0.1,0.5,0.2,0.7,0.2c0.3,0,0.5-0.1,0.7-0.2c0.2-0.1,0.4-0.2,0.6-0.4s0.3-0.4,0.4-0.6C264.6,20.2,264.6,20,264.6,19.7z
						 M262.5,20.7C262.5,20.7,262.5,20.7,262.5,20.7c-0.1,0.1-0.1,0.1-0.1,0.1h-0.1c0,0-0.1,0-0.1,0c0,0,0,0,0-0.1v-2.1
						c0,0,0-0.1,0-0.1c0,0,0,0,0.1,0h0.6c0.1,0,0.1,0,0.2,0.1c0.1,0,0.1,0.1,0.2,0.1c0.1,0.1,0.1,0.1,0.1,0.2c0,0.1,0,0.1,0,0.2v0.2
						c0,0.1,0,0.2-0.1,0.3c0,0.1-0.1,0.2-0.2,0.2c0,0,0,0-0.1,0.1c0,0,0,0.1,0,0.1l0.3,0.7c0,0,0,0.1,0,0.1c0,0,0,0-0.1,0h-0.1
						c0,0-0.1,0-0.1,0c0,0,0,0-0.1-0.1l-0.2-0.6c0,0,0-0.1-0.1-0.1c0,0-0.1,0-0.1,0c0,0,0,0-0.1,0c0,0,0,0.1,0,0.1V20.7z
						 M262.6,18.8C262.6,18.8,262.5,18.8,262.6,18.8c-0.1,0.1-0.1,0.1-0.1,0.1v0.6c0,0,0,0.1,0,0.1c0,0,0,0,0.1,0c0,0,0.1,0,0.1,0
						c0,0,0.1,0,0.1-0.1c0,0,0.1-0.1,0.1-0.1c0,0,0-0.1,0-0.1V19c0-0.1,0-0.1-0.1-0.2c0,0-0.1-0.1-0.2-0.1L262.6,18.8L262.6,18.8z"
						/>
				</g>
			</g>
			<path class="st10" d="M43.8,29.2l-2-0.1c-0.5,0-1-0.2-1.5-0.6c-0.4-0.3-0.8-0.6-1.2-0.9c-0.6-0.6-1.2-0.8-1.9-0.9
				c0,0-0.6,0-0.7,0c-1.3,0-1.8,0.7-2,1c0,0,0,0.1,0,0.1l1.5,0c0.7,0,1.4,0.3,1.9,0.9c0.4,0.3,0.8,0.6,1.2,0.9
				c0.5,0.3,1,0.5,1.5,0.6l2,0.1c0,0,0.1,0,0.1,0c0.5,0,1-0.2,1.3-0.5c0.1-0.1,0.2-0.4,0.3-0.5c0,0,0,0,0,0
				C44.2,29.2,43.8,29.2,43.8,29.2z"/>
			<path class="st10" d="M34.8,55.5c-1,0-2.2-0.1-3.1-0.5c-1-0.4-2-1-2.7-1.7c-0.8-0.8-1.3-1.6-1.8-2.7c-0.4-1.1-0.6-2.4-0.6-3.7
				V29.2c0-0.8,0.1-2,0.2-3.1c0-0.2-0.3-0.3-0.4-0.1c-0.1,0.2-0.2,0.5-0.3,0.7c-0.4,1.1-0.7,2.3-0.7,3.5V48c0,1.3,0.2,2.5,0.7,3.5
				c0.4,1.1,1.1,2,1.9,2.8c0.8,0.8,1.7,1.4,2.7,1.7c0.9,0.3,1.9,0.5,2.9,0.5c0.2,0,0.4,0,0.6,0c3-0.3,3.5-0.5,4.3-0.8l0.2-0.1
				c0.4-0.2,0.7-0.3,1-0.5c0.1,0,0-0.2-0.1-0.2c-0.9,0.2-2.3,0.4-4.3,0.5C35.2,55.4,35,55.5,34.8,55.5z"/>
			<path class="st10" d="M69.2,53.2c-0.3,0-2.1,0.1-2.2,0.1c-1.6,0-2.1-1.2-2.2-1.7c-0.4-1.5-0.8-3.1-1.2-4.6c0,0,0,0,0,0
				c-0.2-0.7-0.8-1.1-1.5-0.9c-1,0.2-2.2,0.5-2.6,0.6c-0.5,0.1-0.8,0.3-1.1,0.5c-0.2,0.2-0.3,0.8-0.4,1c0,0.1,0,0.1,0.1,0.1
				c0.5-0.1,3.2-0.8,3.2-0.8s0.6-0.1,0.8,0c0.3,0.1,0.4,0.3,0.5,0.6c0.4,1.8,0.5,2.1,1,3.9c0.1,0.5,0.7,1.6,1.1,1.9
				c0.4,0.3,0.9,0.5,1.5,0.5c0.7,0,1.1-0.1,1.8-0.1c0.6,0,1-0.2,1.3-0.6c0.1-0.1,0.2-0.3,0.3-0.4c0,0,0-0.1,0-0.1
				C69.5,53.2,69.4,53.2,69.2,53.2z"/>
			<path class="st10" d="M87.6,34.5c0,0,0.1,0,0.1,0c0.4-0.9,2.6-6,4.1-9.7c0-0.1,0.1-0.2,0.1-0.2c0,0,0,0,0,0
				c-0.1,0.1-0.3,0.1-0.4,0.2c-0.5,0.3-0.8,0.6-1,1.1c-1,2.5-3,7.2-3.3,7.8c0,0,0,0.1,0,0.1L87.6,34.5z"/>
			<path class="st10" d="M77.3,52.9c-0.2,0-0.7,0-0.9-0.1c-0.7-0.2-1.1-0.9-1.1-1.7V24.3c0-0.1,0-0.2,0-0.2c0,0,0,0,0,0
				c-0.2,0.1-0.3,0.2-0.5,0.3c-0.4,0.3-0.7,0.8-0.7,1.3v26c0,0.5,0.2,1.3,0.7,1.7c0.3,0.2,0.5,0.4,0.9,0.5c0.2,0.1,0.5,0.1,0.8,0.1
				c0.1,0,0.2,0,0.2,0c0.9,0,2,0,2.7-0.7c0.1-0.1,0.2-0.2,0.3-0.3c0-0.1,0-0.1-0.1-0.1C78.8,52.9,77.5,53,77.3,52.9z"/>
			<path class="st10" d="M97,52.1c-0.6,0-1.1,0-1.7,0.1c-0.5,0-1,0.1-1.4-0.2c-0.5-0.3-0.8-0.9-0.8-1.5v-9.8c0,0,0,0-0.1,0
				c-0.3,0.8-0.7,1.6-1,2.4c0,0.1-0.1,0.2-0.1,0.3V51c0,0.5,0.1,1.1,0.5,1.5c0.5,0.6,1.3,0.7,2.1,0.7c0.4,0,0.9,0,1.3,0
				c0.5,0,1-0.2,1.4-0.5c0.2-0.1,0.3-0.3,0.4-0.5c0-0.1,0-0.1-0.1-0.1C97.4,52.1,97.2,52.1,97,52.1z"/>
			<path class="st10" d="M88.3,45.5l-2.7,0c-0.8,0-1.8-0.3-2.6-2c0,0-0.1,0-0.1,0v1.6c0,0.2,0.1,0.4,0.2,0.5c0.4,0.4,1,0.8,1.8,0.8
				l1.9,0c0.5,0,1-0.1,1.4-0.4c0.2-0.1,0.4-0.3,0.6-0.5c0,0,0,0,0,0C88.7,45.4,88.5,45.5,88.3,45.5z"/>
			<path class="st10" d="M116,33.7c0.3-0.3,0.4-0.7,0.4-1.2v-1.6c0-0.6-0.2-1-0.8-1.4c-0.5-0.4-1.2-0.5-2-0.5c-0.4,0-1,0-1,0
				c-0.3,0-0.6,0-0.8,0.2c-0.2,0.2-0.3,0.3-0.3,0.5l0,0.2c0,0.1,0,0.1,0.1,0.1c0.4,0,2.2,0,2.5,0c1,0,1.4,0.9,1.4,1.4v2.6
				c0,0.1,0.1,0.1,0.1,0.1C115.7,34,115.8,33.8,116,33.7z"/>
			<path class="st10" d="M115.7,41.3c-1.3,0.4-1.7,0.4-3.1,0.8c-0.4,0.1-0.7,0.2-0.9,0.4c-0.3,0.3-0.3,0.5-0.3,0.6l0,0.3
				c0,0.1,0.1,0.1,0.1,0.1c0.8-0.2,1.6-0.5,2.3-0.7c1.3-0.4,2.5-0.9,3.6-1.6c0.5-0.3,1-0.7,1.4-1.1c0,0,0-0.1,0-0.1
				C117.9,40.6,116.6,41,115.7,41.3z"/>
			<path class="st10" d="M108.9,51.8c-0.6,0-2.3,0-2.9,0.1c0,0-0.2,0-0.3,0c-0.5,0-1-0.1-1.3-0.4c-0.4-0.3-0.5-0.8-0.5-1.3V24.9
				c0-0.1,0-0.1,0-0.2c0,0,0,0,0,0c-0.1,0.1-0.3,0.1-0.4,0.2c-0.4,0.3-0.6,0.8-0.6,1.3v24.9c0,0.5,0.2,0.9,0.6,1.3
				c0.4,0.3,1,0.6,1.5,0.6c0,0,0.9,0,1,0c0.6,0,1,0,1.6-0.1c0.5,0,1-0.2,1.4-0.5c0.2-0.2,0.4-0.4,0.5-0.6c0,0,0,0,0,0
				C109.3,51.8,109.1,51.8,108.9,51.8z"/>
			<path class="st10" d="M140.7,50.8c-1,0.3-3.2,0.5-4.4,0.5c-0.7,0-2.3,0-2.3,0c-1.2,0-2.3-0.2-3.2-0.5c-1-0.3-1.8-0.8-2.6-1.4
				c-0.8-0.6-1.4-1.3-1.9-2.2c-0.5-0.8-0.7-1.8-0.7-2.8V30.6c0-0.6,0.1-1.2,0.3-1.7c0,0,0-0.1,0,0c-0.2,0.3-0.4,0.6-0.6,0.9
				c-0.5,0.8-0.7,1.8-0.7,2.7v13.1c0,1,0.2,1.9,0.7,2.7c0.5,0.8,1.1,1.5,1.9,2.2c0.8,0.6,1.7,1.1,2.7,1.4c1,0.3,2.1,0.5,3.2,0.5
				c0,0,1.4,0,2.1,0c1.2,0,2.3-0.2,3.3-0.5C139.4,51.6,140.1,51.3,140.7,50.8C140.8,50.8,140.8,50.8,140.7,50.8z M135.4,30.5
				c0.8,0,1.6-0.1,2.1,0.4c0.5,0.4,0.6,0.8,0.6,1.3c0,0-0.1,12.3-0.1,12.3s0,0,0.1,0c0.1,0,0.2-0.1,0.3-0.2c0.5-0.4,0.8-0.9,0.8-1.4
				V31.5c0-0.5-0.1-1-0.6-1.4c-0.5-0.4-1.2-0.6-2-0.6l-0.8,0c-0.8,0-1.4,0.2-2,0.6c-0.2,0.1-0.3,0.3-0.4,0.4c0,0,0,0.1,0,0.1
				L135.4,30.5z"/>
			<path class="st10" d="M156.1,32.9c0,0.2,0.1,0.3,0.2,0.4c0.1,0.1,0.3,0.1,0.7-0.1c0.1,0,0.1-0.1,0.1-0.2v-2
				c0-0.8,0.3-0.8,0.9-0.8l0,0c1.1,0,2.7,0,2.7,0c0.3,0,0.5,0,0.7,0.1c0,0,0.1,0,0.1-0.1c-0.3-0.7-1.3-1-2.2-1c-0.7,0-2.1,0-2.1,0
				c-1.1,0-1.1,0.9-1.1,1.1V32.9z"/>
			<path class="st10" d="M158.7,39.8c-0.5,0.1-0.7,0.2-1.2,0.3c-0.4,0.1-0.9,0.3-1.1,0.6c-0.2,0.2-0.3,0.5-0.3,0.7v2.9
				c0,0.1,0,0.3,0.3,0.5c0.2,0.1,0.3,0.1,0.6,0.1c0.1,0,0.1-0.1,0.1-0.1v-2.6c0-0.2,0.1-0.5,0.3-0.7c0.2-0.2,0.4-0.3,0.7-0.4
				c0.5-0.1,0.9-0.3,1.4-0.4c0.5-0.1,2.4-0.5,2.9-0.6c0.1,0,0.5,0,0.6,0c0,0,0,0,0,0c-0.1,0-0.2-0.2-0.3-0.2
				c-0.1-0.1-0.2-0.2-0.3-0.2c-0.2-0.1-0.4-0.2-0.6-0.3c-0.1,0-0.2,0-0.3-0.1c-0.4,0-0.8,0-1.2,0.1c-0.4,0.1-0.7,0.1-1.1,0.2
				L158.7,39.8z"/>
			<path class="st10" d="M171.3,41.7C171.3,41.8,171.3,41.8,171.3,41.7c0,0.1,0,0.1,0,0.1c0,0.1,0,0.1,0,0.2c0,0.2,0,0.3,0,0.5
				c0,0.2,0,0.3,0,0.5c0,0.2,0,0.3,0,0.5c0,0,0,0.1,0,0.1c-0.1,0.6-0.2,1.2-0.4,1.8c-0.1,0.4-0.2,0.7-0.4,1.1
				c-0.3,0.7-0.8,1.4-1.3,1.9c-0.6,0.6-1.3,1.2-2.1,1.6c-0.8,0.5-1.7,0.8-2.6,1.1l0,0c-0.4,0.1-1,0.2-1.6,0.2c-0.5,0-1,0-1.4,0
				l-0.2,0c-2.9,0-6.5-0.1-9.4-0.1c-0.3,0-0.5,0-0.7-0.1c0,0-0.1,0-0.1,0.1c0.1,0.2,0.3,0.5,0.5,0.6c0.4,0.3,0.8,0.4,1.4,0.4
				c2.9,0,5.8,0,8.7,0.1l0.2,0c0.4,0,0.9,0,1.4,0c0.6,0,1.2-0.1,1.6-0.2l0,0c0.9-0.2,1.8-0.6,2.6-1.1c0.8-0.5,1.5-1,2.1-1.6
				c0.6-0.6,1-1.3,1.4-2.2c0.3-0.8,0.5-1.7,0.6-2.5c0.1-0.5,0-1.1,0-1.6c0-0.2,0-0.3-0.1-0.5c0-0.2-0.1-0.3-0.1-0.5
				c0-0.1,0-0.1-0.1-0.2C171.3,41.9,171.3,41.8,171.3,41.7C171.3,41.8,171.3,41.7,171.3,41.7z"/>
			<path class="st10" d="M168.7,35.4c0,0,0.1,0,0.2,0c0.2-0.3,0.3-0.6,0.4-0.9c0.2-0.6,0.4-1.3,0.4-2c0,0,0-0.6,0-0.6
				c0-0.1,0-0.2,0-0.3c0-0.2,0-0.5-0.1-0.7c0-0.1,0-0.2-0.1-0.3c0-0.1,0-0.1,0-0.1c0,0,0,0.1,0,0.1c0,0,0,0.1,0,0.1c0,0,0,0.1,0,0.1
				c0,0.7-0.3,2-0.6,2.6c-0.2,0.6-0.6,1-0.6,1.4C168.3,35,168.6,35.3,168.7,35.4z"/>
			<path class="st10" d="M185.5,45.3c-0.1-0.1-0.3-0.1-0.5-0.1c-0.1,0-0.3,0-0.4,0.1c-0.8,0.2-1.2,0.3-2.9,0.4l-0.1,0
				c-0.4,0-0.7,0.2-1,0.4c-0.3,0.2-0.5,0.4-0.5,0.7c-0.2,0.7-0.4,1.1-0.6,1.7l-0.4,1.4c-0.1,0.5-0.4,1.1-0.9,1.4
				c-0.4,0.3-0.9,0.4-1.4,0.4c0,0-2.4,0-2.9,0c0,0-0.1,0-0.1,0.1c0.1,0.2,0.2,0.3,0.3,0.5c0.3,0.3,0.8,0.5,1.3,0.5c0.7,0,2,0,2,0
				c0.5,0,1-0.1,1.4-0.4c0.5-0.3,0.9-0.9,1.1-1.3l0.4-1.2c0.2-0.7,0.4-1.3,0.6-2c0.1-0.3,0.2-0.6,0.5-0.8c0.3-0.2,0.6-0.2,1-0.3
				l0.1,0c1.2-0.1,2.4-0.3,3.4-0.6c0.1,0,0.1-0.1,0.1-0.2c0-0.1,0-0.1-0.1-0.2C185.9,45.6,185.7,45.4,185.5,45.3z"/>
			<path class="st10" d="M182.5,38.5c0.1,0.1,0.3,0,0.4,0c0.1,0,0.3-0.1,0.4-0.1c0,0,0.1,0,0.1-0.1c0.1-0.2,0.3-0.9,0.4-1.3
				c0-0.1,0-0.1,0-0.2c-0.2-0.6-0.3-1.2-0.5-1.7c0,0-0.1,0-0.1,0c-0.6,2.3-0.2,0.6-0.8,3C182.4,38.4,182.4,38.5,182.5,38.5z"/>
			<path class="st10" d="M196.2,50.5c-0.4-1.9-4.2-15.6-6.6-23.7c-0.1-0.5-0.5-1.2-1-1.4c-0.1-0.1-0.3-0.1-0.4-0.2
				c0,0-0.1,0-0.1,0.1c2.3,8,4.7,16.9,6.9,24.9c0.2,0.7-0.1,1.2-0.4,1.4c-0.3,0.3-0.8,0.5-1.4,0.5l0,0c0,0-0.1,0-0.1,0
				c-0.7,0-1.9,0-2.6,0c-0.3,0-0.6,0-0.8-0.1c-0.1,0-0.2,0.1-0.1,0.2c0.2,0.2,0.4,0.4,0.6,0.6c0.5,0.3,1,0.5,1.6,0.5
				c0.7,0,1.5,0.1,2.2,0C195.8,53.1,196.4,51.6,196.2,50.5z"/>
			<g>
				<path class="st10" d="M203.9,32.1c0-0.1,0-0.1,0-0.2c0-0.7,0-1.5,0.6-2c0.5-0.5,1.2-0.7,1.9-0.7c1.3,0,2.2,0.1,2.6,0.3
					c0,0,0,0,0,0c-0.2-0.4-0.4-0.6-0.8-0.8c-0.4-0.2-0.8-0.3-1.3-0.3c-0.1,0-1,0-1,0c-0.8,0-1.5,0.3-2,0.8c-0.8,0.7-0.7,1.8-0.5,2.2
					C203.5,31.6,203.7,31.8,203.9,32.1C203.9,32.1,203.9,32.1,203.9,32.1z"/>
				<path class="st10" d="M205.8,41.2c0.7,0.3,1.4,0.6,2.1,1c0.2,0.1,0.3,0.1,0.5,0.2c0,0,0,0,0-0.1c-0.4-0.6-0.9-1.2-1.2-1.3
					c-0.6-0.3-1.4-0.6-2.1-1c-0.8-0.3-1.6-0.7-2.4-1.1c-0.7-0.3-1.9-0.9-2.7-1.5c0,0-0.1,0,0,0c0.3,0.4,0.7,0.7,1,1.1
					c0.7,0.6,1.6,1.2,2.4,1.6C204.2,40.5,205,40.9,205.8,41.2z"/>
				<path class="st10" d="M212,31.9c0.3,0.3,0.8,0.5,1.3,0.5c0,0,0,0,0.1,0l1.7-0.1c0.5,0,1-0.2,1.3-0.6c0.4-0.4,0.5-0.9,0.4-1.5
					c-0.1-0.4-0.2-0.8-0.3-1.1c0,0-0.1,0-0.1,0c-0.1,0.6-0.4,1.4-0.7,1.7c-0.3,0.4-0.9,0.5-1.4,0.5l-1.7,0.1c0,0-0.7,0-1,0
					c0,0,0,0,0,0.1C211.7,31.6,211.8,31.7,212,31.9z"/>
				<path class="st10" d="M216,41.5C216,41.5,216,41.5,216,41.5c0.2,0.8,0.3,1.6,0.4,2.2c0.2,1.2,0.1,2.5-0.3,3.7
					c-0.2,0.8-0.6,1.6-1.1,2.3c-0.5,0.7-1.2,1.3-1.9,1.7c-0.7,0.5-1.6,0.8-2.5,1.1c-0.7,0.2-1.5,0.3-2.3,0.3c-0.3,0-5.3-0.3-6.4-0.7
					c-0.3-0.1-0.6-0.2-0.9-0.4c0,0,0,0,0,0c0.7,0.6,1.6,1,2.5,1.3c1.1,0.4,4.3,0.7,4.6,0.7c0.3,0,0.6,0,0.9,0c0.8,0,1.5-0.1,2.3-0.3
					c0.9-0.2,1.7-0.6,2.5-1.1c0.7-0.5,1.4-1.1,1.9-1.7c0.1-0.1,0.1-0.1,0.2-0.2C217.8,47.9,217.6,44.2,216,41.5z"/>
			</g>
			<g>
				<path class="st10" d="M227.6,31.6c0-0.1,0-0.1,0-0.2c0-0.7,0-1.5,0.6-2c0.5-0.5,1.2-0.7,1.9-0.7c1.3,0,2.1,0.1,2.6,0.3
					c0,0,0,0,0,0c-0.2-0.4-0.4-0.6-0.8-0.8c-0.4-0.2-0.8-0.3-1.3-0.3c-0.1,0-1,0-1,0c-0.8,0-1.4,0.3-1.9,0.8
					c-0.8,0.8-0.7,1.8-0.5,2.2C227.2,31.1,227.3,31.4,227.6,31.6C227.6,31.6,227.6,31.6,227.6,31.6z"/>
				<path class="st10" d="M229.2,41.6c0.8,0.3,1.5,0.7,2.2,1c0.2,0.1,0.3,0.1,0.5,0.2c0,0,0,0,0-0.1c-0.5-0.7-1-1.3-1.3-1.4
					c-0.7-0.3-1.4-0.7-2.2-1c-0.8-0.3-1.7-0.7-2.6-1.2c-0.7-0.4-2-1-2.8-1.6c0,0-0.1,0,0,0c0.3,0.4,0.7,0.8,1.1,1.1
					c0.8,0.7,1.6,1.3,2.6,1.7C227.5,40.9,228.4,41.3,229.2,41.6z"/>
				<path class="st10" d="M235.5,31.3c0.3,0.4,0.8,0.6,1.3,0.6c0,0,0,0,0.1,0l1.7-0.1c0.5,0,1-0.2,1.3-0.6c0.4-0.4,0.5-1,0.4-1.6
					c-0.1-0.4-0.2-0.8-0.3-1.2c0,0-0.1,0-0.1,0c-0.1,0.7-0.4,1.5-0.7,1.8c-0.3,0.4-0.9,0.5-1.4,0.6l-1.7,0.1c0,0-0.7,0-1,0
					c0,0,0,0,0,0.1C235.2,30.9,235.3,31.1,235.5,31.3z"/>
				<path class="st10" d="M239.6,41.9C239.6,41.9,239.5,41.9,239.6,41.9c0.2,0.8,0.3,1.7,0.4,2.4c0.2,1.2,0.1,2.7-0.3,3.9
					c-0.2,0.9-0.6,1.7-1.1,2.4c-0.5,0.7-1.2,1.4-1.9,1.9c-0.7,0.5-1.6,0.9-2.5,1.1c-0.7,0.2-1.5,0.3-2.3,0.3c-0.3,0-5.3-0.4-6.4-0.8
					c-0.3-0.1-0.6-0.3-0.9-0.4c0,0,0,0,0,0c0.7,0.6,1.6,1.1,2.5,1.4c1.1,0.4,4.3,0.7,4.6,0.7c0.3,0,0.6,0,0.9,0
					c0.8,0,1.5-0.1,2.3-0.3c0.9-0.2,1.7-0.6,2.5-1.1c0.7-0.5,1.4-1.1,1.9-1.9c0.1-0.1,0.1-0.1,0.2-0.2
					C241.3,48.8,241.2,44.8,239.6,41.9z"/>
			</g>
			<path class="st10" d="M250.8,30.3c0-0.8,0.3-1.4,0.8-2c0.6-0.7,2.6-0.7,4.1-0.4c0,0,0.1,0,0.1-0.1c-0.1-0.3-0.3-0.5-0.5-0.7
				c-0.5-0.5-1.9-0.4-2.5-0.3c-0.8,0.1-1.4,0.4-1.9,1c-0.5,0.6-0.8,1.2-0.8,2V45c0,0.7,0.2,1.4,0.6,2c0,0.1,0.1,0,0.1-0.1V30.3z"/>
			<path class="st10" d="M264,26.4c-0.2-0.5-0.5-0.9-0.8-1.3c0,0-0.1,0-0.1,0c0.3,0.9,0.5,1.9,0.5,3v17.7c0,1.3-0.2,3.5-0.7,4.5
				c-0.4,1.1-1.1,2-1.9,2.8c-0.8,0.8-1.7,1.4-2.7,1.8c-0.8,0.3-1.7,0.5-2.7,0.5c-0.2,0-1.2,0-4.1-0.3c-0.7-0.1-1.4-0.2-2.1-0.4
				c0,0,0,0,0,0.1c0.3,0.2,0.7,0.4,1,0.6c1,0.5,2.2,0.8,3.3,0.9c1.3,0.2,2.4,0.2,2.6,0.2c0.9,0,1.8-0.2,2.7-0.5c1-0.4,1.9-1,2.7-1.8
				c0.8-0.8,1.4-1.6,1.9-2.7c0.4-1.1,0.9-3.5,0.9-5.5c0-2.1,0-16.1,0-16.1C264.7,28.7,264.4,27.5,264,26.4z"/>
			<path class="st10" d="M49.4,55.4c0.7,0,1.3,0,2,0c0.5,0,1-0.2,1.4-0.5c0.2-0.2,0.4-0.4,0.5-0.6c0.1-0.1,0-0.2-0.1-0.2
				c-0.2,0.1-0.5,0.1-0.7,0.1c-0.7,0-1.7,0-2.3,0c0,0-0.1,0-0.1,0l0,0c-0.5,0-0.7-0.1-1-0.5c-0.2-0.3-0.5-0.8-0.3-1.5
				c2.1-8.8,4.3-19.1,6.8-29.2c0-0.1,0-0.1-0.1-0.1c-0.1,0.1-0.3,0.1-0.4,0.2c-0.5,0.4-0.9,1.3-1,1.8c-2.4,10.1-6.1,25.4-6.4,27.5
				C47.4,53.8,47.9,55.3,49.4,55.4z"/>
		</g>
	</g>
	<path class="st12" d="M44.7,45.7C44.6,45.7,44.6,45.7,44.7,45.7l-1.9,0.1c-0.5,0-0.9,0.2-1.3,0.5c-0.4,0.3-0.7,0.7-1,1.1
		c-0.3,0.4-0.6,0.7-1,0.9c-0.4,0.2-0.9,0.4-1.4,0.4l-2,0.1c-0.1,0-0.1,0-0.2,0c-0.8,0-1.4-0.3-2-0.8c-0.6-0.6-0.9-1.3-0.9-2.2V28.4
		c0-0.9,0.3-1.6,0.9-2.2c0.5-0.5,1.2-0.8,2-0.8c0.1,0,0.1,0,0.2,0l2,0.1c0.8,0,1.5,0.4,2.1,0.9c0.4,0.3,0.8,0.6,1.2,0.9
		c0.5,0.3,0.9,0.5,1.4,0.5l2,0.1c0,0,0.1,0,0.1,0c0.5,0,0.8-0.2,1.1-0.5c0.3-0.3,0.4-0.7,0.2-1.2c-0.3-0.8-0.7-1.6-1.2-2.3
		c-0.5-0.7-1.1-1.4-1.8-1.9c-0.7-0.6-1.5-1-2.3-1.3c-0.8-0.3-1.7-0.5-2.6-0.6c-0.7,0-1.3-0.1-2-0.1c-0.2,0-0.4,0-0.7,0
		c-0.9,0-1.8,0.2-2.6,0.5c-1,0.4-1.9,0.9-2.6,1.7c-0.8,0.7-1.4,1.7-1.8,2.7c-0.4,1-0.7,2.2-0.7,3.4V46c0,1.2,0.2,2.4,0.7,3.4
		c0.4,1,1,1.9,1.8,2.7c0.8,0.7,1.6,1.3,2.6,1.7c0.8,0.3,1.9,0.5,2.9,0.5c0.2,0,0.4,0,0.6,0c2.9-0.3,3.5-0.5,4.2-0.8l0.2-0.1
		c0.9-0.4,1.7-0.9,2.4-1.4c0.7-0.6,1.3-1.3,1.8-2.1c0.5-0.8,0.9-1.6,1.1-2.5c0.1-0.5,0.1-0.9-0.3-1.3C45.5,45.8,45.1,45.7,44.7,45.7
		z M64.6,23.1c-0.1-0.4-0.4-0.8-0.7-1.2c-0.4-0.3-0.8-0.5-1.3-0.5c-1.2-0.1-2.5-0.1-3.7-0.2c0,0-0.1,0-0.1,0c-0.4,0-0.8,0.1-1.2,0.4
		c-0.4,0.3-0.7,0.7-0.8,1.1c-2.3,9.5-4.5,19.2-6.7,28.9c-0.1,0.5,0,0.9,0.3,1.2c0.2,0.3,0.6,0.4,1,0.4c0,0,0.1,0,0.1,0
		c0.7,0,1.4-0.1,2.1-0.1c0.5,0,0.9-0.2,1.3-0.5c0.4-0.3,0.6-0.7,0.7-1.2c0.3-1.4,0.6-2.7,1-4.1c0.1-0.4,0.3-0.7,0.6-1
		c0.3-0.3,0.7-0.5,1.1-0.6l0.2,0c1.8-0.3,3.1-0.6,4.3-1c0.2-0.1,0.4-0.1,0.6-0.1c0.2,0,0.3,0,0.5,0.1c0.3,0.1,0.5,0.4,0.6,0.7
		c0.4,1.8,0.9,3.6,1.3,5.4c0.1,0.4,0.4,0.8,0.8,1.1c0.4,0.3,0.8,0.4,1.2,0.4c0,0,0.1,0,0.1,0c0.7,0,1.4-0.1,2.1-0.1
		c0.5,0,0.9-0.2,1.1-0.5c0.3-0.3,0.4-0.7,0.2-1.2C69,41.4,66.8,32.2,64.6,23.1z M62.5,39c-0.2,0.3-0.5,0.6-0.8,0.7
		c-0.3,0.1-0.7,0.2-1.1,0.3c-0.4,0.1-0.8,0.2-1.2,0.3c-0.1,0-0.2,0-0.3,0c-0.2,0-0.4-0.1-0.5-0.2c-0.2-0.2-0.3-0.5-0.2-0.8
		c0.7-3,1.4-6,2.1-9c0.1-0.3,0.1-0.4,0.2-0.5c0,0,0.1,0.2,0.2,0.5v0c0,0,0,0,0,0c0.6,2.5,1.2,5.1,1.8,7.6
		C62.8,38.3,62.7,38.6,62.5,39z M99,23.5c-0.3-0.3-0.7-0.4-1.2-0.5C96.9,23,96,23,95.2,23c0,0-0.1,0-0.1,0c-0.4,0-0.8,0.1-1.2,0.3
		c-0.4,0.2-0.7,0.6-0.9,0.9c-1.7,4-3.4,8-5,11.9c-0.1,0.3-0.3,0.4-0.4,0.4c-0.1,0-0.2-0.2-0.4-0.4c-1.7-4.1-3.4-8.3-5-12.3
		c-0.2-0.4-0.5-0.7-0.9-1c-0.4-0.3-0.9-0.4-1.4-0.5c-0.6,0-1.2-0.1-1.8-0.1c0,0-0.1,0-0.1,0c-0.4,0-0.8,0.1-1.1,0.4
		c-0.4,0.3-0.5,0.7-0.5,1.1v26.6c0,0.4,0.2,0.8,0.5,1.1c0.3,0.3,0.7,0.4,1.2,0.4c0,0,0.1,0,0.1,0l1.8-0.1c0.5,0,0.9-0.2,1.2-0.5
		c0.3-0.3,0.5-0.7,0.5-1.1V37c0-0.2,0-0.3,0-0.4c0,0,0.1,0.2,0.2,0.4c0.8,1.9,1.5,3.9,2.3,5.8c0,0,0,0.1,0.1,0.1
		c0.2,0.4,0.5,0.7,0.8,0.9c0.4,0.2,0.8,0.3,1.2,0.3l2.4,0c0.5,0,0.9-0.1,1.3-0.4c0.4-0.2,0.7-0.6,0.9-1c0,0,0,0,0-0.1v0
		c1-2.4,2.1-4.9,3.1-7.3c0.1-0.2,0.1-0.3,0.2-0.3c0,0.1,0,0.2,0,0.3v14.2c0,0.4,0.2,0.8,0.5,1.1c0.3,0.3,0.7,0.4,1.1,0.4
		c0,0,0.1,0,0.1,0c0.6,0,1.2,0,1.9-0.1c0.5,0,0.9-0.2,1.2-0.5c0.3-0.3,0.5-0.7,0.5-1.1V24.6C99.5,24.1,99.3,23.8,99,23.5z
		 M120.5,25.6c-0.7-0.6-1.6-1.1-2.6-1.5c-1-0.4-2-0.6-3.1-0.6c-2.6-0.1-5.3-0.1-7.9-0.2l-0.1,0c-0.5,0-0.8,0.1-1.2,0.4
		c-0.3,0.3-0.5,0.6-0.5,1v24.7c0,0.4,0.2,0.8,0.5,1c0.3,0.2,0.7,0.4,1.2,0.4l0.1,0c0.6,0,1.2,0,1.8-0.1c0.5,0,0.9-0.2,1.2-0.4
		c0.3-0.3,0.5-0.6,0.5-1v-6.6c0-0.3,0.1-0.6,0.4-0.8c0.3-0.3,0.6-0.4,1-0.5c1.3-0.2,2.7-0.5,4-0.9c1.3-0.4,2.5-0.9,3.5-1.6
		c1-0.7,1.9-1.5,2.5-2.4c0.7-0.9,1-2,1-3.3v-2.8c0-0.9-0.2-1.8-0.6-2.6C121.8,26.9,121.2,26.2,120.5,25.6z M117.4,33
		c0,0.5-0.2,1-0.5,1.4c-0.3,0.4-0.8,0.8-1.3,1.1c-0.5,0.3-1.1,0.6-1.8,0.8c-0.7,0.2-1.4,0.4-2.1,0.5c-0.1,0-0.2,0-0.3,0
		c-0.3,0-0.5-0.1-0.7-0.2c-0.3-0.2-0.4-0.4-0.4-0.7v-7.1c0-0.3,0.1-0.6,0.4-0.8c0.3-0.2,0.6-0.3,1-0.3v-0.2h0l0,0.2l0.1,0
		c0.4,0,0.8,0,1.3,0c0.4,0,0.9,0,1.3,0c0.8,0,1.6,0.3,2.2,0.7c0.6,0.5,0.9,1,0.9,1.7V33z M143,26c-0.8-0.6-1.7-1.1-2.7-1.4
		c-1-0.3-2.1-0.5-3.3-0.5c-0.7,0-2,0-2,0c-1.1,0-2.2,0.2-3.2,0.5c-1,0.3-1.9,0.8-2.7,1.4c-0.8,0.6-1.4,1.3-1.8,2.1
		c-0.4,0.8-0.7,1.7-0.7,2.6v13.2c0,0.9,0.2,1.8,0.7,2.6c0.4,0.8,1,1.5,1.8,2.1c0.8,0.6,1.7,1.1,2.7,1.4c1,0.3,2,0.5,3.2,0.5
		c0,0,1.4,0,2,0c1.2,0,2.3-0.2,3.3-0.5c1-0.3,1.9-0.8,2.7-1.4c0.8-0.6,1.4-1.3,1.8-2.1c0.4-0.8,0.7-1.7,0.7-2.6v-13
		c0-0.9-0.2-1.8-0.7-2.6C144.4,27.3,143.7,26.6,143,26z M140.1,43.8c0,0.6-0.3,1.2-0.9,1.6c-0.6,0.5-1.3,0.7-2.2,0.7c-0.7,0-2,0-2,0
		c-0.8,0-1.6-0.2-2.1-0.7c-0.6-0.5-0.9-1-0.9-1.6V30.6c0-0.7,0.3-1.2,0.9-1.6c0.6-0.5,1.3-0.7,2.1-0.7l2,0c0.9,0,1.6,0.2,2.2,0.7
		c0.6,0.5,0.9,1,0.9,1.6V43.8z M166.8,35.7c-0.3-0.2-0.4-0.5-0.5-0.8c0-0.3,0-0.5,0.3-0.8c0.4-0.5,0.7-1.1,0.9-1.6
		c0.2-0.6,0.3-1.2,0.3-1.9V30c0-0.9-0.2-1.7-0.6-2.5c-0.4-0.8-1-1.4-1.7-2c-0.7-0.6-1.6-1-2.6-1.3c-0.9-0.3-1.9-0.5-3-0.5l-0.1,0
		c-2.8,0-5.6,0.1-8.4,0.1c-0.5,0-0.9,0.1-1.2,0.4c-0.3,0.3-0.5,0.6-0.5,1v23.6c0,0.4,0.2,0.7,0.5,1c0.3,0.3,0.7,0.4,1.2,0.4
		c2.9,0,5.8,0,8.7,0.1l0.2,0c0.4,0,0.9,0,1.4,0c0.6,0,1.1-0.1,1.6-0.2l0.1,0c0.9-0.2,1.8-0.6,2.6-1.1c0.8-0.5,1.5-1,2-1.6
		c0.5-0.6,1-1.2,1.3-2.1c0.3-0.8,0.5-1.6,0.5-2.4v-1.7c0-1.1-0.3-2.1-0.8-3C168.5,37.2,167.8,36.4,166.8,35.7z M155.1,29.1
		c0-0.3,0.1-0.5,0.4-0.8c0.3-0.2,0.6-0.3,1-0.3c0,0,0,0,0,0l0-0.2l0,0.2c0,0,0,0,0,0c1.1,0,2.2,0,3.4,0l0,0c0.7,0,1.4,0.2,1.9,0.6
		c0.5,0.4,0.8,0.9,0.8,1.5v0.6c0,0.5-0.2,0.9-0.5,1.3c-0.4,0.4-0.8,0.8-1.4,1.1c-0.6,0.3-1.2,0.6-2,0.9c-0.7,0.3-1.5,0.5-2.3,0.7
		c-0.2,0-0.3,0.1-0.5,0.1c-0.2,0-0.4,0-0.5-0.1c-0.2-0.1-0.3-0.4-0.3-0.6V29.1z M164.4,42.9c0,0.4-0.1,0.9-0.3,1.3
		c-0.2,0.4-0.5,0.8-0.9,1.1c-0.4,0.3-0.8,0.5-1.4,0.7c-0.5,0.2-1,0.3-1.6,0.3l0,0c-1.2,0-2.5,0-3.7,0c-0.4,0-0.7-0.1-1-0.3
		c-0.3-0.2-0.4-0.5-0.4-0.7v-4.6c0-0.3,0.1-0.6,0.4-0.8c0.3-0.3,0.6-0.4,1-0.5c0.5-0.1,1-0.2,1.4-0.4c0.5-0.1,1-0.3,1.5-0.4
		c0.4-0.1,0.9-0.2,1.5-0.3c0.1,0,0.3,0,0.4,0c0.3,0,0.6,0.1,0.9,0.2c0,0,0.1,0.1,0.1,0.1c0.6,0.3,1.1,0.7,1.5,1.2
		c0.4,0.5,0.6,1.1,0.6,1.7V42.9z M187,24.5c-0.1-0.4-0.4-0.7-0.8-1c-0.4-0.2-0.8-0.4-1.2-0.4l-0.1,0c-1.2,0-2.5,0.1-3.7,0.1
		c-0.5,0-0.9,0.2-1.3,0.4c-0.4,0.3-0.7,0.6-0.8,1c-2.1,7.8-4.3,15.7-6.7,24.2c-0.1,0.4,0,0.8,0.3,1.1c0.3,0.3,0.7,0.4,1.1,0.4
		c0.7,0,2.1,0,2.1,0c0.5,0,0.9-0.1,1.3-0.4c0.4-0.3,0.7-0.6,0.8-1l0.4-1.4c0.2-0.7,0.4-1.3,0.6-2c0.1-0.3,0.3-0.6,0.6-0.8
		c0.3-0.2,0.7-0.4,1.1-0.4l0.1,0c1.6-0.2,3.1-0.4,4.5-0.7c0.2,0,0.4-0.1,0.5-0.1c0.2,0,0.4,0,0.6,0.1c0.3,0.1,0.5,0.4,0.6,0.7
		c0.4,1.6,0.9,3.3,1.3,4.9c0.1,0.4,0.4,0.8,0.8,1c0.4,0.3,0.8,0.4,1.3,0.4c0.7,0,1.4,0,2.1,0.1c0,0,0.1,0,0.1,0c0,0,0,0,0,0
		c0.5,0,0.8-0.1,1.1-0.4c0.3-0.3,0.4-0.6,0.3-1.1C191.6,41.4,189.3,33,187,24.5z M185,38.7c-0.2,0.3-0.5,0.5-0.8,0.6
		c-0.3,0.1-0.7,0.2-1.1,0.3c-0.4,0.1-0.8,0.1-1.2,0.2c-0.1,0-0.2,0-0.3,0h0c-0.2,0-0.4-0.1-0.6-0.2c-0.2-0.2-0.2-0.4-0.2-0.7
		c0.7-2.6,1.4-5.2,2.2-7.9c0.1-0.3,0.2-0.4,0.2-0.4c0,0,0.1,0.1,0.2,0.4v0c0,0,0,0,0,0c0.6,2.2,1.2,4.4,1.8,6.6
		C185.2,38.1,185.2,38.4,185,38.7z M215.3,43.1c-0.2-1.4-0.6-2.5-1.2-3.5c-0.6-0.9-1.3-1.7-2.1-2.4c-0.8-0.6-1.7-1.2-2.6-1.6
		c-0.9-0.4-1.8-0.8-2.6-1.1c-0.8-0.3-1.5-0.6-2.1-0.9c-0.6-0.3-1.1-0.6-1.5-0.9c-0.4-0.3-0.7-0.7-0.9-1.1c-0.2-0.4-0.3-0.9-0.3-1.5
		c0-0.7,0.3-1.3,0.9-1.8c0.6-0.5,1.3-0.8,2.2-0.8l2-0.1c0,0,0.1,0,0.1,0c0.6,0,1.1,0.1,1.5,0.3c0.5,0.2,0.8,0.6,1.1,1
		c0.2,0.3,0.5,0.7,0.8,0.9c0.3,0.3,0.7,0.4,1.2,0.4l1.9,0c0.5,0,0.9-0.2,1.2-0.5c0.3-0.3,0.4-0.7,0.3-1.2c-0.2-0.9-0.5-1.6-1-2.3
		c-0.5-0.7-1.1-1.3-1.8-1.8c-0.7-0.5-1.6-0.9-2.5-1.1c-0.8-0.2-1.6-0.3-2.5-0.3c-0.1,0-0.3,0-0.4,0c-0.7,0-1.3,0.1-2,0.1
		c-1.2,0-2.3,0.3-3.3,0.7c-1,0.4-1.9,0.9-2.7,1.6c-0.8,0.7-1.4,1.4-1.8,2.3c-0.4,0.9-0.7,1.8-0.7,2.8c0,1.3,0.3,2.5,0.8,3.4
		c0.5,0.9,1.1,1.7,1.9,2.4c0.8,0.6,1.6,1.2,2.5,1.6c0.9,0.4,1.8,0.8,2.6,1.1c0.8,0.3,1.5,0.7,2.2,1c0.7,0.3,1.3,0.7,1.8,1.1
		c0.5,0.4,0.9,1,1.2,1.6c0.3,0.6,0.5,1.4,0.5,2.2c0,0.7-0.3,1.3-0.9,1.8c-0.5,0.5-1.2,0.7-2,0.7c0,0-0.1,0-0.1,0l-2.1-0.1
		c-0.6,0-1.2-0.2-1.6-0.4c-0.5-0.3-0.8-0.6-1.1-1c-0.2-0.3-0.5-0.7-0.8-1c-0.3-0.3-0.8-0.5-1.3-0.5l-1.9,0c-0.5,0-0.9,0.1-1.2,0.4
		c-0.3,0.3-0.4,0.7-0.3,1.1c0.2,0.8,0.5,1.6,1,2.3c0.5,0.7,1.1,1.3,1.8,1.9c0.7,0.5,1.6,1,2.5,1.3c0.9,0.3,1.9,0.5,2.9,0.6
		c0.7,0,1.3,0.1,2,0.1c0.2,0,0.3,0,0.5,0c0.8,0,1.6-0.1,2.3-0.3c0.9-0.2,1.7-0.6,2.4-1c0.7-0.5,1.3-1,1.8-1.7
		c0.5-0.6,0.9-1.4,1.1-2.2c0.1-0.2,0.1-0.4,0.1-0.5c0-0.2,0.1-0.3,0.1-0.4c0-0.2,0.1-0.3,0.1-0.5v-0.9c0-0.1,0-0.3,0-0.5
		C215.3,43.4,215.3,43.3,215.3,43.1z M238.9,43.7c-0.2-1.5-0.6-2.8-1.2-3.8c-0.6-1-1.3-1.9-2.1-2.6c-0.8-0.7-1.7-1.3-2.6-1.8
		c-0.9-0.5-1.8-0.9-2.6-1.2c-0.8-0.3-1.5-0.7-2.1-1c-0.6-0.3-1.1-0.6-1.5-1c-0.4-0.3-0.7-0.7-0.9-1.2c-0.2-0.4-0.3-1-0.3-1.7
		c0-0.8,0.3-1.4,0.9-2c0.6-0.6,1.3-0.9,2.2-0.9l2-0.1c0.1,0,0.1,0,0.2,0c0.5,0,1,0.1,1.4,0.3c0.5,0.3,0.8,0.6,1.1,1.1
		c0.2,0.4,0.5,0.7,0.8,1c0.3,0.3,0.7,0.5,1.2,0.5l0.1,0l1.8-0.1c0.5,0,0.9-0.2,1.2-0.5c0.3-0.3,0.4-0.8,0.3-1.2
		c-0.2-0.9-0.5-1.8-1-2.5c-0.5-0.8-1.1-1.4-1.8-1.9c-0.7-0.5-1.6-1-2.5-1.2c-0.7-0.2-1.5-0.3-2.3-0.3c-0.2,0-0.4,0-0.6,0
		c-0.7,0-1.3,0.1-2,0.1c-1.2,0.1-2.3,0.3-3.3,0.8c-1,0.5-1.9,1-2.6,1.8c-0.8,0.7-1.4,1.5-1.8,2.5c-0.4,0.9-0.7,1.9-0.7,3
		c0,1.4,0.3,2.6,0.8,3.6c0.5,1,1.1,1.8,1.9,2.5c0.8,0.7,1.6,1.3,2.5,1.8c0.9,0.5,1.8,0.9,2.6,1.2c0.8,0.4,1.5,0.7,2.2,1.1
		c0.7,0.4,1.3,0.8,1.8,1.2c0.5,0.5,0.9,1,1.2,1.7c0.3,0.7,0.5,1.5,0.5,2.4c0,0.8-0.3,1.4-0.9,1.9c-0.5,0.5-1.2,0.7-1.9,0.7
		c-0.1,0-0.1,0-0.2,0c-0.7,0-2.1-0.1-2.1-0.1c-0.6,0-1.1-0.2-1.6-0.5c-0.5-0.3-0.8-0.7-1.1-1.1c-0.2-0.4-0.5-0.7-0.8-1
		c-0.3-0.3-0.8-0.5-1.3-0.5l-1.8-0.1l-0.1,0c-0.5,0-0.8,0.1-1.2,0.4c-0.3,0.3-0.4,0.7-0.3,1.2c0.2,0.9,0.5,1.7,1,2.4
		c0.5,0.7,1.1,1.4,1.8,2c0.7,0.6,1.6,1.1,2.5,1.4c0.9,0.4,1.9,0.6,2.9,0.6c0.7,0,1.3,0.1,2,0.1c0.2,0,0.4,0,0.6,0
		c0.8,0,1.5-0.1,2.2-0.3c0.9-0.2,1.7-0.6,2.4-1.1c0.7-0.5,1.3-1.1,1.8-1.8c0.5-0.7,0.9-1.5,1.1-2.3c0.1-0.2,0.1-0.4,0.1-0.6
		c0-0.2,0.1-0.3,0.1-0.5c0-0.2,0.1-0.3,0.1-0.5v-1c0-0.2,0-0.3,0-0.5C238.9,44.1,238.9,43.9,238.9,43.7z M261.8,24.9
		c-0.4-1-1-1.9-1.8-2.7c-0.8-0.7-1.7-1.3-2.7-1.7c-0.8-0.3-1.7-0.5-2.6-0.5c-0.2,0-0.4,0-0.7,0c-0.7,0-1.3,0.1-2,0.1
		c-1.2,0.1-2.3,0.4-3.3,0.9c-1,0.5-1.9,1.2-2.6,2c-0.8,0.8-1.4,1.7-1.8,2.7c-0.4,1-0.7,2.1-0.7,3.2v16.4c0,1.1,0.2,2.2,0.7,3.2
		c0.4,1,1,1.9,1.8,2.7c0.8,0.8,1.6,1.5,2.6,2c1,0.5,2.1,0.8,3.3,0.9c0.7,0,1.3,0.1,2,0.1c0.2,0,0.5,0,0.7,0c0.9,0,1.8-0.2,2.6-0.5
		c1-0.4,1.9-0.9,2.7-1.7c0.8-0.7,1.4-1.6,1.8-2.7c0.4-1,0.7-2.2,0.7-3.4V28.3C262.4,27.1,262.2,25.9,261.8,24.9z M257,45.9
		c0,0.9-0.3,1.6-0.9,2.2c-0.5,0.5-1.2,0.8-2,0.8c-0.1,0-0.1,0-0.2,0l-2-0.1c-0.8,0-1.6-0.4-2.2-1c-0.6-0.6-0.9-1.3-0.9-2.2V28.8
		c0-0.9,0.3-1.6,0.9-2.2c0.6-0.6,1.3-1,2.2-1c0.7,0,1.3-0.1,2-0.1c0.1,0,0.1,0,0.2,0c0.8,0,1.4,0.3,2,0.8c0.6,0.6,0.9,1.3,0.9,2.2
		V45.9z"/>
</g>
</svg>
