<?xml version="1.0" encoding="utf-8"?>
<!-- Generator: Adobe Illustrator 23.1.1, SVG Export Plug-In . SVG Version: 6.00 Build 0)  -->
<svg version="1.1" id="Layer_1" xmlns="http://www.w3.org/2000/svg" xmlns:xlink="http://www.w3.org/1999/xlink" x="0px" y="0px"
	 viewBox="0 0 212.3 53.7" style="enable-background:new 0 0 212.3 53.7;" xml:space="preserve">
<style type="text/css">
	.st0{fill:#6E6E6E;}
	.st1{fill:#FAFAFC;}
</style>
<g>
	<g>
		<path class="st0" d="M41,27.5c-0.1-0.4-0.2-0.7-0.7-2.5l0,0c-0.1,0.5-0.2,0.9-0.4,1.4c0,0.1,0,0.1,0,0.2c0.1,0.3,0.4,1.4,0.4,1.6
			c0,0,0,0.1,0.1,0.1C40.5,28.1,41.1,27.9,41,27.5z"/>
		<g>
			<g>
				<g>
					<path class="st0" d="M197.3,13.1c0-0.2,0-0.5,0.1-0.7s0.2-0.4,0.4-0.6c0.2-0.2,0.3-0.3,0.6-0.4c0.2-0.1,0.4-0.1,0.7-0.1
						c0.2,0,0.5,0,0.7,0.1s0.4,0.2,0.6,0.4c0.2,0.2,0.3,0.3,0.4,0.6c0.1,0.2,0.1,0.4,0.1,0.7s0,0.5-0.1,0.7s-0.2,0.4-0.4,0.6
						c-0.2,0.2-0.3,0.3-0.6,0.4c-0.2,0.1-0.4,0.1-0.7,0.1c-0.2,0-0.5,0-0.7-0.1s-0.4-0.2-0.6-0.4c-0.2-0.2-0.3-0.3-0.4-0.6
						C197.3,13.6,197.3,13.3,197.3,13.1z M200.5,13.1c0-0.2,0-0.4-0.1-0.6c-0.1-0.2-0.2-0.3-0.3-0.5s-0.3-0.2-0.5-0.3
						s-0.4-0.1-0.6-0.1c-0.2,0-0.4,0-0.6,0.1c-0.2,0.1-0.3,0.2-0.5,0.3c-0.1,0.1-0.2,0.3-0.3,0.5s-0.1,0.4-0.1,0.6
						c0,0.2,0,0.4,0.1,0.6c0.1,0.2,0.2,0.3,0.3,0.5c0.1,0.1,0.3,0.2,0.5,0.3s0.4,0.1,0.6,0.1c0.2,0,0.4,0,0.6-0.1
						c0.2-0.1,0.3-0.2,0.5-0.3c0.1-0.1,0.2-0.3,0.3-0.5C200.5,13.5,200.5,13.3,200.5,13.1z M198.9,13.9
						C198.9,13.9,198.8,13.9,198.9,13.9C198.8,13.9,198.8,13.9,198.9,13.9l-0.2,0.1c0,0,0,0-0.1,0c0,0,0,0,0-0.1v-1.7c0,0,0,0,0-0.1
						c0,0,0,0,0.1,0h0.4c0.1,0,0.1,0,0.2,0c0.1,0,0.1,0.1,0.1,0.1l0.1,0.1c0,0.1,0,0.1,0,0.2v0.2c0,0.1,0,0.2-0.1,0.2
						c0,0.1-0.1,0.1-0.1,0.2c0,0,0,0,0,0.1c0,0,0,0,0,0.1l0.2,0.6c0,0,0,0,0,0.1c0,0,0,0-0.1,0h-0.1c0,0,0,0-0.1,0c0,0,0,0,0-0.1
						l-0.2-0.5c0,0,0,0,0-0.1c0,0,0,0-0.1,0c0,0,0,0-0.1,0c0,0,0,0,0,0.1v0.5H198.9z M198.9,12.4L198.9,12.4L198.9,12.4l-0.1,0.6
						c0,0,0,0,0,0.1c0,0,0,0,0.1,0h0.1c0,0,0.1,0,0.1-0.1c0,0,0.1,0,0.1-0.1v-0.1v-0.2c0,0,0-0.1-0.1-0.1l-0.1-0.1L198.9,12.4
						L198.9,12.4z"/>
				</g>
			</g>
			<path class="st0" d="M27.2,20.5l-1.5-0.1c-0.4,0-0.8-0.2-1.2-0.4c-0.3-0.2-0.7-0.5-0.9-0.7c-0.5-0.4-1-0.7-1.5-0.7h-0.5
				c-1,0-1.4,0.6-1.5,0.8v0.1h1.1c0.6,0,1.1,0.2,1.5,0.7c0.3,0.2,0.6,0.5,0.9,0.7c0.4,0.3,0.8,0.4,1.2,0.4l1.5,0.1c0,0,0,0,0.1,0
				c0.4,0,0.8-0.1,1-0.4c0.1-0.1,0.2-0.3,0.2-0.4l0,0C27.5,20.5,27.2,20.5,27.2,20.5z"/>
			<path class="st0" d="M20.2,41.2c-0.8,0-1.8-0.1-2.4-0.4c-0.8-0.3-1.5-0.8-2.1-1.4c-0.6-0.6-1-1.3-1.4-2.1s-0.5-1.9-0.5-2.9V20.5
				c0-0.6,0.1-1.5,0.2-2.4c0-0.2-0.2-0.3-0.3-0.1c-0.1,0.2-0.2,0.4-0.3,0.6c-0.4,0.8-0.5,1.8-0.5,2.8v13.9c0,1,0.2,1.9,0.5,2.8
				c0.4,0.8,0.8,1.6,1.5,2.2c0.6,0.6,1.3,1.1,2.1,1.4c0.7,0.3,1.5,0.4,2.3,0.4c0.2,0,0.3,0,0.5,0c2.3-0.2,2.8-0.4,3.4-0.7l0.2-0.1
				c0.3-0.1,0.5-0.3,0.8-0.4c0.1,0,0-0.1,0-0.1c-0.7,0.2-1.8,0.3-3.4,0.4C20.5,41.2,20.3,41.2,20.2,41.2z"/>
			<path class="st0" d="M47.1,39.4c-0.2,0-1.7,0.1-1.7,0.1c-1.2,0-1.6-0.9-1.7-1.3c-0.3-1.2-0.7-2.4-1-3.6l0,0
				c-0.1-0.5-0.6-0.9-1.2-0.7c-0.7,0.2-1.7,0.4-2,0.5c-0.4,0.1-0.7,0.2-0.9,0.4s-0.3,0.6-0.3,0.8c0,0,0,0.1,0.1,0.1
				c0.4-0.1,2.5-0.6,2.5-0.6s0.5-0.1,0.7,0s0.3,0.3,0.4,0.5c0.4,1.4,0.4,1.6,0.8,3c0.1,0.4,0.5,1.2,0.9,1.5c0.3,0.2,0.7,0.4,1.2,0.4
				s0.9-0.1,1.4-0.1c0.4,0,0.8-0.2,1-0.5c0.1-0.1,0.2-0.2,0.2-0.3c0,0,0-0.1,0,0C47.3,39.4,47.3,39.4,47.1,39.4z"/>
			<path class="st0" d="M61.6,24.7C61.6,24.7,61.7,24.7,61.6,24.7c0.4-0.7,2.1-4.7,3.3-7.6c0-0.1,0.1-0.1,0.1-0.2l0,0
				c-0.1,0-0.2,0.1-0.3,0.2c-0.4,0.2-0.6,0.5-0.8,0.8c-0.8,1.9-2.4,5.7-2.6,6.1v0.1L61.6,24.7z"/>
			<path class="st0" d="M53.5,39.2c-0.2,0-0.5,0-0.7-0.1c-0.5-0.2-0.8-0.7-0.8-1.3v-21c0-0.1,0-0.1,0-0.2l0,0
				c-0.1,0.1-0.3,0.1-0.4,0.2c-0.3,0.3-0.5,0.6-0.5,1v20.4c0,0.4,0.2,1,0.5,1.3c0.2,0.2,0.4,0.3,0.7,0.4c0.2,0.1,0.4,0.1,0.6,0.1
				c0.1,0,0.1,0,0.2,0c0.7,0,1.6,0,2.2-0.5c0.1-0.1,0.2-0.2,0.2-0.3v-0.1C54.7,39.2,53.7,39.2,53.5,39.2z"/>
			<path class="st0" d="M69,38.6c-0.4,0-0.9,0-1.3,0s-0.8,0-1.1-0.2c-0.4-0.2-0.6-0.7-0.6-1.2v-7.7c0,0,0,0-0.1,0
				c-0.3,0.6-0.5,1.3-0.8,1.9c0,0.1,0,0.1,0,0.2v6.1c0,0.4,0.1,0.9,0.4,1.2c0.4,0.5,1,0.5,1.6,0.5c0.3,0,0.7,0,1,0
				c0.4,0,0.8-0.2,1.1-0.4c0.1-0.1,0.2-0.2,0.3-0.4c0,0,0-0.1-0.1-0.1C69.3,38.5,69.1,38.6,69,38.6z"/>
			<path class="st0" d="M62.1,33.3H60c-0.6,0-1.5-0.2-2.1-1.6h-0.1V33c0,0.1,0.1,0.3,0.1,0.4c0.3,0.3,0.8,0.6,1.4,0.6h1.5
				c0.4,0,0.8-0.1,1.1-0.3c0.2-0.1,0.3-0.2,0.5-0.4l0,0C62.4,33.3,62.3,33.3,62.1,33.3z"/>
			<path class="st0" d="M83.9,24.1c0.2-0.3,0.3-0.6,0.3-0.9V22c0-0.4-0.2-0.8-0.6-1.1c-0.4-0.3-0.9-0.4-1.6-0.4c-0.3,0-0.8,0-0.8,0
				c-0.3,0-0.5,0-0.6,0.2c-0.2,0.1-0.2,0.2-0.2,0.4v0.2c0,0,0,0.1,0.1,0.1c0.3,0,1.8,0,1.9,0c0.8,0,1.1,0.7,1.1,1.1v2
				c0,0,0,0.1,0.1,0C83.6,24.3,83.8,24.2,83.9,24.1z"/>
			<path class="st0" d="M83.6,30.1c-1,0.3-1.3,0.3-2.4,0.6c-0.3,0.1-0.5,0.2-0.7,0.3c-0.2,0.2-0.2,0.4-0.2,0.5v0.3
				c0,0.1,0.1,0.1,0.1,0.1c0.6-0.1,1.2-0.4,1.8-0.6c1-0.3,2-0.7,2.8-1.2c0.4-0.3,0.8-0.5,1.1-0.8v-0.1
				C85.3,29.5,84.4,29.8,83.6,30.1z"/>
			<path class="st0" d="M78.3,38.3c-0.5,0-1.8,0-2.2,0h-0.2c-0.4,0-0.8-0.1-1-0.3c-0.3-0.3-0.4-0.6-0.4-1V17.2c0-0.1,0-0.1,0-0.2
				l0,0c-0.1,0-0.2,0.1-0.3,0.2c-0.3,0.3-0.5,0.6-0.5,1v19.6c0,0.4,0.2,0.7,0.5,1c0.3,0.2,0.8,0.5,1.2,0.5c0,0,0.7,0,0.8,0
				c0.5,0,0.8,0,1.3,0c0.4,0,0.8-0.1,1.1-0.4c0.2-0.1,0.3-0.3,0.4-0.5l0,0C78.7,38.3,78.5,38.3,78.3,38.3z"/>
			<path class="st0" d="M103.3,37.5c-0.8,0.3-2.5,0.4-3.4,0.4c-0.5,0-1.8,0-1.8,0c-0.9,0-1.8-0.1-2.5-0.4c-0.8-0.3-1.4-0.6-2-1.1
				s-1.1-1-1.5-1.7s-0.5-1.4-0.5-2.2V21.7c0-0.5,0.1-0.9,0.2-1.4l0,0c-0.2,0.2-0.3,0.5-0.5,0.7c-0.4,0.7-0.6,1.4-0.6,2.1v10.3
				c0,0.8,0.2,1.5,0.6,2.1s0.9,1.2,1.5,1.7s1.3,0.8,2.1,1.1c0.8,0.3,1.6,0.4,2.5,0.4c0,0,1.1,0,1.6,0c0.9,0,1.8-0.1,2.6-0.4
				C102.2,38.1,102.8,37.9,103.3,37.5L103.3,37.5z M99.1,21.6c0.6,0,1.2-0.1,1.7,0.3c0.4,0.3,0.4,0.6,0.4,1l-0.1,9.7l0,0
				c0.1,0,0.2-0.1,0.2-0.2c0.4-0.3,0.6-0.7,0.6-1.1v-9c0-0.4-0.1-0.8-0.5-1.1c-0.4-0.3-1-0.5-1.6-0.5h-0.6c-0.6,0-1.1,0.2-1.6,0.5
				c-0.1,0.1-0.2,0.2-0.3,0.3v0.1L99.1,21.6z"/>
			<path class="st0" d="M115.3,23.4c0,0.1,0,0.2,0.2,0.3c0.1,0,0.2,0,0.5-0.1c0.1,0,0.1-0.1,0.1-0.1V22c0-0.7,0.2-0.6,0.7-0.6l0,0
				c0.9,0,2.1,0,2.1,0c0.2,0,0.4,0,0.6,0.1c0,0,0.1,0,0.1-0.1c-0.3-0.6-1-0.8-1.7-0.8c-0.5,0-1.6,0-1.6,0c-0.9,0-0.9,0.7-0.9,0.8
				L115.3,23.4L115.3,23.4z"/>
			<path class="st0" d="M117.4,28.9c-0.4,0.1-0.5,0.2-0.9,0.3c-0.3,0.1-0.7,0.3-0.9,0.4c-0.2,0.2-0.2,0.4-0.2,0.5v2.3
				c0,0.1,0,0.2,0.2,0.4c0.2,0.1,0.3,0.1,0.5,0.1c0,0,0.1,0,0.1-0.1v-2c0-0.2,0.1-0.4,0.2-0.6c0.2-0.2,0.3-0.2,0.6-0.3
				c0.4-0.1,0.7-0.2,1.1-0.3c0.4-0.1,1.9-0.4,2.3-0.5c0.1,0,0.4,0,0.4,0l0,0l-0.2-0.2c-0.1-0.1-0.2-0.1-0.3-0.2
				c-0.1-0.1-0.3-0.2-0.5-0.2c-0.1,0-0.1,0-0.2,0c-0.3,0-0.6,0-0.9,0.1c-0.3,0-0.6,0.1-0.8,0.2L117.4,28.9z"/>
			<path class="st0" d="M127.3,30.4L127.3,30.4c0,0.1,0,0.1,0,0.1v0.1c0,0.1,0,0.2,0,0.4c0,0.1,0,0.3,0,0.4s0,0.3,0,0.4v0.1
				c-0.1,0.5-0.2,1-0.3,1.4c-0.1,0.3-0.2,0.6-0.3,0.8c-0.3,0.6-0.6,1.1-1,1.5c-0.5,0.5-1,0.9-1.6,1.3c-0.6,0.4-1.3,0.6-2.1,0.8l0,0
				c-0.3,0.1-0.8,0.2-1.3,0.2c-0.4,0-0.8,0-1.1,0h-0.1c-2.3,0-5.1,0-7.4-0.1c-0.2,0-0.4,0-0.6-0.1c0,0-0.1,0,0,0
				c0.1,0.2,0.2,0.4,0.4,0.5c0.3,0.2,0.7,0.3,1.1,0.4c2.3,0,4.5,0,6.8,0.1h0.1c0.3,0,0.7,0,1.1,0c0.5,0,0.9-0.1,1.3-0.2l0,0
				c0.7-0.2,1.4-0.5,2.1-0.8c0.6-0.4,1.2-0.8,1.6-1.3s0.8-1,1.1-1.7c0.3-0.6,0.4-1.3,0.4-2c0-0.4,0-0.9,0-1.3c0-0.2,0-0.2-0.1-0.4
				c0-0.1-0.1-0.3-0.1-0.4S127.3,30.5,127.3,30.4C127.3,30.5,127.3,30.5,127.3,30.4L127.3,30.4z"/>
			<path class="st0" d="M125.3,25.4L125.3,25.4c0.2-0.2,0.3-0.5,0.4-0.7c0.2-0.5,0.3-1,0.3-1.6v-0.4c0-0.1,0-0.2,0-0.2
				c0-0.2,0-0.4-0.1-0.5c0-0.1,0-0.2-0.1-0.3v-0.1c0,0,0,0,0,0.1v0.1v0.1c0,0.6-0.2,1.6-0.4,2.1c-0.2,0.5-0.5,0.8-0.4,1.1
				C125,25.1,125.1,25.3,125.3,25.4z"/>
			<path class="st0" d="M138.4,33.2c-0.1-0.1-0.2-0.1-0.4-0.1c-0.1,0-0.2,0-0.4,0.1c-0.7,0.1-1,0.2-2.3,0.3l0,0
				c-0.3,0-0.5,0.1-0.8,0.3c-0.2,0.2-0.4,0.3-0.4,0.5c-0.2,0.5-0.3,0.8-0.4,1.4l-0.3,1.1c-0.1,0.4-0.3,0.9-0.7,1.1
				c-0.3,0.2-0.7,0.3-1.1,0.3c0,0-1.9,0-2.3,0c0,0-0.1,0,0,0.1s0.1,0.3,0.2,0.4c0.3,0.3,0.6,0.4,1,0.4c0.5,0,1.5,0,1.5,0
				c0.4,0,0.8-0.1,1.1-0.3c0.4-0.2,0.7-0.7,0.8-1l0.3-0.9c0.1-0.5,0.3-1,0.4-1.6c0.1-0.2,0.2-0.5,0.4-0.6c0.2-0.2,0.5-0.2,0.8-0.2
				l0,0c1-0.1,1.9-0.3,2.7-0.5c0.1,0,0.1-0.1,0.1-0.1c0-0.1,0-0.1,0-0.2C138.7,33.4,138.6,33.3,138.4,33.2z"/>
			<path class="st0" d="M136.1,27.9c0.1,0.1,0.2,0,0.3,0s0.3,0,0.3-0.1c0,0,0.1,0,0.1-0.1c0-0.2,0.2-0.7,0.3-1c0-0.1,0-0.1,0-0.2
				c-0.1-0.5-0.2-0.9-0.4-1.4l0,0c-0.5,1.8-0.1,0.4-0.7,2.4C136,27.8,136,27.8,136.1,27.9z"/>
			<path class="st0" d="M146.8,37.3c-0.3-1.5-3.3-12.2-5.1-18.6c-0.1-0.4-0.4-0.9-0.8-1.1c-0.1-0.1-0.2-0.1-0.3-0.2
				c0,0-0.1,0-0.1,0.1c1.8,6.3,3.7,13.2,5.4,19.6c0.1,0.6-0.1,0.9-0.3,1.1c-0.3,0.3-0.6,0.4-1.1,0.4l0,0h-0.1c-0.6,0-1.5,0-2,0
				c-0.2,0-0.4,0-0.6-0.1c-0.1,0-0.1,0.1-0.1,0.1c0.1,0.2,0.3,0.3,0.5,0.4c0.4,0.2,0.8,0.4,1.2,0.4c0.6,0,1.2,0.1,1.7,0
				C146.5,39.3,147,38.2,146.8,37.3z"/>
			<g>
				<path class="st0" d="M152.9,22.8c0-0.1,0-0.1,0-0.2c0-0.5,0-1.2,0.4-1.6s0.9-0.5,1.5-0.5c1,0,1.7,0.1,2.1,0.2l0,0
					c-0.2-0.3-0.3-0.5-0.7-0.6c-0.3-0.2-0.7-0.2-1-0.2h-0.8c-0.6,0-1.1,0.2-1.6,0.6c-0.6,0.6-0.6,1.4-0.4,1.7
					C152.5,22.4,152.7,22.6,152.9,22.8L152.9,22.8z"/>
				<path class="st0" d="M154.4,30c0.6,0.2,1.1,0.5,1.6,0.7c0.1,0.1,0.2,0.1,0.4,0.1l0,0c-0.3-0.5-0.7-0.9-1-1
					c-0.5-0.3-1.1-0.5-1.6-0.7c-0.6-0.2-1.3-0.5-1.9-0.9c-0.5-0.3-1.5-0.7-2.1-1.2l0,0c0.2,0.3,0.5,0.6,0.8,0.8
					c0.6,0.5,1.2,0.9,1.9,1.3C153.1,29.5,153.8,29.7,154.4,30z"/>
				<path class="st0" d="M159.2,22.7c0.3,0.3,0.6,0.4,1,0.4c0,0,0,0,0.1,0h1.3c0.4,0,0.8-0.2,1-0.5c0.3-0.3,0.4-0.7,0.3-1.2
					c-0.1-0.3-0.1-0.6-0.2-0.9l0,0c-0.1,0.5-0.3,1.1-0.5,1.3c-0.3,0.3-0.7,0.4-1.1,0.4h-1.3c0,0-0.6,0-0.8,0l0,0
					C159,22.4,159.1,22.5,159.2,22.7z"/>
				<path class="st0" d="M162.4,30.2L162.4,30.2c0.1,0.6,0.3,1.2,0.3,1.7c0.1,0.9,0,2-0.2,2.9c-0.2,0.6-0.5,1.2-0.9,1.8
					c-0.4,0.5-0.9,1-1.5,1.4s-1.2,0.7-1.9,0.8c-0.6,0.1-1.2,0.2-1.8,0.2c-0.3,0-4.1-0.3-5-0.6c-0.2-0.1-0.5-0.2-0.7-0.3l0,0
					c0.6,0.4,1.2,0.8,2,1.1c0.9,0.3,3.3,0.5,3.6,0.5c0.2,0,0.5,0,0.7,0c0.6,0,1.2-0.1,1.8-0.2c0.7-0.2,1.4-0.5,1.9-0.8
					c0.6-0.4,1.1-0.8,1.5-1.4c0-0.1,0.1-0.1,0.1-0.2C163.8,35.2,163.6,32.3,162.4,30.2z"/>
			</g>
			<g>
				<path class="st0" d="M171.5,22.4c0-0.1,0-0.1,0-0.2c0-0.5,0-1.2,0.4-1.6s0.9-0.5,1.5-0.5c1,0,1.7,0.1,2,0.2l0,0
					c-0.2-0.3-0.3-0.5-0.6-0.6c-0.3-0.2-0.6-0.2-1-0.2H173c-0.6,0-1.1,0.2-1.5,0.6c-0.6,0.6-0.5,1.4-0.4,1.7
					C171.1,22,171.3,22.2,171.5,22.4L171.5,22.4z"/>
				<path class="st0" d="M172.8,30.3c0.6,0.3,1.2,0.5,1.7,0.8c0.1,0.1,0.3,0.1,0.4,0.1c0,0,0,0,0-0.1c-0.4-0.5-0.8-1-1-1.1
					c-0.5-0.3-1.1-0.5-1.7-0.8c-0.6-0.3-1.3-0.6-2-0.9c-0.6-0.3-1.5-0.8-2.2-1.2l0,0c0.3,0.3,0.5,0.6,0.9,0.9c0.6,0.5,1.3,1,2,1.3
					C171.4,29.7,172.1,30,172.8,30.3z"/>
				<path class="st0" d="M177.7,22.2c0.3,0.3,0.6,0.4,1,0.4c0,0,0,0,0.1,0h1.3c0.4,0,0.8-0.2,1-0.5c0.3-0.3,0.4-0.8,0.3-1.3
					c-0.1-0.3-0.1-0.6-0.2-1l0,0c-0.1,0.5-0.3,1.2-0.5,1.4c-0.3,0.3-0.7,0.4-1.1,0.4h-1.3c0,0-0.6,0-0.8,0c0,0,0,0,0,0.1
					C177.4,21.9,177.6,22,177.7,22.2z"/>
				<path class="st0" d="M180.9,30.6C180.9,30.5,180.8,30.6,180.9,30.6c0.1,0.7,0.3,1.3,0.3,1.9c0.1,1,0,2.1-0.2,3.1
					c-0.2,0.7-0.5,1.3-0.9,1.9c-0.4,0.6-0.9,1.1-1.5,1.5s-1.2,0.7-2,0.9c-0.6,0.2-1.2,0.2-1.8,0.2c-0.3,0-4.1-0.3-5-0.6
					c-0.2-0.1-0.5-0.2-0.7-0.3l0,0c0.6,0.5,1.2,0.8,2,1.1c0.9,0.3,3.4,0.6,3.6,0.6c0.2,0,0.5,0,0.7,0c0.6,0,1.2-0.1,1.8-0.2
					c0.7-0.2,1.4-0.5,2-0.9s1.1-0.9,1.5-1.5c0-0.1,0.1-0.1,0.1-0.2C182.2,35.9,182.1,32.8,180.9,30.6z"/>
			</g>
			<path class="st0" d="M189.7,21.4c0-0.6,0.2-1.1,0.6-1.6c0.5-0.6,2-0.6,3.2-0.3c0,0,0.1,0,0-0.1c-0.1-0.2-0.2-0.4-0.4-0.5
				c-0.4-0.4-1.5-0.3-2-0.3c-0.6,0.1-1.1,0.3-1.5,0.8s-0.6,1-0.6,1.6v12c0,0.5,0.2,1.1,0.5,1.5h0.1L189.7,21.4L189.7,21.4z"/>
			<path class="st0" d="M200,18.4c-0.1-0.4-0.4-0.7-0.6-1h-0.1c0.2,0.7,0.4,1.5,0.4,2.4v13.9c0,1-0.2,2.7-0.5,3.6
				c-0.4,0.8-0.8,1.6-1.5,2.2c-0.6,0.6-1.3,1.1-2.1,1.4c-0.6,0.2-1.3,0.4-2.1,0.4c-0.2,0-0.9,0-3.2-0.2c-0.6-0.1-1.1-0.2-1.7-0.3
				l0,0c0.3,0.2,0.5,0.3,0.8,0.5c0.8,0.4,1.7,0.6,2.6,0.7c1,0.1,1.9,0.1,2.1,0.1c0.7,0,1.4-0.1,2.1-0.4c0.8-0.3,1.5-0.8,2.1-1.4
				c0.6-0.6,1.1-1.2,1.5-2.1c0.4-0.8,0.7-2.7,0.7-4.3s0-12.6,0-12.6C200.6,20.2,200.4,19.2,200,18.4z"/>
			<path class="st0" d="M31.6,41.1c0.5,0,1,0,1.6,0c0.4,0,0.8-0.1,1.1-0.4c0.2-0.1,0.3-0.3,0.4-0.4c0-0.1,0-0.2-0.1-0.1
				c-0.2,0.1-0.4,0.1-0.6,0.1c-0.5,0-1.3,0-1.8,0c0,0,0,0-0.1,0l0,0c-0.4,0-0.6-0.1-0.8-0.4c-0.2-0.2-0.4-0.6-0.3-1.2
				c1.6-6.9,3.4-15,5.3-22.9c0,0,0-0.1-0.1-0.1c-0.1,0.1-0.2,0.1-0.3,0.2c-0.4,0.3-0.7,1-0.8,1.5c-1.9,7.9-4.8,20-5.1,21.6
				C30,39.8,30.5,41,31.6,41.1z"/>
		</g>
	</g>
	<path class="st1" d="M27.9,33.5C27.9,33.5,27.8,33.5,27.9,33.5l-1.5,0.1c-0.4,0-0.7,0.2-1.1,0.4c-0.3,0.3-0.6,0.5-0.8,0.8
		c-0.2,0.3-0.5,0.5-0.8,0.7s-0.7,0.3-1.1,0.3l-1.5,0.1H21c-0.6,0-1.1-0.2-1.5-0.6c-0.5-0.5-0.7-1-0.7-1.7V19.9
		c0-0.7,0.2-1.3,0.7-1.7c0.4-0.4,0.9-0.6,1.5-0.6h0.1l1.5,0.1c0.6,0,1.2,0.3,1.6,0.7c0.3,0.2,0.6,0.5,0.9,0.7
		c0.4,0.3,0.7,0.4,1.1,0.4l1.5,0.1c0,0,0,0,0.1,0c0.4,0,0.6-0.1,0.9-0.4c0.2-0.3,0.3-0.6,0.1-1c-0.2-0.6-0.5-1.2-1-1.8
		c-0.4-0.6-0.9-1.1-1.4-1.5s-1.2-0.8-1.8-1.1c-0.7-0.3-1.4-0.4-2.1-0.5c-0.5,0-1-0.1-1.5-0.1c-0.2,0-0.4,0-0.5,0
		c-0.7,0-1.4,0.1-2,0.4c-0.8,0.3-1.5,0.7-2.1,1.3S15.3,16.2,15,17c-0.3,0.8-0.5,1.7-0.5,2.7v14c0,1,0.2,1.9,0.5,2.7s0.8,1.5,1.4,2.1
		c0.6,0.6,1.3,1,2.1,1.3c0.7,0.2,1.5,0.4,2.2,0.4c0.2,0,0.3,0,0.5,0c2.3-0.2,2.7-0.4,3.3-0.6l0.2-0.1c0.7-0.3,1.3-0.7,1.9-1.1
		c0.6-0.5,1-1,1.4-1.6s0.7-1.3,0.9-2c0.1-0.4,0-0.7-0.2-1C28.5,33.6,28.2,33.5,27.9,33.5z M43.5,15.7c-0.1-0.3-0.3-0.7-0.6-0.9
		c-0.3-0.3-0.7-0.4-1-0.4c-1-0.1-1.9-0.1-2.9-0.2h-0.1c-0.3,0-0.7,0.1-0.9,0.3c-0.3,0.2-0.5,0.5-0.6,0.9c-1.8,7.5-3.5,15.1-5.2,22.7
		c-0.1,0.4,0,0.7,0.2,1c0.2,0.2,0.5,0.3,0.8,0.3h0.1c0.5,0,1.1-0.1,1.6-0.1c0.4,0,0.7-0.2,1-0.4c0.3-0.3,0.5-0.6,0.6-0.9
		c0.2-1.1,0.5-2.1,0.7-3.2c0.1-0.3,0.2-0.6,0.5-0.8s0.5-0.4,0.9-0.4h0.1c1.4-0.2,2.4-0.5,3.4-0.8c0.2-0.1,0.3-0.1,0.4-0.1
		c0.1,0,0.3,0,0.4,0.1c0.2,0.1,0.4,0.3,0.5,0.6c0.3,1.4,0.7,2.8,1,4.2c0.1,0.3,0.3,0.6,0.6,0.8s0.6,0.3,0.9,0.3H46
		c0.5,0,1.1-0.1,1.6-0.1c0.4,0,0.7-0.2,0.9-0.4c0.2-0.3,0.3-0.6,0.2-0.9C47,30.1,45.2,22.9,43.5,15.7z M41.9,28.2
		c-0.1,0.3-0.4,0.5-0.7,0.6S40.6,29,40.3,29c-0.3,0.1-0.6,0.1-0.9,0.2c-0.1,0-0.2,0-0.3,0c-0.2,0-0.3-0.1-0.4-0.2
		c-0.2-0.2-0.2-0.4-0.1-0.6c0.6-2.3,1.1-4.7,1.7-7.1c0.1-0.2,0.1-0.3,0.1-0.4c0,0,0.1,0.1,0.1,0.4l0,0l0,0c0.5,2,0.9,4,1.4,6
		C42.1,27.7,42.1,28,41.9,28.2z M70.5,16.1c-0.3-0.2-0.6-0.3-1-0.4c-0.7,0-1.4,0-2-0.1c0,0,0,0-0.1,0c-0.3,0-0.6,0.1-1,0.3
		c-0.3,0.2-0.6,0.4-0.7,0.7c-1.3,3.1-2.6,6.3-3.9,9.3c-0.1,0.2-0.2,0.3-0.3,0.3s-0.2-0.1-0.3-0.3c-1.3-3.2-2.6-6.5-3.9-9.7
		c-0.1-0.3-0.4-0.6-0.7-0.8s-0.7-0.3-1.1-0.4c-0.5,0-1,0-1.4-0.1H54c-0.3,0-0.6,0.1-0.9,0.3c-0.3,0.2-0.4,0.5-0.4,0.9V37
		c0,0.3,0.1,0.6,0.4,0.9c0.3,0.2,0.6,0.3,0.9,0.3h0.1l1.4-0.1c0.4,0,0.7-0.2,1-0.4c0.3-0.3,0.4-0.5,0.4-0.9V26.7c0-0.2,0-0.3,0-0.3
		s0.1,0.1,0.2,0.3c0.6,1.5,1.2,3,1.8,4.6c0,0,0,0,0.1,0.1c0.1,0.3,0.4,0.6,0.7,0.7c0.3,0.2,0.6,0.3,1,0.3h1.8c0.4,0,0.7-0.1,1-0.3
		c0.3-0.2,0.5-0.4,0.7-0.8c0,0,0,0,0-0.1l0,0c0.8-1.9,1.6-3.8,2.4-5.7c0.1-0.1,0.1-0.2,0.1-0.3c0,0.1,0,0.1,0,0.3v11.1
		c0,0.3,0.1,0.6,0.4,0.8c0.2,0.2,0.5,0.3,0.9,0.3c0,0,0,0,0.1,0c0.5,0,1,0,1.5-0.1c0.4,0,0.7-0.1,1-0.4c0.3-0.2,0.4-0.5,0.4-0.8
		V16.9C70.9,16.6,70.8,16.3,70.5,16.1z M87.4,17.7c-0.6-0.5-1.3-0.9-2-1.2c-0.8-0.3-1.6-0.5-2.5-0.5c-2.1,0-4.2-0.1-6.2-0.2h-0.1
		c-0.4,0-0.7,0.1-0.9,0.3c-0.3,0.2-0.4,0.5-0.4,0.8v19.4c0,0.3,0.1,0.6,0.4,0.8c0.2,0.2,0.6,0.3,0.9,0.3h0.1c0.5,0,1,0,1.4,0
		s0.7-0.1,1-0.3s0.4-0.5,0.4-0.8v-5.2c0-0.2,0.1-0.5,0.3-0.7c0.2-0.2,0.5-0.3,0.8-0.4c1-0.2,2.1-0.4,3.1-0.7c1-0.3,1.9-0.7,2.8-1.2
		c0.8-0.5,1.5-1.1,2-1.9c0.5-0.7,0.8-1.6,0.8-2.6v-2.2c0-0.7-0.2-1.4-0.5-2C88.4,18.8,88,18.2,87.4,17.7z M85,23.5
		c0,0.4-0.1,0.8-0.4,1.1c-0.3,0.3-0.6,0.6-1,0.8c-0.4,0.2-0.9,0.4-1.4,0.6c-0.6,0.2-1.1,0.3-1.6,0.4c-0.1,0-0.2,0-0.3,0
		c-0.2,0-0.4-0.1-0.5-0.2c-0.2-0.1-0.3-0.3-0.3-0.6V20c0-0.2,0.1-0.4,0.3-0.6c0.2-0.2,0.5-0.2,0.8-0.2v-0.1l0,0v0.1h0.1
		c0.3,0,0.7,0,1,0s0.7,0,1,0c0.7,0,1.2,0.2,1.7,0.6s0.7,0.8,0.7,1.3L85,23.5L85,23.5z M105.1,18.1c-0.6-0.5-1.3-0.8-2.1-1.1
		c-0.8-0.3-1.6-0.4-2.6-0.4c-0.5,0-1.6,0-1.6,0c-0.9,0-1.7,0.1-2.5,0.4s-1.5,0.6-2.1,1.1s-1.1,1-1.4,1.6s-0.5,1.3-0.5,2V32
		c0,0.7,0.2,1.4,0.5,2s0.8,1.2,1.4,1.6c0.6,0.5,1.3,0.8,2.1,1.1c0.8,0.3,1.6,0.4,2.5,0.4c0,0,1.1,0,1.6,0c0.9,0,1.8-0.1,2.6-0.4
		c0.8-0.3,1.5-0.6,2.1-1.1s1.1-1,1.4-1.6s0.5-1.3,0.5-2V21.7c0-0.7-0.2-1.4-0.5-2C106.1,19.1,105.7,18.5,105.1,18.1z M102.8,32
		c0,0.5-0.2,0.9-0.7,1.3c-0.5,0.4-1,0.5-1.7,0.5c-0.5,0-1.6,0-1.6,0c-0.7,0-1.2-0.2-1.7-0.5c-0.5-0.4-0.7-0.8-0.7-1.3V21.7
		c0-0.5,0.2-0.9,0.7-1.3s1-0.5,1.7-0.5h1.6c0.7,0,1.2,0.2,1.7,0.6s0.7,0.8,0.7,1.3V32z M123.8,25.6c-0.2-0.2-0.4-0.4-0.4-0.6
		s0-0.4,0.2-0.6c0.3-0.4,0.6-0.8,0.7-1.3c0.2-0.4,0.3-0.9,0.3-1.5v-0.4c0-0.7-0.2-1.3-0.5-2c-0.3-0.6-0.8-1.1-1.4-1.6
		c-0.6-0.4-1.2-0.8-2-1c-0.7-0.2-1.5-0.4-2.4-0.4h-0.1c-2.2,0-4.4,0-6.6,0c-0.4,0-0.7,0.1-1,0.3c-0.3,0.2-0.4,0.5-0.4,0.8V36
		c0,0.3,0.1,0.6,0.4,0.8s0.6,0.3,1,0.3c2.3,0,4.6,0,6.8,0.1h0.1c0.3,0,0.7,0,1.1,0c0.5,0,0.9-0.1,1.2-0.2l0,0c0.7-0.2,1.4-0.5,2-0.8
		c0.6-0.4,1.2-0.8,1.6-1.3c0.4-0.4,0.8-1,1-1.6c0.3-0.6,0.4-1.2,0.4-1.9V30c0-0.9-0.2-1.7-0.6-2.4C125.1,26.8,124.5,26.2,123.8,25.6
		z M114.5,20.5c0-0.2,0.1-0.4,0.3-0.6c0.2-0.2,0.5-0.3,0.8-0.3l0,0v-0.1v0.1l0,0c0.9,0,1.8,0,2.6,0l0,0c0.6,0,1.1,0.2,1.5,0.5
		s0.6,0.7,0.6,1.1v0.4c0,0.4-0.1,0.7-0.4,1s-0.6,0.6-1.1,0.9c-0.4,0.3-1,0.5-1.5,0.7c-0.6,0.2-1.2,0.4-1.8,0.5
		c-0.1,0-0.3,0.1-0.4,0.1s-0.3,0-0.4-0.1c-0.2-0.1-0.3-0.3-0.3-0.5v-3.7H114.5z M121.9,31.3c0,0.3-0.1,0.7-0.3,1
		c-0.2,0.3-0.4,0.6-0.7,0.8c-0.3,0.2-0.7,0.4-1.1,0.6c-0.4,0.1-0.8,0.2-1.3,0.2l0,0c-1,0-1.9,0-2.9,0c-0.3,0-0.6-0.1-0.8-0.3
		c-0.2-0.2-0.3-0.4-0.3-0.6v-3.6c0-0.2,0.1-0.5,0.3-0.7c0.2-0.2,0.5-0.3,0.8-0.4c0.4-0.1,0.8-0.2,1.1-0.3c0.4-0.1,0.8-0.2,1.1-0.3
		c0.3-0.1,0.7-0.2,1.2-0.2c0.1,0,0.2,0,0.3,0c0.3,0,0.5,0,0.7,0.1l0.1,0.1c0.5,0.2,0.9,0.5,1.2,0.9c0.3,0.4,0.5,0.8,0.5,1.3v1.4
		H121.9z M139.6,16.9c-0.1-0.3-0.3-0.6-0.6-0.8c-0.3-0.2-0.6-0.3-1-0.3h-0.1c-1,0-2,0.1-2.9,0.1c-0.4,0-0.7,0.1-1,0.3
		s-0.5,0.5-0.6,0.8c-1.7,6.1-3.4,12.3-5.3,19c-0.1,0.3,0,0.6,0.2,0.8s0.5,0.3,0.9,0.3c0.5,0,1.7,0,1.7,0c0.4,0,0.7-0.1,1-0.3
		s0.5-0.5,0.6-0.8l0.3-1.1c0.1-0.5,0.3-1,0.4-1.5c0.1-0.2,0.2-0.5,0.5-0.7s0.5-0.3,0.9-0.3h0.1c1.3-0.1,2.5-0.3,3.5-0.6
		c0.1,0,0.3-0.1,0.4-0.1c0.2,0,0.3,0,0.4,0.1c0.2,0.1,0.4,0.3,0.5,0.5c0.4,1.3,0.7,2.6,1.1,3.8c0.1,0.3,0.3,0.6,0.6,0.8
		s0.7,0.3,1,0.3c0.5,0,1.1,0,1.6,0.1c0,0,0,0,0.1,0l0,0c0.4,0,0.6-0.1,0.8-0.3s0.3-0.5,0.2-0.8C143.2,30.1,141.4,23.5,139.6,16.9z
		 M138,28c-0.1,0.2-0.4,0.4-0.7,0.5s-0.6,0.1-0.9,0.2c-0.3,0.1-0.6,0.1-0.9,0.2c-0.1,0-0.2,0-0.2,0l0,0c-0.2,0-0.3,0-0.5-0.1
		c-0.1-0.1-0.2-0.3-0.1-0.5c0.6-2,1.1-4.1,1.7-6.2c0.1-0.2,0.1-0.3,0.1-0.3s0.1,0.1,0.1,0.3l0,0l0,0c0.5,1.7,1,3.5,1.4,5.2
		C138.2,27.6,138.2,27.8,138,28z M161.8,31.4c-0.2-1.1-0.5-2-1-2.7s-1-1.4-1.7-1.9c-0.6-0.5-1.3-0.9-2-1.3c-0.7-0.3-1.4-0.6-2-0.9
		c-0.6-0.2-1.2-0.5-1.7-0.7s-0.8-0.5-1.2-0.7c-0.3-0.2-0.5-0.5-0.7-0.8c-0.1-0.3-0.2-0.7-0.2-1.2c0-0.6,0.2-1,0.7-1.4s1-0.6,1.7-0.6
		h1.5h0.1c0.4,0,0.8,0.1,1.2,0.3c0.4,0.2,0.6,0.4,0.8,0.8c0.2,0.3,0.4,0.5,0.7,0.7s0.6,0.3,0.9,0.3h1.5c0.4,0,0.7-0.1,0.9-0.4
		c0.3-0.2,0.3-0.6,0.3-0.9c-0.2-0.7-0.4-1.3-0.8-1.8c-0.4-0.5-0.9-1-1.4-1.4c-0.6-0.4-1.2-0.7-2-0.9c-0.6-0.2-1.3-0.3-1.9-0.3
		c-0.1,0-0.2,0-0.3,0c-0.5,0-1,0-1.5,0.1c-0.9,0-1.8,0.2-2.6,0.5c-0.8,0.3-1.5,0.7-2.1,1.3c-0.6,0.5-1.1,1.1-1.4,1.8
		c-0.3,0.7-0.5,1.4-0.5,2.2c0,1,0.2,1.9,0.6,2.7c0.4,0.7,0.9,1.3,1.5,1.8s1.3,0.9,2,1.3c0.7,0.3,1.4,0.6,2,0.9s1.2,0.5,1.8,0.8
		c0.5,0.3,1,0.6,1.4,0.9s0.7,0.7,0.9,1.2s0.4,1.1,0.4,1.7c0,0.5-0.3,1-0.7,1.4s-0.9,0.5-1.5,0.5h-0.1l-1.7-0.1
		c-0.5,0-0.9-0.1-1.3-0.3c-0.4-0.2-0.6-0.5-0.8-0.8s-0.4-0.5-0.7-0.7s-0.6-0.4-1-0.4h-1.5c-0.4,0-0.7,0.1-0.9,0.3
		c-0.3,0.2-0.4,0.5-0.3,0.9c0.2,0.6,0.4,1.2,0.8,1.8c0.4,0.5,0.9,1,1.4,1.5c0.6,0.4,1.2,0.8,1.9,1c0.7,0.3,1.5,0.4,2.3,0.4
		c0.5,0,1,0,1.5,0.1c0.1,0,0.2,0,0.4,0c0.6,0,1.2-0.1,1.8-0.2c0.7-0.2,1.3-0.5,1.9-0.8c0.6-0.4,1-0.8,1.4-1.3s0.7-1.1,0.9-1.7
		c0.1-0.2,0.1-0.3,0.1-0.4c0-0.1,0-0.2,0.1-0.3c0-0.1,0-0.2,0-0.4v-0.7c0-0.1,0-0.2,0-0.4C161.8,31.7,161.8,31.6,161.8,31.4z
		 M180.3,31.9c-0.2-1.2-0.5-2.2-1-3s-1-1.5-1.7-2c-0.6-0.5-1.3-1-2-1.4s-1.4-0.7-2-1s-1.2-0.5-1.7-0.8c-0.5-0.2-0.8-0.5-1.2-0.8
		c-0.3-0.3-0.5-0.6-0.7-0.9c-0.1-0.3-0.2-0.8-0.2-1.3c0-0.6,0.2-1.1,0.7-1.6c0.5-0.4,1-0.7,1.7-0.7l1.5-0.1h0.1
		c0.4,0,0.8,0.1,1.1,0.3c0.4,0.2,0.6,0.5,0.8,0.8s0.4,0.6,0.7,0.8c0.3,0.2,0.6,0.4,0.9,0.4h0.1h1.4c0.4,0,0.7-0.2,1-0.4
		c0.3-0.3,0.3-0.6,0.3-1c-0.2-0.7-0.4-1.4-0.8-2c-0.4-0.6-0.9-1.1-1.4-1.5c-0.6-0.4-1.2-0.7-2-1c-0.6-0.2-1.2-0.3-1.8-0.3
		c-0.1,0-0.3,0-0.4,0c-0.5,0-1,0.1-1.5,0.1c-0.9,0.1-1.8,0.3-2.6,0.6c-0.8,0.4-1.5,0.8-2.1,1.4s-1.1,1.2-1.4,1.9
		c-0.3,0.7-0.5,1.5-0.5,2.3c0,1.1,0.2,2.1,0.6,2.8c0.4,0.8,0.9,1.4,1.5,2c0.6,0.5,1.3,1,2,1.4s1.4,0.7,2,1s1.2,0.6,1.8,0.8
		c0.5,0.3,1,0.6,1.4,1s0.7,0.8,0.9,1.3s0.4,1.2,0.4,1.9c0,0.6-0.3,1.1-0.7,1.5S174.6,35,174,35h-0.1c-0.5,0-1.6-0.1-1.6-0.1
		c-0.5,0-0.9-0.1-1.3-0.4c-0.4-0.2-0.6-0.5-0.8-0.9c-0.2-0.3-0.4-0.6-0.7-0.8c-0.3-0.3-0.6-0.4-1-0.4h-1.4H167
		c-0.4,0-0.7,0.1-0.9,0.3c-0.3,0.2-0.3,0.5-0.3,0.9c0.2,0.7,0.4,1.3,0.8,1.9c0.4,0.6,0.9,1.1,1.4,1.6c0.6,0.5,1.2,0.8,1.9,1.1
		s1.5,0.5,2.3,0.5c0.5,0,1,0.1,1.5,0.1c0.2,0,0.3,0,0.5,0c0.6,0,1.2-0.1,1.7-0.2c0.7-0.2,1.3-0.5,1.9-0.9c0.6-0.4,1-0.9,1.4-1.4
		c0.4-0.6,0.7-1.2,0.9-1.8c0.1-0.2,0.1-0.3,0.1-0.5c0-0.1,0-0.3,0.1-0.4c0-0.1,0-0.3,0-0.4v-0.8C180.3,32.3,180.3,32.1,180.3,31.9
		C180.4,32.3,180.4,32.1,180.3,31.9z M198.3,17.2c-0.3-0.8-0.8-1.5-1.4-2.1c-0.6-0.6-1.3-1-2.1-1.3c-0.6-0.2-1.3-0.4-2-0.4
		c-0.2,0-0.3,0-0.5,0c-0.5,0-1,0.1-1.5,0.1c-0.9,0.1-1.8,0.3-2.6,0.7s-1.5,0.9-2.1,1.5s-1.1,1.3-1.4,2.1c-0.3,0.8-0.5,1.6-0.5,2.5
		v12.8c0,0.9,0.2,1.7,0.5,2.5s0.8,1.5,1.4,2.1c0.6,0.6,1.3,1.1,2.1,1.5s1.7,0.6,2.6,0.7c0.5,0,1,0.1,1.5,0.1c0.2,0,0.4,0,0.5,0
		c0.7,0,1.4-0.1,2-0.4c0.8-0.3,1.5-0.7,2.1-1.3s1.1-1.3,1.4-2.1c0.3-0.8,0.5-1.7,0.5-2.7V19.9C198.8,18.9,198.6,18,198.3,17.2z
		 M194.6,33.7c0,0.7-0.2,1.3-0.7,1.7c-0.4,0.4-0.9,0.6-1.5,0.6h-0.1l-1.5-0.1c-0.7,0-1.2-0.3-1.7-0.8s-0.7-1.1-0.7-1.7V20.2
		c0-0.7,0.2-1.2,0.7-1.7s1-0.8,1.7-0.8c0.5,0,1-0.1,1.5-0.1h0.1c0.6,0,1.1,0.2,1.5,0.6c0.5,0.5,0.7,1,0.7,1.7V33.7z"/>
</g>
</svg>
